<?xml version="1.0" encoding="UTF-8" standalone="no"?>
<svg
   width="320"
   height="320"
   viewBox="0 0 320 320"
   version="1.1"
   xmlns="http://www.w3.org/2000/svg">
  <circle
     style="fill:#d35f5f;fill-opacity:1;stroke-width:5.98411;stroke-linecap:round;stroke-linejoin:round"
     id="path1556"
     cx="160"
     cy="160"
     r="160" />
  <path
     style="fill:#000080;stroke:#000000;stroke-width:1px;stroke-linecap:butt;stroke-linejoin:miter;stroke-opacity:1"
     d="m 19.669279,179.58493 c 4.97659,-4.16427 9.765372,-8.49047 14.448871,-13.17397 4.103078,-4.10308 8.69966,-8.6435 12.324037,-13.17397 2.411958,-3.01495 4.30534,-6.40166 6.799469,-9.34927 0.647012,-0.76465 1.483589,-1.35534 2.124834,-2.12483 0.780107,-0.93613 1.263176,-2.11311 2.124834,-2.97477 0.584061,-0.58406 1.472839,-0.76779 2.124834,-1.2749 1.106923,-0.86094 1.833653,-2.15969 2.974767,-2.97477 1.031005,-0.73643 2.325315,-1.02835 3.399735,-1.69986 2.001176,-1.25074 3.860148,-2.68504 5.949535,-3.82471 0.834224,-0.45503 1.781295,-0.71598 2.549801,-1.2749 4.017596,-2.92188 0.07074,-1.55817 4.674634,-3.39973 1.40443,-0.56177 2.954871,-0.0731 4.249668,-0.84993 3.832752,-2.29966 6.647791,-5.79786 9.774237,-8.92431 0.334601,-0.3346 2.144483,-1.29455 2.5498,-1.69986 0.100166,-0.10017 -0.1267,-0.36162 0,-0.42497 0.253402,-0.1267 0.614205,0.15715 0.849934,0 0.437657,-0.29177 1.43133,-1.8563 1.699867,-2.12484 0.173874,-0.17387 1.408786,1.08085 1.699867,1.27491 1.512857,1.00857 3.101057,2.00641 4.674637,2.97476 4.98492,3.06764 10.22397,5.21978 15.29881,8.07437 10.01177,5.63162 20.57648,9.00266 31.02257,13.59894 2.0295,0.89298 3.91508,2.09317 5.94954,2.97477 6.10963,2.64751 12.64822,4.43198 18.69854,7.22443 1.89901,0.87647 3.6065,2.14083 5.52457,2.97477 1.35628,0.58969 2.86192,0.76363 4.24966,1.2749 2.73154,1.00636 6.72083,2.51048 9.34927,3.8247 1.7178,0.8589 2.95685,2.11587 4.67464,2.97477 4.05495,2.02747 8.21022,4.02975 12.32404,5.94953 2.53471,1.18287 3.89436,1.48669 6.3745,2.97477 1.04491,0.62695 1.87218,1.60597 2.97477,2.12484 1.33816,0.62972 2.88663,0.70099 4.24966,1.2749 1.34415,0.56595 2.50509,1.50383 3.8247,2.12483 2.72197,1.28093 5.81946,2.05979 8.49934,3.39973 0.91365,0.45683 1.63615,1.24305 2.5498,1.69987 0.80133,0.40066 1.72281,0.50536 2.5498,0.84994 2.86116,1.19215 5.40342,2.72341 8.07437,4.24966 0.55004,0.31431 1.09887,0.64961 1.69987,0.84994 0.26877,0.0896 0.6287,-0.17699 0.84993,0 0.55307,0.44246 0.70209,1.28328 1.2749,1.69986 2.19642,1.5974 5.99582,2.17112 7.6494,3.82471 0.55964,0.55963 -2.78267,1.98762 -2.97476,2.12483 -0.65207,0.46576 -1.09681,1.17219 -1.69987,1.69987 -5.31263,4.64855 -11.2745,8.23534 -16.99867,12.32403 -1.80058,1.28613 -3.31009,2.94821 -5.0996,4.24967 -2.36187,1.71772 -4.95601,3.24361 -7.22444,5.0996 -0.77524,0.63429 -1.34959,1.49055 -2.12483,2.12484 -1.30965,1.35831 -3.2324,1.82098 -4.67464,2.97477 -1.56432,1.25145 -2.68534,2.9982 -4.24967,4.24966 -0.64498,0.51599 -1.46404,0.77931 -2.12483,1.2749 -3.61331,2.70999 -9.60051,7.47568 -12.749,10.62417 -1.28275,1.28275 -2.11699,2.96693 -3.39974,4.24967 -1.00165,1.00166 -2.3242,1.62792 -3.39973,2.5498 -1.70342,1.46008 -0.99952,1.16611 -2.5498,2.97477 -0.84994,0.99159 -1.56694,2.11476 -2.5498,2.97477 -1.63743,1.43275 -3.97965,2.27978 -5.52457,3.8247 -0.36115,0.36115 -0.48878,0.91375 -0.84994,1.2749 -0.91368,0.91368 -2.52071,1.24581 -3.39973,2.12483 -0.14166,0.14166 -0.28331,1.13325 -0.42497,1.2749 -0.71551,0.71551 -4.40185,-0.26991 -5.0996,-0.42496 -10.79649,-2.39922 -20.83962,-7.86676 -31.44754,-11.04914 -5.65519,-1.69656 -11.56096,-3.14557 -16.99867,-5.52457 -4.32294,-1.89128 -2.3656,-1.58918 -6.79947,-2.97477 -1.11495,-0.34842 -2.29967,-0.45705 -3.39974,-0.84993 -3.8574,-1.37764 -1.33402,-0.9704 -4.67464,-2.97477 -6.10872,-3.66523 2.01259,2.25874 -4.24966,-2.12483 -0.74308,-0.52015 -1.34136,-1.24284 -2.12484,-1.69987 -1.75191,-1.02195 -3.77265,-1.52785 -5.524567,-2.5498 -2.432275,-1.41883 -3.292023,-2.49594 -5.949535,-3.8247 -0.801325,-0.40066 -1.793957,-0.36894 -2.5498,-0.84993 -0.845059,-0.53777 -1.291406,-1.56922 -2.124834,-2.12484 -0.89763,-0.59842 -2.038093,-0.73966 -2.974768,-1.2749 -3.025648,-1.72894 -5.826208,-3.87225 -8.924303,-5.52457 -1.903794,-1.01535 -4.019689,-1.58487 -5.949535,-2.5498 -3.357604,-1.6788 -6.114557,-4.48758 -9.34927,-6.3745 -4.534839,-2.64532 -1.421618,-0.15641 -5.524568,-2.5498 -6.157463,-3.59185 1.145306,0.33857 -5.099602,-3.8247 -0.790659,-0.52711 -1.771322,-0.72997 -2.5498,-1.2749 -0.30643,-0.2145 -3.906571,-3.05664 -4.249668,-3.39974 -0.530189,-0.53018 -0.671625,-1.26895 -1.274901,-1.69986 -2.082697,-1.48764 -4.665412,-2.402 -6.799469,-3.8247 -0.589323,-0.39289 -1.048857,-0.9959 -1.699867,-1.27491 -0.390606,-0.1674 -0.858186,0.0833 -1.2749,0 -1.112269,-0.22245 -4.648873,-2.4545 -5.949535,-2.97476 -0.263048,-0.10522 -0.586886,0.10522 -0.849934,0 -0.474216,-0.18969 -0.818075,-0.62152 -1.2749,-0.84994 -2.128194,-1.06409 -3.87872,-1.30731 -5.949535,-2.5498 z"
     id="path286" />
  <path
     style="fill:#002255;stroke:#000000;stroke-width:1px;stroke-linecap:butt;stroke-linejoin:miter;stroke-opacity:1"
     d="m 19.669279,179.58493 c -2.903316,1.89788 -0.128493,5.78156 -1.274901,8.07437 -0.240931,0.48186 -0.646014,0.61176 -0.424967,1.2749 1.099384,3.29815 4.712291,4.4904 7.224436,6.3745 2.067067,1.5503 3.729678,3.68697 5.949535,5.09961 7.791058,4.95794 -1.416556,-1.41656 4.249668,2.12483 1.925313,1.20332 4.191342,2.35954 5.949535,3.8247 0.461696,0.38475 0.774843,0.94153 1.274901,1.2749 1.945118,1.29675 5.476035,2.73802 7.649402,3.8247 3.031352,1.51568 5.572397,3.85203 8.499336,5.52457 4.534513,2.59115 3.819351,1.74471 8.499336,3.8247 4.862979,2.16133 9.650199,4.54127 14.448871,6.79947 2.760923,1.29926 5.770121,2.03513 8.499336,3.39974 5.541893,2.77094 1.236402,1.42692 6.374502,3.8247 2.834159,1.3226 5.771411,2.23341 8.499341,3.8247 0.88234,0.5147 1.6504,1.21558 2.5498,1.69987 4.43419,2.38764 9.44021,3.88687 14.0239,5.94953 3.57667,1.6095 7.07575,3.48668 10.62417,5.0996 0.81561,0.37073 1.74848,0.44927 2.54981,0.84994 0.58584,0.29292 3.50269,2.78693 3.8247,2.97476 3.29705,1.92328 7.16509,3.07814 10.62417,4.67464 6.04649,2.79069 11.81135,6.08324 17.8486,8.9243 5.9701,2.80946 2.02012,0.61589 8.9243,4.24967 0.23764,0.12507 6.00609,3.34318 6.37451,2.97477 0.65253,-0.65254 -0.77255,-2.27896 -0.84994,-2.5498 -0.25166,-0.88083 -0.76611,-9.26545 -0.84993,-9.34927 -0.20033,-0.20034 -0.69278,0.23573 -0.84993,0 -0.4533,-0.67995 0.1511,-1.09547 0,-1.69987 -0.57621,-2.30482 -1.58117,-2.90592 -0.84994,-5.0996 0.0475,-0.14249 -0.10999,-1.21991 0,-1.2749 2.10053,-1.05027 -0.093,0.94298 1.2749,-0.42497 -0.45671,0.15224 -2.83797,1.24463 -3.8247,0.84993 -0.372,-0.1488 -0.49157,-0.67075 -0.84993,-0.84993 -0.2534,-0.1267 -0.57508,0.0687 -0.84994,0 -1.22917,-0.30729 -2.34552,-0.99706 -3.39973,-1.69987 -3.93351,-2.62234 1.01094,0.0633 -2.12483,-2.5498 -0.87736,-0.73113 -2.04544,-1.03605 -2.97477,-1.69987 -0.62286,-0.44489 -5.74312,-4.68677 -5.94954,-5.0996 -0.0634,-0.1267 0.10017,-0.3248 0,-0.42496 -0.4744,-0.47441 -3.15738,0.11122 -3.8247,0 -0.28817,-0.048 -2.10972,-0.40986 -2.5498,-0.84994 -0.10016,-0.10016 0.13743,-0.39061 0,-0.42496 -0.5497,-0.13743 -1.14095,0.0932 -1.69987,0 -0.62488,-0.10415 -1.09887,-0.64961 -1.69986,-0.84994 -0.46723,-0.15574 -1.7865,-0.19941 -2.12484,-0.42496 -0.26355,-0.17571 -0.20099,-0.62596 -0.42496,-0.84994 -1.33962,-1.33961 -7.51797,-1.86306 -9.34927,-2.5498 -1.45488,0.65277 -1.38605,-0.90551 -2.12484,-1.2749 -0.54085,-0.27043 -2.19725,-0.0724 -2.5498,-0.42497 -0.10016,-0.10016 0.1267,-0.36161 0,-0.42496 -1.68302,-0.84151 -3.78583,-1.04785 -5.52457,-1.69987 -3.87928,-1.45473 0.63365,-0.35541 -2.12483,-1.2749 -0.9988,-0.33293 -7.84444,-2.74483 -8.07437,-2.97477 -0.10017,-0.10016 0.10017,-0.3248 0,-0.42496 -0.39307,-0.39307 -2.53419,-0.27811 -2.97477,-0.42497 -1.37101,-0.457 -0.92192,-0.97417 -2.12483,-1.2749 -0.54971,-0.13743 -1.15017,0.13742 -1.69987,0 -1.698,-0.4245 -0.007,-0.42823 -1.69987,-1.2749 -0.63385,-0.31693 -2.00744,-0.30758 -2.5498,-0.84994 -0.10017,-0.10016 0.10017,-0.3248 0,-0.42496 -0.19538,-0.19538 -1.36567,-0.68284 -1.69987,-0.84994 -2.03002,-1.01501 -4.09514,-1.7385 -5.949533,-2.97476 -0.235729,-0.15716 -0.614205,0.15715 -0.849934,0 -0.858454,-0.57231 -0.661903,-1.06731 -1.699867,-1.2749 -0.416714,-0.0833 -0.894799,0.19005 -1.274901,0 -1.149778,-0.57489 -2.221712,-1.96079 -3.399734,-2.54981 -1.346518,-0.67325 -0.395473,0.87943 -1.699867,-0.42496 -0.223977,-0.22398 -0.171566,-0.65988 -0.424967,-0.84994 -1.617891,-1.21341 -4.91955,-2.0348 -6.799469,-2.97476 -1.76861,-0.88431 0.454305,0.0293 -0.424966,-0.84994 -0.07831,-0.0783 -1.196596,-0.34666 -1.274901,-0.42496 -0.100166,-0.10017 0,-0.28331 0,-0.42497 -0.283311,-0.28331 -0.49157,-0.67075 -0.849933,-0.84993 -1.904496,-0.95225 -4.390712,-1.33132 -6.374502,-2.12484 -0.763974,-0.30559 -0.63122,-1.06034 -1.274901,-1.2749 -2.447344,-0.81578 -1.825808,-0.79224 -3.824701,-2.12483 -1.369386,-0.91293 -3.613536,-1.2332 -5.099602,-2.12484 -2.062195,-1.23731 0.716907,-0.76652 -2.5498,-1.69986 -0.408616,-0.11675 -0.871742,0.13438 -1.274901,0 -1.183871,-0.39463 -1.945518,-1.61021 -2.974767,-2.12484 -0.253402,-0.1267 -0.581161,0.0896 -0.849934,0 -2.157961,-0.71932 -4.374031,-1.97453 -6.374502,-2.97477 -0.801325,-0.40066 -1.80436,-0.35297 -2.549801,-0.84993 -0.117864,-0.0786 0.117865,-0.34639 0,-0.42497 -1.229549,-0.81969 -3.307928,-1.01651 -4.674635,-1.69986 -0.627311,-0.31366 -0.178874,-1.15186 -0.424966,-1.2749 -0.380102,-0.19005 -0.921307,0.23573 -1.274901,0 -0.333371,-0.22225 -0.627686,-0.51657 -0.849933,-0.84994 -0.07858,-0.11786 0.1267,-0.36161 0,-0.42496 -0.506803,-0.2534 -1.193065,0.2534 -1.699868,0 -0.358363,-0.17919 -0.506368,-0.6438 -0.849933,-0.84994 -0.883605,-0.53016 -2.659861,-0.53502 -3.399735,-1.2749 -0.223977,-0.22397 -0.200989,-0.62595 -0.424966,-0.84993 -0.212909,-0.21291 -1.421268,-0.14637 -1.699868,-0.42497 -0.223977,-0.22398 -0.200989,-0.62595 -0.424966,-0.84993 -0.586379,-0.58638 -4.784874,-2.39244 -5.949536,-2.97477 -1.76861,-0.8843 0.454305,0.0293 -0.424966,-0.84993 -0.200332,-0.20033 -0.596533,0.1267 -0.849934,0 -0.537545,-0.26878 -0.794105,-0.91431 -1.2749,-1.2749 -2.608787,-1.95659 0.813335,0.83163 -1.699867,-0.42497 -0.126701,-0.0633 0.110614,-0.33647 0,-0.42497 -0.644988,-0.51599 -1.416556,-0.84993 -2.124834,-1.2749 z"
     id="path288" />
  <path
     style="fill:#0044aa;stroke:#000000;stroke-width:1px;stroke-linecap:butt;stroke-linejoin:miter;stroke-opacity:1"
     d="m 182.43157,276.47736 c 3.72571,-3.65984 7.24383,-7.57968 10.1992,-11.89907 0.53659,-0.78425 0.74779,-1.75914 1.2749,-2.5498 1.38682,-2.08023 3.72711,-3.13395 5.52457,-4.67463 0.38779,-0.33239 0.46556,-0.93857 0.84993,-1.2749 0.3493,-0.30564 4.00895,-2.67218 4.67464,-2.97477 2.7025,-1.22841 5.82256,-1.75805 8.49933,-2.97477 1.5642,-0.711 2.18244,-1.57741 3.8247,-2.12483 5.25095,-1.75032 9.76907,-5.94437 13.59894,-9.77424 2.00774,-2.00773 3.40332,-4.84677 5.94954,-6.3745 0.98021,-0.58813 2.37521,-0.76264 3.39973,-1.2749 0.99715,-0.49858 3.04248,-2.23691 3.8247,-2.5498 0.39457,-0.15783 0.8843,0.1674 1.2749,0 0.76631,-0.32842 4.85412,-2.86338 5.52457,-3.39974 0.78698,-0.62958 1.29851,-1.5346 2.12484,-2.12483 2.12255,-1.51611 4.94952,-1.97476 6.79946,-3.8247 0.36116,-0.36115 0.48879,-0.91375 0.84994,-1.2749 0.58406,-0.58406 1.66666,-0.58764 2.12483,-1.2749 0.15715,-0.23573 -0.1267,-0.59653 0,-0.84994 0.0507,-0.10149 1.64669,-1.16854 1.69987,-1.2749 0.1267,-0.2534 -0.0687,-0.57508 0,-0.84993 0.37747,-1.50988 0.8692,-2.15374 1.69987,-3.39973 0.39517,-0.59277 -0.84994,-8.04554 -0.84994,-9.34927 0,-1.987 0.38914,-4.42881 0,-6.37451 -0.2096,-1.04798 -1.08942,-1.86192 -1.2749,-2.97476 -0.11707,-0.70246 -0.0736,-2.62339 -0.42496,-2.97477 -1.1256,-1.1256 -2.52863,1.36526 -2.97477,1.69987 -0.35837,0.26877 -0.90218,0.17648 -1.2749,0.42496 -0.8132,0.54213 -2.65678,2.23181 -3.39974,2.97477 -0.44031,0.44031 -0.47641,1.16754 -1.2749,1.69987 -0.11786,0.0786 -0.3248,-0.10017 -0.42496,0 -1.67271,1.6727 -0.0177,0.8632 -1.69987,2.12483 -1.08864,0.81648 -2.42566,1.57572 -3.39974,2.5498 -1.40037,1.40038 -2.49544,3.29282 -4.24966,4.24967 -1.78055,0.97121 -3.87416,1.37093 -5.52457,2.5498 -0.41561,0.29687 -0.42497,0.99159 -0.84994,1.2749 -0.94091,0.62727 -2.40404,0.52813 -3.39973,1.2749 -0.67432,0.50574 -4.66715,3.60848 -5.0996,3.8247 -0.3801,0.19005 -0.8948,-0.19005 -1.2749,0 -0.28331,0.14166 -0.17763,0.65206 -0.42497,0.84994 -1.48664,1.18931 -3.63852,1.69632 -5.0996,2.97476 -0.53303,0.46641 -0.77407,1.19904 -1.2749,1.69987 -1.28275,1.28275 -2.88444,2.20516 -4.24967,3.39974 -1.9139,1.67466 -3.34578,3.77074 -5.0996,5.52456 -0.96789,0.96789 -2.27391,1.79926 -3.39974,2.54981 -0.9763,0.65086 0.18223,0.24274 -0.84993,1.2749 -0.67193,0.67193 -1.7896,0.70474 -2.5498,1.2749 -0.88509,0.66382 -1.68587,1.43369 -2.5498,2.12483 -0.76573,0.61259 -0.80571,1.65564 -1.2749,2.12483 -1.3722,1.3722 -3.55923,3.51936 -5.0996,4.67464 -0.22665,0.16999 -0.69278,-0.23573 -0.84994,0 -0.24848,0.37272 -0.15619,0.91654 -0.42496,1.2749 -0.68524,0.91365 -2.09741,0.96873 -2.97477,1.69987 -0.47443,0.39535 -0.94676,1.79669 -1.2749,2.12483 -0.10017,0.10017 -0.28331,0 -0.42497,0 -0.14165,0.14166 -0.31384,0.25828 -0.42496,0.42497 -0.80563,1.20844 -1.53231,1.53231 -2.54981,2.5498 -0.22397,0.22398 -0.20098,0.62595 -0.42496,0.84993 -0.22398,0.22398 -0.67423,0.16142 -0.84994,0.42497 -0.90659,1.35989 0.8414,0.43066 -0.42496,1.2749 -1.90968,1.27312 -2.24119,1.25321 -4.24967,2.97477 -0.48099,0.41227 -1.25191,0.40198 -1.69987,0.84993 -0.87927,0.87927 1.34365,-0.0344 -0.42496,0.84993 -0.1267,0.0633 -0.32481,-0.10016 -0.42497,0 -0.0616,0.0616 1.23049,3.62486 1.2749,3.8247 0.66641,2.99885 0.97227,5.89806 1.2749,8.92431 0.30115,3.0115 1.18495,4.18451 0.42497,7.22443 z"
     id="path290" />
  <path
     style="fill:#1a1a1a;stroke:#000000;stroke-width:1px;stroke-linecap:butt;stroke-linejoin:miter;stroke-opacity:1"
     d="m 39.217751,176.61017 c 1.510038,-2.15419 3.500573,-3.89365 5.099602,-5.94954 1.501085,-1.92997 2.2145,-3.97415 3.399734,-5.94954 0.538329,-0.89721 1.586505,-1.65258 2.124834,-2.5498 1.129498,-1.88249 1.167535,-1.98168 2.549801,-3.8247 0.169987,-0.22665 -0.157153,-0.6142 0,-0.84993 0.755673,-1.13351 1.619711,-1.61971 2.549801,-2.5498 2.77589,-2.77589 -2.546071,1.35691 1.2749,-1.69987 2.265993,-1.81279 4.909297,-2.93828 7.224436,-4.67463 2.207348,-1.65551 4.571357,-3.08313 6.799469,-4.67464 0.489048,-0.34932 0.753091,-0.97672 1.2749,-1.2749 0.507107,-0.28977 1.177467,-0.16377 1.699867,-0.42497 4.097486,-2.04874 -0.42744,-0.42342 2.974768,-2.5498 2.222702,-1.38918 2.234199,-0.82225 4.249668,-2.5498 2.210269,-1.89451 4.932427,-3.70908 6.799469,-5.94953 0.708278,-0.84994 1.433692,-1.68588 2.124834,-2.5498 0.233019,-0.29128 0.26605,-1.54095 0.424966,-1.69987 0.223977,-0.22398 0.625957,-0.20099 0.849934,-0.42497 1.769937,-1.76993 3.372102,-3.79707 5.099601,-5.52457 0.910734,-0.91073 2.777821,1.71023 3.399735,2.12484 1.29914,0.86609 2.63536,1.50912 3.8247,2.5498 0.60306,0.52768 1.0434,1.24034 1.69987,1.69987 1.55696,1.08987 3.45798,1.59219 5.0996,2.5498 0.88234,0.5147 1.65041,1.21557 2.5498,1.69986 5.16286,2.78001 10.76889,4.91879 16.14874,7.22444 3.61714,1.5502 7.06985,3.45914 10.62417,5.0996 1.6269,0.75088 3.46839,0.95841 5.0996,1.69987 1.79843,0.81746 2.92449,2.03238 4.67464,2.97477 3.76037,2.02481 7.94902,3.90863 11.89907,5.52457 4.35459,1.78142 8.82358,3.30826 13.17397,5.0996 1.75736,0.72362 3.31352,1.90031 5.0996,2.5498 0.67882,0.24684 1.46479,0.13161 2.12484,0.42496 1.54679,0.68747 2.95626,1.88889 4.67463,2.5498 5.39375,2.07453 11.40051,2.93797 16.57371,5.52457 0.6335,0.31675 1.06636,0.95815 1.69986,1.2749 1.483,0.7415 3.19165,0.95837 4.67464,1.69987 2.24828,1.12414 1.84804,1.46985 4.24967,2.12483 1.83871,0.50147 3.70116,0.6671 5.52456,1.27491 1.15304,0.38434 1.98486,1.79486 2.97477,2.12483 0.53755,0.17918 1.16232,-0.17918 1.69987,0 1.2749,0.42497 0.42497,0.84993 1.2749,1.2749 0.45133,0.22566 1.32104,0.0461 1.69987,0.42497 0.26032,0.26032 0.36178,1.11218 0.84993,1.2749 0.40316,0.13438 0.9744,-0.3005 1.2749,0 0.10017,0.10016 -0.1267,0.36161 0,0.42496 2.58999,1.295 5.7963,2.31853 8.49934,3.39974 0.54228,0.21691 1.17746,0.16376 1.69986,0.42496 0.1267,0.0634 -0.10016,0.32481 0,0.42497 0.21249,0.21249 1.06242,-0.21248 1.2749,0 0.81605,0.81605 0.80673,1.89075 2.12484,2.5498 3.70752,1.85377 -1.22029,-2.08842 2.5498,0.42497 1.02709,0.68472 -1.11921,1.19179 -1.69987,1.69987 -0.83262,0.72854 -1.34251,1.76748 -2.12483,2.5498 -3.9689,3.96889 -8.53695,7.25829 -12.74901,11.04913 -4.60918,4.14827 -8.62958,8.95418 -13.17397,13.17397 -2.12965,1.97754 -3.66902,2.87295 -5.52457,5.09961 -0.65394,0.78473 -1.05301,1.75921 -1.69986,2.5498 -2.66752,3.26029 -5.97364,5.97363 -8.92431,8.9243 -0.50082,0.50083 -0.77407,1.19904 -1.2749,1.69987 -1.48053,1.48054 -7.15868,4.54367 -8.9243,5.52457 -5.63709,3.13171 0.4171,-0.63352 -3.39973,1.2749 -1.28234,0.64117 -2.43492,1.66157 -3.8247,2.12483 -0.87842,0.2928 -1.77768,-0.23194 -2.5498,-0.42497 -0.49441,-0.1236 -1.20743,0.16415 -1.69987,0 -3.00639,-1.00213 -6.01782,-2.38852 -8.49934,-4.24966 -1.9547,-1.46603 0.44632,0.86417 -2.12483,-0.84994 -0.50006,-0.33337 -0.73736,-1.00613 -1.2749,-1.2749 -0.9224,-0.4612 -1.99642,-0.52382 -2.97477,-0.84993 -3.93883,-1.31295 -7.98625,-2.44371 -11.89907,-3.8247 -1.01731,-0.35906 -2.03171,-0.75098 -2.97477,-1.2749 -1.38546,-0.76971 -0.24526,-0.91125 -1.69986,-1.2749 -0.27486,-0.0687 -0.59654,0.1267 -0.84994,0 -0.35836,-0.17919 -0.48167,-0.69211 -0.84993,-0.84994 -3.08531,-1.32227 -8.93354,-2.03296 -12.32404,-2.97477 -3.41199,-0.94777 -6.78295,-2.04306 -10.1992,-2.97476 -0.69686,-0.19005 -1.45419,-0.15671 -2.12484,-0.42497 -0.76691,-0.30676 -1.34123,-1.0137 -2.12483,-1.2749 -0.95026,-0.31675 -2.00693,-0.16688 -2.97477,-0.42497 -2.46751,-0.658 -4.7784,-1.81599 -7.22444,-2.5498 -3.88162,-1.16449 -8.241097,-1.57075 -11.899068,-3.39973 -0.913651,-0.45683 -1.653037,-1.21073 -2.549801,-1.69987 -1.915956,-1.04507 -4.104055,-1.82134 -5.949535,-2.97477 -1.488107,-0.93006 -2.854903,-2.31491 -4.249668,-3.39973 -1.612636,-1.25427 -3.480282,-2.15411 -5.099602,-3.39974 -3.078816,-2.36832 -2.594937,-2.47741 -5.524568,-4.67463 -0.817195,-0.6129 -1.786327,-1.02122 -2.549801,-1.69987 -0.529373,-0.47055 -0.774072,-1.19904 -1.2749,-1.69987 -0.447955,-0.44795 -1.251913,-0.40197 -1.699867,-0.84993 -0.100166,-0.10016 0.100165,-0.3248 0,-0.42497 -0.608178,-0.60817 -2.856905,-1.65955 -3.399735,-2.12483 -0.387788,-0.33239 -0.451107,-0.95584 -0.849933,-1.2749 -0.759087,-0.60727 -2.157122,-0.62078 -2.974768,-1.2749 -0.469297,-0.37544 -0.747291,-0.98711 -1.2749,-1.2749 -1.062523,-0.57956 -2.334095,-0.7011 -3.399735,-1.2749 -0.798621,-0.43003 -1.370132,-1.19673 -2.124834,-1.69987 -2.260643,-1.50709 -4.87315,-2.90607 -7.224435,-4.24967 -0.43785,-0.2502 -2.040782,-1.10522 -2.549801,-1.2749 -0.268773,-0.0896 -0.596533,0.1267 -0.849934,0 -0.283311,-0.14165 -0.161413,-0.67423 -0.424967,-0.84993 -0.25187,-0.16791 -2.124834,-1.2368 -2.124834,-1.69987 0,-0.58406 0.283312,-1.13324 0.424967,-1.69986 z"
     id="path292" />
  <path
     style="fill:#000000;stroke:#000000;stroke-width:0.689411px;stroke-linecap:butt;stroke-linejoin:miter;stroke-opacity:1"
     d="m 140.1384,187.8398 c -1.29211,1.68952 -1.98848,3.62162 -2.63679,5.56655 -0.20641,0.61924 0.12933,1.40418 0,2.05084 -0.40885,2.04424 -0.61542,3.16381 0.29297,4.98061 0.0437,0.0873 -0.0813,0.2388 0,0.29297 0.25696,0.1713 0.63778,0.10005 0.87893,0.29298 0.3844,0.57659 0.61529,1.04741 1.17191,1.46488 0.99467,0.746 2.4329,1.21645 3.51572,1.75785 0.34939,0.17472 0.80921,-0.14506 1.17191,0 0.25646,0.1026 0.32948,0.48338 0.58595,0.58596 0.44855,0.17943 1.26355,-0.0989 1.75786,0 0.60566,0.12114 1.15221,0.46483 1.75786,0.58595 1.67609,0.33523 3.0988,-0.0676 4.39465,-0.58595 0.86268,-0.34506 1.49647,-0.74823 2.34381,-1.1719 0.26729,-0.13365 1.11532,-2.457 0.87893,-2.92977 -0.27674,-0.55349 -1.55393,-0.92345 -2.05083,-1.1719 -0.37059,-0.1853 -0.50834,-0.69364 -0.87893,-0.87893 -0.4454,-0.22271 -1.11277,0.0591 -1.46489,-0.29298 -0.0691,-0.0691 0,-0.19532 0,-0.29298 -0.29297,-0.0977 -0.62197,-0.12166 -0.87893,-0.29297 -0.0812,-0.0542 0.0927,-0.2621 0,-0.29298 -0.27794,-0.0926 -0.5947,0.0711 -0.87893,0 -1.10025,-0.27507 -3.67424,-3.08829 -4.39465,-3.8087 -0.43282,-0.43282 -1.24271,-0.82847 -1.75786,-1.17191 -0.67307,-0.44872 0.12563,-0.16735 -0.58595,-0.87893 -0.46295,-0.46295 -1.5724,-1.1598 -2.05084,-1.75785 -0.19292,-0.24115 -0.12167,-0.62198 -0.29297,-0.87893 -0.10835,-0.16252 -0.39064,0 -0.58596,0 -0.0977,-0.39064 -0.19531,-0.78127 -0.29297,-1.17191 z"
     id="path59" />
  <path
     style="fill:#008000;stroke:#000000;stroke-width:0.689411px;stroke-linecap:butt;stroke-linejoin:miter;stroke-opacity:1"
     d="m 151.85746,198.09398 c 1.46489,0.87893 2.90571,1.79926 4.39465,2.63679 0.0549,0.0309 0.84004,0.0389 0.87893,0 0.19724,-0.19723 0.15453,-0.37024 0.58596,-0.58595 0.17469,-0.0874 0.44784,0.13811 0.58595,0 0.21837,-0.21837 -0.53197,-0.86073 0.29298,-0.87893 0.16251,-0.10834 0.44784,0.1381 0.58595,0 0.13811,-0.13811 -0.0874,-0.41126 0,-0.58595 0.0437,-0.0874 0.22392,0.0691 0.29298,0 0.0691,-0.0691 -0.0691,-0.22393 0,-0.29298 0.24898,-0.24898 1.12962,0.77329 0.87893,-0.58595 1.11913,-1.49219 -1.4974,0.48102 1.75786,-2.05084 0.24153,-0.18786 1.76023,-0.78443 2.05083,-1.17191 0.1853,-0.24706 0.10768,-0.63187 0.29298,-0.87893 0.3643,-0.48573 1.59944,-0.7205 2.05084,-1.17191 0.59024,-0.59023 1.18715,-1.87584 1.75786,-2.63678 0.45178,-0.60238 4.15101,-5.8102 3.51572,-6.44549 -0.37442,-0.37442 -3.56597,0.33147 -4.39465,0 -2.2125,-0.885 -4.04659,-2.16978 -6.15251,-3.22274 -2.43968,-1.21984 -5.59493,-3.11882 -7.03144,-5.27359 -0.17374,-0.2606 -1.49525,-3.51571 -0.87893,-3.51571 0.0572,0 -0.55589,0.78873 -0.58596,0.87893 -0.0561,0.16822 -1.98799,2.45888 -2.34381,2.63678 -0.6224,0.31121 -0.72742,1.31339 -1.17191,1.75787 -0.14648,0.14649 -0.73244,-0.14649 -0.87893,0 -0.13811,0.13811 0.0874,0.41126 0,0.58595 -0.22435,0.44872 -0.52208,0.22911 -0.87893,0.58595 -0.30882,0.30883 1.16766,1.42415 -0.58595,1.17191 -0.15625,0.11719 -0.41126,-0.0874 -0.58595,0 -0.19968,0.0998 -0.24902,0.62622 -0.58596,0.87893 -0.49543,0.37158 -1.25059,0.82201 -1.46488,1.46488 -0.0618,0.1853 0.10834,0.42344 0,0.58596 -0.12113,0.1817 -0.43154,0.13856 -0.58595,0.29297 -0.72928,0.72928 -1.07079,2.10527 -1.75786,2.92977 -0.26525,0.3183 -0.6491,0.53418 -0.87893,0.87892 -0.3634,0.54509 -0.58596,1.17191 -0.87893,1.75787 2.91909,0.88531 1.53418,1.53418 2.63679,2.63679 0.24898,0.24898 0.62994,0.33698 0.87893,0.58596 0.451,0.45099 0.7209,1.30685 1.1719,1.75785 0.0691,0.0691 0.19532,0 0.29298,0 0.29298,0.29298 0.6491,0.53418 0.87893,0.87893 0.1713,0.25696 0.0746,0.66056 0.29298,0.87893 0.13811,0.13811 0.44784,-0.1381 0.58595,0 0.21837,0.21837 0.12167,0.62197 0.29298,0.87893 0.0937,0.14063 0.75588,-0.12305 0.87893,0 1.22927,1.22928 0.24919,0.45125 2.05083,1.17191 0.70819,0.28328 1.16226,0.9884 1.75786,1.46488 z"
     id="path61" />
  <path
     style="fill:#7c916f;stroke:#000000;stroke-width:0.689411px;stroke-linecap:butt;stroke-linejoin:miter;stroke-opacity:1"
     d="m 153.61532,172.01907 c 3.66157,-2.09234 0.62796,-0.042 3.51572,-2.92978 0.73407,-0.73406 1.60975,-1.31676 2.34382,-2.05084 0.0533,-0.0533 0.70782,-1.05004 0.87893,-0.87892 0.49617,0.49616 0.38276,0.67574 0.87893,1.1719 0.0691,0.0691 0.2493,-0.0873 0.29297,0 0.14672,0.29343 0.0427,0.75382 0.29298,0.87893 0.65563,0.32782 1.11009,-0.0309 1.75786,0.29298 0.47176,0.23588 0.0727,0.75064 0.58595,0.87893 0.28424,0.0711 0.59471,-0.0711 0.87893,0 0.40196,0.10049 0.54747,0.63033 0.87893,0.87893 0.12204,0.69194 0.61412,0.13409 0.87893,0.29298 0.41872,0.25123 0.73517,0.66056 1.17191,0.87893 0.5609,0.28044 1.47532,0.006 2.05084,0.29298 0.0874,0.0436 -0.0691,0.22391 0,0.29298 0.1381,0.1381 0.39063,0 0.58595,0 2.12496,0 3.81834,0.19852 5.85953,0.87892 0.36193,0.12064 0.88119,-0.29523 0.29298,0.29297 -0.5735,0.5735 -0.42947,0.71578 -0.87893,1.46489 -1.89385,3.15642 0.57301,-1.44764 -1.17191,0.87893 -0.49855,0.66473 -0.62229,2.08718 -1.1719,2.63679 -0.15442,0.15441 -0.46482,0.11128 -0.58596,0.29298 -0.10834,0.16252 0.0618,0.40066 0,0.58595 -0.12576,0.37728 -0.75317,0.79463 -0.87893,1.17191 -0.0499,0.14967 -0.10776,1.0793 -0.29297,1.1719 -0.1747,0.0874 -0.41126,-0.0873 -0.58596,0 -0.17469,0.0874 0.13812,0.44785 0,0.58596 -0.13811,0.13811 -0.44784,-0.13811 -0.58595,0 -0.58081,0.58081 -0.88408,1.17705 -1.46488,1.75786 -0.1112,0.11119 -2.09988,-0.78945 -2.63679,-0.87893 -0.28899,-0.0482 -0.59165,0.0575 -0.87894,0 -1.22574,0.53053 -0.33889,-0.46243 -0.58595,-0.58596 -0.17469,-0.0873 -0.40066,0.0618 -0.58595,0 -0.44054,-0.14685 -1.01916,-0.7675 -1.46488,-0.87893 -0.28423,-0.0711 -0.59471,0.0711 -0.87893,0 -0.65501,0.14996 -0.0858,-0.51689 -0.29298,-0.58595 -0.27794,-0.0926 -0.60099,0.0926 -0.87893,0 -0.18529,-0.0618 0.1747,-0.49861 0,-0.58595 -0.24959,-0.1248 -0.94701,-0.068 -1.1719,-0.29298 -1.06633,-1.06633 0.31147,-0.20586 -0.58596,-0.87893 -0.79169,-0.59377 -1.55212,-1.1641 -2.34381,-1.75786 -0.1747,-0.13102 -0.0977,-0.48829 -0.29298,-0.58595 -0.1747,-0.0874 -0.41126,0.0873 -0.58595,0 -0.0874,-0.0436 0.069,-0.22392 0,-0.29298 -0.97167,-0.97168 -1.96498,-1.58615 -2.63679,-2.92977 -0.2227,-0.44539 0.1722,-0.98179 0.29297,-1.46487 z"
     id="path63" />
  <path
     style="fill:#008000;stroke:#000000;stroke-width:0.689411px;stroke-linecap:butt;stroke-linejoin:miter;stroke-opacity:1"
     d="m 158.30295,164.10869 c 0.57941,1.96034 0.83259,1.12558 1.75786,2.05084 0.16981,0.16981 0.41614,1.0021 0.58596,1.1719 0.59779,0.59781 1.93871,1.05979 2.63678,1.75786 0.0691,0.0691 -0.0874,0.24931 0,0.29298 0.1747,0.0873 0.40066,-0.0618 0.58596,0 0.57209,0.1907 1.19401,0.94637 1.75785,1.17191 2.12541,0.85017 0.28229,-0.0607 2.05085,0.29298 2.75314,0.55062 5.62217,0.58595 8.49632,0.58595 1.07307,0 1.54424,1.27872 2.34381,0.87893 0.12353,-0.0618 0.15899,-0.25948 0.29298,-0.29297 0.28422,-0.0711 0.60099,0.0926 0.87893,0 0.27145,-0.0905 0.10866,-0.69461 0.29297,-0.87893 0.13811,-0.13812 0.44784,0.1381 0.58595,0 0.43245,-0.43246 0.16924,-0.99175 0.87893,-1.46489 0.46767,-0.31177 1.75786,-1.26081 1.75786,-1.46489 0,-0.0977 -0.19531,0 -0.29297,0 -0.4883,0 -0.97659,0 -1.46489,0 -0.26615,0 -1.35921,-0.25775 -1.46488,-0.29298 -0.0926,-0.0309 0.0926,-0.26209 0,-0.29298 -0.27794,-0.0926 -0.60098,0.0927 -0.87892,0 -0.0927,-0.0309 0.0873,-0.24929 0,-0.29297 -0.42414,-0.21206 -1.30385,-0.0659 -1.75786,-0.29298 -0.93274,-0.46636 -3.08166,-1.17621 -3.8087,-1.75785 -0.27496,-0.21996 -0.33698,-0.62995 -0.58596,-0.87893 -0.51486,-0.51486 -1.51093,-0.474 -2.05083,-0.87893 -0.40642,-0.30482 -0.69537,-1.10748 -1.17191,-1.46488 -0.21404,-0.16053 -1.41929,-1.10352 -1.46488,-1.17191 -0.17131,-0.25696 -0.0746,-0.66056 -0.29298,-0.87893 -0.13811,-0.13811 -0.44784,0.13811 -0.58595,0 -0.3662,-0.36619 -0.64157,-1.91611 -1.75787,-1.17191 -0.18169,0.12113 -0.0977,0.4883 -0.29297,0.58595 -0.26205,0.13103 -0.60099,-0.0926 -0.87893,0 -1.06434,0.35479 -0.6648,0.63852 -1.46488,1.17191 -0.25696,0.17131 -0.62198,0.12167 -0.87893,0.29298 -0.53303,0.35536 -0.007,0.59311 -0.29298,0.87893 -0.0691,0.0691 -0.22392,-0.0691 -0.29298,0 -0.0691,0.0691 0.0691,0.22392 0,0.29298 -0.29977,0.29977 -1.33557,1.18335 -1.75785,1.46488 -0.1817,0.12112 -0.0811,0.53299 -0.29298,0.58595 -0.37898,0.0947 -0.78127,0 -1.17191,0 z"
     id="path65" />
  <path
     style="fill:#7c916f;stroke:#000000;stroke-width:0.689411px;stroke-linecap:butt;stroke-linejoin:miter;stroke-opacity:1"
     d="m 167.67821,158.83511 c 0.41008,-1.11767 0.0908,-2.79501 1.1719,-3.51572 0.24377,-0.16251 0.63516,0.16252 0.87893,0 1.07052,-0.71368 -0.31414,-0.42889 0.58595,-0.87893 0.32812,-0.16406 0.86218,-0.13811 1.17191,-0.29297 0.0316,-0.0158 0.35353,-0.46975 0.58595,-0.58595 0.1747,-0.0874 0.44784,0.1381 0.58596,0 0.15441,-0.15442 0.13856,-0.43155 0.29297,-0.58596 1.14342,-1.14342 0.15735,0.0679 0.87893,-0.29297 0.28127,-0.14064 1.03705,-1.01379 1.1719,-0.87893 0.0691,0.0691 0,0.19531 0,0.29297 0.19532,0 0.41126,-0.0873 0.58596,0 0.26039,0.13019 0.477,2.52783 0.87893,2.92976 0.21838,0.21837 0.66056,0.0746 0.87894,0.29298 0.1381,0.13812 -0.1172,0.4297 0,0.58595 0.50824,0.67767 1.49899,0.62008 2.05083,1.17191 0.15441,0.15442 0.13856,0.43154 0.29298,0.58595 0.23226,0.23228 1.16679,-0.14904 1.46488,0 1.07228,0.53615 2.02776,0.87317 3.22274,1.17191 0.41369,0.10342 1.08811,-0.18838 1.46489,0 0.31493,0.15747 0.56399,0.42848 0.87892,0.58595 0.44424,0.22212 1.32033,0.0742 1.75787,0.29298 0.41908,0.20954 -0.34344,0.68687 -0.87894,1.75786 -0.0874,0.1747 0.0873,0.41125 0,0.58596 -0.12353,0.24706 -0.43955,0.35171 -0.58595,0.58595 -1.32419,2.11871 -0.92482,1.78845 -2.63679,2.92977 -0.22983,0.15321 -0.33889,0.46242 -0.58595,0.58595 -1.72435,0.86217 0.77145,-1.35741 -1.17191,0.58595 -0.932,0.93201 -5.23668,-0.48504 -6.15251,-1.1719 -0.17469,-0.13103 -0.13856,-0.43154 -0.29297,-0.58596 -0.13811,-0.13811 -0.41126,0.0874 -0.58596,0 -1.35146,-0.67573 1.19825,0.1916 -0.58596,-0.87893 -0.34527,-0.20716 -0.79804,-0.14343 -1.1719,-0.29297 -2.34924,-0.9397 -5.08439,-2.8444 -6.1525,-4.98061 z"
     id="path67" />
  <path
     style="fill:#008000;stroke:#000000;stroke-width:0.689411px;stroke-linecap:butt;stroke-linejoin:miter;stroke-opacity:1"
     d="m 175.00261,152.09665 c -0.0976,-0.78127 -0.29297,-1.55647 -0.29297,-2.34382 0,-0.12152 2.07356,-1.06256 2.6368,-1.46488 1.48756,-1.06255 2.36762,-2.72789 3.80869,-3.80869 0.76766,-0.57576 1.65599,-1.36301 2.34381,-2.05084 0.35684,-0.35683 0.13724,-0.65458 0.58595,-0.87893 0.0874,-0.0437 0.22392,0.0691 0.29298,0 1.14341,-1.14341 -0.0679,-0.15734 0.29298,-0.87893 0.17202,-0.34405 0.99988,-1.12084 1.17191,-1.46489 0.0873,-0.17469 -0.13812,-0.44784 0,-0.58595 0.21837,-0.21837 0.66055,-0.0746 0.87892,-0.29298 0.37187,-0.37187 0.27041,-1.04415 0.58596,-1.46488 0.55182,-0.73576 1.16271,-1.33666 1.75786,-2.05083 0.2796,-0.33552 0.23655,-0.90986 0.58595,-1.1719 0.34939,-0.26205 0.83639,-0.30636 1.17191,-0.58596 0.2705,-0.22542 0.33697,-0.62995 0.58595,-0.87893 0.34528,-0.34528 0.85931,-0.50381 1.1719,-0.87894 0.19771,-0.23724 0.10006,-0.63777 0.29298,-0.87893 0.39064,-0.48828 1.02272,-0.72973 1.46489,-1.1719 1.21501,-1.21501 1.66975,-1.79916 3.22275,-3.22274 1.31902,-1.20911 2.45051,-2.64456 3.80868,-3.8087 0.43236,-0.37058 1.06223,-0.47627 1.46489,-0.87893 1.41417,-1.41417 -0.16751,-0.5022 1.17191,-1.17191 0.66523,-0.33261 1.41308,-0.49627 2.05083,-0.87893 1.00935,-0.6056 1.55158,-1.84455 2.34382,-2.63678 0.30882,-0.30883 0.89907,-0.24492 1.1719,-0.58595 0.27283,-0.34105 0.33211,-0.81652 0.58596,-1.17191 0.9852,-1.37929 2.63707,-2.3441 3.8087,-3.51573 1.59369,-1.5937 3.08711,-3.38009 4.68762,-4.9806 4.49425,-4.49424 0.45068,-0.2779 2.92976,-2.34381 0.58596,-0.48829 0.86928,-1.28138 1.46489,-1.75786 0.24115,-0.19292 0.66056,-0.0746 0.87893,-0.29298 0.21837,-0.21837 0.0519,-0.686 0.29297,-0.87893 0.31442,-0.25153 0.8223,-0.0932 1.17191,-0.29298 1.08364,-0.61922 1.93024,-2.473094 2.92977,-3.222734 2.54335,-1.90751 5.45259,-4.56142 7.03144,-7.32442 0.15321,-0.26813 0.12167,-0.62197 0.29297,-0.87893 0.0847,-0.12707 2.63465,-2.10772 2.92977,-2.34382 0.80489,-0.64391 1.0551,-1.64104 1.75786,-2.34381 0.13811,-0.13811 0.44784,0.13811 0.58595,0 0.58016,-0.58016 1.17066,-2.04958 1.75786,-2.63679 0.60533,-0.60533 1.76237,-1.17642 2.34382,-1.75786 0.14648,-0.14649 -0.14649,-0.73244 0,-0.87893 0.21715,-0.21715 0.51529,-0.22231 0.87893,-0.58595 0.39399,-0.394 0.52569,-1.40463 0.87893,-1.75786 0.0691,-0.0691 0.22392,0.0691 0.29297,0 0.24415,-0.24415 0.34181,-0.63478 0.58595,-0.87893 0.0691,-0.0691 0.22393,0.0691 0.29298,0 0.21826,-0.21825 0.42041,-1.00637 0.58595,-1.17191 0.0691,-0.0691 0.22393,0.0691 0.29298,0 0.13812,-0.13811 -0.13811,-0.44784 0,-0.58595 0.13812,-0.13811 0.44785,0.13811 0.58595,0 0.46325,-0.46324 0.51554,-1.21277 0.87894,-1.75786 0.30048,-0.45073 0.87141,-0.72117 1.17191,-1.17191 0.44205,-0.66308 0.72398,-1.37896 1.1719,-2.05083 1.09002,-1.63503 0.10757,0.66379 1.17191,-1.46489 0.83736,-1.67472 2.14549,-4.196329 3.22274,-5.273577 0.18584,-0.185838 0.92797,0.121966 1.1719,0 1.21931,-0.60965 -0.3132,0.02023 0.29298,-0.585953 0.24415,-0.244147 0.92777,-0.04883 1.17191,-0.292977 0.0977,-0.09766 0.19532,-0.78127 0.29298,-0.878929 0.24898,-0.248983 1.23104,-0.585953 0.87892,-0.585953 -0.49051,0 0.82749,0.524218 0.87893,0.585953 0.4883,0.585953 0.78268,1.416752 1.46489,1.757859 0.51863,0.259317 0.10011,-0.435784 0.58595,0.292977 1.235,1.852506 1.33224,1.502491 3.22274,2.636789 0.0837,0.05025 0,0.195319 0,0.292978 0.19532,0.09766 0.37879,0.223921 0.58595,0.292973 0.382,0.12733 0.82664,0.0858 1.17192,0.29298 2.0169,1.21014 -0.45845,0.1275 0.29297,0.87893 0.13811,0.13811 0.40067,-0.0618 0.58596,0 0.60488,0.20163 0.67818,0.63207 1.17191,0.87893 0.47038,0.23519 0.99449,0.35076 1.46488,0.58595 0.55424,0.27712 3.80869,1.30987 3.80869,0 0,-0.0977 -0.19531,0 -0.29298,0 -1.04307,0 -2.01944,1.4335 -2.63679,2.05084 -2.51223,2.51223 -5.14547,5.10887 -7.32441,7.91037 -1.85227,2.38148 -3.51737,5.0703 -5.56656,7.32441 -2.06304,2.26935 -4.14444,4.45881 -5.85954,7.03144 -1.85503,2.78255 -5.10006,8.742384 -7.61738,10.840144 -1.24552,1.03793 -1.0944,1.52093 -2.05084,2.63679 -1.3527,1.57815 -2.80653,3.06868 -4.10167,4.68762 -0.75254,0.94067 -1.27467,1.99836 -2.05084,2.92977 -2.39982,2.87979 0.54673,-0.83971 -1.75786,1.46489 -0.92358,0.92358 -1.75577,2.21587 -2.63678,3.22274 -0.90342,1.03247 -1.93266,1.75047 -2.92978,2.63679 -3.09294,2.74928 -0.83669,0.75289 -2.34381,2.63679 -0.61286,0.76608 -2.76926,2.47629 -3.51572,3.22274 -3.10641,3.10642 0.0844,-0.27591 -2.63679,3.22274 -0.82444,1.06 -2.14921,1.54402 -2.92977,2.6368 -0.25384,0.35539 -0.27712,0.86307 -0.58595,1.17191 -0.40265,0.40265 -1.03633,0.50394 -1.46489,0.87893 -0.36747,0.32154 -0.51397,0.84749 -0.87892,1.17189 -2.29922,2.04376 -5.17079,3.68456 -7.61739,5.56656 -0.93211,0.71701 -1.67987,1.66029 -2.63679,2.34382 -0.80425,0.57447 -1.35884,0.47991 -2.05084,1.1719 -0.46193,0.46194 -0.72242,1.30838 -1.17191,1.75787 -0.8981,0.89809 -2.17758,0.92255 -2.92977,2.05082 -0.1713,0.25696 -0.15486,0.60272 -0.29297,0.87894 -0.57094,1.14188 -1.85591,2.18156 -2.63678,3.22275 -0.3752,0.50025 -0.85019,0.92866 -1.17191,1.46487 -0.10049,0.16749 0.1381,0.44784 0,0.58596 -0.21838,0.21837 -0.62197,0.12167 -0.87893,0.29297 -0.16252,0.10836 0.1381,0.44785 0,0.58596 -0.71116,0.71115 -1.56976,1.07786 -2.34383,1.46488 -2.06823,1.03413 -7.44844,2.54377 -9.66822,0.87893 -0.17469,-0.13102 -0.10573,-0.4736 -0.29298,-0.58595 -0.72415,-0.4345 -1.95406,-0.42378 -2.63679,-0.87893 -0.22982,-0.15322 -0.35612,-0.43273 -0.58595,-0.58596 -1.08238,-0.72158 1.07125,1.65719 -0.87892,-0.29297 -0.23416,-0.23416 -0.32573,-0.8953 -0.87893,-1.17191 -0.27623,-0.13811 -0.62198,-0.12167 -0.87893,-0.29298 -0.12653,-0.0844 -0.22139,-0.7574 -0.58596,-0.87892 -1.24066,-0.41356 -0.32127,0.10405 -1.17191,-1.17191 -0.0542,-0.0813 -0.19532,0 -0.29298,0 -0.0977,-0.29297 -0.19531,-0.58595 -0.29298,-0.87893 z"
     id="path69" />
  <path
     style="fill:#008000;stroke:#000000;stroke-width:0.689411px;stroke-linecap:butt;stroke-linejoin:miter;stroke-opacity:1"
     d="m 260.84477,60.101979 c 0.64622,0.726247 2.50043,-1.015297 3.22275,-0.292976 0.0691,0.06905 -0.0873,0.249303 0,0.292976 0.17469,0.08735 0.41126,-0.08735 0.58595,0 0.0874,0.04368 -0.0691,0.223922 0,0.292978 0.59797,0.597974 2.04529,1.166353 2.63679,1.757859 0.24594,0.245947 0.73955,0.883663 1.17191,1.171907 0.16251,0.108342 0.40066,-0.06176 0.58595,0 2.22009,0.74003 -0.1058,-0.105793 0.58596,0.585953 0.66161,0.661618 2.26113,0.503278 2.92976,1.171907 0.81347,0.813464 0.53865,1.077295 0.87893,1.757863 0.13595,0.27189 0.67702,0.0911 0.87893,0.29297 0.34528,0.34528 0,0.97659 0,1.46489 0,0.29297 0.20716,0.67176 0,0.87893 -0.14885,0.14884 -1.29682,-0.042 -1.46489,0 -1.57793,0.39448 -4.39309,0.80684 -5.85953,-0.29298 -1.46811,-1.10109 -3.09191,-3.774604 -3.80869,-5.566557 -0.0573,-0.143197 -0.5675,-2.032378 -0.58595,-2.050836 -0.13812,-0.138111 -0.44785,0.13811 -0.58596,0 -0.24374,-0.243744 -0.19693,-0.489909 -1.17191,-1.464884 z"
     id="path71" />
</svg>
