<?xml version="1.0" encoding="UTF-8" standalone="no"?>
<svg
   width="320"
   height="320"
   viewBox="0 0 320 320"
   version="1.1"
   xmlns="http://www.w3.org/2000/svg">
  <circle
     style="fill:#b2a95a;fill-opacity:1;stroke-width:5.98411;stroke-linecap:round;stroke-linejoin:round"
     id="path1556"
     cx="160"
     cy="160"
     r="160" />
  <rect
     style="fill:#370b5a;fill-opacity:1;stroke-width:6;stroke-linecap:round;stroke-linejoin:round"
     id="rect913"
     width="130.88977"
     height="200.15936"
     x="98.5923"
     y="54.820717" />
  <rect
     style="fill:#370b3f;fill-opacity:1;stroke-width:6;stroke-linecap:round;stroke-linejoin:round"
     id="rect915"
     width="54.395752"
     height="56.520584"
     x="107.70514"
     y="113.09273" />
  <rect
     style="fill:#370b3f;fill-opacity:1;stroke-width:6;stroke-linecap:round;stroke-linejoin:round"
     id="rect917"
     width="49.749428"
     height="56.988518"
     x="170.21431"
     y="113.09273" />
  <rect
     style="fill:#370b3f;fill-opacity:1;stroke-width:5.98263;stroke-linecap:round;stroke-linejoin:round"
     id="rect919"
     width="51.685467"
     height="58.296402"
     x="108.47939"
     y="179.69714" />
  <rect
     style="fill:#370b3f;fill-opacity:1;stroke-width:6;stroke-linecap:round;stroke-linejoin:round"
     id="rect921"
     width="50.182987"
     height="55.892426"
     x="169.78075"
     y="179.99765" />
  <g
     id="g3584"
     transform="translate(-254.22037,-7.2119293)">
    <path
       id="rect1601"
       style="fill:#e1e0e3;stroke:#000000;stroke-linecap:round;stroke-linejoin:round"
       d="m 374.41915,139.43057 c 6.28101,-1.87542 12.27464,-1.93071 17.95469,0 5.01472,-1.73142 10.3902,-2.26032 16.60245,0 v 25.54223 c -6.59341,-2.51762 -11.89732,-1.6503 -16.90295,0 -6.32405,-2.52609 -12.12982,-2.0721 -17.65419,0 z" />
    <path
       style="fill:none;stroke:#000000;stroke-width:1px;stroke-linecap:butt;stroke-linejoin:miter;stroke-opacity:1"
       d="m 392.37384,139.43057 c -0.27846,0.41768 -0.20598,0.19387 0,0.97661 0.0605,0.22974 0.17096,0.44487 0.22537,0.67612 0.1962,0.83384 0.15025,1.70518 0.15025,2.55422 0,1.07678 0,2.15356 0,3.23034 0,1.87811 0,3.75621 0,5.63432 0,1.02232 0.051,2.05941 0,3.08009 -0.10245,2.04897 -0.016,-0.60714 -0.22537,1.27712 -0.0277,0.24888 0.0132,0.50117 0,0.75124 -0.0814,1.54601 -0.0352,-0.14914 -0.22538,1.27711 -0.0232,0.17375 0.0146,0.35118 0,0.52587 -0.044,0.52795 -0.12255,1.06351 -0.22537,1.57761 -0.0863,0.43152 0.0546,0.91586 0,1.35223 -0.0286,0.22909 -0.12161,0.44703 -0.15025,0.67612 -0.0275,0.22016 0.0365,0.4572 0,0.67612 -0.021,0.12595 -0.10383,0.2512 -0.0751,0.37562 0.0696,0.30181 0.15025,0.60099 0.22537,0.90149"
       id="path3118" />
    <path
       style="fill:none;stroke:#000000;stroke-width:1px;stroke-linecap:butt;stroke-linejoin:miter;stroke-opacity:1"
       d="m 378.40073,143.5624 c 0.87292,-0.28766 1.75279,-0.54956 2.62935,-0.82637 0.12859,-0.0406 0.24077,-0.15025 0.37562,-0.15025 0.69264,0 1.7111,0.21699 2.32885,0.52587 0.0672,0.0336 0.15171,-0.0147 0.22538,0 0.28507,0.057 0.55134,0.21799 0.82636,0.3005 0.31569,0.0947 0.66474,0.1474 0.97662,0.22537 0.14506,0.0363 0.41837,0.14475 0.52587,0.22537 0.02,0.015 -0.0177,0.0574 0,0.0751 0.0354,0.0354 0.10545,-0.0224 0.15024,0 0.14738,0.0737 -0.006,0.15025 0.15025,0.15025"
       id="path3120" />
    <path
       style="fill:none;stroke:#000000;stroke-width:1px;stroke-linecap:butt;stroke-linejoin:miter;stroke-opacity:1"
       d="m 378.70123,149.94796 c 0.58618,-0.13028 1.07732,-0.52381 1.65273,-0.67612 1.08973,-0.28846 3.4083,-0.34354 4.43233,0.22537 0.20182,0.11212 0.33009,0.32839 0.52587,0.45075 0.1086,0.0679 0.51725,0.21674 0.601,0.30049 0.0865,0.0865 -0.0358,0.22538 0.22537,0.22538"
       id="path3122" />
    <path
       style="fill:none;stroke:#000000;stroke-width:1px;stroke-linecap:butt;stroke-linejoin:miter;stroke-opacity:1"
       d="m 379.2271,155.88277 c 1.30876,-0.50687 2.66721,-0.68039 4.05671,-0.60099 0.37833,0.0216 0.77416,0.0117 1.12686,0.15025 0.0459,0.018 1.57878,0.97778 1.80298,1.20198 0.13465,0.13465 0.14267,0.45075 0.37562,0.45075"
       id="path3124" />
    <path
       style="fill:none;stroke:#000000;stroke-width:1px;stroke-linecap:butt;stroke-linejoin:miter;stroke-opacity:1"
       d="m 396.65592,157.08476 c 0.20033,0 0.40105,0.0125 0.60099,0 3.06693,-0.19168 4.74966,-0.66218 7.4373,-0.15025 0.55611,0.10593 1.80298,0.44998 1.80298,1.27711"
       id="path3126" />
    <path
       style="fill:none;stroke:#000000;stroke-width:1px;stroke-linecap:butt;stroke-linejoin:miter;stroke-opacity:1"
       d="m 398.60915,150.3987 c 0.27546,-0.0751 0.54697,-0.16655 0.82637,-0.22537 4.05661,-0.85402 2.52541,-0.67612 6.23531,-0.67612 0.10016,0 0.20332,-0.0243 0.30049,0 0.0171,0.004 0,0.42902 0,0.45075"
       id="path3128" />
    <path
       style="fill:none;stroke:#000000;stroke-width:1px;stroke-linecap:butt;stroke-linejoin:miter;stroke-opacity:1"
       d="m 397.70766,144.01314 c 1.81558,-1.43402 3.32736,-2.35546 5.48407,-1.27711 0.24227,0.12114 0.46231,0.28445 0.67612,0.45075 0.0646,0.0503 -0.0198,0.22537 0.15024,0.22537"
       id="path3130" />
    <path
       style="fill:none;stroke:#000000;stroke-width:1px;stroke-linecap:butt;stroke-linejoin:miter;stroke-opacity:1"
       d="m 438.57524,146.94299 c 5.19687,1.045 10.52849,0 15.77609,0 0.63006,0 1.33045,-0.089 1.95323,0 0.6233,0.089 1.41223,0.79636 2.10347,0.45074 0.14166,-0.0708 -0.10016,-0.30049 -0.15024,-0.45074 -0.32554,-0.97661 -0.0273,-0.21864 -0.15025,-1.20199 -0.0436,-0.34915 -0.3981,-5.81473 -0.15025,-6.31044 0.18267,-0.36535 0.29775,-0.89874 0.60099,-1.20198 0.0708,-0.0708 0.20033,0 0.3005,0 0.96114,0 1.299,1.14875 1.95323,1.80298 0.0354,0.0354 0.11483,-0.0354 0.15025,0 0.23371,0.23371 -0.33713,0.90149 0.30049,0.90149 0.67945,0 3.5446,-0.36186 3.75622,-0.15025 0.16417,0.16418 -0.10847,0.83482 0,1.05174 0.0634,0.1267 0.24788,0.16897 0.30049,0.3005 0.18343,0.45857 -0.0511,0.64912 0.15025,1.05174 0.0312,0.0624 0.3983,-0.0525 0.45075,0 0.0354,0.0354 -0.0448,0.12785 0,0.15024 0.0896,0.0448 0.20547,-0.0317 0.30049,0 0.28261,0.0942 0.76466,0.3431 1.05174,0.45075 1.61327,0.60498 -0.11747,-0.0104 0.90149,0.60099 0.13581,0.0815 0.32708,0.0513 0.45075,0.15025 0.141,0.11281 0.17281,0.32306 0.3005,0.45075 0.31086,0.31087 -0.0122,-0.47505 0.30049,0.15025 0.13998,0.27995 -0.0628,0.88803 0,1.20198 -0.12485,0.28105 0.26509,0.27368 0.3005,0.45075 0,1.49745 -0.14166,0.16743 0.15025,0.75124 0.28153,0.56306 -0.15025,3.14915 -0.15025,3.90646 0,0.30831 -0.0964,0.76246 0,1.05174 0.12514,0.37543 0.46769,0.70042 0.3005,1.20199 -0.27858,0.83573 -0.68673,0.56873 -1.05174,0.75124 -0.0448,0.0224 0.0448,0.12785 0,0.15025 -0.13439,0.0672 -0.32573,-0.0833 -0.45075,0 -0.11786,0.0786 -0.18263,0.22192 -0.3005,0.3005 -0.34916,0.23277 -1.33896,-0.3536 -1.50248,0.30049 -0.12201,0.48804 -0.14025,2.59421 0,3.15522 0.0438,0.17518 0.24339,0.27944 0.3005,0.45075 0.0551,0.16529 0.11296,1.31421 0,1.50248 -0.41434,0.41434 -0.47234,0.4134 -0.75125,0.90149 -0.16668,0.2917 -0.1712,0.71513 -0.45074,0.90149 -0.31953,0.21302 -1.20665,-0.57654 -1.35224,-0.75124 -0.10139,-0.12167 -0.0383,-0.33876 -0.15025,-0.45075 -0.15024,-0.15024 -0.30049,0.0751 -0.45074,0 -0.27876,-0.13938 -0.77621,-1.17701 -1.20199,-0.75124 -0.14601,0.14602 -0.0689,0.41119 -0.15025,0.601 -0.33776,0.78812 -0.27138,1.80298 -1.20198,1.80298 -0.2339,0 -0.70373,0.0475 -0.90149,-0.15025 -0.19071,-0.19071 -0.13868,-0.53548 -0.3005,-0.75124 -0.085,-0.11333 -0.22192,-0.18264 -0.3005,-0.3005 -0.28585,-0.42877 -0.3005,-4.30681 -0.3005,-4.9582 0,-0.36141 0.1216,-1.1377 0,-1.50248 -0.029,-0.0871 -0.25463,-0.87857 -0.30049,-0.9015 -0.15048,-0.0752 -0.38658,-0.0219 -0.45075,-0.15024 -0.0448,-0.0896 0.0833,-0.24494 0,-0.3005 -0.12501,-0.0833 -0.31636,0.0672 -0.45074,0 -0.19005,-0.095 -0.27395,-0.33288 -0.45075,-0.45075 -0.13178,-0.0878 -0.32404,-0.0552 -0.45074,-0.15024 -0.0896,-0.0672 -0.0501,-0.25042 -0.15025,-0.3005 -0.52138,-0.26069 -1.681,0.15025 -2.25373,0.15025 -1.08101,0 -2.24189,-0.12513 -3.30547,0 -0.41016,0.0483 -0.79182,0.25224 -1.20198,0.30049 -1.11559,0.13125 -2.32916,0 -3.45572,0 -1.0275,0 -1.98244,-0.0821 -3.00497,-0.15024 -0.77844,-0.0519 -1.39091,0.0279 -2.10347,-0.15025 -0.84495,-0.21124 -1.84714,0.14289 -2.70448,0 -0.11046,-0.0184 -0.1885,-0.15025 -0.30049,-0.15025 -0.16635,0 0.264,2.15279 0.30049,2.55422 0.041,0.45071 0.16896,2.13183 0,2.55423 -0.0526,0.13152 -0.24788,0.16897 -0.30049,0.30049 -0.15706,0.39265 -0.16347,1.34621 -0.3005,1.80298 -0.16388,0.54627 -0.46341,1.10241 -0.60099,1.65274 -0.16986,0.67943 -0.0266,1.46721 -0.45075,2.10348 -0.0897,0.1345 -1.04323,-0.20128 -1.20199,-0.3005 -0.15313,-0.0957 -0.18489,-0.31202 -0.30049,-0.45075 -0.13603,-0.16323 -0.35572,-0.26069 -0.45075,-0.45074 -0.0672,-0.13439 0.0592,-0.31265 0,-0.45075 -0.0986,-0.23016 -0.33876,-0.37701 -0.45074,-0.60099 -0.21133,-0.42265 -0.11082,-0.92546 -0.3005,-1.35224 -0.2362,-0.53143 -0.6032,-0.9103 -0.75124,-1.50248 -0.11482,-0.45927 0.4128,-1.69068 0.15024,-1.95323 -0.0606,-0.0606 -0.99971,0.55188 -1.20198,0.45074 -0.26436,-0.13218 -0.48689,-0.46881 -0.75125,-0.60099 -0.0911,-0.0455 -0.38778,-0.0873 -0.45074,-0.15025 -0.21242,-0.21242 -0.50172,-0.80221 -0.75124,-1.05174 -0.42433,-0.42433 -0.91165,-0.6213 -1.20199,-1.20199 -0.11199,-0.22397 0,-0.50082 0,-0.75124 0,-1.01662 -0.21624,-0.47883 0.60099,-0.75124 0.13439,-0.0448 0.16898,-0.24789 0.3005,-0.3005 0.1395,-0.0558 0.30821,0.0475 0.45075,0 0.1395,-0.0465 -0.1031,-0.42716 -0.15025,-0.45074 -0.30302,-0.15151 -0.48868,-0.10357 -0.75125,-0.3005 -0.53321,-0.39991 -0.97202,-0.95439 -1.50248,-1.35224 -0.26877,-0.20157 -0.6281,-0.25546 -0.90149,-0.45074 -0.40263,-0.28759 -0.38167,-0.53191 -0.60099,-0.75124 -0.0799,-0.0799 -0.39733,-0.0868 -0.45075,-0.3005 -0.0364,-0.14576 0.0413,-0.30628 0,-0.45074 -0.19343,-0.677 -0.72485,-1.43142 -0.45075,-2.25373 0.0608,-0.18248 0.60858,-1.28091 0.75125,-1.35224 0.23405,-0.11703 1.44703,-0.10285 1.65273,0 0.1267,0.0634 0.16611,0.2557 0.3005,0.3005 0.0672,0.0224 0.12394,-0.0845 0.15025,-0.15025 0.55895,-1.39737 0.81005,-3.35785 1.05173,-4.80795 0.0685,-0.41098 -0.0375,-1.42755 0.15025,-1.80298 0.11199,-0.22398 0.50276,0.0311 0.75125,0 0.36213,-0.0453 1.1391,-0.36338 1.20198,-0.3005 0.0785,0.0785 0.3005,0.66682 0.3005,0.45075 0,-0.50133 -0.15025,0.70352 -0.15025,0.75124 0,0.47558 0.70592,2.37545 0.90149,1.20199 0.0986,-0.59171 0.42019,-3.72566 0.75124,-4.05671 0.2837,-0.2837 2.16602,-0.5657 2.55423,-0.60099 0.29926,-0.0272 0.60331,0.0373 0.90149,0 0.15715,-0.0196 0.33876,-0.26224 0.45074,-0.15025 0.38132,0.38132 0.63015,0.9 0.90149,1.35223 1.27019,2.11698 1.53826,2.5757 1.80299,4.9582 0.0442,0.39821 -0.0497,0.80442 0,1.20199 0.0447,0.35802 0.34961,1.25401 0.15024,1.65273 -0.78059,1.56119 -0.17504,-0.0263 -0.30049,0.601 -0.0393,0.19656 -0.21241,1.71489 -0.3005,1.80298 -0.0708,0.0708 -0.21091,-0.0448 -0.3005,0 -0.0448,0.0224 0.0486,0.1381 0,0.15025 -0.19435,0.0486 -0.40455,-0.0393 -0.60099,0 -0.51072,0.10214 0.0563,0.38813 -0.75124,-0.15025 z"
       id="path3432" />
    <path
       style="fill:none;stroke:#000000;stroke-width:1px;stroke-linecap:butt;stroke-linejoin:miter;stroke-opacity:1"
       d="m 447.11886,212.00947 c -2.09397,0.62819 -2.14298,0.33009 -3.61222,1.91235 -0.48195,0.51902 -1.01185,1.04225 -1.2749,1.69987 -0.84782,2.11955 1.39195,4.9062 3.61222,4.46215 2.29285,-0.45857 7.38864,-2.90713 6.3745,-5.94954 -0.38134,-1.144 -1.37841,-0.95344 -1.91235,-1.48738 -0.0501,-0.0501 0.0633,-0.18081 0,-0.21249 -0.0778,-0.0389 -0.76055,0.0894 -0.84994,0 -0.0501,-0.0501 0.0633,-0.1808 0,-0.21248 -0.26671,-0.13336 -0.37073,-0.0791 -0.63745,-0.21248 -0.26529,-0.13265 -1.55946,0 -1.69986,0 z"
       id="path3434" />
    <path
       style="fill:none;stroke:#000000;stroke-width:1px;stroke-linecap:butt;stroke-linejoin:miter;stroke-opacity:1"
       d="m 444.14409,204.14758 c -0.17181,-0.90772 -0.16029,-1.80056 0,-2.76228 0.21468,-1.28811 0.0673,-0.0673 0.42497,-0.42497 0.40845,-0.40845 0.48589,-2.48925 1.69986,-3.39973 0.35519,-0.26639 0.8993,-0.44965 1.2749,-0.63745 0.54906,-0.27453 0.69821,0.0607 0.84994,0.21248 0.2435,0.2435 0.81891,0.39394 1.06241,0.63745 0.4379,0.4379 0.46615,1.18596 0.63745,1.69987 0.15442,0.46324 0.69538,1.02371 0.84994,1.48738 0.1715,0.51452 0.24971,1.1741 0.42496,1.69987 0.1478,0.44339 0.48966,0.61902 0.63746,1.06241 0.0448,0.13439 -0.10017,0.32481 0,0.42497 0.10016,0.10017 0.28331,0 0.42496,0 0.91487,0 0.97073,-0.54576 1.48739,-1.06242 0.18679,-0.18679 2.01192,-0.0282 2.12483,0 0.0972,0.0243 0.14166,0.14166 0.21248,0.21249 0.35414,0.0708 0.70406,0.16769 1.06242,0.21248 1.25184,0.15648 0.64444,0.007 1.2749,0.63745 0.0501,0.0501 0.19009,-0.0672 0.21248,0 0.0672,0.20158 -0.0672,0.43587 0,0.63745 0.0224,0.0672 0.1732,-0.0589 0.21249,0 0.57486,0.86229 0.89744,2.60567 1.2749,3.61222 0.83768,2.23381 -0.44152,-0.70366 0.21248,1.91235 0.02,0.0801 1.02935,1.50392 0.63745,1.69987 -1.66011,0.83005 0.84225,-1.05473 -0.63745,0.42496 -0.15025,0.15025 -0.4474,-0.095 -0.63745,0 -0.0793,0.0396 -0.39304,2.61366 -0.21248,2.97477 0.26113,0.52226 1.44164,1.46452 1.91235,1.69987 0.1267,0.0633 0.29826,-0.0634 0.42496,0 0.82235,0.41117 2.11661,3.15435 2.33732,4.03718 0.18424,0.73694 0.20217,3.43068 0,4.03719 -0.0255,0.0765 -0.33034,0.60591 -0.42496,0.63745 -0.40546,0.13515 -1.05966,0.33942 -1.48739,0.42497 -0.66615,0.13323 -6.43308,0.11542 -6.58698,0 -0.34576,-0.25932 -2.37022,-2.54981 -2.5498,-2.54981 -0.0708,0 0,0.14166 0,0.21249 0,0.42496 0,0.84993 0,1.2749 0,1.26966 0.11674,1.49828 -0.42497,2.76228 -0.63042,1.47097 -2.05215,3.49959 -3.39974,4.46215 -0.27451,0.67081 -1.20207,0.55126 -1.69986,0.84994 -0.51529,0.30917 -1.19628,1.02895 -1.91235,0.84993 -2.23071,-0.55768 -1.37474,-0.94977 -2.76229,-2.33732 -0.15837,-0.15837 -0.47907,-0.0541 -0.63745,-0.21248 -0.4746,-0.4746 -0.40659,-3.24238 -0.21248,-3.8247 0.24198,-0.72596 0.9337,-1.44856 0.63745,-2.33732 -0.0301,-0.0904 -2.48838,0 -2.76229,0 -1.59763,0 -2.74348,0.0386 -4.24966,-0.21248 -0.27946,-0.0466 -0.57508,0.0687 -0.84994,0 -3.9301,-0.98253 2.05632,0.0455 -1.69986,-0.63745 -0.56183,-0.10215 -1.29609,0.1913 -1.69987,-0.21249 -0.8335,-0.8335 -0.32546,-1.5304 0.21248,-2.33731 0.0393,-0.0589 -0.0634,-0.18081 0,-0.21249 0.1267,-0.0633 0.31164,0.085 0.42497,0 0.2043,-0.15322 0.22067,-0.48422 0.42497,-0.63745 0.23358,-0.17519 0.79716,0.13263 1.06241,0 0.2285,-0.11425 0.74438,-0.55794 1.06242,-0.63745 0.52979,-0.13244 0.42497,0.10169 0.42497,-0.42496 0,-1.08179 0.1414,-3.47082 -0.63745,-4.24967 -0.0663,-0.0663 -0.31449,-0.102 -0.42497,-0.21248 0,-0.14166 0.0786,-0.30711 0,-0.42497 -0.14332,-0.21497 -0.7642,-0.29453 -0.84993,-0.63745 -0.10307,-0.41228 0.13438,-0.87174 0,-1.2749 -0.0808,-0.24227 -0.32437,-0.40273 -0.42497,-0.63745 -0.57745,-1.34739 -0.88693,-4.24019 -0.63745,-5.73705 0.026,-0.15623 0.18645,-0.26875 0.21248,-0.42497 0.0466,-0.27946 -0.1267,-0.59653 0,-0.84993 0.13182,-0.26363 1.22086,-1.00838 1.48739,-1.27491 0.18057,-0.18057 0.19024,-0.53685 0.42496,-0.63745 0.1611,-0.069 4.13225,-0.37743 4.46215,-0.21248 0.0634,0.0317 -0.0589,0.1732 0,0.21248 0.18977,0.12652 1.26747,0.36999 1.48739,0.42497 0.38425,0.0961 1.19335,0.0815 1.48738,-0.21248 0.0501,-0.0501 -0.0501,-0.1624 0,-0.21249 0.42307,-0.42306 2.04066,0.2272 2.33732,0.42497 z"
       id="path3436" />
    <path
       style="fill:none;stroke:#000000;stroke-width:1px;stroke-linecap:butt;stroke-linejoin:miter;stroke-opacity:1"
       d="m 370.83732,205.42248 c 1.31904,4.35196 3.68969,8.27775 5.31208,12.53652 3.02426,7.93868 -0.31534,-0.28116 2.12484,7.6494 0.1863,0.60549 0.63343,1.10451 0.84993,1.69987 0.0726,0.19969 -0.095,0.4474 0,0.63745 0.0708,0.14166 0.33711,0.0807 0.42497,0.21249 0.0786,0.11786 -0.0633,0.29826 0,0.42496 0.30748,0.61498 1.11689,1.56911 1.48738,2.12484 0.29674,0.44511 0.51078,1.36071 0.84993,1.69986 0.31675,0.31676 0.85392,-0.27188 1.2749,-0.42496 2.18616,-0.79497 4.45928,-1.42544 6.58699,-2.33732 1.59935,-0.68544 6.7133,0.25557 7.6494,-0.21248 0.0634,-0.0317 -0.0139,-0.14303 0,-0.21249 0.25087,-1.25433 0.72453,-2.35822 0.84993,-3.61222 0.14026,-1.40251 0.39057,-2.82504 0.21249,-4.24966 -0.0725,-0.57955 -0.31733,-1.12581 -0.42497,-1.69987 -0.0478,-0.2547 -0.2832,-2.54949 -0.42497,-2.97477 -0.15024,-0.45074 -0.47507,-0.82838 -0.63745,-1.2749 -0.12342,-0.33941 -0.0983,-0.7198 -0.21248,-1.06242 -0.20033,-0.60099 -0.62749,-1.1067 -0.84993,-1.69986 -0.76102,-2.02939 -2.03875,-4.16358 -3.61222,-5.73705 -0.55357,-0.55357 -2.60492,-2.55094 -2.97477,-2.76229 -0.33116,-0.18924 -0.74505,-0.21339 -1.06241,-0.42497 -1.61507,-1.61506 -0.13065,-0.38404 -1.48739,-1.06241 -0.52921,-0.26461 -0.30025,-0.59588 -1.06242,-0.84994 -0.20636,-0.0688 -0.96687,0 -1.06241,0 -0.85384,0 -1.92921,-0.15146 -2.76229,0 -1.54917,0.28167 -3.13608,1.01848 -4.67463,1.2749 -0.27946,0.0466 -0.56662,0 -0.84994,0 -0.35413,0.14166 -0.69238,0.33246 -1.06241,0.42497 -0.20614,0.0515 -0.43587,-0.0672 -0.63745,0 -0.0672,0.0224 0.0501,0.1624 0,0.21248 -0.31873,0.31873 -0.95618,0.31873 -1.2749,0.63745 -0.0501,0.0501 0,0.14166 0,0.21249 -0.14166,0.14165 -0.25828,0.31384 -0.42497,0.42497 -0.40549,0.27032 -0.0717,-0.63615 -0.63745,0.21248 -0.0786,0.11786 0.0633,0.29826 0,0.42497 -0.0317,0.0634 -0.1624,-0.0501 -0.21248,0 -0.59458,0.59457 -0.16889,0.61702 -1.2749,-0.21249 z"
       id="path3438" />
    <path
       style="fill:none;stroke:#000000;stroke-width:1px;stroke-linecap:butt;stroke-linejoin:miter;stroke-opacity:1"
       d="m 393.14807,200.96033 c 2.01794,-0.58068 3.28586,-2.46821 5.31209,-2.97477 0.33331,-0.0833 0.72911,0.0833 1.06242,0 0.2229,-0.0557 1.00407,-0.69579 1.2749,-0.42496 0.20929,0.20929 0.78488,3.43441 0.84993,3.8247 0.0736,0.44186 0.17649,0.90218 0.42497,1.2749 0.0393,0.0589 0.19859,-0.0695 0.21248,0 0.20786,1.03929 0.13619,2.17654 0.42497,3.18725 0.13052,0.45684 0.58498,0.80268 0.63745,1.2749 0.086,0.77434 -0.0966,1.56423 0,2.33732 0.1519,1.2152 0.71506,2.39836 0.84993,3.61221 0.16325,1.46925 -0.16325,2.99291 0,4.46216 0.29837,2.68537 0.21248,-1.25126 0.21248,1.91235 0,1.00983 0.31041,2.07587 -0.63745,2.5498 -0.1267,0.0634 -0.3248,-0.10017 -0.42496,0 -1.09783,1.09783 0.69057,0.12395 -0.21249,0.42496 -0.18733,0.0625 -0.60518,0.66972 -0.84993,0.42497 -1.38673,-1.38673 -1.05395,-3.15336 -1.48738,-4.88712 -0.20107,-0.80426 -0.60614,-1.54496 -0.84994,-2.33731 -0.53531,-1.73976 -0.94467,-3.65065 -1.69987,-5.31209 -0.32768,-0.7209 -0.67784,-1.43261 -1.06241,-2.12483 -0.48696,-0.87652 -0.82928,-0.93208 -1.48739,-1.69987 -0.78976,-0.9214 -2.46797,-3.07244 -2.76228,-4.24967 -0.0896,-0.3585 0.15041,-1.0266 0.21248,-1.2749 z"
       id="path3440" />
    <path
       style="fill:none;stroke:#000000;stroke-width:1px;stroke-linecap:butt;stroke-linejoin:miter;stroke-opacity:1"
       d="m 406.95949,201.17281 c 0.12438,2.7545 -0.17197,5.53534 0,8.28686 0.14643,2.34287 0.87001,4.4905 1.06242,6.79947 0.0289,0.34662 -0.1564,4.73071 0,4.88711 0.25042,0.25042 0.65349,-0.34279 0.84993,-0.63745 0.83567,-1.25349 1.55066,-3.23918 2.12484,-4.67463 0.72604,-1.81511 -0.0625,-4.23681 0.21248,-6.16202 0.14955,-1.04682 1.10179,-6.50825 0.63745,-7.43692 -0.0708,-0.14165 -0.27132,-0.17407 -0.42496,-0.21248 -0.20614,-0.0515 -0.4291,0.0417 -0.63745,0 -1.005,-0.201 -1.85789,-1.2749 -2.76229,-1.2749"
       id="path3442" />
  </g>
  <path
     id="path111"
     style="fill:#000000;fill-opacity:0.5;stroke-width:5.98411;stroke-linecap:round;stroke-linejoin:round"
     d="M 160 0 A 160 160 0 0 0 0 160 A 160 160 0 0 0 160 320 A 160 160 0 0 0 320 160 A 160 160 0 0 0 160 0 z M 140.00195 93.068359 L 220.98242 93.068359 L 220.98242 103.26758 L 232.88086 103.26758 L 232.88086 184.43555 L 157.23828 184.43555 L 157.23828 169.78125 L 140.00195 169.78125 L 140.00195 93.068359 z " />
</svg>
