<?xml version="1.0" encoding="UTF-8" standalone="no"?>
<!--
Copyright (C) 2009/2010/2011 Ulrich Apel.
This work is distributed under the conditions of the Creative Commons
Attribution-Share Alike 3.0 Licence. This means you are free:
* to Share - to copy, distribute and transmit the work
* to Remix - to adapt the work

Under the following conditions:
* Attribution. You must attribute the work by stating your use of KanjiVG in
  your own copyright header and linking to KanjiVG's website
  (http://kanjivg.tagaini.net)
* Share Alike. If you alter, transform, or build upon this work, you may
  distribute the resulting work only under the same or similar license to this
  one.

See http://creativecommons.org/licenses/by-sa/3.0/ for more details.
-->

<svg
   width="109"
   height="109"
   viewBox="0 0 109 109"
   version="1.1"
   id="svg23"
   sodipodi:docname="ぎょ.svg"
   inkscape:version="1.1 (c68e22c387, 2021-05-23)"
   xmlns:inkscape="http://www.inkscape.org/namespaces/inkscape"
   xmlns:sodipodi="http://sodipodi.sourceforge.net/DTD/sodipodi-0.dtd"
   xmlns="http://www.w3.org/2000/svg"
   xmlns:svg="http://www.w3.org/2000/svg">
  <defs
     id="defs27" />
  <sodipodi:namedview
     id="namedview25"
     pagecolor="#ffffff"
     bordercolor="#666666"
     borderopacity="1.0"
     inkscape:pageshadow="2"
     inkscape:pageopacity="0.0"
     inkscape:pagecheckerboard="0"
     showgrid="false"
     inkscape:zoom="5.4492633"
     inkscape:cx="8.7167747"
     inkscape:cy="33.215499"
     inkscape:window-width="2491"
     inkscape:window-height="1057"
     inkscape:window-x="61"
     inkscape:window-y="-8"
     inkscape:window-maximized="1"
     inkscape:current-layer="svg23" />
  <g
     id="kvg:StrokePaths_0304e"
     style="fill:none;stroke:#000000;stroke-width:3.29799848;stroke-linecap:round;stroke-linejoin:round;stroke-miterlimit:4;stroke-dasharray:none"
     transform="matrix(0.90990544,0,0,0.90937989,-11.921846,6.6259467)">
    <g
       id="kvg:0304e"
       style="stroke-width:3.29799848;stroke-miterlimit:4;stroke-dasharray:none">
      <path
         id="kvg:0304e-s1"
         d="m 30.5,30.5 c 1.88,0.75 4.64,1.06 5.88,0.88 6.75,-1 22.25,-4.5 26.5,-6 2.17,-0.76 3.5,-1.25 4.88,-2.12"
         style="stroke-width:3.29799848;stroke-miterlimit:4;stroke-dasharray:none" />
      <path
         id="kvg:0304e-s2"
         d="m 36.25,48.95 c 2.01,0.85 4.97,1.2 6.29,0.99 7.23,-1.13 23.82,-5.09 28.37,-6.79 2.32,-0.86 3.75,-1.41 5.22,-2.4"
         style="stroke-width:3.29799848;stroke-miterlimit:4;stroke-dasharray:none" />
      <path
         id="kvg:0304e-s3"
         d="m 42,14.38 c 1.5,0.88 3.13,2.94 4,5.12 5.5,13.75 16,29.25 26.38,40.75 7.64,8.47 9.12,9.38 -6,3.88"
         style="stroke-width:3.29799848;stroke-miterlimit:4;stroke-dasharray:none" />
      <path
         id="kvg:0304e-s4"
         d="m 33.75,83.5 c 10.62,9.75 27.25,8.62 38.12,5"
         style="stroke-width:3.29799848;stroke-miterlimit:4;stroke-dasharray:none" />
      <path
         id="kvg:0304e-s5"
         d="m 77.37,19 c 2.75,1.75 6,5.38 7.75,8.5"
         style="stroke-width:3.29799848;stroke-miterlimit:4;stroke-dasharray:none" />
      <path
         id="kvg:0304e-s6"
         d="m 83.75,14.12 c 3.06,1.57 6.68,4.82 8.62,7.62"
         style="stroke-width:3.29799848;stroke-miterlimit:4;stroke-dasharray:none" />
    </g>
  </g>
  <text
     id="text10"
     style="font-size:8px;fill:#808080"
     x="12.500513"
     y="30.286707">1</text>
  <text
     id="text12"
     style="font-size:8px;fill:#808080"
     x="18.036684"
     y="46.745346">2</text>
  <text
     id="text14"
     style="font-size:8px;fill:#808080"
     x="30.222231"
     y="17.555481">3</text>
  <text
     id="text16"
     style="font-size:8px;fill:#808080"
     x="16.730251"
     y="78.498413">4</text>
  <text
     id="text18"
     style="font-size:8px;fill:#808080"
     x="50.050934"
     y="24.028732">5</text>
  <text
     id="text20"
     style="font-size:8px;fill:#808080"
     x="60.952221"
     y="15.330265">6</text>
  <g
     id="kvg:StrokePaths_03087"
     style="fill:none;stroke:#000000;stroke-width:5.7085052;stroke-linecap:round;stroke-linejoin:round;stroke-miterlimit:4;stroke-dasharray:none"
     transform="matrix(0.52295712,0,0,0.5281188,52.643611,39.313231)">
    <g
       id="kvg:03087"
       style="stroke-width:5.7085052;stroke-miterlimit:4;stroke-dasharray:none">
      <path
         id="kvg:03087-s1"
         d="m 57.8,50.06 c 5.98,-1.02 10.95,-2.09 14.74,-3.25 1.99,-0.61 3.8,-0.91 4.98,-0.91"
         style="stroke-width:5.7085052;stroke-miterlimit:4;stroke-dasharray:none" />
      <path
         id="kvg:03087-s2"
         d="m 54.91,33 c 1.79,1.69 2.38,3.28 2.29,5.16 -0.6,13.49 -0.1,27.68 1.11,42.47 1.5,18.31 -27.81,16.56 -27.81,9.12 0,-9.53 20.92,-6.35 28.68,-3.27 6.46,2.56 9.18,3.87 14.76,8.23"
         style="stroke-width:5.7085052;stroke-miterlimit:4;stroke-dasharray:none" />
    </g>
  </g>
  <text
     transform="scale(0.99535935,1.0046623)"
     id="text6"
     style="font-size:6.02912px;fill:#808080;stroke-width:1"
     x="86.468704"
     y="73.27037">7</text>
  <text
     transform="scale(0.99535935,1.0046623)"
     id="text8"
     style="font-size:6.02912px;fill:#808080;stroke-width:1"
     x="74.517334"
     y="57.39566">8</text>
</svg>
