<?xml version="1.0" encoding="UTF-8" standalone="no"?>
<!--
Copyright (C) 2009/2010/2011 Ulrich Apel.
This work is distributed under the conditions of the Creative Commons
Attribution-Share Alike 3.0 Licence. This means you are free:
* to Share - to copy, distribute and transmit the work
* to Remix - to adapt the work

Under the following conditions:
* Attribution. You must attribute the work by stating your use of KanjiVG in
  your own copyright header and linking to KanjiVG's website
  (http://kanjivg.tagaini.net)
* Share Alike. If you alter, transform, or build upon this work, you may
  distribute the resulting work only under the same or similar license to this
  one.

See http://creativecommons.org/licenses/by-sa/3.0/ for more details.
-->

<svg
   width="109"
   height="109"
   viewBox="0 0 109 109"
   version="1.1"
   id="svg23"
   sodipodi:docname="ぎゅ.svg"
   inkscape:version="1.1 (c68e22c387, 2021-05-23)"
   xmlns:inkscape="http://www.inkscape.org/namespaces/inkscape"
   xmlns:sodipodi="http://sodipodi.sourceforge.net/DTD/sodipodi-0.dtd"
   xmlns="http://www.w3.org/2000/svg"
   xmlns:svg="http://www.w3.org/2000/svg">
  <defs
     id="defs27" />
  <sodipodi:namedview
     id="namedview25"
     pagecolor="#ffffff"
     bordercolor="#666666"
     borderopacity="1.0"
     inkscape:pageshadow="2"
     inkscape:pageopacity="0.0"
     inkscape:pagecheckerboard="0"
     showgrid="false"
     inkscape:zoom="7.0091743"
     inkscape:cx="50.861911"
     inkscape:cy="54.5"
     inkscape:window-width="2491"
     inkscape:window-height="1057"
     inkscape:window-x="61"
     inkscape:window-y="-8"
     inkscape:window-maximized="1"
     inkscape:current-layer="svg23" />
  <g
     id="kvg:StrokePaths_0304e"
     style="fill:none;stroke:#000000;stroke-width:3.41645418;stroke-linecap:round;stroke-linejoin:round;stroke-miterlimit:4;stroke-dasharray:none"
     transform="matrix(0.8814279,0,0,0.87479142,-13.02398,8.4449959)">
    <g
       id="kvg:0304e"
       style="stroke-width:3.41645418;stroke-miterlimit:4;stroke-dasharray:none">
      <path
         id="kvg:0304e-s1"
         d="m 30.5,30.5 c 1.88,0.75 4.64,1.06 5.88,0.88 6.75,-1 22.25,-4.5 26.5,-6 2.17,-0.76 3.5,-1.25 4.88,-2.12"
         style="stroke-width:3.41645418;stroke-miterlimit:4;stroke-dasharray:none" />
      <path
         id="kvg:0304e-s2"
         d="m 36.25,48.95 c 2.01,0.85 4.97,1.2 6.29,0.99 7.23,-1.13 23.82,-5.09 28.37,-6.79 2.32,-0.86 3.75,-1.41 5.22,-2.4"
         style="stroke-width:3.41645418;stroke-miterlimit:4;stroke-dasharray:none" />
      <path
         id="kvg:0304e-s3"
         d="m 42,14.38 c 1.5,0.88 3.13,2.94 4,5.12 5.5,13.75 16,29.25 26.38,40.75 7.64,8.47 9.12,9.38 -6,3.88"
         style="stroke-width:3.41645418;stroke-miterlimit:4;stroke-dasharray:none" />
      <path
         id="kvg:0304e-s4"
         d="m 33.75,83.5 c 10.62,9.75 27.25,8.62 38.12,5"
         style="stroke-width:3.41645418;stroke-miterlimit:4;stroke-dasharray:none" />
      <path
         id="kvg:0304e-s5"
         d="m 77.37,19 c 2.75,1.75 6,5.38 7.75,8.5"
         style="stroke-width:3.41645418;stroke-miterlimit:4;stroke-dasharray:none" />
      <path
         id="kvg:0304e-s6"
         d="m 83.75,14.12 c 3.06,1.57 6.68,4.82 8.62,7.62"
         style="stroke-width:3.41645418;stroke-miterlimit:4;stroke-dasharray:none" />
    </g>
  </g>
  <text
     id="text10"
     style="font-size:7.34107px;fill:#808080;stroke-width:1"
     x="11.295434"
     y="30.914028">1</text>
  <text
     id="text12"
     style="font-size:7.34107px;fill:#808080;stroke-width:1"
     x="16.899069"
     y="47.08136">2</text>
  <text
     id="text14"
     style="font-size:7.34107px;fill:#808080;stroke-width:1"
     x="27.314056"
     y="18.607943">3</text>
  <text
     id="text16"
     style="font-size:7.34107px;fill:#808080;stroke-width:1"
     x="15.365672"
     y="77.359978">4</text>
  <text
     id="text18"
     style="font-size:7.34107px;fill:#808080;stroke-width:1"
     x="47.188831"
     y="24.548992">5</text>
  <text
     id="text20"
     style="font-size:7.34107px;fill:#808080;stroke-width:1"
     x="56.523342"
     y="17.059374">6</text>
  <g
     id="kvg:StrokePaths_03085"
     style="fill:none;stroke:#000000;stroke-width:5.75003793;stroke-linecap:round;stroke-linejoin:round;stroke-miterlimit:4;stroke-dasharray:none"
     transform="matrix(0.52275903,0,0,0.52071435,51.850503,38.99548)">
    <g
       id="kvg:03085"
       style="stroke-width:5.75003793;stroke-miterlimit:4;stroke-dasharray:none">
      <path
         id="kvg:03085-s1"
         d="m 27.74,40.79 c 1.1,1.2 1.61,3.3 1.2,5 -2.3,9.4 -3.2,17.79 -1.7,27.99 2.22,15.08 0.9,3.1 2.6,-1.2 7.19,-18.19 21.79,-27.59 35.49,-27.59 13.5,0 17.49,9.1 17.49,16.2 0,21.89 -24.69,23.69 -34.39,13.4"
         style="stroke-width:5.75003793;stroke-miterlimit:4;stroke-dasharray:none" />
      <path
         id="kvg:03085-s2"
         d="m 57.63,33.89 c 2.1,1.4 2.53,2.5 2.8,5.7 0.7,8.4 1.12,14.97 1.3,23.49 0.4,19.19 -5,25.59 -9.9,31.39"
         style="stroke-width:5.75003793;stroke-miterlimit:4;stroke-dasharray:none" />
    </g>
  </g>
  <text
     transform="scale(0.99980194,1.0001981)"
     id="text6"
     style="font-size:6.05236px;fill:#808080;stroke-width:1"
     x="59.217106"
     y="59.742531">7</text>
  <text
     transform="scale(0.99980194,1.0001981)"
     id="text8"
     style="font-size:6.05236px;fill:#808080;stroke-width:1"
     x="84.29837"
     y="53.349869">8</text>
</svg>
