<?xml version="1.0" encoding="UTF-8" standalone="no"?>
<!--
Copyright (C) 2009/2010/2011 Ulrich Apel.
This work is distributed under the conditions of the Creative Commons
Attribution-Share Alike 3.0 Licence. This means you are free:
* to Share - to copy, distribute and transmit the work
* to Remix - to adapt the work

Under the following conditions:
* Attribution. You must attribute the work by stating your use of KanjiVG in
  your own copyright header and linking to KanjiVG's website
  (http://kanjivg.tagaini.net)
* Share Alike. If you alter, transform, or build upon this work, you may
  distribute the resulting work only under the same or similar license to this
  one.

See http://creativecommons.org/licenses/by-sa/3.0/ for more details.
-->

<svg
   width="109"
   height="109"
   viewBox="0 0 109 109"
   version="1.1"
   id="svg14"
   sodipodi:docname="じょ.svg"
   inkscape:version="1.1 (c68e22c387, 2021-05-23)"
   xmlns:inkscape="http://www.inkscape.org/namespaces/inkscape"
   xmlns:sodipodi="http://sodipodi.sourceforge.net/DTD/sodipodi-0.dtd"
   xmlns="http://www.w3.org/2000/svg"
   xmlns:svg="http://www.w3.org/2000/svg">
  <defs
     id="defs18" />
  <sodipodi:namedview
     id="namedview16"
     pagecolor="#ffffff"
     bordercolor="#666666"
     borderopacity="1.0"
     inkscape:pageshadow="2"
     inkscape:pageopacity="0.0"
     inkscape:pagecheckerboard="0"
     showgrid="false"
     inkscape:zoom="7.0091743"
     inkscape:cx="50.861911"
     inkscape:cy="58.209424"
     inkscape:window-width="2491"
     inkscape:window-height="1057"
     inkscape:window-x="61"
     inkscape:window-y="-8"
     inkscape:window-maximized="1"
     inkscape:current-layer="svg14" />
  <g
     id="kvg:StrokePaths_03058"
     style="fill:none;stroke:#000000;stroke-width:3.06806734;stroke-linecap:round;stroke-linejoin:round;stroke-miterlimit:4;stroke-dasharray:none"
     transform="matrix(0.98074859,0,0,0.97488871,-20.510333,1.578127)">
    <g
       id="kvg:03058"
       style="stroke-width:3.06806734;stroke-miterlimit:4;stroke-dasharray:none">
      <path
         id="kvg:03058-s1"
         d="m 39.12,17.25 c 1.25,3.12 0.93,6.74 0.38,10.25 -2.12,13.5 -3,26.5 -3,39.12 0,27.38 19.88,30.12 45.5,17.25"
         style="stroke-width:3.06806734;stroke-miterlimit:4;stroke-dasharray:none" />
      <path
         id="kvg:03058-s2"
         d="m 64.24,27 c 2.75,1.75 6,5.38 7.75,8.5"
         style="stroke-width:3.06806734;stroke-miterlimit:4;stroke-dasharray:none" />
      <path
         id="kvg:03058-s3"
         d="m 70.62,22.12 c 3.06,1.57 6.68,4.82 8.62,7.62"
         style="stroke-width:3.06806734;stroke-miterlimit:4;stroke-dasharray:none" />
    </g>
  </g>
  <text
     id="text7"
     style="font-size:8px;fill:#808080"
     x="22.504404"
     y="20.38081">1</text>
  <text
     id="text9"
     style="font-size:8px;fill:#808080"
     x="33.844719"
     y="28.934055">2</text>
  <text
     id="text11"
     style="font-size:8px;fill:#808080"
     x="45.396191"
     y="19.105942">3</text>
  <g
     id="kvg:StrokePaths_03087"
     style="fill:none;stroke:#000000;stroke-width:5.52416862;stroke-linecap:round;stroke-linejoin:round;stroke-miterlimit:4;stroke-dasharray:none"
     transform="matrix(0.54184724,0,0,0.5442918,51.724744,38.845511)">
    <g
       id="kvg:03087"
       style="stroke-width:5.52416862;stroke-miterlimit:4;stroke-dasharray:none">
      <path
         id="kvg:03087-s1"
         d="m 57.8,50.06 c 5.98,-1.02 10.95,-2.09 14.74,-3.25 1.99,-0.61 3.8,-0.91 4.98,-0.91"
         style="stroke-width:5.52416862;stroke-miterlimit:4;stroke-dasharray:none" />
      <path
         id="kvg:03087-s2"
         d="m 54.91,33 c 1.79,1.69 2.38,3.28 2.29,5.16 -0.6,13.49 -0.1,27.68 1.11,42.47 1.5,18.31 -27.81,16.56 -27.81,9.12 0,-9.53 20.92,-6.35 28.68,-3.27 6.46,2.56 9.18,3.87 14.76,8.23"
         style="stroke-width:5.52416862;stroke-miterlimit:4;stroke-dasharray:none" />
    </g>
  </g>
  <text
     transform="scale(1.0367343,0.9645673)"
     id="text6"
     style="font-size:7.05562px;fill:#808080;stroke-width:1"
     x="83.02504"
     y="76.662552">4</text>
  <text
     transform="scale(1.0367343,0.9645673)"
     id="text8"
     style="font-size:7.05562px;fill:#808080;stroke-width:1"
     x="70.980659"
     y="58.781853">5</text>
</svg>
