<?xml version="1.0" encoding="UTF-8" standalone="no"?>
<!--
Copyright (C) 2009/2010/2011 Ulrich Apel.
This work is distributed under the conditions of the Creative Commons
Attribution-Share Alike 3.0 Licence. This means you are free:
* to Share - to copy, distribute and transmit the work
* to Remix - to adapt the work

Under the following conditions:
* Attribution. You must attribute the work by stating your use of KanjiVG in
  your own copyright header and linking to KanjiVG's website
  (http://kanjivg.tagaini.net)
* Share Alike. If you alter, transform, or build upon this work, you may
  distribute the resulting work only under the same or similar license to this
  one.

See http://creativecommons.org/licenses/by-sa/3.0/ for more details.
-->

<svg
   width="109"
   height="109"
   viewBox="0 0 109 109"
   version="1.1"
   id="svg11"
   sodipodi:docname="ちょ.svg"
   inkscape:version="1.1 (c68e22c387, 2021-05-23)"
   xmlns:inkscape="http://www.inkscape.org/namespaces/inkscape"
   xmlns:sodipodi="http://sodipodi.sourceforge.net/DTD/sodipodi-0.dtd"
   xmlns="http://www.w3.org/2000/svg"
   xmlns:svg="http://www.w3.org/2000/svg">
  <defs
     id="defs15" />
  <sodipodi:namedview
     id="namedview13"
     pagecolor="#ffffff"
     bordercolor="#666666"
     borderopacity="1.0"
     inkscape:pageshadow="2"
     inkscape:pageopacity="0.0"
     inkscape:pagecheckerboard="0"
     showgrid="false"
     inkscape:zoom="7.0091743"
     inkscape:cx="50.861911"
     inkscape:cy="55.213351"
     inkscape:window-width="2491"
     inkscape:window-height="1057"
     inkscape:window-x="61"
     inkscape:window-y="-8"
     inkscape:window-maximized="1"
     inkscape:current-layer="svg11" />
  <g
     id="kvg:StrokePaths_03061"
     style="fill:none;stroke:#000000;stroke-width:3.2138149;stroke-linecap:round;stroke-linejoin:round;stroke-miterlimit:4;stroke-dasharray:none"
     transform="matrix(0.93676543,0,0,0.93018629,-11.518479,4.3890686)">
    <g
       id="kvg:03061"
       style="stroke-width:3.2138149;stroke-miterlimit:4;stroke-dasharray:none">
      <path
         id="kvg:03061-s1"
         d="m 24.5,32.62 c 1.38,0.62 3.88,1.51 6.38,1.12 6.5,-1 18.25,-4.12 26.88,-6 2.64,-0.57 5.38,-1.5 7.62,-2.38"
         style="stroke-width:3.2138149;stroke-miterlimit:4;stroke-dasharray:none" />
      <path
         id="kvg:03061-s2"
         d="m 45.62,15.62 c 0.75,1.25 0.71,3.58 0.38,5.25 -3,15 -4.25,22.59 -8.38,38.62 -3.25,12.62 -5.38,11.12 3.62,4.38 8.29,-6.21 19.75,-9.5 28.5,-9.5 8.62,0 14.58,5.88 14.5,14.5 -0.12,13.5 -16.5,20.62 -29.88,23.25"
         style="stroke-width:3.2138149;stroke-miterlimit:4;stroke-dasharray:none" />
    </g>
  </g>
  <text
     id="text6"
     style="font-size:8px;fill:#808080"
     x="8.5748491"
     y="30.651358">1</text>
  <text
     id="text8"
     style="font-size:8px;fill:#808080"
     x="22.328775"
     y="19.982094">2</text>
  <g
     id="kvg:StrokePaths_03087"
     style="fill:none;stroke:#000000;stroke-width:5.58582263;stroke-linecap:round;stroke-linejoin:round;stroke-miterlimit:4;stroke-dasharray:none"
     transform="matrix(0.53754708,0,0,0.5366013,55.905036,39.062863)">
    <g
       id="kvg:03087"
       style="stroke-width:5.58582263;stroke-miterlimit:4;stroke-dasharray:none">
      <path
         id="kvg:03087-s1"
         d="m 57.8,50.06 c 5.98,-1.02 10.95,-2.09 14.74,-3.25 1.99,-0.61 3.8,-0.91 4.98,-0.91"
         style="stroke-width:5.58582263;stroke-miterlimit:4;stroke-dasharray:none" />
      <path
         id="kvg:03087-s2"
         d="m 54.91,33 c 1.79,1.69 2.38,3.28 2.29,5.16 -0.6,13.49 -0.1,27.68 1.11,42.47 1.5,18.31 -27.81,16.56 -27.81,9.12 0,-9.53 20.92,-6.35 28.68,-3.27 6.46,2.56 9.18,3.87 14.76,8.23"
         style="stroke-width:5.58582263;stroke-miterlimit:4;stroke-dasharray:none" />
    </g>
  </g>
  <text
     transform="scale(0.99574399,1.0042742)"
     id="text6-0"
     style="font-size:6.21131px;fill:#808080;stroke-width:1"
     x="90.588562"
     y="73.25174">3</text>
  <text
     transform="scale(0.99574399,1.0042742)"
     id="text8-2"
     style="font-size:6.21131px;fill:#808080;stroke-width:1"
     x="78.266106"
     y="56.538895">4</text>
</svg>
