<?xml version="1.0" encoding="UTF-8" standalone="no"?>
<!--
Copyright (C) 2009/2010/2011 Ulrich Apel.
This work is distributed under the conditions of the Creative Commons
Attribution-Share Alike 3.0 Licence. This means you are free:
* to Share - to copy, distribute and transmit the work
* to Remix - to adapt the work

Under the following conditions:
* Attribution. You must attribute the work by stating your use of KanjiVG in
  your own copyright header and linking to KanjiVG's website
  (http://kanjivg.tagaini.net)
* Share Alike. If you alter, transform, or build upon this work, you may
  distribute the resulting work only under the same or similar license to this
  one.

See http://creativecommons.org/licenses/by-sa/3.0/ for more details.
-->

<svg
   width="109"
   height="109"
   viewBox="0 0 109 109"
   version="1.1"
   id="svg17"
   sodipodi:docname="ぢゃ.svg"
   inkscape:version="1.1 (c68e22c387, 2021-05-23)"
   xmlns:inkscape="http://www.inkscape.org/namespaces/inkscape"
   xmlns:sodipodi="http://sodipodi.sourceforge.net/DTD/sodipodi-0.dtd"
   xmlns="http://www.w3.org/2000/svg"
   xmlns:svg="http://www.w3.org/2000/svg">
  <defs
     id="defs21" />
  <sodipodi:namedview
     id="namedview19"
     pagecolor="#ffffff"
     bordercolor="#666666"
     borderopacity="1.0"
     inkscape:pageshadow="2"
     inkscape:pageopacity="0.0"
     inkscape:pagecheckerboard="0"
     showgrid="false"
     inkscape:zoom="7.0091743"
     inkscape:cx="50.861911"
     inkscape:cy="54.5"
     inkscape:window-width="2491"
     inkscape:window-height="1057"
     inkscape:window-x="61"
     inkscape:window-y="-8"
     inkscape:window-maximized="1"
     inkscape:current-layer="g915" />
  <g
     id="g915"
     transform="matrix(0.74038292,0,0,0.73752967,-9.1090185,14.581207)"
     style="stroke-width:1.35326">
    <g
       id="kvg:StrokePaths_03062"
       style="fill:none;stroke:#000000;stroke-width:3.49144348;stroke-linecap:round;stroke-linejoin:round;stroke-miterlimit:4;stroke-dasharray:none"
       transform="matrix(1.170616,0,0,1.1550004,-2.8352775,-8.3914588)">
      <g
         id="kvg:03062"
         style="stroke-width:3.49144348;stroke-miterlimit:4;stroke-dasharray:none">
        <path
           id="kvg:03062-s1"
           d="m 24.5,32.88 c 1.38,0.62 3.88,1.51 6.38,1.12 6.5,-1 18.25,-4.12 26.88,-6 2.64,-0.57 5.38,-1.5 7.62,-2.38"
           style="stroke-width:3.49144348;stroke-miterlimit:4;stroke-dasharray:none" />
        <path
           id="kvg:03062-s2"
           d="m 45.63,15.88 c 0.75,1.25 0.71,3.58 0.38,5.25 -3,15 -4.25,22.59 -8.38,38.62 -3.26,12.63 -5.38,11.13 3.62,4.37 8.29,-6.21 19.75,-9.5 28.5,-9.5 8.62,0 14.58,5.88 14.5,14.5 -0.12,13.5 -16.5,20.62 -29.88,23.25"
           style="stroke-width:3.49144348;stroke-miterlimit:4;stroke-dasharray:none" />
        <path
           id="kvg:03062-s3"
           d="m 74.63,21.75 c 2.75,1.75 6,5.38 7.75,8.5"
           style="stroke-width:3.49144348;stroke-miterlimit:4;stroke-dasharray:none" />
        <path
           id="kvg:03062-s4"
           d="m 81,16.88 c 3.06,1.57 6.68,4.82 8.62,7.62"
           style="stroke-width:3.49144348;stroke-miterlimit:4;stroke-dasharray:none" />
      </g>
    </g>
    <text
       id="text8"
       style="font-size:8px;fill:#808080;stroke-width:1.35326"
       x="22.588438"
       y="23.989279">1</text>
    <text
       id="text10"
       style="font-size:8px;fill:#808080;stroke-width:1.35326"
       x="40.839268"
       y="10.960095">2</text>
    <text
       id="text12"
       style="font-size:8px;fill:#808080;stroke-width:1.35326"
       x="74.978432"
       y="16.315508">3</text>
    <text
       id="text14"
       style="font-size:8px;fill:#808080;stroke-width:1.35326"
       x="86.889359"
       y="5.9725389">4</text>
    <g
       id="kvg:StrokePaths_03083"
       style="fill:none;stroke:#000000;stroke-width:5.86998606;stroke-linecap:round;stroke-linejoin:round;stroke-miterlimit:4;stroke-dasharray:none"
       transform="matrix(0.69395483,0,0,0.68928889,86.461436,33.155633)">
      <g
         id="kvg:03083"
         style="stroke-width:5.86998606;stroke-miterlimit:4;stroke-dasharray:none">
        <path
           id="kvg:03083-s1"
           d="m 26,61.07 c 1.49,1.29 4.16,1.98 6.84,0.69 C 47.52,54.73 61.2,46.4 73.16,46.5 c 7.16,0.11 12.7,3.28 12.63,9.75 0,6.61 -8.63,13.15 -19.43,14.14"
           style="stroke-width:5.86998606;stroke-miterlimit:4;stroke-dasharray:none" />
        <path
           id="kvg:03083-s2"
           d="m 49.1,28.32588 c 4.07,0.69 8.25,3.21 9.12,5.25 1.69,3.97 -0.79,1.88 -2.28,2.08"
           style="stroke-width:5.86998606;stroke-miterlimit:4;stroke-dasharray:none" />
        <path
           id="kvg:03083-s3"
           d="m 35.77,40.99 c 1.88,1.49 2.35,2.77 2.82,4.67 2.08,8.33 8.82,32.37 11.7,41.39 0.51,1.62 1.49,4.96 2.28,7.44"
           style="stroke-width:5.86998606;stroke-miterlimit:4;stroke-dasharray:none" />
      </g>
    </g>
    <text
       id="text7"
       style="font-size:8px;fill:#808080;stroke-width:1.35326"
       x="98.732536"
       y="87.24147">5</text>
    <text
       id="text9"
       style="font-size:8px;fill:#808080;stroke-width:1.35326"
       x="116.59746"
       y="47.26601">6</text>
    <text
       id="text11"
       style="font-size:8px;fill:#808080;stroke-width:1.35326"
       x="101.67016"
       y="60.875862">7</text>
  </g>
</svg>
