<?xml version="1.0" encoding="UTF-8" standalone="no"?>
<!--
Copyright (C) 2009/2010/2011 Ulrich Apel.
This work is distributed under the conditions of the Creative Commons
Attribution-Share Alike 3.0 Licence. This means you are free:
* to Share - to copy, distribute and transmit the work
* to Remix - to adapt the work

Under the following conditions:
* Attribution. You must attribute the work by stating your use of KanjiVG in
  your own copyright header and linking to KanjiVG's website
  (http://kanjivg.tagaini.net)
* Share Alike. If you alter, transform, or build upon this work, you may
  distribute the resulting work only under the same or similar license to this
  one.

See http://creativecommons.org/licenses/by-sa/3.0/ for more details.
-->

<svg
   width="109"
   height="109"
   viewBox="0 0 109 109"
   version="1.1"
   id="svg17"
   sodipodi:docname="ぢゅ.svg"
   inkscape:version="1.1 (c68e22c387, 2021-05-23)"
   xmlns:inkscape="http://www.inkscape.org/namespaces/inkscape"
   xmlns:sodipodi="http://sodipodi.sourceforge.net/DTD/sodipodi-0.dtd"
   xmlns="http://www.w3.org/2000/svg"
   xmlns:svg="http://www.w3.org/2000/svg">
  <defs
     id="defs21" />
  <sodipodi:namedview
     id="namedview19"
     pagecolor="#ffffff"
     bordercolor="#666666"
     borderopacity="1.0"
     inkscape:pageshadow="2"
     inkscape:pageopacity="0.0"
     inkscape:pagecheckerboard="0"
     showgrid="false"
     inkscape:zoom="7.0091743"
     inkscape:cx="66.412958"
     inkscape:cy="45.939791"
     inkscape:window-width="2491"
     inkscape:window-height="1057"
     inkscape:window-x="61"
     inkscape:window-y="-8"
     inkscape:window-maximized="1"
     inkscape:current-layer="svg17" />
  <g
     id="kvg:StrokePaths_03062"
     style="fill:none;stroke:#000000;stroke-width:3.46072044;stroke-linecap:round;stroke-linejoin:round;stroke-miterlimit:4;stroke-dasharray:none"
     transform="matrix(0.87174384,0,0,0.86202644,-11.340875,7.8417161)">
    <g
       id="kvg:03062"
       style="stroke-width:3.46072044;stroke-miterlimit:4;stroke-dasharray:none">
      <path
         id="kvg:03062-s1"
         d="m 24.5,32.88 c 1.38,0.62 3.88,1.51 6.38,1.12 6.5,-1 18.25,-4.12 26.88,-6 2.64,-0.57 5.38,-1.5 7.62,-2.38"
         style="stroke-width:3.46072044;stroke-miterlimit:4;stroke-dasharray:none" />
      <path
         id="kvg:03062-s2"
         d="m 45.63,15.88 c 0.75,1.25 0.71,3.58 0.38,5.25 -3,15 -4.25,22.59 -8.38,38.62 -3.26,12.63 -5.38,11.13 3.62,4.37 8.29,-6.21 19.75,-9.5 28.5,-9.5 8.62,0 14.58,5.88 14.5,14.5 -0.12,13.5 -16.5,20.62 -29.88,23.25"
         style="stroke-width:3.46072044;stroke-miterlimit:4;stroke-dasharray:none" />
      <path
         id="kvg:03062-s3"
         d="m 74.63,21.75 c 2.75,1.75 6,5.38 7.75,8.5"
         style="stroke-width:3.46072044;stroke-miterlimit:4;stroke-dasharray:none" />
      <path
         id="kvg:03062-s4"
         d="m 81,16.88 c 3.06,1.57 6.68,4.82 8.62,7.62"
         style="stroke-width:3.46072044;stroke-miterlimit:4;stroke-dasharray:none" />
    </g>
  </g>
  <text
     id="text8"
     style="font-size:6.66912px;fill:#808080;stroke-width:1"
     x="7.7420673"
     y="31.994293">1</text>
  <text
     id="text10"
     style="font-size:6.66912px;fill:#808080;stroke-width:1"
     x="20.634201"
     y="21.863928">2</text>
  <text
     id="text12"
     style="font-size:6.66912px;fill:#808080;stroke-width:1"
     x="46.517437"
     y="26.292948">3</text>
  <text
     id="text14"
     style="font-size:6.66912px;fill:#808080;stroke-width:1"
     x="57.691128"
     y="18.101282">4</text>
  <g
     id="kvg:StrokePaths_03085"
     style="fill:none;stroke:#000000;stroke-width:5.87102985;stroke-linecap:round;stroke-linejoin:round;stroke-miterlimit:4;stroke-dasharray:none"
     transform="matrix(0.51258278,0,0,0.50938942,56.538507,39.339867)">
    <g
       id="kvg:03085"
       style="stroke-width:5.87102985;stroke-miterlimit:4;stroke-dasharray:none">
      <path
         id="kvg:03085-s1"
         d="m 27.74,40.79 c 1.1,1.2 1.61,3.3 1.2,5 -2.3,9.4 -3.2,17.79 -1.7,27.99 2.22,15.08 0.9,3.1 2.6,-1.2 7.19,-18.19 21.79,-27.59 35.49,-27.59 13.5,0 17.49,9.1 17.49,16.2 0,21.89 -24.69,23.69 -34.39,13.4"
         style="stroke-width:5.87102985;stroke-miterlimit:4;stroke-dasharray:none" />
      <path
         id="kvg:03085-s2"
         d="m 57.63,33.89 c 2.1,1.4 2.53,2.5 2.8,5.7 0.7,8.4 1.12,14.97 1.3,23.49 0.4,19.19 -5,25.59 -9.9,31.39"
         style="stroke-width:5.87102985;stroke-miterlimit:4;stroke-dasharray:none" />
    </g>
  </g>
  <text
     transform="scale(0.99984112,1.0001589)"
     id="text6"
     style="font-size:5.69603px;fill:#808080;stroke-width:1"
     x="63.798038"
     y="58.658112">5</text>
  <text
     transform="scale(0.99984112,1.0001589)"
     id="text8-4"
     style="font-size:5.69603px;fill:#808080;stroke-width:1"
     x="87.713272"
     y="53.296223">6</text>
</svg>
