<?xml version="1.0" encoding="UTF-8" standalone="no"?>
<!--
Copyright (C) 2009/2010/2011 Ulrich Apel.
This work is distributed under the conditions of the Creative Commons
Attribution-Share Alike 3.0 Licence. This means you are free:
* to Share - to copy, distribute and transmit the work
* to Remix - to adapt the work

Under the following conditions:
* Attribution. You must attribute the work by stating your use of KanjiVG in
  your own copyright header and linking to KanjiVG's website
  (http://kanjivg.tagaini.net)
* Share Alike. If you alter, transform, or build upon this work, you may
  distribute the resulting work only under the same or similar license to this
  one.

See http://creativecommons.org/licenses/by-sa/3.0/ for more details.
-->

<svg
   width="109"
   height="109"
   viewBox="0 0 109 109"
   version="1.1"
   id="svg8"
   sodipodi:docname="ひゃ.svg"
   inkscape:version="1.1 (c68e22c387, 2021-05-23)"
   xmlns:inkscape="http://www.inkscape.org/namespaces/inkscape"
   xmlns:sodipodi="http://sodipodi.sourceforge.net/DTD/sodipodi-0.dtd"
   xmlns="http://www.w3.org/2000/svg"
   xmlns:svg="http://www.w3.org/2000/svg">
  <defs
     id="defs12" />
  <sodipodi:namedview
     id="namedview10"
     pagecolor="#ffffff"
     bordercolor="#666666"
     borderopacity="1.0"
     inkscape:pageshadow="2"
     inkscape:pageopacity="0.0"
     inkscape:pagecheckerboard="0"
     showgrid="false"
     inkscape:snap-global="false"
     inkscape:zoom="7.0091743"
     inkscape:cx="50.861911"
     inkscape:cy="54.5"
     inkscape:window-width="2491"
     inkscape:window-height="1057"
     inkscape:window-x="61"
     inkscape:window-y="-8"
     inkscape:window-maximized="1"
     inkscape:current-layer="g875" />
  <g
     id="g875"
     transform="matrix(0.66280275,0,0,0.65540126,-5.5860666,18.276609)"
     style="stroke-width:1.51724">
    <g
       id="kvg:StrokePaths_03072"
       style="fill:none;stroke:#000000;stroke-width:3.83416561;stroke-linecap:round;stroke-linejoin:round;stroke-miterlimit:4;stroke-dasharray:none"
       transform="matrix(1.19394,0,0,1.1803932,-0.3119368,-9.5299328)">
      <g
         id="kvg:03072"
         style="stroke-width:3.83416561;stroke-miterlimit:4;stroke-dasharray:none">
        <path
           id="kvg:03072-s1"
           d="m 20,25.12 c 1.25,0.88 3.75,2.25 6.5,1.38 2.75,-0.87 7.31,-2.38 11.38,-4.5 6,-3.12 8.42,-1.01 4.25,4 C 15,58.62 18.37,84.5 40.61,88.88 58.68,92.44 78.24,72.5 76.24,32.37 75.52,17.87 76.07,17.59 80.36,30.62 84.12,42 90.62,51.38 96.5,57.12"
           style="stroke-width:3.83416561;stroke-miterlimit:4;stroke-dasharray:none" />
      </g>
    </g>
    <g
       id="kvg:StrokeNumbers_03072"
       style="font-size:8px;fill:#808080;stroke-width:1.51724"
       transform="translate(5.4289515,-8.319144)">
      <text
         transform="translate(15.25,21.38)"
         id="text5"
         style="stroke-width:1.51724">1</text>
    </g>
    <g
       id="kvg:StrokePaths_03083"
       style="fill:none;stroke:#000000;stroke-width:7.12007227;stroke-linecap:round;stroke-linejoin:round;stroke-miterlimit:4;stroke-dasharray:none"
       transform="matrix(0.64496729,0,0,0.63364271,102.3957,35.991006)">
      <g
         id="kvg:03083"
         style="stroke-width:7.12007227;stroke-miterlimit:4;stroke-dasharray:none">
        <path
           id="kvg:03083-s1"
           d="m 26,61.07 c 1.49,1.29 4.16,1.98 6.84,0.69 C 47.52,54.73 61.2,46.4 73.16,46.5 c 7.16,0.11 12.7,3.28 12.63,9.75 0,6.61 -8.63,13.15 -19.43,14.14"
           style="stroke-width:7.12007227;stroke-miterlimit:4;stroke-dasharray:none" />
        <path
           id="kvg:03083-s2"
           d="m 47.765031,25.911419 c 4.07,0.69 8.25,3.21 9.12,5.25 1.69,3.97 -0.79,1.88 -2.28,2.08"
           style="stroke-width:7.12007227;stroke-miterlimit:4;stroke-dasharray:none" />
        <path
           id="kvg:03083-s3"
           d="m 35.77,40.99 c 1.88,1.49 2.35,2.77 2.82,4.67 2.08,8.33 8.82,32.37 11.7,41.39 0.51,1.62 1.49,4.96 2.28,7.44"
           style="stroke-width:7.12007227;stroke-miterlimit:4;stroke-dasharray:none" />
      </g>
    </g>
    <text
       id="text7"
       style="font-size:8px;fill:#808080;stroke-width:1.51724"
       x="113.75765"
       y="87.044304">2</text>
    <text
       id="text9"
       style="font-size:8px;fill:#808080;stroke-width:1.51724"
       x="130.46835"
       y="46.218029">3</text>
    <text
       id="text11"
       style="font-size:8px;fill:#808080;stroke-width:1.51724"
       x="119.86868"
       y="56.394867">4</text>
  </g>
</svg>
