<?xml version="1.0" encoding="UTF-8" standalone="no"?>
<!--
Copyright (C) 2009/2010/2011 Ulrich Apel.
This work is distributed under the conditions of the Creative Commons
Attribution-Share Alike 3.0 Licence. This means you are free:
* to Share - to copy, distribute and transmit the work
* to Remix - to adapt the work

Under the following conditions:
* Attribution. You must attribute the work by stating your use of KanjiVG in
  your own copyright header and linking to KanjiVG's website
  (http://kanjivg.tagaini.net)
* Share Alike. If you alter, transform, or build upon this work, you may
  distribute the resulting work only under the same or similar license to this
  one.

See http://creativecommons.org/licenses/by-sa/3.0/ for more details.
-->

<svg
   width="109"
   height="109"
   viewBox="0 0 109 109"
   version="1.1"
   id="svg14"
   sodipodi:docname="びょ.svg"
   inkscape:version="1.1 (c68e22c387, 2021-05-23)"
   xmlns:inkscape="http://www.inkscape.org/namespaces/inkscape"
   xmlns:sodipodi="http://sodipodi.sourceforge.net/DTD/sodipodi-0.dtd"
   xmlns="http://www.w3.org/2000/svg"
   xmlns:svg="http://www.w3.org/2000/svg">
  <defs
     id="defs18" />
  <sodipodi:namedview
     id="namedview16"
     pagecolor="#ffffff"
     bordercolor="#666666"
     borderopacity="1.0"
     inkscape:pageshadow="2"
     inkscape:pageopacity="0.0"
     inkscape:pagecheckerboard="0"
     showgrid="false"
     inkscape:zoom="5.6576012"
     inkscape:cx="29.959694"
     inkscape:cy="53.20276"
     inkscape:window-width="2491"
     inkscape:window-height="1057"
     inkscape:window-x="61"
     inkscape:window-y="-8"
     inkscape:window-maximized="1"
     inkscape:current-layer="svg14" />
  <g
     id="kvg:StrokePaths_03073"
     style="fill:none;stroke:#000000;stroke-width:3.53662705;stroke-linecap:round;stroke-linejoin:round;stroke-miterlimit:4;stroke-dasharray:none"
     transform="matrix(0.85036876,0,0,0.84616817,-6.9999378,13.080407)">
    <g
       id="kvg:03073"
       style="stroke-width:3.53662705;stroke-miterlimit:4;stroke-dasharray:none">
      <path
         id="kvg:03073-s1"
         d="m 20,25.12 c 1.25,0.88 3.75,2.25 6.5,1.38 2.75,-0.87 7.31,-2.38 11.38,-4.5 6,-3.12 8.42,-1.01 4.25,4 C 15,58.62 18.37,84.5 40.61,88.88 58.68,92.44 78.24,72.5 76.24,32.37 75.52,17.87 76.07,17.59 80.36,30.62 84.12,42 90.62,51.38 96.5,57.12"
         style="stroke-width:3.53662705;stroke-miterlimit:4;stroke-dasharray:none" />
      <path
         id="kvg:03073-s2"
         d="m 86.5,13.5 c 2.75,1.75 6,5.38 7.75,8.5"
         style="stroke-width:3.53662705;stroke-miterlimit:4;stroke-dasharray:none" />
      <path
         id="kvg:03073-s3"
         d="m 92.87,8.62 c 3.06,1.57 6.68,4.82 8.62,7.62"
         style="stroke-width:3.53662705;stroke-miterlimit:4;stroke-dasharray:none" />
    </g>
  </g>
  <text
     id="text7"
     style="font-size:7.01504px;fill:#808080;stroke-width:1"
     x="7.4619131"
     y="29.674917">1</text>
  <text
     id="text9"
     style="font-size:7.01504px;fill:#808080;stroke-width:1"
     x="58.508526"
     y="25.977707">2</text>
  <text
     id="text11"
     style="font-size:7.01504px;fill:#808080;stroke-width:1"
     x="71.159981"
     y="16.209286">3</text>
  <g
     id="kvg:StrokePaths_03087"
     style="fill:none;stroke:#000000;stroke-width:5.79799488;stroke-linecap:round;stroke-linejoin:round;stroke-miterlimit:4;stroke-dasharray:none"
     transform="matrix(0.51990625,0,0,0.51494615,58.682453,39.680229)">
    <g
       id="kvg:03087"
       style="stroke-width:5.79799488;stroke-miterlimit:4;stroke-dasharray:none">
      <path
         id="kvg:03087-s1"
         d="m 57.8,50.06 c 5.98,-1.02 10.95,-2.09 14.74,-3.25 1.99,-0.61 3.8,-0.91 4.98,-0.91"
         style="stroke-width:5.79799488;stroke-miterlimit:4;stroke-dasharray:none" />
      <path
         id="kvg:03087-s2"
         d="m 54.91,33 c 1.79,1.69 2.38,3.28 2.29,5.16 -0.6,13.49 -0.1,27.68 1.11,42.47 1.5,18.31 -27.81,16.56 -27.81,9.12 0,-9.53 20.92,-6.35 28.68,-3.27 6.46,2.56 9.18,3.87 14.76,8.23"
         style="stroke-width:5.79799488;stroke-miterlimit:4;stroke-dasharray:none" />
    </g>
  </g>
  <text
     transform="scale(0.995744,1.0042742)"
     id="text6"
     style="font-size:5.45554px;fill:#808080;stroke-width:1"
     x="92.643501"
     y="72.339149">4</text>
  <text
     transform="scale(0.995744,1.0042742)"
     id="text8"
     style="font-size:5.45554px;fill:#808080;stroke-width:1"
     x="80.321678"
     y="54.679756">5</text>
</svg>
