<?xml version="1.0" encoding="UTF-8" standalone="no"?>
<!--
Copyright (C) 2009/2010/2011 Ulrich Apel.
This work is distributed under the conditions of the Creative Commons
Attribution-Share Alike 3.0 Licence. This means you are free:
* to Share - to copy, distribute and transmit the work
* to Remix - to adapt the work

Under the following conditions:
* Attribution. You must attribute the work by stating your use of KanjiVG in
  your own copyright header and linking to KanjiVG's website
  (http://kanjivg.tagaini.net)
* Share Alike. If you alter, transform, or build upon this work, you may
  distribute the resulting work only under the same or similar license to this
  one.

See http://creativecommons.org/licenses/by-sa/3.0/ for more details.
-->

<svg
   width="109"
   height="109"
   viewBox="0 0 109 109"
   version="1.1"
   id="svg11"
   sodipodi:docname="ぴゃ.svg"
   inkscape:version="1.1 (c68e22c387, 2021-05-23)"
   xmlns:inkscape="http://www.inkscape.org/namespaces/inkscape"
   xmlns:sodipodi="http://sodipodi.sourceforge.net/DTD/sodipodi-0.dtd"
   xmlns="http://www.w3.org/2000/svg"
   xmlns:svg="http://www.w3.org/2000/svg">
  <defs
     id="defs15" />
  <sodipodi:namedview
     id="namedview13"
     pagecolor="#ffffff"
     bordercolor="#666666"
     borderopacity="1.0"
     inkscape:pageshadow="2"
     inkscape:pageopacity="0.0"
     inkscape:pagecheckerboard="0"
     showgrid="false"
     inkscape:snap-global="false"
     inkscape:zoom="7.0091743"
     inkscape:cx="65.271597"
     inkscape:cy="57.068063"
     inkscape:window-width="2491"
     inkscape:window-height="1057"
     inkscape:window-x="61"
     inkscape:window-y="-8"
     inkscape:window-maximized="1"
     inkscape:current-layer="svg11" />
  <g
     id="kvg:StrokePaths_03074"
     style="fill:none;stroke:#000000;stroke-width:3.98337849;stroke-linecap:round;stroke-linejoin:round;stroke-miterlimit:4;stroke-dasharray:none"
     transform="matrix(0.76010732,0,0,0.74621581,-5.1743694,18.252833)">
    <g
       id="kvg:03074"
       style="stroke-width:3.98337849;stroke-miterlimit:4;stroke-dasharray:none">
      <path
         id="kvg:03074-s1"
         d="m 20,25.12 c 1.25,0.88 3.75,2.25 6.5,1.38 2.75,-0.87 7.31,-2.38 11.38,-4.5 6,-3.12 8.42,-1.01 4.25,4 C 15,58.62 18.37,84.5 40.61,88.88 58.68,92.44 78.24,72.5 76.24,32.37 75.52,17.87 76.07,17.59 80.36,30.62 84.12,42 90.62,51.38 96.5,57.12"
         style="stroke-width:3.98337849;stroke-miterlimit:4;stroke-dasharray:none" />
      <path
         id="kvg:03074-s2"
         d="m 93.87,22.12 c -9.62,0 -9.25,-14.25 0,-14.25 9.75,0.01 9.5,14.25 0,14.25"
         style="stroke-width:3.98337849;stroke-miterlimit:4;stroke-dasharray:none" />
    </g>
  </g>
  <text
     id="text6"
     style="font-size:5.15709px;fill:#808080;stroke-width:0.999999"
     x="7.5204864"
     y="32.726028"
     transform="scale(1.0041766,0.99584073)">1</text>
  <text
     id="text8"
     style="font-size:5.15709px;fill:#808080;stroke-width:0.999999"
     x="54.010448"
     y="26.432957"
     transform="scale(1.0041766,0.99584073)">2</text>
  <g
     id="kvg:StrokePaths_03083"
     style="fill:none;stroke:#000000;stroke-width:6.26968122;stroke-linecap:round;stroke-linejoin:round;stroke-miterlimit:4;stroke-dasharray:none"
     transform="matrix(0.48288127,0,0,0.47414506,57.545885,40.072196)">
    <g
       id="kvg:03083"
       style="stroke-width:6.26968122;stroke-miterlimit:4;stroke-dasharray:none">
      <path
         id="kvg:03083-s1"
         d="m 26,61.07 c 1.49,1.29 4.16,1.98 6.84,0.69 C 47.52,54.73 61.2,46.4 73.16,46.5 c 7.16,0.11 12.7,3.28 12.63,9.75 0,6.61 -8.63,13.15 -19.43,14.14"
         style="stroke-width:6.26968122;stroke-miterlimit:4;stroke-dasharray:none" />
      <path
         id="kvg:03083-s2"
         d="m 47.62272,27.278405 c 4.07,0.69 8.25,3.21 9.12,5.25 1.69,3.97 -0.79,1.88 -2.28,2.08"
         style="stroke-width:6.26968122;stroke-miterlimit:4;stroke-dasharray:none" />
      <path
         id="kvg:03083-s3"
         d="m 35.77,40.99 c 1.88,1.49 2.35,2.77 2.82,4.67 2.08,8.33 8.82,32.37 11.7,41.39 0.51,1.62 1.49,4.96 2.28,7.44"
         style="stroke-width:6.26968122;stroke-miterlimit:4;stroke-dasharray:none" />
    </g>
  </g>
  <text
     id="text7"
     style="font-size:5.15709px;fill:#808080;stroke-width:0.999999"
     x="64.787582"
     y="75.855873"
     transform="scale(1.0041766,0.99584073)">3</text>
  <text
     id="text9"
     style="font-size:5.15709px;fill:#808080;stroke-width:0.999999"
     x="78.093224"
     y="49.347378"
     transform="scale(1.0041766,0.99584073)">4</text>
  <text
     id="text11"
     style="font-size:5.15709px;fill:#808080;stroke-width:0.999999"
     x="69.12394"
     y="56.970047"
     transform="scale(1.0041766,0.99584073)">5</text>
</svg>
