<?xml version="1.0" encoding="UTF-8" standalone="no"?>
<!--
Copyright (C) 2009/2010/2011 Ulrich Apel.
This work is distributed under the conditions of the Creative Commons
Attribution-Share Alike 3.0 Licence. This means you are free:
* to Share - to copy, distribute and transmit the work
* to Remix - to adapt the work

Under the following conditions:
* Attribution. You must attribute the work by stating your use of KanjiVG in
  your own copyright header and linking to KanjiVG's website
  (http://kanjivg.tagaini.net)
* Share Alike. If you alter, transform, or build upon this work, you may
  distribute the resulting work only under the same or similar license to this
  one.

See http://creativecommons.org/licenses/by-sa/3.0/ for more details.
-->

<svg
   width="109"
   height="109"
   viewBox="0 0 109 109"
   version="1.1"
   id="svg11"
   sodipodi:docname="りゅ.svg"
   inkscape:version="1.1 (c68e22c387, 2021-05-23)"
   xmlns:inkscape="http://www.inkscape.org/namespaces/inkscape"
   xmlns:sodipodi="http://sodipodi.sourceforge.net/DTD/sodipodi-0.dtd"
   xmlns="http://www.w3.org/2000/svg"
   xmlns:svg="http://www.w3.org/2000/svg">
  <defs
     id="defs15" />
  <sodipodi:namedview
     id="namedview13"
     pagecolor="#ffffff"
     bordercolor="#666666"
     borderopacity="1.0"
     inkscape:pageshadow="2"
     inkscape:pageopacity="0.0"
     inkscape:pagecheckerboard="0"
     showgrid="false"
     inkscape:zoom="7.0091743"
     inkscape:cx="50.861911"
     inkscape:cy="51.361257"
     inkscape:window-width="2491"
     inkscape:window-height="1057"
     inkscape:window-x="61"
     inkscape:window-y="-8"
     inkscape:window-maximized="1"
     inkscape:current-layer="svg11" />
  <g
     id="kvg:StrokePaths_0308a"
     style="fill:none;stroke:#000000;stroke-width:3.20322511;stroke-linecap:round;stroke-linejoin:round;stroke-miterlimit:4;stroke-dasharray:none"
     transform="matrix(0.94403581,0,0,0.92913564,-16.913672,2.0628829)">
    <g
       id="kvg:0308a"
       style="stroke-width:3.20322511;stroke-miterlimit:4;stroke-dasharray:none">
      <path
         id="kvg:0308a-s1"
         d="m 38.75,25.25 c 1.25,1.5 2.24,4.03 1.62,6.62 -2.88,12.13 -6.29,29.65 -4.25,42.38 2,12.5 1.75,-0.75 5.62,-6.25"
         style="stroke-width:3.20322511;stroke-miterlimit:4;stroke-dasharray:none" />
      <path
         id="kvg:0308a-s2"
         d="m 69.37,18.75 c 2.25,2.12 2.88,4.12 2.88,6.5 0,2.38 0,26.38 0,35.75 0,16.5 -5,25.75 -12.62,33.12"
         style="stroke-width:3.20322511;stroke-miterlimit:4;stroke-dasharray:none" />
    </g>
  </g>
  <text
     id="text6"
     style="font-size:8px;fill:#808080"
     x="11.15783"
     y="27.773119">1</text>
  <text
     id="text8"
     style="font-size:8px;fill:#808080"
     x="39.554424"
     y="23.054527">2</text>
  <g
     id="kvg:StrokePaths_03085"
     style="fill:none;stroke:#000000;stroke-width:5.54992289;stroke-linecap:round;stroke-linejoin:round;stroke-miterlimit:4;stroke-dasharray:none"
     transform="matrix(0.54031685,0,0,0.54077935,47.689463,38.407041)">
    <g
       id="kvg:03085"
       style="stroke-width:5.54992289;stroke-miterlimit:4;stroke-dasharray:none">
      <path
         id="kvg:03085-s1"
         d="m 27.74,40.79 c 1.1,1.2 1.61,3.3 1.2,5 -2.3,9.4 -3.2,17.79 -1.7,27.99 2.22,15.08 0.9,3.1 2.6,-1.2 7.19,-18.19 21.79,-27.59 35.49,-27.59 13.5,0 17.49,9.1 17.49,16.2 0,21.89 -24.69,23.69 -34.39,13.4"
         style="stroke-width:5.54992289;stroke-miterlimit:4;stroke-dasharray:none" />
      <path
         id="kvg:03085-s2"
         d="m 57.63,33.89 c 2.1,1.4 2.53,2.5 2.8,5.7 0.7,8.4 1.12,14.97 1.3,23.49 0.4,19.19 -5,25.59 -9.9,31.39"
         style="stroke-width:5.54992289;stroke-miterlimit:4;stroke-dasharray:none" />
    </g>
  </g>
  <text
     transform="scale(0.99978616,1.0002139)"
     id="text6-5"
     style="font-size:6.50443px;fill:#808080;stroke-width:0.999999"
     x="56.494053"
     y="57.419235">3</text>
  <text
     transform="scale(0.99978616,1.0002139)"
     id="text8-1"
     style="font-size:6.50443px;fill:#808080;stroke-width:0.999999"
     x="80.381577"
     y="53.476479">4</text>
</svg>
