<?xml version="1.0" encoding="UTF-8" standalone="no"?>
<!--
Copyright (C) 2009/2010/2011 Ulrich Apel.
This work is distributed under the conditions of the Creative Commons
Attribution-Share Alike 3.0 Licence. This means you are free:
* to Share - to copy, distribute and transmit the work
* to Remix - to adapt the work

Under the following conditions:
* Attribution. You must attribute the work by stating your use of KanjiVG in
  your own copyright header and linking to KanjiVG's website
  (http://kanjivg.tagaini.net)
* Share Alike. If you alter, transform, or build upon this work, you may
  distribute the resulting work only under the same or similar license to this
  one.

See http://creativecommons.org/licenses/by-sa/3.0/ for more details.
-->

<svg
   width="109"
   height="109"
   viewBox="0 0 109 109"
   version="1.1"
   id="svg14"
   sodipodi:docname="ウュ.svg"
   inkscape:version="1.1 (c68e22c387, 2021-05-23)"
   xmlns:inkscape="http://www.inkscape.org/namespaces/inkscape"
   xmlns:sodipodi="http://sodipodi.sourceforge.net/DTD/sodipodi-0.dtd"
   xmlns="http://www.w3.org/2000/svg"
   xmlns:svg="http://www.w3.org/2000/svg">
  <defs
     id="defs18" />
  <sodipodi:namedview
     id="namedview16"
     pagecolor="#ffffff"
     bordercolor="#666666"
     borderopacity="1.0"
     inkscape:pageshadow="2"
     inkscape:pageopacity="0.0"
     inkscape:pagecheckerboard="0"
     showgrid="false"
     inkscape:zoom="7.0091743"
     inkscape:cx="54.5"
     inkscape:cy="54.5"
     inkscape:window-width="2491"
     inkscape:window-height="1057"
     inkscape:window-x="61"
     inkscape:window-y="-8"
     inkscape:window-maximized="1"
     inkscape:current-layer="svg14" />
  <g
     id="kvg:StrokePaths_030a6"
     style="fill:none;stroke:#000000;stroke-width:3.80366524;stroke-linecap:round;stroke-linejoin:round;stroke-miterlimit:4;stroke-dasharray:none"
     transform="matrix(0.7937439,0,0,0.78371387,-11.02848,11.983523)">
    <g
       id="kvg:030a6"
       style="stroke-width:3.80366524;stroke-miterlimit:4;stroke-dasharray:none">
      <path
         id="kvg:030a6-s1"
         d="m 53.25,14.62 c 1,1.12 1.25,3 1.25,4.62 0,1.62 0,10.76 0,12.64"
         style="stroke-width:3.80366524;stroke-miterlimit:4;stroke-dasharray:none" />
      <path
         id="kvg:030a6-s2"
         d="m 26.5,31.25 c 1,1.12 1.22,3 1.25,4.62 0.09,4.45 0.29,10.95 0.45,16.37 0.07,2.5 0.14,4.77 0.18,6.5"
         style="stroke-width:3.80366524;stroke-miterlimit:4;stroke-dasharray:none" />
      <path
         id="kvg:030a6-s3"
         d="m 29.12,35.88 c 19.38,-2.25 40.25,-4.25 49,-5.5 8.75,-1.25 8.28,0.84 6.25,6.88 -5,14.88 -20.12,43.5 -41,56.62"
         style="stroke-width:3.80366524;stroke-miterlimit:4;stroke-dasharray:none" />
    </g>
  </g>
  <text
     id="text7"
     style="font-size:8px;fill:#808080"
     x="27.056282"
     y="19.552774">1</text>
  <text
     id="text9"
     style="font-size:8px;fill:#808080"
     x="5.5876966"
     y="32.564137">2</text>
  <text
     id="text11"
     style="font-size:8px;fill:#808080"
     x="13.91754"
     y="35.210732">3</text>
  <g
     id="kvg:StrokePaths_030e5"
     style="fill:none;stroke:#000000;stroke-width:3.79670301;stroke-linecap:round;stroke-linejoin:round;stroke-miterlimit:4;stroke-dasharray:none"
     transform="matrix(0.79024662,0,0,0.79007189,32.387376,16.346123)">
    <g
       id="kvg:030e5"
       style="stroke-width:3.79670301;stroke-miterlimit:4;stroke-dasharray:none">
      <path
         id="kvg:030e5-s1"
         d="m 34.8,52.84 c 1.91,1.21 4.13,1.67 7.44,1.21 10.65,-1.51 13.99,-1.68 21.71,-2.97 5.43,-0.9 6.26,0.13 5.23,5.12 -1.91,9.25 -3.92,19.45 -5.23,27.49"
         style="stroke-width:3.79670301;stroke-miterlimit:4;stroke-dasharray:none" />
      <path
         id="kvg:030e5-s2"
         d="m 24.5,86.21 c 2.21,1.21 3.84,1.73 7.34,1.21 18.54,-2.79 28.95,-3.12 43.52,-3.12 3.02,0 5.93,0.4 8.95,0.9"
         style="stroke-width:3.79670301;stroke-miterlimit:4;stroke-dasharray:none" />
    </g>
  </g>
  <text
     id="text6"
     style="font-size:8px;fill:#808080"
     x="58.211838"
     y="53.312889">4</text>
  <text
     id="text8"
     style="font-size:8px;fill:#808080"
     x="50.710526"
     y="80.412788">5</text>
</svg>
