<?xml version="1.0" encoding="UTF-8" standalone="no"?>
<!--
Copyright (C) 2009/2010/2011 Ulrich Apel.
This work is distributed under the conditions of the Creative Commons
Attribution-Share Alike 3.0 Licence. This means you are free:
* to Share - to copy, distribute and transmit the work
* to Remix - to adapt the work

Under the following conditions:
* Attribution. You must attribute the work by stating your use of KanjiVG in
  your own copyright header and linking to KanjiVG's website
  (http://kanjivg.tagaini.net)
* Share Alike. If you alter, transform, or build upon this work, you may
  distribute the resulting work only under the same or similar license to this
  one.

See http://creativecommons.org/licenses/by-sa/3.0/ for more details.
-->

<svg
   width="109"
   height="109"
   viewBox="0 0 109 109"
   version="1.1"
   id="svg14"
   sodipodi:docname="ウゥ.svg"
   inkscape:version="1.1 (c68e22c387, 2021-05-23)"
   xmlns:inkscape="http://www.inkscape.org/namespaces/inkscape"
   xmlns:sodipodi="http://sodipodi.sourceforge.net/DTD/sodipodi-0.dtd"
   xmlns="http://www.w3.org/2000/svg"
   xmlns:svg="http://www.w3.org/2000/svg">
  <defs
     id="defs18" />
  <sodipodi:namedview
     id="namedview16"
     pagecolor="#ffffff"
     bordercolor="#666666"
     borderopacity="1.0"
     inkscape:pageshadow="2"
     inkscape:pageopacity="0.0"
     inkscape:pagecheckerboard="0"
     showgrid="false"
     inkscape:zoom="7.0091743"
     inkscape:cx="52.716623"
     inkscape:cy="54.5"
     inkscape:window-width="2491"
     inkscape:window-height="1057"
     inkscape:window-x="61"
     inkscape:window-y="-8"
     inkscape:window-maximized="1"
     inkscape:current-layer="svg14" />
  <g
     id="kvg:StrokePaths_030a6"
     style="fill:none;stroke:#000000;stroke-width:3.48961114;stroke-linecap:round;stroke-linejoin:round;stroke-miterlimit:4;stroke-dasharray:none"
     transform="matrix(0.86262243,0,0,0.85677679,-7.5755343,8.0166181)">
    <g
       id="kvg:030a6"
       style="stroke-width:3.48961114;stroke-miterlimit:4;stroke-dasharray:none">
      <path
         id="kvg:030a6-s1"
         d="m 53.25,14.62 c 1,1.12 1.25,3 1.25,4.62 0,1.62 0,10.76 0,12.64"
         style="stroke-width:3.48961114;stroke-miterlimit:4;stroke-dasharray:none" />
      <path
         id="kvg:030a6-s2"
         d="m 26.5,31.25 c 1,1.12 1.22,3 1.25,4.62 0.09,4.45 0.29,10.95 0.45,16.37 0.07,2.5 0.14,4.77 0.18,6.5"
         style="stroke-width:3.48961114;stroke-miterlimit:4;stroke-dasharray:none" />
      <path
         id="kvg:030a6-s3"
         d="m 29.12,35.88 c 19.38,-2.25 40.25,-4.25 49,-5.5 8.75,-1.25 8.28,0.84 6.25,6.88 -5,14.88 -20.12,43.5 -41,56.62"
         style="stroke-width:3.48961114;stroke-miterlimit:4;stroke-dasharray:none" />
    </g>
  </g>
  <text
     id="text7"
     style="font-size:8px;fill:#808080"
     x="29.767015"
     y="20.551466">1</text>
  <text
     id="text9"
     style="font-size:8px;fill:#808080"
     x="8.0130892"
     y="32.278797">2</text>
  <text
     id="text11"
     style="font-size:8px;fill:#808080"
     x="19.339005"
     y="33.926701">3</text>
  <g
     id="kvg:StrokePaths_030a5"
     style="fill:none;stroke:#000000;stroke-width:5.91231625;stroke-linecap:round;stroke-linejoin:round;stroke-miterlimit:4;stroke-dasharray:none"
     transform="matrix(0.50519186,0,0,0.50964862,53.386985,40.210949)">
    <g
       id="kvg:030a5"
       style="stroke-width:5.91231625;stroke-miterlimit:4;stroke-dasharray:none">
      <path
         id="kvg:030a5-s1"
         d="m 54.11,32.25 c 0.8,0.87 0.99,2.32 0.99,3.58 0,1.26 0,8.33 0,9.78"
         style="stroke-width:5.91231625;stroke-miterlimit:4;stroke-dasharray:none" />
      <path
         id="kvg:030a5-s2"
         d="m 32.5,45.62 c 0.94,0.89 1.15,2.38 1.18,3.67 0.08,3.53 0.27,8.68 0.42,12.98 0.07,1.98 0.13,3.78 0.17,5.15"
         style="stroke-width:5.91231625;stroke-miterlimit:4;stroke-dasharray:none" />
      <path
         id="kvg:030a5-s3"
         d="m 34.92,48.96 c 15.42,-1.74 32.02,-3.54 38.98,-4.51 6.96,-0.97 6.59,0.65 4.97,5.32 C 74.9,61.29 63.83,83.75 46.76,94.62"
         style="stroke-width:5.91231625;stroke-miterlimit:4;stroke-dasharray:none" />
    </g>
  </g>
  <text
     id="text7-5"
     style="font-size:8px;fill:#808080"
     x="83.615562"
     y="54.632782">4</text>
  <text
     id="text9-3"
     style="font-size:8px;fill:#808080"
     x="61.686245"
     y="64.672058">5</text>
  <text
     id="text11-2"
     style="font-size:8px;fill:#808080"
     x="73.818863"
     y="74.291588">6</text>
</svg>
