<?xml version="1.0" encoding="UTF-8" standalone="no"?>
<!--
Copyright (C) 2009/2010/2011 Ulrich Apel.
This work is distributed under the conditions of the Creative Commons
Attribution-Share Alike 3.0 Licence. This means you are free:
* to Share - to copy, distribute and transmit the work
* to Remix - to adapt the work

Under the following conditions:
* Attribution. You must attribute the work by stating your use of KanjiVG in
  your own copyright header and linking to KanjiVG's website
  (http://kanjivg.tagaini.net)
* Share Alike. If you alter, transform, or build upon this work, you may
  distribute the resulting work only under the same or similar license to this
  one.

See http://creativecommons.org/licenses/by-sa/3.0/ for more details.
-->

<svg
   width="109"
   height="109"
   viewBox="0 0 109 109"
   version="1.1"
   id="svg14"
   sodipodi:docname="ウァ.svg"
   inkscape:version="1.1 (c68e22c387, 2021-05-23)"
   xmlns:inkscape="http://www.inkscape.org/namespaces/inkscape"
   xmlns:sodipodi="http://sodipodi.sourceforge.net/DTD/sodipodi-0.dtd"
   xmlns="http://www.w3.org/2000/svg"
   xmlns:svg="http://www.w3.org/2000/svg">
  <defs
     id="defs18" />
  <sodipodi:namedview
     id="namedview16"
     pagecolor="#ffffff"
     bordercolor="#666666"
     borderopacity="1.0"
     inkscape:pageshadow="2"
     inkscape:pageopacity="0.0"
     inkscape:pagecheckerboard="0"
     showgrid="false"
     inkscape:zoom="7.0091743"
     inkscape:cx="52.716623"
     inkscape:cy="54.64267"
     inkscape:window-width="2491"
     inkscape:window-height="1057"
     inkscape:window-x="61"
     inkscape:window-y="-8"
     inkscape:window-maximized="1"
     inkscape:current-layer="svg14" />
  <g
     id="kvg:StrokePaths_030a6"
     style="fill:none;stroke:#000000;stroke-width:3.49033112;stroke-linecap:round;stroke-linejoin:round;stroke-miterlimit:4;stroke-dasharray:none"
     transform="matrix(0.86262297,0,0,0.85642282,-8.2901723,8.0382245)">
    <g
       id="kvg:030a6"
       style="stroke-width:3.49033112;stroke-miterlimit:4;stroke-dasharray:none">
      <path
         id="kvg:030a6-s1"
         d="m 53.25,14.62 c 1,1.12 1.25,3 1.25,4.62 0,1.62 0,10.76 0,12.64"
         style="stroke-width:3.49033112;stroke-miterlimit:4;stroke-dasharray:none" />
      <path
         id="kvg:030a6-s2"
         d="m 26.5,31.25 c 1,1.12 1.22,3 1.25,4.62 0.09,4.45 0.29,10.95 0.45,16.37 0.07,2.5 0.14,4.77 0.18,6.5"
         style="stroke-width:3.49033112;stroke-miterlimit:4;stroke-dasharray:none" />
      <path
         id="kvg:030a6-s3"
         d="m 29.12,35.88 c 19.38,-2.25 40.25,-4.25 49,-5.5 8.75,-1.25 8.28,0.84 6.25,6.88 -5,14.88 -20.12,43.5 -41,56.62"
         style="stroke-width:3.49033112;stroke-miterlimit:4;stroke-dasharray:none" />
    </g>
  </g>
  <text
     id="text7"
     style="font-size:8px;fill:#808080"
     x="41.465969"
     y="19.980785">1</text>
  <text
     id="text9"
     style="font-size:8px;fill:#808080"
     x="7.5850787"
     y="32.136124">2</text>
  <text
     id="text11"
     style="font-size:8px;fill:#808080"
     x="19.481676"
     y="47.908375">3</text>
  <g
     id="kvg:StrokePaths_030a1"
     style="fill:none;stroke:#000000;stroke-width:5.36900386;stroke-linecap:round;stroke-linejoin:round;stroke-miterlimit:4;stroke-dasharray:none"
     transform="matrix(0.5589783,0,0,0.55854752,51.214941,35.995779)">
    <g
       id="kvg:030a1"
       style="stroke-width:5.36900386;stroke-miterlimit:4;stroke-dasharray:none">
      <path
         id="kvg:030a1-s1"
         d="m 28,42.54 c 1.91,1.22 3.16,1.13 6.74,0.59 9.03,-1.37 29.93,-5.05 38.25,-6.06 4.14,-0.5 6.33,2.36 2.08,5.47 -5.35,3.91 -10.4,7.43 -18.42,12.52"
         style="stroke-width:5.36900386;stroke-miterlimit:4;stroke-dasharray:none" />
      <path
         id="kvg:030a1-s2"
         d="m 51.55,54.18 c 0.62,1.17 0.8,2.53 0.45,4.13 -3.16,14.45 -7.75,24.91 -15.58,35.57"
         style="stroke-width:5.36900386;stroke-miterlimit:4;stroke-dasharray:none" />
    </g>
  </g>
  <text
     id="text6"
     style="font-size:8px;fill:#808080"
     x="65.027237"
     y="55.566151">4</text>
  <text
     id="text8"
     style="font-size:8px;fill:#808080"
     x="70.842255"
     y="70.28212">5</text>
</svg>
