<?xml version="1.0" encoding="UTF-8" standalone="no"?>
<!--
Copyright (C) 2009/2010/2011 Ulrich Apel.
This work is distributed under the conditions of the Creative Commons
Attribution-Share Alike 3.0 Licence. This means you are free:
* to Share - to copy, distribute and transmit the work
* to Remix - to adapt the work

Under the following conditions:
* Attribution. You must attribute the work by stating your use of KanjiVG in
  your own copyright header and linking to KanjiVG's website
  (http://kanjivg.tagaini.net)
* Share Alike. If you alter, transform, or build upon this work, you may
  distribute the resulting work only under the same or similar license to this
  one.

See http://creativecommons.org/licenses/by-sa/3.0/ for more details.
-->

<svg
   width="109"
   height="109"
   viewBox="0 0 109 109"
   version="1.1"
   id="svg14"
   sodipodi:docname="ウォ.svg"
   inkscape:version="1.1 (c68e22c387, 2021-05-23)"
   xmlns:inkscape="http://www.inkscape.org/namespaces/inkscape"
   xmlns:sodipodi="http://sodipodi.sourceforge.net/DTD/sodipodi-0.dtd"
   xmlns="http://www.w3.org/2000/svg"
   xmlns:svg="http://www.w3.org/2000/svg">
  <defs
     id="defs18" />
  <sodipodi:namedview
     id="namedview16"
     pagecolor="#ffffff"
     bordercolor="#666666"
     borderopacity="1.0"
     inkscape:pageshadow="2"
     inkscape:pageopacity="0.0"
     inkscape:pagecheckerboard="0"
     showgrid="false"
     inkscape:zoom="7.0091743"
     inkscape:cx="52.716623"
     inkscape:cy="54.5"
     inkscape:window-width="2491"
     inkscape:window-height="1057"
     inkscape:window-x="61"
     inkscape:window-y="-8"
     inkscape:window-maximized="1"
     inkscape:current-layer="svg14" />
  <g
     id="kvg:StrokePaths_030a6"
     style="fill:none;stroke:#000000;stroke-width:3.43952398;stroke-linecap:round;stroke-linejoin:round;stroke-miterlimit:4;stroke-dasharray:none"
     transform="matrix(0.8752627,0,0,0.86917536,-9.3376048,7.3472367)">
    <g
       id="kvg:030a6"
       style="stroke-width:3.43952398;stroke-miterlimit:4;stroke-dasharray:none">
      <path
         id="kvg:030a6-s1"
         d="m 53.25,14.62 c 1,1.12 1.25,3 1.25,4.62 0,1.62 0,10.76 0,12.64"
         style="stroke-width:3.43952398;stroke-miterlimit:4;stroke-dasharray:none" />
      <path
         id="kvg:030a6-s2"
         d="m 26.5,31.25 c 1,1.12 1.22,3 1.25,4.62 0.09,4.45 0.29,10.95 0.45,16.37 0.07,2.5 0.14,4.77 0.18,6.5"
         style="stroke-width:3.43952398;stroke-miterlimit:4;stroke-dasharray:none" />
      <path
         id="kvg:030a6-s3"
         d="m 29.12,35.88 c 19.38,-2.25 40.25,-4.25 49,-5.5 8.75,-1.25 8.28,0.84 6.25,6.88 -5,14.88 -20.12,43.5 -41,56.62"
         style="stroke-width:3.43952398;stroke-miterlimit:4;stroke-dasharray:none" />
    </g>
  </g>
  <text
     id="text7"
     style="font-size:8px;fill:#808080"
     x="27.912304"
     y="20.408796">1</text>
  <g
     id="kvg:StrokePaths_030a9"
     style="fill:none;stroke:#000000;stroke-width:5.61767643;stroke-linecap:round;stroke-linejoin:round;stroke-miterlimit:4;stroke-dasharray:none"
     transform="matrix(0.53432807,0,0,0.53372934,50.679807,38.774927)">
    <g
       id="kvg:030a9"
       style="stroke-width:5.61767643;stroke-miterlimit:4;stroke-dasharray:none">
      <path
         id="kvg:030a9-s1"
         d="m 26,50.69 c 3.11,1.49 6,1.3 8.75,0.86 14.32,-2.3 27.34,-3.76 40.17,-4.53 2.65,-0.16 5.05,0.14 8.31,1.15"
         style="stroke-width:5.61767643;stroke-miterlimit:4;stroke-dasharray:none" />
      <path
         id="kvg:030a9-s2"
         d="m 58.49,33.57 c 1.05,1.18 1.31,3.16 1.31,4.86 0,6.36 -0.2,36.73 -0.2,46.58 0,16.19 -4.67,5.96 -7.35,4.37"
         style="stroke-width:5.61767643;stroke-miterlimit:4;stroke-dasharray:none" />
      <path
         id="kvg:030a9-s3"
         d="m 58.41,49.45 c 0,1.29 -1.31,2.87 -2.88,4.77 -6.26,7.55 -16.79,18.08 -27.51,26.22"
         style="stroke-width:5.61767643;stroke-miterlimit:4;stroke-dasharray:none" />
    </g>
  </g>
  <text
     id="text7-2"
     style="font-size:8px;fill:#808080"
     x="61.94458"
     y="61.656902">4</text>
  <text
     id="text9-1"
     style="font-size:8px;fill:#808080"
     x="84.687141"
     y="53.578362">5</text>
  <text
     id="text11-7"
     style="font-size:8px;fill:#808080"
     x="86.301903"
     y="73.976273">6</text>
  <text
     id="text9"
     style="font-size:8px;fill:#808080"
     x="6.4437175"
     y="33.420158">2</text>
  <text
     id="text11"
     style="font-size:8px;fill:#808080"
     x="19.196335"
     y="48.051048">3</text>
</svg>
