<?xml version="1.0" encoding="UTF-8" standalone="no"?>
<!--
Copyright (C) 2009/2010/2011 Ulrich Apel.
This work is distributed under the conditions of the Creative Commons
Attribution-Share Alike 3.0 Licence. This means you are free:
* to Share - to copy, distribute and transmit the work
* to Remix - to adapt the work

Under the following conditions:
* Attribution. You must attribute the work by stating your use of KanjiVG in
  your own copyright header and linking to KanjiVG's website
  (http://kanjivg.tagaini.net)
* Share Alike. If you alter, transform, or build upon this work, you may
  distribute the resulting work only under the same or similar license to this
  one.

See http://creativecommons.org/licenses/by-sa/3.0/ for more details.
-->

<svg
   width="109"
   height="109"
   viewBox="0 0 109 109"
   version="1.1"
   id="svg20"
   sodipodi:docname="ギョ.svg"
   inkscape:version="1.1 (c68e22c387, 2021-05-23)"
   xmlns:inkscape="http://www.inkscape.org/namespaces/inkscape"
   xmlns:sodipodi="http://sodipodi.sourceforge.net/DTD/sodipodi-0.dtd"
   xmlns="http://www.w3.org/2000/svg"
   xmlns:svg="http://www.w3.org/2000/svg">
  <defs
     id="defs24" />
  <sodipodi:namedview
     id="namedview22"
     pagecolor="#ffffff"
     bordercolor="#666666"
     borderopacity="1.0"
     inkscape:pageshadow="2"
     inkscape:pageopacity="0.0"
     inkscape:pagecheckerboard="0"
     showgrid="false"
     inkscape:zoom="4.9562347"
     inkscape:cx="46.507079"
     inkscape:cy="37.932021"
     inkscape:window-width="2491"
     inkscape:window-height="1057"
     inkscape:window-x="61"
     inkscape:window-y="-8"
     inkscape:window-maximized="1"
     inkscape:current-layer="svg20" />
  <g
     id="kvg:StrokePaths_030ae"
     style="fill:none;stroke:#000000;stroke-width:4.01305361;stroke-linecap:round;stroke-linejoin:round;stroke-miterlimit:4;stroke-dasharray:none"
     transform="matrix(0.74998977,0,0,0.74513892,-4.6286889,16.035929)">
    <g
       id="kvg:030ae"
       style="stroke-width:4.01305361;stroke-miterlimit:4;stroke-dasharray:none">
      <path
         id="kvg:030ae-s1"
         d="m 27,40.5 c 1.75,0.62 4.77,1.09 7.25,0.38 C 46,37.5 64.87,32.75 71.75,31 c 2.62,-0.67 6.75,-1.12 9,-1"
         style="stroke-width:4.01305361;stroke-miterlimit:4;stroke-dasharray:none" />
      <path
         id="kvg:030ae-s2"
         d="m 19.5,65.8 c 2.28,0.84 6.24,1.18 9.46,0.17 17.79,-5.59 32.67,-9.09 49.17,-12.99 3.43,-0.81 8.81,-1.52 11.74,-1.35"
         style="stroke-width:4.01305361;stroke-miterlimit:4;stroke-dasharray:none" />
      <path
         id="kvg:030ae-s3"
         d="m 48.87,16.75 c 2.5,1.75 3.43,3.24 3.88,6.12 2.12,13.62 6.38,45.38 8.25,59.25 0.4,3 1,8.38 1.38,11.12"
         style="stroke-width:4.01305361;stroke-miterlimit:4;stroke-dasharray:none" />
      <path
         id="kvg:030ae-s4"
         d="m 81.87,15.13 c 2.75,1.93 6,5.93 7.75,9.37"
         style="stroke-width:4.01305361;stroke-miterlimit:4;stroke-dasharray:none" />
      <path
         id="kvg:030ae-s5"
         d="m 88.25,10 c 2.71,1.73 5.9,5.32 7.62,8.41"
         style="stroke-width:4.01305361;stroke-miterlimit:4;stroke-dasharray:none" />
    </g>
  </g>
  <text
     id="text9"
     style="font-size:6.86267px;fill:#808080;stroke-width:1"
     x="13.343284"
     y="42.199017">1</text>
  <text
     id="text11"
     style="font-size:6.86267px;fill:#808080;stroke-width:1"
     x="7.604403"
     y="61.252281">2</text>
  <text
     id="text13"
     style="font-size:6.86267px;fill:#808080;stroke-width:1"
     x="24.349813"
     y="29.974783">3</text>
  <text
     id="text15"
     style="font-size:6.86267px;fill:#808080;stroke-width:1"
     x="48.574913"
     y="29.902599">4</text>
  <text
     id="text17"
     style="font-size:6.86267px;fill:#808080;stroke-width:1"
     x="59.987301"
     y="19.659279">5</text>
  <g
     id="kvg:StrokePaths_030e7"
     style="fill:none;stroke:#000000;stroke-width:4.42603859;stroke-linecap:round;stroke-linejoin:round;stroke-miterlimit:4;stroke-dasharray:none"
     transform="matrix(0.680118,0,0,0.67550388,46.736337,23.905169)">
    <g
       id="kvg:030e7"
       style="stroke-width:4.42603859;stroke-miterlimit:4;stroke-dasharray:none">
      <path
         id="kvg:030e7-s1"
         d="m 33.5,50.62 c 1.9,1.21 4.09,1.6 7.39,1.21 11.19,-1.32 21.35,-2.46 29.07,-3.44 4.79,-0.61 5.49,0.4 5.2,5.16 -0.79,12.56 -1.5,24.79 -2.4,34.21"
         style="stroke-width:4.42603859;stroke-miterlimit:4;stroke-dasharray:none" />
      <path
         id="kvg:030e7-s2"
         d="m 33.6,69.04 c 1.9,1.21 4.09,1.6 7.39,1.21 8.39,-0.99 18.23,-1.85 24.86,-2.47 2.21,-0.2 4.21,0.04 6.21,0.44"
         style="stroke-width:4.42603859;stroke-miterlimit:4;stroke-dasharray:none" />
      <path
         id="kvg:030e7-s3"
         d="m 29,90.06 c 2.2,1.05 3.79,1.36 7.29,1.05 9.99,-0.88 23.47,-2.35 33.07,-2.35 2.7,0 4.49,0 7.49,0.44"
         style="stroke-width:4.42603859;stroke-miterlimit:4;stroke-dasharray:none" />
    </g>
  </g>
  <text
     id="text7"
     style="font-size:5.53672px;fill:#808080;stroke-width:0.999994"
     x="67.659134"
     y="54.099846">6</text>
  <text
     id="text9-5"
     style="font-size:5.53672px;fill:#808080;stroke-width:0.999994"
     x="67.785019"
     y="66.773872">7</text>
  <text
     id="text11-3"
     style="font-size:5.53672px;fill:#808080;stroke-width:0.999994"
     x="64.056419"
     y="80.481171">8</text>
</svg>
