<?xml version="1.0" encoding="UTF-8" standalone="no"?>
<!--
Copyright (C) 2009/2010/2011 Ulrich Apel.
This work is distributed under the conditions of the Creative Commons
Attribution-Share Alike 3.0 Licence. This means you are free:
* to Share - to copy, distribute and transmit the work
* to Remix - to adapt the work

Under the following conditions:
* Attribution. You must attribute the work by stating your use of KanjiVG in
  your own copyright header and linking to KanjiVG's website
  (http://kanjivg.tagaini.net)
* Share Alike. If you alter, transform, or build upon this work, you may
  distribute the resulting work only under the same or similar license to this
  one.

See http://creativecommons.org/licenses/by-sa/3.0/ for more details.
-->

<svg
   width="109"
   height="109"
   viewBox="0 0 109 109"
   version="1.1"
   id="svg17"
   sodipodi:docname="グァ.svg"
   inkscape:version="1.1 (c68e22c387, 2021-05-23)"
   xmlns:inkscape="http://www.inkscape.org/namespaces/inkscape"
   xmlns:sodipodi="http://sodipodi.sourceforge.net/DTD/sodipodi-0.dtd"
   xmlns="http://www.w3.org/2000/svg"
   xmlns:svg="http://www.w3.org/2000/svg">
  <defs
     id="defs21" />
  <sodipodi:namedview
     id="namedview19"
     pagecolor="#ffffff"
     bordercolor="#666666"
     borderopacity="1.0"
     inkscape:pageshadow="2"
     inkscape:pageopacity="0.0"
     inkscape:pagecheckerboard="0"
     showgrid="false"
     inkscape:zoom="7.0091743"
     inkscape:cx="52.716623"
     inkscape:cy="54.5"
     inkscape:window-width="2491"
     inkscape:window-height="1057"
     inkscape:window-x="61"
     inkscape:window-y="-8"
     inkscape:window-maximized="1"
     inkscape:current-layer="svg17" />
  <g
     id="kvg:StrokePaths_030b0"
     style="fill:none;stroke:#000000;stroke-width:3.65594243;stroke-linecap:round;stroke-linejoin:round;stroke-miterlimit:4;stroke-dasharray:none"
     transform="matrix(0.82255881,0,0,0.81860964,-8.0938807,14.440353)">
    <g
       id="kvg:030b0"
       style="stroke-width:3.65594243;stroke-miterlimit:4;stroke-dasharray:none">
      <path
         id="kvg:030b0-s1"
         d="m 50,19.62 c 0.38,1.5 0.34,3.48 -0.5,5.12 -4.12,8.12 -7.88,15.5 -16.12,24.12"
         style="stroke-width:3.65594243;stroke-miterlimit:4;stroke-dasharray:none" />
      <path
         id="kvg:030b0-s2"
         d="m 51.25,28.62 c 2.62,0.25 5.67,-0.39 7.62,-0.88 6,-1.5 9.75,-2.38 15.12,-3.88 5.79,-1.62 7.53,-0.42 5.12,4.88 C 68.75,51.62 52.87,72.88 30.5,89.25"
         style="stroke-width:3.65594243;stroke-miterlimit:4;stroke-dasharray:none" />
      <path
         id="kvg:030b0-s3"
         d="m 83.75,13.5 c 2.75,1.75 6,5.38 7.75,8.5"
         style="stroke-width:3.65594243;stroke-miterlimit:4;stroke-dasharray:none" />
      <path
         id="kvg:030b0-s4"
         d="m 90.13,8.62 c 3.06,1.57 6.68,4.82 8.62,7.62"
         style="stroke-width:3.65594243;stroke-miterlimit:4;stroke-dasharray:none" />
    </g>
  </g>
  <text
     id="text8"
     style="font-size:8px;fill:#808080"
     x="24.166231"
     y="30.112984">1</text>
  <text
     id="text10"
     style="font-size:8px;fill:#808080"
     x="36.916229"
     y="32.619526">2</text>
  <text
     id="text12"
     style="font-size:8px;fill:#808080"
     x="51.590733"
     y="27.623037">3</text>
  <text
     id="text14"
     style="font-size:8px;fill:#808080"
     x="62.56152"
     y="16.938898">4</text>
  <g
     id="kvg:StrokePaths_030a1"
     style="fill:none;stroke:#000000;stroke-width:5.52265597;stroke-linecap:round;stroke-linejoin:round;stroke-miterlimit:4;stroke-dasharray:none"
     transform="matrix(0.54331939,0,0,0.54311441,50.002478,36.509009)">
    <g
       id="kvg:030a1"
       style="stroke-width:5.52265597;stroke-miterlimit:4;stroke-dasharray:none">
      <path
         id="kvg:030a1-s1"
         d="m 28,42.54 c 1.91,1.22 3.16,1.13 6.74,0.59 9.03,-1.37 29.93,-5.05 38.25,-6.06 4.14,-0.5 6.33,2.36 2.08,5.47 -5.35,3.91 -10.4,7.43 -18.42,12.52"
         style="stroke-width:5.52265597;stroke-miterlimit:4;stroke-dasharray:none" />
      <path
         id="kvg:030a1-s2"
         d="m 51.55,54.18 c 0.62,1.17 0.8,2.53 0.45,4.13 -3.16,14.45 -7.75,24.91 -15.58,35.57"
         style="stroke-width:5.52265597;stroke-miterlimit:4;stroke-dasharray:none" />
    </g>
  </g>
  <text
     id="text6"
     style="font-size:8px;fill:#808080"
     x="62.316505"
     y="55.708824">5</text>
  <text
     id="text8-9"
     style="font-size:8px;fill:#808080"
     x="68.987549"
     y="69.711441">6</text>
</svg>
