<?xml version="1.0" encoding="UTF-8" standalone="no"?>
<!--
Copyright (C) 2009/2010/2011 Ulrich Apel.
This work is distributed under the conditions of the Creative Commons
Attribution-Share Alike 3.0 Licence. This means you are free:
* to Share - to copy, distribute and transmit the work
* to Remix - to adapt the work

Under the following conditions:
* Attribution. You must attribute the work by stating your use of KanjiVG in
  your own copyright header and linking to KanjiVG's website
  (http://kanjivg.tagaini.net)
* Share Alike. If you alter, transform, or build upon this work, you may
  distribute the resulting work only under the same or similar license to this
  one.

See http://creativecommons.org/licenses/by-sa/3.0/ for more details.
-->

<svg
   width="109"
   height="109"
   viewBox="0 0 109 109"
   version="1.1"
   id="svg17"
   sodipodi:docname="グゥ.svg"
   inkscape:version="1.1 (c68e22c387, 2021-05-23)"
   xmlns:inkscape="http://www.inkscape.org/namespaces/inkscape"
   xmlns:sodipodi="http://sodipodi.sourceforge.net/DTD/sodipodi-0.dtd"
   xmlns="http://www.w3.org/2000/svg"
   xmlns:svg="http://www.w3.org/2000/svg">
  <defs
     id="defs21" />
  <sodipodi:namedview
     id="namedview19"
     pagecolor="#ffffff"
     bordercolor="#666666"
     borderopacity="1.0"
     inkscape:pageshadow="2"
     inkscape:pageopacity="0.0"
     inkscape:pagecheckerboard="0"
     showgrid="false"
     inkscape:zoom="7.0091743"
     inkscape:cx="52.716623"
     inkscape:cy="54.5"
     inkscape:window-width="2491"
     inkscape:window-height="1057"
     inkscape:window-x="61"
     inkscape:window-y="-8"
     inkscape:window-maximized="1"
     inkscape:current-layer="svg17" />
  <g
     id="kvg:StrokePaths_030b0"
     style="fill:none;stroke:#000000;stroke-width:3.42600825;stroke-linecap:round;stroke-linejoin:round;stroke-miterlimit:4;stroke-dasharray:none"
     transform="matrix(0.87709423,0,0,0.8742174,-12.467585,11.718605)">
    <g
       id="kvg:030b0"
       style="stroke-width:3.42600825;stroke-miterlimit:4;stroke-dasharray:none">
      <path
         id="kvg:030b0-s1"
         d="m 50,19.62 c 0.38,1.5 0.34,3.48 -0.5,5.12 -4.12,8.12 -7.88,15.5 -16.12,24.12"
         style="stroke-width:3.42600825;stroke-miterlimit:4;stroke-dasharray:none" />
      <path
         id="kvg:030b0-s2"
         d="m 51.25,28.62 c 2.62,0.25 5.67,-0.39 7.62,-0.88 6,-1.5 9.75,-2.38 15.12,-3.88 5.79,-1.62 7.53,-0.42 5.12,4.88 C 68.75,51.62 52.87,72.88 30.5,89.25"
         style="stroke-width:3.42600825;stroke-miterlimit:4;stroke-dasharray:none" />
      <path
         id="kvg:030b0-s3"
         d="m 83.75,13.5 c 2.75,1.75 6,5.38 7.75,8.5"
         style="stroke-width:3.42600825;stroke-miterlimit:4;stroke-dasharray:none" />
      <path
         id="kvg:030b0-s4"
         d="m 90.13,8.62 c 3.06,1.57 6.68,4.82 8.62,7.62"
         style="stroke-width:3.42600825;stroke-miterlimit:4;stroke-dasharray:none" />
    </g>
  </g>
  <text
     id="text8"
     style="font-size:8px;fill:#808080"
     x="23.02487"
     y="28.971622">1</text>
  <text
     id="text10"
     style="font-size:8px;fill:#808080"
     x="35.489529"
     y="31.906178">2</text>
  <text
     id="text12"
     style="font-size:8px;fill:#808080"
     x="52.304081"
     y="26.624346">3</text>
  <text
     id="text14"
     style="font-size:8px;fill:#808080"
     x="66.413612"
     y="15.226859">4</text>
  <g
     id="kvg:StrokePaths_030a5"
     style="fill:none;stroke:#000000;stroke-width:5.70020649;stroke-linecap:round;stroke-linejoin:round;stroke-miterlimit:4;stroke-dasharray:none"
     transform="matrix(0.52359581,0,0,0.52901157,52.913802,39.672122)">
    <g
       id="kvg:030a5"
       style="stroke-width:5.70020649;stroke-miterlimit:4;stroke-dasharray:none">
      <path
         id="kvg:030a5-s1"
         d="m 54.11,32.25 c 0.8,0.87 0.99,2.32 0.99,3.58 0,1.26 0,8.33 0,9.78"
         style="stroke-width:5.70020649;stroke-miterlimit:4;stroke-dasharray:none" />
      <path
         id="kvg:030a5-s2"
         d="m 32.5,45.62 c 0.94,0.89 1.15,2.38 1.18,3.67 0.08,3.53 0.27,8.68 0.42,12.98 0.07,1.98 0.13,3.78 0.17,5.15"
         style="stroke-width:5.70020649;stroke-miterlimit:4;stroke-dasharray:none" />
      <path
         id="kvg:030a5-s3"
         d="m 34.92,48.96 c 15.42,-1.74 32.02,-3.54 38.98,-4.51 6.96,-0.97 6.59,0.65 4.97,5.32 C 74.9,61.29 63.83,83.75 46.76,94.62"
         style="stroke-width:5.70020649;stroke-miterlimit:4;stroke-dasharray:none" />
    </g>
  </g>
  <text
     id="text7"
     style="font-size:8px;fill:#808080"
     x="84.61425"
     y="55.057014">5</text>
  <text
     id="text9"
     style="font-size:8px;fill:#808080"
     x="61.258232"
     y="66.380318">6</text>
  <text
     id="text11"
     style="font-size:8px;fill:#808080"
     x="74.246872"
     y="74.71582">7</text>
</svg>
