<?xml version="1.0" encoding="UTF-8" standalone="no"?>
<!--
Copyright (C) 2009/2010/2011 Ulrich Apel.
This work is distributed under the conditions of the Creative Commons
Attribution-Share Alike 3.0 Licence. This means you are free:
* to Share - to copy, distribute and transmit the work
* to Remix - to adapt the work

Under the following conditions:
* Attribution. You must attribute the work by stating your use of KanjiVG in
  your own copyright header and linking to KanjiVG's website
  (http://kanjivg.tagaini.net)
* Share Alike. If you alter, transform, or build upon this work, you may
  distribute the resulting work only under the same or similar license to this
  one.

See http://creativecommons.org/licenses/by-sa/3.0/ for more details.
-->

<svg
   width="109"
   height="109"
   viewBox="0 0 109 109"
   version="1.1"
   id="svg17"
   sodipodi:docname="グォ.svg"
   inkscape:version="1.1 (c68e22c387, 2021-05-23)"
   xmlns:inkscape="http://www.inkscape.org/namespaces/inkscape"
   xmlns:sodipodi="http://sodipodi.sourceforge.net/DTD/sodipodi-0.dtd"
   xmlns="http://www.w3.org/2000/svg"
   xmlns:svg="http://www.w3.org/2000/svg">
  <defs
     id="defs21" />
  <sodipodi:namedview
     id="namedview19"
     pagecolor="#ffffff"
     bordercolor="#666666"
     borderopacity="1.0"
     inkscape:pageshadow="2"
     inkscape:pageopacity="0.0"
     inkscape:pagecheckerboard="0"
     showgrid="false"
     inkscape:zoom="7.0091743"
     inkscape:cx="52.716623"
     inkscape:cy="54.5"
     inkscape:window-width="2491"
     inkscape:window-height="1057"
     inkscape:window-x="61"
     inkscape:window-y="-8"
     inkscape:window-maximized="1"
     inkscape:current-layer="svg17" />
  <g
     id="kvg:StrokePaths_030b0"
     style="fill:none;stroke:#000000;stroke-width:3.19323744;stroke-linecap:round;stroke-linejoin:round;stroke-miterlimit:4;stroke-dasharray:none"
     transform="matrix(0.94131122,0,0,0.93766315,-18.707308,8.6154538)">
    <g
       id="kvg:030b0"
       style="stroke-width:3.19323744;stroke-miterlimit:4;stroke-dasharray:none">
      <path
         id="kvg:030b0-s1"
         d="m 50,19.62 c 0.38,1.5 0.34,3.48 -0.5,5.12 -4.12,8.12 -7.88,15.5 -16.12,24.12"
         style="stroke-width:3.19323744;stroke-miterlimit:4;stroke-dasharray:none" />
      <path
         id="kvg:030b0-s2"
         d="m 51.25,28.62 c 2.62,0.25 5.67,-0.39 7.62,-0.88 6,-1.5 9.75,-2.38 15.12,-3.88 5.79,-1.62 7.53,-0.42 5.12,4.88 C 68.75,51.62 52.87,72.88 30.5,89.25"
         style="stroke-width:3.19323744;stroke-miterlimit:4;stroke-dasharray:none" />
      <path
         id="kvg:030b0-s3"
         d="m 83.75,13.5 c 2.75,1.75 6,5.38 7.75,8.5"
         style="stroke-width:3.19323744;stroke-miterlimit:4;stroke-dasharray:none" />
      <path
         id="kvg:030b0-s4"
         d="m 90.13,8.62 c 3.06,1.57 6.68,4.82 8.62,7.62"
         style="stroke-width:3.19323744;stroke-miterlimit:4;stroke-dasharray:none" />
    </g>
  </g>
  <g
     id="kvg:StrokePaths_030a9"
     style="fill:none;stroke:#000000;stroke-width:5.12166481;stroke-linecap:round;stroke-linejoin:round;stroke-miterlimit:4;stroke-dasharray:none"
     transform="matrix(0.5857565,0,0,0.58573758,50.25059,37.245048)">
    <g
       id="kvg:030a9"
       style="stroke-width:5.12166481;stroke-miterlimit:4;stroke-dasharray:none">
      <path
         id="kvg:030a9-s1"
         d="m 26,50.69 c 3.11,1.49 6,1.3 8.75,0.86 14.32,-2.3 27.34,-3.76 40.17,-4.53 2.65,-0.16 5.05,0.14 8.31,1.15"
         style="stroke-width:5.12166481;stroke-miterlimit:4;stroke-dasharray:none" />
      <path
         id="kvg:030a9-s2"
         d="m 58.49,33.57 c 1.05,1.18 1.31,3.16 1.31,4.86 0,6.36 -0.2,36.73 -0.2,46.58 0,16.19 -4.67,5.96 -7.35,4.37"
         style="stroke-width:5.12166481;stroke-miterlimit:4;stroke-dasharray:none" />
      <path
         id="kvg:030a9-s3"
         d="m 58.41,49.45 c 0,1.29 -1.31,2.87 -2.88,4.77 -6.26,7.55 -16.79,18.08 -27.51,26.22"
         style="stroke-width:5.12166481;stroke-miterlimit:4;stroke-dasharray:none" />
    </g>
  </g>
  <text
     id="text7"
     style="font-size:8px;fill:#808080"
     x="62.657925"
     y="62.227577">5</text>
  <text
     id="text9"
     style="font-size:8px;fill:#808080"
     x="87.255203"
     y="54.149044">6</text>
  <text
     id="text11"
     style="font-size:8px;fill:#808080"
     x="88.441956"
     y="74.832291">7</text>
  <text
     id="text8"
     style="font-size:8px;fill:#808080"
     x="19.886126"
     y="26.403559">1</text>
  <text
     id="text10"
     style="font-size:8px;fill:#808080"
     x="33.206806"
     y="29.623455">2</text>
  <text
     id="text12"
     style="font-size:8px;fill:#808080"
     x="51.305389"
     y="23.485601">3</text>
  <text
     id="text14"
     style="font-size:8px;fill:#808080"
     x="63.560211"
     y="12.373456">4</text>
</svg>
