<?xml version="1.0" encoding="UTF-8" standalone="no"?>
<!--
Copyright (C) 2009/2010/2011 Ulrich Apel.
This work is distributed under the conditions of the Creative Commons
Attribution-Share Alike 3.0 Licence. This means you are free:
* to Share - to copy, distribute and transmit the work
* to Remix - to adapt the work

Under the following conditions:
* Attribution. You must attribute the work by stating your use of KanjiVG in
  your own copyright header and linking to KanjiVG's website
  (http://kanjivg.tagaini.net)
* Share Alike. If you alter, transform, or build upon this work, you may
  distribute the resulting work only under the same or similar license to this
  one.

See http://creativecommons.org/licenses/by-sa/3.0/ for more details.
-->

<svg
   width="109"
   height="109"
   viewBox="0 0 109 109"
   version="1.1"
   id="svg11"
   sodipodi:docname="スゥ.svg"
   inkscape:version="1.1 (c68e22c387, 2021-05-23)"
   xmlns:inkscape="http://www.inkscape.org/namespaces/inkscape"
   xmlns:sodipodi="http://sodipodi.sourceforge.net/DTD/sodipodi-0.dtd"
   xmlns="http://www.w3.org/2000/svg"
   xmlns:svg="http://www.w3.org/2000/svg">
  <defs
     id="defs15" />
  <sodipodi:namedview
     id="namedview13"
     pagecolor="#ffffff"
     bordercolor="#666666"
     borderopacity="1.0"
     inkscape:pageshadow="2"
     inkscape:pageopacity="0.0"
     inkscape:pagecheckerboard="0"
     showgrid="false"
     inkscape:zoom="7.0091743"
     inkscape:cx="52.716623"
     inkscape:cy="54.5"
     inkscape:window-width="2491"
     inkscape:window-height="1057"
     inkscape:window-x="61"
     inkscape:window-y="-8"
     inkscape:window-maximized="1"
     inkscape:current-layer="svg11" />
  <g
     id="kvg:StrokePaths_030b9"
     style="fill:none;stroke:#000000;stroke-width:3.19697377;stroke-linecap:round;stroke-linejoin:round;stroke-miterlimit:4;stroke-dasharray:none"
     transform="matrix(0.94289522,0,0,0.93390119,-9.80357,3.4878695)">
    <g
       id="kvg:030b9"
       style="stroke-width:3.19697377;stroke-miterlimit:4;stroke-dasharray:none">
      <path
         id="kvg:030b9-s1"
         d="m 30.13,29.38 c 1.75,1.5 4.15,1.98 6.62,1.38 C 50,27.51 61,25.14 68,23.38 c 7,-1.76 8.64,1.16 6.5,5.75 C 63.26,53.25 46.13,75 21,86.38"
         style="stroke-width:3.19697377;stroke-miterlimit:4;stroke-dasharray:none" />
      <path
         id="kvg:030b9-s2"
         d="m 61,57.25 c 11,7.38 21,17 28,28.62"
         style="stroke-width:3.19697377;stroke-miterlimit:4;stroke-dasharray:none" />
    </g>
  </g>
  <text
     id="text6"
     style="font-size:8px;fill:#808080"
     x="15.640471"
     y="26.893978">1</text>
  <g
     id="kvg:StrokePaths_030a5"
     style="fill:none;stroke:#000000;stroke-width:6.73966384;stroke-linecap:round;stroke-linejoin:round;stroke-miterlimit:4;stroke-dasharray:none"
     transform="matrix(0.44504802,0,0,0.44520411,63.467805,42.023604)">
    <g
       id="kvg:030a5"
       style="stroke-width:6.73966384;stroke-miterlimit:4;stroke-dasharray:none">
      <path
         id="kvg:030a5-s1"
         d="m 54.11,32.25 c 0.8,0.87 0.99,2.32 0.99,3.58 0,1.26 0,8.33 0,9.78"
         style="stroke-width:6.73966384;stroke-miterlimit:4;stroke-dasharray:none" />
      <path
         id="kvg:030a5-s2"
         d="m 32.5,45.62 c 0.94,0.89 1.15,2.38 1.18,3.67 0.08,3.53 0.27,8.68 0.42,12.98 0.07,1.98 0.13,3.78 0.17,5.15"
         style="stroke-width:6.73966384;stroke-miterlimit:4;stroke-dasharray:none" />
      <path
         id="kvg:030a5-s3"
         d="m 34.92,48.96 c 15.42,-1.74 32.02,-3.54 38.98,-4.51 6.96,-0.97 6.59,0.65 4.97,5.32 C 74.9,61.29 63.83,83.75 46.76,94.62"
         style="stroke-width:6.73966384;stroke-miterlimit:4;stroke-dasharray:none" />
    </g>
  </g>
  <text
     id="text7"
     style="font-size:8px;fill:#808080"
     x="90.178383"
     y="54.629005">3</text>
  <text
     id="text9"
     style="font-size:8px;fill:#808080"
     x="69.961105"
     y="63.098904">4</text>
  <text
     id="text11"
     style="font-size:8px;fill:#808080"
     x="81.951057"
     y="73.146439">5</text>
  <text
     id="text8"
     style="font-size:8px;fill:#808080"
     x="53.490368"
     y="56.606022">2</text>
</svg>
