<?xml version="1.0" encoding="UTF-8" standalone="no"?>
<!--
Copyright (C) 2009/2010/2011 Ulrich Apel.
This work is distributed under the conditions of the Creative Commons
Attribution-Share Alike 3.0 Licence. This means you are free:
* to Share - to copy, distribute and transmit the work
* to Remix - to adapt the work

Under the following conditions:
* Attribution. You must attribute the work by stating your use of KanjiVG in
  your own copyright header and linking to KanjiVG's website
  (http://kanjivg.tagaini.net)
* Share Alike. If you alter, transform, or build upon this work, you may
  distribute the resulting work only under the same or similar license to this
  one.

See http://creativecommons.org/licenses/by-sa/3.0/ for more details.
-->

<svg
   width="109"
   height="109"
   viewBox="0 0 109 109"
   version="1.1"
   id="svg14"
   sodipodi:docname="チャ.svg"
   inkscape:version="1.1 (c68e22c387, 2021-05-23)"
   xmlns:inkscape="http://www.inkscape.org/namespaces/inkscape"
   xmlns:sodipodi="http://sodipodi.sourceforge.net/DTD/sodipodi-0.dtd"
   xmlns="http://www.w3.org/2000/svg"
   xmlns:svg="http://www.w3.org/2000/svg">
  <defs
     id="defs18" />
  <sodipodi:namedview
     id="namedview16"
     pagecolor="#ffffff"
     bordercolor="#666666"
     borderopacity="1.0"
     inkscape:pageshadow="2"
     inkscape:pageopacity="0.0"
     inkscape:pagecheckerboard="0"
     showgrid="false"
     inkscape:zoom="7.0091743"
     inkscape:cx="41.16034"
     inkscape:cy="57.353403"
     inkscape:window-width="2491"
     inkscape:window-height="1057"
     inkscape:window-x="61"
     inkscape:window-y="-8"
     inkscape:window-maximized="1"
     inkscape:current-layer="svg14" />
  <g
     id="kvg:StrokePaths_030c1"
     style="fill:none;stroke:#000000;stroke-width:3.7184572;stroke-linecap:round;stroke-linejoin:round;stroke-miterlimit:4;stroke-dasharray:none"
     transform="matrix(0.81327406,0,0,0.80035012,-5.0214526,11.180783)">
    <g
       id="kvg:030c1"
       style="stroke-width:3.7184572;stroke-miterlimit:4;stroke-dasharray:none">
      <path
         id="kvg:030c1-s1"
         d="m 69.76,15.25 c -0.38,2.62 -2.01,4.37 -3.88,5.38 -7.88,4.25 -18.62,9.75 -35.5,13.25"
         style="stroke-width:3.7184572;stroke-miterlimit:4;stroke-dasharray:none" />
      <path
         id="kvg:030c1-s2"
         d="m 18.5,51.5 c 2.88,0.88 4.39,1.65 7.88,1.25 22,-2.5 36.38,-4.25 56.12,-4.88 4.88,-0.15 7.88,0.51 10.88,1.51"
         style="stroke-width:3.7184572;stroke-miterlimit:4;stroke-dasharray:none" />
      <path
         id="kvg:030c1-s3"
         d="m 54.88,30.75 c 0.88,0.75 1.75,2.49 1.75,4.75 0,6.03 0.03,11.25 0.03,18.27 0,14.98 -5.03,29.48 -16.53,39.23"
         style="stroke-width:3.7184572;stroke-miterlimit:4;stroke-dasharray:none" />
    </g>
  </g>
  <text
     id="text7"
     style="font-size:5.8147px;fill:#808080;stroke-width:0.999997"
     x="43.925995"
     y="22.80818"
     transform="scale(1.0028431,0.99716497)">1</text>
  <text
     id="text9"
     style="font-size:5.8147px;fill:#808080;stroke-width:0.999997"
     x="7.7324133"
     y="48.485958"
     transform="scale(1.0028431,0.99716497)">2</text>
  <text
     id="text11"
     style="font-size:5.8147px;fill:#808080;stroke-width:0.999997"
     x="44.428898"
     y="38.294739"
     transform="scale(1.0028431,0.99716497)">3</text>
  <g
     id="kvg:StrokePaths_030e3"
     style="fill:none;stroke:#000000;stroke-width:5.88937839;stroke-linecap:round;stroke-linejoin:round;stroke-miterlimit:4;stroke-dasharray:none"
     transform="matrix(0.51320592,0,0,0.50560567,58.304878,38.530259)">
    <g
       id="kvg:030e3"
       style="stroke-width:5.88937839;stroke-miterlimit:4;stroke-dasharray:none">
      <path
         id="kvg:030e3-s1"
         d="m 25,56.25 c 1.67,1.28 4.84,1.85 7.96,1.08 14.85,-3.64 26.27,-6.16 38.45,-9.34 17.31,-4.52 1.18,11.21 -2.16,15.73"
         style="stroke-width:5.88937839;stroke-miterlimit:4;stroke-dasharray:none" />
      <path
         id="kvg:030e3-s2"
         d="m 41.1,35.5 c 1.3,1.1 2,2.1 2.5,4.1 0.5,2 9.4,41.62 9.9,43.72 0.5,2.1 1.7,7.2 2.4,9.8"
         style="stroke-width:5.88937839;stroke-miterlimit:4;stroke-dasharray:none" />
    </g>
  </g>
  <text
     id="text6"
     style="font-size:5.8147px;fill:#808080;stroke-width:0.999997"
     x="66.842392"
     y="63.14106"
     transform="scale(1.0028431,0.99716497)">4</text>
  <text
     id="text8"
     style="font-size:5.8147px;fill:#808080;stroke-width:0.999997"
     x="80.098221"
     y="52.890511"
     transform="scale(1.0028431,0.99716497)">5</text>
</svg>
