<?xml version="1.0" encoding="UTF-8" standalone="no"?>
<!--
Copyright (C) 2009/2010/2011 Ulrich Apel.
This work is distributed under the conditions of the Creative Commons
Attribution-Share Alike 3.0 Licence. This means you are free:
* to Share - to copy, distribute and transmit the work
* to Remix - to adapt the work

Under the following conditions:
* Attribution. You must attribute the work by stating your use of KanjiVG in
  your own copyright header and linking to KanjiVG's website
  (http://kanjivg.tagaini.net)
* Share Alike. If you alter, transform, or build upon this work, you may
  distribute the resulting work only under the same or similar license to this
  one.

See http://creativecommons.org/licenses/by-sa/3.0/ for more details.
-->

<svg
   width="109"
   height="109"
   viewBox="0 0 109 109"
   version="1.1"
   id="svg20"
   sodipodi:docname="ヂュ.svg"
   inkscape:version="1.1 (c68e22c387, 2021-05-23)"
   xmlns:inkscape="http://www.inkscape.org/namespaces/inkscape"
   xmlns:sodipodi="http://sodipodi.sourceforge.net/DTD/sodipodi-0.dtd"
   xmlns="http://www.w3.org/2000/svg"
   xmlns:svg="http://www.w3.org/2000/svg">
  <defs
     id="defs24" />
  <sodipodi:namedview
     id="namedview22"
     pagecolor="#ffffff"
     bordercolor="#666666"
     borderopacity="1.0"
     inkscape:pageshadow="2"
     inkscape:pageopacity="0.0"
     inkscape:pagecheckerboard="0"
     showgrid="false"
     inkscape:zoom="7.0091743"
     inkscape:cx="29.604058"
     inkscape:cy="35.096859"
     inkscape:window-width="2491"
     inkscape:window-height="1057"
     inkscape:window-x="61"
     inkscape:window-y="-8"
     inkscape:window-maximized="1"
     inkscape:current-layer="svg20" />
  <g
     id="kvg:StrokePaths_030c2"
     style="fill:none;stroke:#000000;stroke-width:4.24347657;stroke-linecap:round;stroke-linejoin:round;stroke-miterlimit:4;stroke-dasharray:none"
     transform="matrix(0.71303609,0,0,0.70095055,-3.165448,16.56009)">
    <g
       id="kvg:030c2"
       style="stroke-width:4.24347657;stroke-miterlimit:4;stroke-dasharray:none">
      <path
         id="kvg:030c2-s1"
         d="m 70,15.25 c -0.38,2.62 -2.26,4.37 -4.12,5.38 -7.88,4.25 -18.62,9.75 -35.5,13.25"
         style="stroke-width:4.24347657;stroke-miterlimit:4;stroke-dasharray:none" />
      <path
         id="kvg:030c2-s2"
         d="m 18.5,51.5 c 2.88,0.88 4.39,1.65 7.88,1.25 22,-2.5 36.38,-4.25 56.12,-4.88 4.88,-0.15 7.88,0.51 10.88,1.51"
         style="stroke-width:4.24347657;stroke-miterlimit:4;stroke-dasharray:none" />
      <path
         id="kvg:030c2-s3"
         d="m 54.88,30.75 c 0.88,0.75 1.75,2.49 1.75,4.75 0,6.03 0.03,11.25 0.03,18.27 0,14.98 -5.03,29.48 -16.53,39.23"
         style="stroke-width:4.24347657;stroke-miterlimit:4;stroke-dasharray:none" />
      <path
         id="kvg:030c2-s4"
         d="m 79.88,25.73 c 2.85,1.78 6.21,5.47 8.03,8.65"
         style="stroke-width:4.24347657;stroke-miterlimit:4;stroke-dasharray:none" />
      <path
         id="kvg:030c2-s5"
         d="m 87.054451,19.824691 c 2.93,1.57 6.39,4.83 8.25,7.63"
         style="stroke-width:4.24347657;stroke-miterlimit:4;stroke-dasharray:none" />
    </g>
  </g>
  <text
     id="text9"
     style="font-size:5.91477px;fill:#808080;stroke-width:1"
     x="39.44384"
     y="27.063993">1</text>
  <text
     id="text11"
     style="font-size:5.91477px;fill:#808080;stroke-width:1"
     x="7.6076889"
     y="48.876652">2</text>
  <text
     id="text13"
     style="font-size:5.91477px;fill:#808080;stroke-width:1"
     x="40.630054"
     y="40.387711">3</text>
  <text
     id="text15"
     style="font-size:5.91477px;fill:#808080;stroke-width:1"
     x="46.606281"
     y="36.879452">4</text>
  <text
     id="text17"
     style="font-size:5.91477px;fill:#808080;stroke-width:1"
     x="57.100101"
     y="27.016691">5</text>
  <g
     id="kvg:StrokePaths_030e5"
     style="fill:none;stroke:#000000;stroke-width:4.35726831;stroke-linecap:round;stroke-linejoin:round;stroke-miterlimit:4;stroke-dasharray:none"
     transform="matrix(0.68510531,0,0,0.69192109,41.253617,21.121779)">
    <g
       id="kvg:030e5"
       style="stroke-width:4.35726831;stroke-miterlimit:4;stroke-dasharray:none">
      <path
         id="kvg:030e5-s1"
         d="m 34.8,52.84 c 1.91,1.21 4.13,1.67 7.44,1.21 10.65,-1.51 13.99,-1.68 21.71,-2.97 5.43,-0.9 6.26,0.13 5.23,5.12 -1.91,9.25 -3.92,19.45 -5.23,27.49"
         style="stroke-width:4.35726831;stroke-miterlimit:4;stroke-dasharray:none" />
      <path
         id="kvg:030e5-s2"
         d="m 24.5,86.21 c 2.21,1.21 3.84,1.73 7.34,1.21 18.54,-2.79 28.95,-3.12 43.52,-3.12 3.02,0 5.93,0.4 8.95,0.9"
         style="stroke-width:4.35726831;stroke-miterlimit:4;stroke-dasharray:none" />
    </g>
  </g>
  <text
     id="text6"
     style="font-size:5.91477px;fill:#808080;stroke-width:1"
     x="67.155678"
     y="53.706638">6</text>
  <text
     id="text8"
     style="font-size:5.91477px;fill:#808080;stroke-width:1"
     x="56.291805"
     y="76.793533">7</text>
</svg>
