<?xml version="1.0" encoding="UTF-8" standalone="no"?>
<!--
Copyright (C) 2009/2010/2011 Ulrich Apel.
This work is distributed under the conditions of the Creative Commons
Attribution-Share Alike 3.0 Licence. This means you are free:
* to Share - to copy, distribute and transmit the work
* to Remix - to adapt the work

Under the following conditions:
* Attribution. You must attribute the work by stating your use of KanjiVG in
  your own copyright header and linking to KanjiVG's website
  (http://kanjivg.tagaini.net)
* Share Alike. If you alter, transform, or build upon this work, you may
  distribute the resulting work only under the same or similar license to this
  one.

See http://creativecommons.org/licenses/by-sa/3.0/ for more details.
-->

<svg
   width="109"
   height="109"
   viewBox="0 0 109 109"
   version="1.1"
   id="svg20"
   sodipodi:docname="デゥ.svg"
   inkscape:version="1.1 (c68e22c387, 2021-05-23)"
   xmlns:inkscape="http://www.inkscape.org/namespaces/inkscape"
   xmlns:sodipodi="http://sodipodi.sourceforge.net/DTD/sodipodi-0.dtd"
   xmlns="http://www.w3.org/2000/svg"
   xmlns:svg="http://www.w3.org/2000/svg">
  <defs
     id="defs24" />
  <sodipodi:namedview
     id="namedview22"
     pagecolor="#ffffff"
     bordercolor="#666666"
     borderopacity="1.0"
     inkscape:pageshadow="2"
     inkscape:pageopacity="0.0"
     inkscape:pagecheckerboard="0"
     showgrid="false"
     inkscape:zoom="7.0091743"
     inkscape:cx="52.716623"
     inkscape:cy="54.5"
     inkscape:window-width="2491"
     inkscape:window-height="1057"
     inkscape:window-x="61"
     inkscape:window-y="-8"
     inkscape:window-maximized="1"
     inkscape:current-layer="svg20" />
  <g
     id="kvg:StrokePaths_030c7"
     style="fill:none;stroke:#000000;stroke-width:3.40413495;stroke-linecap:round;stroke-linejoin:round;stroke-miterlimit:4;stroke-dasharray:none"
     transform="matrix(0.88352699,0,0,0.87904104,-7.6710615,9.7192689)">
    <g
       id="kvg:030c7"
       style="stroke-width:3.40413495;stroke-miterlimit:4;stroke-dasharray:none">
      <path
         id="kvg:030c7-s1"
         d="m 36.5,21.5 c 2.12,1.25 4.38,1.59 7.25,1.25 C 54.37,21.5 60.63,20.5 68.37,19.5 72.1,19.02 74,19 76.5,19.25"
         style="stroke-width:3.40413495;stroke-miterlimit:4;stroke-dasharray:none" />
      <path
         id="kvg:030c7-s2"
         d="m 20,44.12 c 2.88,1 5.26,1.05 7.5,0.75 22.38,-3 37,-5.62 54.13,-6.12 5.62,-0.16 7.75,0 10.38,0.62"
         style="stroke-width:3.40413495;stroke-miterlimit:4;stroke-dasharray:none" />
      <path
         id="kvg:030c7-s3"
         d="m 58,43.25 c 0.88,1 1.32,2.63 1.12,4.38 C 57.38,63 47.5,82.62 34.5,89.5"
         style="stroke-width:3.40413495;stroke-miterlimit:4;stroke-dasharray:none" />
      <path
         id="kvg:030c7-s4"
         d="m 84.25,16.98 c 2.85,1.78 6.21,5.47 8.03,8.65"
         style="stroke-width:3.40413495;stroke-miterlimit:4;stroke-dasharray:none" />
      <path
         id="kvg:030c7-s5"
         d="m 91,12.38 c 2.93,1.57 6.39,4.83 8.25,7.63"
         style="stroke-width:3.40413495;stroke-miterlimit:4;stroke-dasharray:none" />
    </g>
  </g>
  <text
     id="text9"
     style="font-size:8px;fill:#808080"
     x="21.67581"
     y="23.815445">1</text>
  <text
     id="text11"
     style="font-size:8px;fill:#808080"
     x="7.1064391"
     y="44.315445">2</text>
  <text
     id="text13"
     style="font-size:8px;fill:#808080"
     x="48.667957"
     y="55.158798">3</text>
  <text
     id="text15"
     style="font-size:8px;fill:#808080"
     x="59.188896"
     y="22.120838">4</text>
  <text
     id="text17"
     style="font-size:8px;fill:#808080"
     x="68.732986"
     y="16.705498">5</text>
  <g
     id="kvg:StrokePaths_030a5"
     style="fill:none;stroke:#000000;stroke-width:5.91527921;stroke-linecap:round;stroke-linejoin:round;stroke-miterlimit:4;stroke-dasharray:none"
     transform="matrix(0.5055531,0,0,0.50877438,58.636409,40.240793)">
    <g
       id="kvg:030a5"
       style="stroke-width:5.91527921;stroke-miterlimit:4;stroke-dasharray:none">
      <path
         id="kvg:030a5-s1"
         d="m 54.11,32.25 c 0.8,0.87 0.99,2.32 0.99,3.58 0,1.26 0,8.33 0,9.78"
         style="stroke-width:5.91527921;stroke-miterlimit:4;stroke-dasharray:none" />
      <path
         id="kvg:030a5-s2"
         d="m 32.5,45.62 c 0.94,0.89 1.15,2.38 1.18,3.67 0.08,3.53 0.27,8.68 0.42,12.98 0.07,1.98 0.13,3.78 0.17,5.15"
         style="stroke-width:5.91527921;stroke-miterlimit:4;stroke-dasharray:none" />
      <path
         id="kvg:030a5-s3"
         d="m 34.92,48.96 c 15.42,-1.74 32.02,-3.54 38.98,-4.51 6.96,-0.97 6.59,0.65 4.97,5.32 C 74.9,61.29 63.83,83.75 46.76,94.62"
         style="stroke-width:5.91527921;stroke-miterlimit:4;stroke-dasharray:none" />
    </g>
  </g>
  <text
     id="text7"
     style="font-size:8px;fill:#808080"
     x="88.323677"
     y="53.915653">6</text>
  <text
     id="text9-2"
     style="font-size:8px;fill:#808080"
     x="66.965042"
     y="64.382935">7</text>
  <text
     id="text11-7"
     style="font-size:8px;fill:#808080"
     x="79.525665"
     y="74.145126">8</text>
</svg>
