<?xml version="1.0" encoding="UTF-8" standalone="no"?>
<!--
Copyright (C) 2009/2010/2011 Ulrich Apel.
This work is distributed under the conditions of the Creative Commons
Attribution-Share Alike 3.0 Licence. This means you are free:
* to Share - to copy, distribute and transmit the work
* to Remix - to adapt the work

Under the following conditions:
* Attribution. You must attribute the work by stating your use of KanjiVG in
  your own copyright header and linking to KanjiVG's website
  (http://kanjivg.tagaini.net)
* Share Alike. If you alter, transform, or build upon this work, you may
  distribute the resulting work only under the same or similar license to this
  one.

See http://creativecommons.org/licenses/by-sa/3.0/ for more details.
-->

<svg
   width="109"
   height="109"
   viewBox="0 0 109 109"
   version="1.1"
   id="svg17"
   sodipodi:docname="ドォ.svg"
   inkscape:version="1.1 (c68e22c387, 2021-05-23)"
   xmlns:inkscape="http://www.inkscape.org/namespaces/inkscape"
   xmlns:sodipodi="http://sodipodi.sourceforge.net/DTD/sodipodi-0.dtd"
   xmlns="http://www.w3.org/2000/svg"
   xmlns:svg="http://www.w3.org/2000/svg">
  <defs
     id="defs21" />
  <sodipodi:namedview
     id="namedview19"
     pagecolor="#ffffff"
     bordercolor="#666666"
     borderopacity="1.0"
     inkscape:pageshadow="2"
     inkscape:pageopacity="0.0"
     inkscape:pagecheckerboard="0"
     showgrid="false"
     inkscape:zoom="7.0091743"
     inkscape:cx="52.716623"
     inkscape:cy="54.5"
     inkscape:window-width="2491"
     inkscape:window-height="1057"
     inkscape:window-x="61"
     inkscape:window-y="-8"
     inkscape:window-maximized="1"
     inkscape:current-layer="svg17" />
  <g
     id="kvg:StrokePaths_030c9"
     style="fill:none;stroke:#000000;stroke-width:2.91130125;stroke-linecap:round;stroke-linejoin:round;stroke-miterlimit:4;stroke-dasharray:none"
     transform="matrix(1.0374204,0,0,1.0235603,-29.378163,-1.4170992)">
    <g
       id="kvg:030c9"
       style="stroke-width:2.91130125;stroke-miterlimit:4;stroke-dasharray:none">
      <path
         id="kvg:030c9-s1"
         d="m 44,16.38 c 1.25,1.12 2.12,3.25 2.12,5.5 0,26.12 0,53.5 0,57.62 0,4.12 0,10.5 0,13.38"
         style="stroke-width:2.91130125;stroke-miterlimit:4;stroke-dasharray:none" />
      <path
         id="kvg:030c9-s2"
         d="m 49.24,43.12 c 11.75,4.12 18.25,10.62 24.5,18.75"
         style="stroke-width:2.91130125;stroke-miterlimit:4;stroke-dasharray:none" />
      <path
         id="kvg:030c9-s3"
         d="m 66.87,26.75 c 2.75,1.75 6,5.38 7.75,8.5"
         style="stroke-width:2.91130125;stroke-miterlimit:4;stroke-dasharray:none" />
      <path
         id="kvg:030c9-s4"
         d="m 73.24,21.88 c 3.06,1.57 6.68,4.82 8.62,7.62"
         style="stroke-width:2.91130125;stroke-miterlimit:4;stroke-dasharray:none" />
    </g>
  </g>
  <g
     id="kvg:StrokePaths_030a9"
     style="fill:none;stroke:#000000;stroke-width:4.95102103;stroke-linecap:round;stroke-linejoin:round;stroke-miterlimit:4;stroke-dasharray:none"
     transform="matrix(0.60522731,0,0,0.60664476,42.382343,36.614297)">
    <g
       id="kvg:030a9"
       style="stroke-width:4.95102103;stroke-miterlimit:4;stroke-dasharray:none">
      <path
         id="kvg:030a9-s1"
         d="m 26,50.69 c 3.11,1.49 6,1.3 8.75,0.86 14.32,-2.3 27.34,-3.76 40.17,-4.53 2.65,-0.16 5.05,0.14 8.31,1.15"
         style="stroke-width:4.95102103;stroke-miterlimit:4;stroke-dasharray:none" />
      <path
         id="kvg:030a9-s2"
         d="m 58.49,33.57 c 1.05,1.18 1.31,3.16 1.31,4.86 0,6.36 -0.2,36.73 -0.2,46.58 0,16.19 -4.67,5.96 -7.35,4.37"
         style="stroke-width:4.95102103;stroke-miterlimit:4;stroke-dasharray:none" />
      <path
         id="kvg:030a9-s3"
         d="m 58.41,49.45 c 0,1.29 -1.31,2.87 -2.88,4.77 -6.26,7.55 -16.79,18.08 -27.51,26.22"
         style="stroke-width:4.95102103;stroke-miterlimit:4;stroke-dasharray:none" />
    </g>
  </g>
  <text
     id="text7"
     style="font-size:8px;fill:#808080"
     x="54.953735"
     y="62.79826">5</text>
  <text
     id="text9"
     style="font-size:8px;fill:#808080"
     x="81.263054"
     y="54.862396">6</text>
  <text
     id="text11"
     style="font-size:8px;fill:#808080"
     x="81.593788"
     y="75.402969">7</text>
  <text
     id="text8"
     style="font-size:8px;fill:#808080"
     x="7.8372765"
     y="16.092043">1</text>
  <text
     id="text10"
     style="font-size:8px;fill:#808080"
     x="22.717278"
     y="38.501308">2</text>
  <text
     id="text12"
     style="font-size:8px;fill:#808080"
     x="30.715969"
     y="28.888744">3</text>
  <text
     id="text14"
     style="font-size:8px;fill:#808080"
     x="44.682831"
     y="16.814554">4</text>
</svg>
