<?xml version="1.0" encoding="UTF-8" standalone="no"?>
<!--
Copyright (C) 2009/2010/2011 Ulrich Apel.
This work is distributed under the conditions of the Creative Commons
Attribution-Share Alike 3.0 Licence. This means you are free:
* to Share - to copy, distribute and transmit the work
* to Remix - to adapt the work

Under the following conditions:
* Attribution. You must attribute the work by stating your use of KanjiVG in
  your own copyright header and linking to KanjiVG's website
  (http://kanjivg.tagaini.net)
* Share Alike. If you alter, transform, or build upon this work, you may
  distribute the resulting work only under the same or similar license to this
  one.

See http://creativecommons.org/licenses/by-sa/3.0/ for more details.
-->

<svg
   width="109"
   height="109"
   viewBox="0 0 109 109"
   version="1.1"
   id="svg17"
   sodipodi:docname="ドヮ.svg"
   inkscape:version="1.1 (c68e22c387, 2021-05-23)"
   xmlns:inkscape="http://www.inkscape.org/namespaces/inkscape"
   xmlns:sodipodi="http://sodipodi.sourceforge.net/DTD/sodipodi-0.dtd"
   xmlns="http://www.w3.org/2000/svg"
   xmlns:svg="http://www.w3.org/2000/svg">
  <defs
     id="defs21" />
  <sodipodi:namedview
     id="namedview19"
     pagecolor="#ffffff"
     bordercolor="#666666"
     borderopacity="1.0"
     inkscape:pageshadow="2"
     inkscape:pageopacity="0.0"
     inkscape:pagecheckerboard="0"
     showgrid="false"
     inkscape:zoom="7.0091743"
     inkscape:cx="52.716623"
     inkscape:cy="54.5"
     inkscape:window-width="2491"
     inkscape:window-height="1057"
     inkscape:window-x="61"
     inkscape:window-y="-8"
     inkscape:window-maximized="1"
     inkscape:current-layer="svg17" />
  <g
     id="kvg:StrokePaths_030c9"
     style="fill:none;stroke:#000000;stroke-width:3.06358551;stroke-linecap:round;stroke-linejoin:round;stroke-miterlimit:4;stroke-dasharray:none"
     transform="matrix(0.98657584,0,0,0.97196812,-27.400265,1.4013816)">
    <g
       id="kvg:030c9"
       style="stroke-width:3.06358551;stroke-miterlimit:4;stroke-dasharray:none">
      <path
         id="kvg:030c9-s1"
         d="m 44,16.38 c 1.25,1.12 2.12,3.25 2.12,5.5 0,26.12 0,53.5 0,57.62 0,4.12 0,10.5 0,13.38"
         style="stroke-width:3.06358551;stroke-miterlimit:4;stroke-dasharray:none" />
      <path
         id="kvg:030c9-s2"
         d="m 49.24,43.12 c 11.75,4.12 18.25,10.62 24.5,18.75"
         style="stroke-width:3.06358551;stroke-miterlimit:4;stroke-dasharray:none" />
      <path
         id="kvg:030c9-s3"
         d="m 66.87,26.75 c 2.75,1.75 6,5.38 7.75,8.5"
         style="stroke-width:3.06358551;stroke-miterlimit:4;stroke-dasharray:none" />
      <path
         id="kvg:030c9-s4"
         d="m 73.24,21.88 c 3.06,1.57 6.68,4.82 8.62,7.62"
         style="stroke-width:3.06358551;stroke-miterlimit:4;stroke-dasharray:none" />
    </g>
  </g>
  <text
     id="text8"
     style="font-size:8px;fill:#808080"
     x="7.6946063"
     y="18.802776">1</text>
  <text
     id="text10"
     style="font-size:8px;fill:#808080"
     x="22.146597"
     y="39.214661">2</text>
  <text
     id="text12"
     style="font-size:8px;fill:#808080"
     x="29.717278"
     y="30.172775">3</text>
  <text
     id="text14"
     style="font-size:8px;fill:#808080"
     x="44.397491"
     y="18.954607">4</text>
  <g
     id="kvg:StrokePaths_030ee"
     style="fill:none;stroke:#000000;stroke-width:4.7182445;stroke-linecap:round;stroke-linejoin:round;stroke-miterlimit:4;stroke-dasharray:none"
     transform="matrix(0.63542763,0,0,0.63623203,43.743549,30.236796)">
    <g
       id="kvg:030ee"
       style="stroke-width:4.7182445;stroke-miterlimit:4;stroke-dasharray:none">
      <path
         id="kvg:030ee-s1"
         d="m 28.5,42.89 c 1.2,1 1.73,2.51 1.9,4.3 0.77,8.05 0.71,6.53 1.51,15.49 0.25,2.72 0.47,5.26 0.69,7.5"
         style="stroke-width:4.7182445;stroke-miterlimit:4;stroke-dasharray:none" />
      <path
         id="kvg:030ee-s2"
         d="m 30.7,45.1 c 2.49,0.3 4.12,0.18 6.58,-0.05 11.01,-1.03 21.7,-1.85 33.29,-2.96 6.43,-0.61 7.55,0.41 6.7,5.29 -3.8,21.79 -16.5,38.08 -35.07,49.16"
         style="stroke-width:4.7182445;stroke-miterlimit:4;stroke-dasharray:none" />
    </g>
  </g>
  <text
     id="text6"
     style="font-size:8px;fill:#808080"
     x="54.299171"
     y="57.355618">5</text>
  <text
     id="text8-6"
     style="font-size:8px;fill:#808080"
     x="64.289169"
     y="54.698288">6</text>
</svg>
