<?xml version="1.0" encoding="UTF-8" standalone="no"?>
<!--
Copyright (C) 2009/2010/2011 Ulrich Apel.
This work is distributed under the conditions of the Creative Commons
Attribution-Share Alike 3.0 Licence. This means you are free:
* to Share - to copy, distribute and transmit the work
* to Remix - to adapt the work

Under the following conditions:
* Attribution. You must attribute the work by stating your use of KanjiVG in
  your own copyright header and linking to KanjiVG's website
  (http://kanjivg.tagaini.net)
* Share Alike. If you alter, transform, or build upon this work, you may
  distribute the resulting work only under the same or similar license to this
  one.

See http://creativecommons.org/licenses/by-sa/3.0/ for more details.
-->

<svg
   width="109"
   height="109"
   viewBox="0 0 109 109"
   version="1.1"
   id="svg11"
   sodipodi:docname="ニャ.svg"
   inkscape:version="1.1 (c68e22c387, 2021-05-23)"
   xmlns:inkscape="http://www.inkscape.org/namespaces/inkscape"
   xmlns:sodipodi="http://sodipodi.sourceforge.net/DTD/sodipodi-0.dtd"
   xmlns="http://www.w3.org/2000/svg"
   xmlns:svg="http://www.w3.org/2000/svg">
  <defs
     id="defs15" />
  <sodipodi:namedview
     id="namedview13"
     pagecolor="#ffffff"
     bordercolor="#666666"
     borderopacity="1.0"
     inkscape:pageshadow="2"
     inkscape:pageopacity="0.0"
     inkscape:pagecheckerboard="0"
     showgrid="false"
     inkscape:zoom="4.9562347"
     inkscape:cx="40.857629"
     inkscape:cy="68.80223"
     inkscape:window-width="2491"
     inkscape:window-height="1057"
     inkscape:window-x="61"
     inkscape:window-y="-8"
     inkscape:window-maximized="1"
     inkscape:current-layer="svg11" />
  <g
     id="kvg:StrokePaths_030cb"
     style="fill:none;stroke:#000000;stroke-width:3.44148138;stroke-linecap:round;stroke-linejoin:round;stroke-miterlimit:4;stroke-dasharray:none"
     transform="matrix(0.87597838,0,0,0.86747761,-6.2751079,7.3653208)">
    <g
       id="kvg:030cb"
       style="stroke-width:3.44148138;stroke-miterlimit:4;stroke-dasharray:none">
      <path
         id="kvg:030cb-s1"
         d="m 32.63,34.69 c 2.5,1.19 4.33,1.6 7.45,1.35 11.55,-0.91 18.3,-2.41 27.04,-3.18 2.64,-0.23 6.27,-0.16 8.39,0.08"
         style="stroke-width:3.44148138;stroke-miterlimit:4;stroke-dasharray:none" />
      <path
         id="kvg:030cb-s2"
         d="m 20,74.88 c 2.62,1 4.78,1.45 9.12,0.75 20.25,-3.25 36.5,-3.88 52.38,-3.88 3.75,0 8,1 11.12,2.38"
         style="stroke-width:3.44148138;stroke-miterlimit:4;stroke-dasharray:none" />
    </g>
  </g>
  <text
     transform="scale(1.0024871,0.99751908)"
     id="text6"
     style="font-size:6.22605px;fill:#808080;stroke-width:1"
     x="19.6731"
     y="32.092113">1</text>
  <text
     transform="scale(1.0024871,0.99751908)"
     id="text8"
     style="font-size:6.22605px;fill:#808080;stroke-width:1"
     x="9.1801596"
     y="68.215401">2</text>
  <g
     id="kvg:StrokePaths_030e3"
     style="fill:none;stroke:#000000;stroke-width:7.96627022;stroke-linecap:round;stroke-linejoin:round;stroke-miterlimit:4;stroke-dasharray:none"
     transform="matrix(0.38586364,0,0,0.3675349,67.141261,39.059003)">
    <g
       id="kvg:030e3"
       style="stroke-width:7.96627022;stroke-miterlimit:4;stroke-dasharray:none">
      <path
         id="kvg:030e3-s1"
         d="m 25,56.25 c 1.67,1.28 4.84,1.85 7.96,1.08 14.85,-3.64 26.27,-6.16 38.45,-9.34 17.31,-4.52 1.18,11.21 -2.16,15.73"
         style="stroke-width:7.96627022;stroke-miterlimit:4;stroke-dasharray:none" />
      <path
         id="kvg:030e3-s2"
         d="m 41.1,35.5 c 1.3,1.1 2,2.1 2.5,4.1 0.5,2 9.4,41.62 9.9,43.72 0.5,2.1 1.7,7.2 2.4,9.8"
         style="stroke-width:7.96627022;stroke-miterlimit:4;stroke-dasharray:none" />
    </g>
  </g>
  <text
     transform="scale(1.0022286,0.99777635)"
     id="text6-2"
     style="font-size:4.88911px;fill:#808080;stroke-width:1"
     x="72.050583"
     y="56.414589">3</text>
  <text
     transform="scale(1.0022286,0.99777635)"
     id="text8-7"
     style="font-size:4.88911px;fill:#808080;stroke-width:1"
     x="84.726349"
     y="48.811306">4</text>
</svg>
