<?xml version="1.0" encoding="UTF-8" standalone="no"?>
<!--
Copyright (C) 2009/2010/2011 Ulrich Apel.
This work is distributed under the conditions of the Creative Commons
Attribution-Share Alike 3.0 Licence. This means you are free:
* to Share - to copy, distribute and transmit the work
* to Remix - to adapt the work

Under the following conditions:
* Attribution. You must attribute the work by stating your use of KanjiVG in
  your own copyright header and linking to KanjiVG's website
  (http://kanjivg.tagaini.net)
* Share Alike. If you alter, transform, or build upon this work, you may
  distribute the resulting work only under the same or similar license to this
  one.

See http://creativecommons.org/licenses/by-sa/3.0/ for more details.
-->

<svg
   width="109"
   height="109"
   viewBox="0 0 109 109"
   version="1.1"
   id="svg11"
   sodipodi:docname="ヒャ.svg"
   inkscape:version="1.1 (c68e22c387, 2021-05-23)"
   xmlns:inkscape="http://www.inkscape.org/namespaces/inkscape"
   xmlns:sodipodi="http://sodipodi.sourceforge.net/DTD/sodipodi-0.dtd"
   xmlns="http://www.w3.org/2000/svg"
   xmlns:svg="http://www.w3.org/2000/svg">
  <defs
     id="defs15" />
  <sodipodi:namedview
     id="namedview13"
     pagecolor="#ffffff"
     bordercolor="#666666"
     borderopacity="1.0"
     inkscape:pageshadow="2"
     inkscape:pageopacity="0.0"
     inkscape:pagecheckerboard="0"
     showgrid="false"
     inkscape:zoom="7.0091743"
     inkscape:cx="51.004581"
     inkscape:cy="54.35733"
     inkscape:window-width="2491"
     inkscape:window-height="1057"
     inkscape:window-x="61"
     inkscape:window-y="-8"
     inkscape:window-maximized="1"
     inkscape:current-layer="svg11" />
  <g
     id="kvg:StrokePaths_030d2"
     style="fill:none;stroke:#000000;stroke-width:2.92770116;stroke-linecap:round;stroke-linejoin:round;stroke-miterlimit:4;stroke-dasharray:none"
     transform="matrix(1.0331015,0,0,1.0163564,-19.436525,2.0063146)">
    <g
       id="kvg:030d2"
       style="stroke-width:2.92770116;stroke-miterlimit:4;stroke-dasharray:none">
      <path
         id="kvg:030d2-s1"
         d="m 35.38,44.5 c 1.75,1.38 4.51,2.19 6.88,1.88 C 52.5,45 59.5,43.5 66.5,42.12 c 3.01,-0.59 7.12,-1 9.38,-0.88"
         style="stroke-width:2.92770116;stroke-miterlimit:4;stroke-dasharray:none" />
      <path
         id="kvg:030d2-s2"
         d="m 31,17.62 c 1.38,1.26 1.88,3.38 1.88,6.13 0,2.75 -0.88,44 -0.88,47.25 0,9.75 4,14.62 13.75,14.62 6,0 16.38,0.12 21.38,0 5,-0.12 9.5,-0.62 13.5,-1.5"
         style="stroke-width:2.92770116;stroke-miterlimit:4;stroke-dasharray:none" />
    </g>
  </g>
  <text
     id="text6"
     style="font-size:7.21603px;fill:#808080;stroke-width:0.999995"
     x="18.797615"
     y="43.299168"
     transform="scale(1.00066,0.99934044)">1</text>
  <text
     id="text8"
     style="font-size:7.21603px;fill:#808080;stroke-width:0.999995"
     x="17.1269"
     y="19.281151"
     transform="scale(1.00066,0.99934044)">2</text>
  <g
     id="kvg:StrokePaths_030e3"
     style="fill:none;stroke:#000000;stroke-width:5.33097721;stroke-linecap:round;stroke-linejoin:round;stroke-miterlimit:4;stroke-dasharray:none"
     transform="matrix(0.56382792,0,0,0.56167136,51.740797,36.765045)">
    <g
       id="kvg:030e3"
       style="stroke-width:5.33097721;stroke-miterlimit:4;stroke-dasharray:none">
      <path
         id="kvg:030e3-s1"
         d="m 25,56.25 c 1.67,1.28 4.84,1.85 7.96,1.08 14.85,-3.64 26.27,-6.16 38.45,-9.34 17.31,-4.52 1.18,11.21 -2.16,15.73"
         style="stroke-width:5.33097721;stroke-miterlimit:4;stroke-dasharray:none" />
      <path
         id="kvg:030e3-s2"
         d="m 41.1,35.5 c 1.3,1.1 2,2.1 2.5,4.1 0.5,2 9.4,41.62 9.9,43.72 0.5,2.1 1.7,7.2 2.4,9.8"
         style="stroke-width:5.33097721;stroke-miterlimit:4;stroke-dasharray:none" />
    </g>
  </g>
  <text
     id="text6-7"
     style="font-size:7.21603px;fill:#808080;stroke-width:0.999995"
     x="61.487984"
     y="64.509644"
     transform="scale(1.00066,0.99934044)">3</text>
  <text
     id="text8-7"
     style="font-size:7.21603px;fill:#808080;stroke-width:0.999995"
     x="77.751465"
     y="54.64632"
     transform="scale(1.00066,0.99934044)">4</text>
</svg>
