<?xml version="1.0" encoding="UTF-8" standalone="no"?>
<!--
Copyright (C) 2009/2010/2011 Ulrich Apel.
This work is distributed under the conditions of the Creative Commons
Attribution-Share Alike 3.0 Licence. This means you are free:
* to Share - to copy, distribute and transmit the work
* to Remix - to adapt the work

Under the following conditions:
* Attribution. You must attribute the work by stating your use of KanjiVG in
  your own copyright header and linking to KanjiVG's website
  (http://kanjivg.tagaini.net)
* Share Alike. If you alter, transform, or build upon this work, you may
  distribute the resulting work only under the same or similar license to this
  one.

See http://creativecommons.org/licenses/by-sa/3.0/ for more details.
-->

<svg
   width="109"
   height="109"
   viewBox="0 0 109 109"
   version="1.1"
   id="svg11"
   sodipodi:docname="ヒョ.svg"
   inkscape:version="1.1 (c68e22c387, 2021-05-23)"
   xmlns:inkscape="http://www.inkscape.org/namespaces/inkscape"
   xmlns:sodipodi="http://sodipodi.sourceforge.net/DTD/sodipodi-0.dtd"
   xmlns="http://www.w3.org/2000/svg"
   xmlns:svg="http://www.w3.org/2000/svg">
  <defs
     id="defs15" />
  <sodipodi:namedview
     id="namedview13"
     pagecolor="#ffffff"
     bordercolor="#666666"
     borderopacity="1.0"
     inkscape:pageshadow="2"
     inkscape:pageopacity="0.0"
     inkscape:pagecheckerboard="0"
     showgrid="false"
     inkscape:zoom="7.0091743"
     inkscape:cx="50.861911"
     inkscape:cy="58.352094"
     inkscape:window-width="2491"
     inkscape:window-height="1057"
     inkscape:window-x="61"
     inkscape:window-y="-8"
     inkscape:window-maximized="1"
     inkscape:current-layer="svg11" />
  <g
     id="kvg:StrokePaths_030d2"
     style="fill:none;stroke:#000000;stroke-width:3.12744523;stroke-linecap:round;stroke-linejoin:round;stroke-miterlimit:4;stroke-dasharray:none"
     transform="matrix(0.96889147,0,0,0.94970331,-20.005489,5.4498606)">
    <g
       id="kvg:030d2"
       style="stroke-width:3.12744523;stroke-miterlimit:4;stroke-dasharray:none">
      <path
         id="kvg:030d2-s1"
         d="m 35.38,44.5 c 1.75,1.38 4.51,2.19 6.88,1.88 C 52.5,45 59.5,43.5 66.5,42.12 c 3.01,-0.59 7.12,-1 9.38,-0.88"
         style="stroke-width:3.12744523;stroke-miterlimit:4;stroke-dasharray:none" />
      <path
         id="kvg:030d2-s2"
         d="m 31,17.62 c 1.38,1.26 1.88,3.38 1.88,6.13 0,2.75 -0.88,44 -0.88,47.25 0,9.75 4,14.62 13.75,14.62 6,0 16.38,0.12 21.38,0 5,-0.12 9.5,-0.62 13.5,-1.5"
         style="stroke-width:3.12744523;stroke-miterlimit:4;stroke-dasharray:none" />
    </g>
  </g>
  <text
     id="text6"
     style="font-size:7.06018px;fill:#808080;stroke-width:0.999995"
     x="16.207054"
     y="44.189777"
     transform="scale(1.0004044,0.99959577)">1</text>
  <text
     id="text8"
     style="font-size:7.06018px;fill:#808080;stroke-width:0.999995"
     x="15.45328"
     y="22.17594"
     transform="scale(1.0004044,0.99959577)">2</text>
  <g
     id="kvg:StrokePaths_030e7"
     style="fill:none;stroke:#000000;stroke-width:4.25645508;stroke-linecap:round;stroke-linejoin:round;stroke-miterlimit:4;stroke-dasharray:none"
     transform="matrix(0.70614102,0,0,0.70348519,44.727414,22.638254)">
    <g
       id="kvg:030e7"
       style="stroke-width:4.25645508;stroke-miterlimit:4;stroke-dasharray:none">
      <path
         id="kvg:030e7-s1"
         d="m 33.5,50.62 c 1.9,1.21 4.09,1.6 7.39,1.21 11.19,-1.32 21.35,-2.46 29.07,-3.44 4.79,-0.61 5.49,0.4 5.2,5.16 -0.79,12.56 -1.5,24.79 -2.4,34.21"
         style="stroke-width:4.25645508;stroke-miterlimit:4;stroke-dasharray:none" />
      <path
         id="kvg:030e7-s2"
         d="m 33.6,69.04 c 1.9,1.21 4.09,1.6 7.39,1.21 8.39,-0.99 18.23,-1.85 24.86,-2.47 2.21,-0.2 4.21,0.04 6.21,0.44"
         style="stroke-width:4.25645508;stroke-miterlimit:4;stroke-dasharray:none" />
      <path
         id="kvg:030e7-s3"
         d="m 29,90.06 c 2.2,1.05 3.79,1.36 7.29,1.05 9.99,-0.88 23.47,-2.35 33.07,-2.35 2.7,0 4.49,0 7.49,0.44"
         style="stroke-width:4.25645508;stroke-miterlimit:4;stroke-dasharray:none" />
    </g>
  </g>
  <text
     id="text7"
     style="font-size:6.03284px;fill:#808080;stroke-width:0.999991"
     x="66.626038"
     y="53.801952"
     transform="scale(1.000377,0.99962315)">3</text>
  <text
     id="text9"
     style="font-size:6.03284px;fill:#808080;stroke-width:0.999991"
     x="65.773903"
     y="66.799629"
     transform="scale(1.000377,0.99962315)">4</text>
  <text
     id="text11"
     style="font-size:6.03284px;fill:#808080;stroke-width:0.999991"
     x="63.240601"
     y="81.784027"
     transform="scale(1.000377,0.99962315)">5</text>
</svg>
