<?xml version="1.0" encoding="UTF-8" standalone="no"?>
<!--
Copyright (C) 2009/2010/2011 Ulrich Apel.
This work is distributed under the conditions of the Creative Commons
Attribution-Share Alike 3.0 Licence. This means you are free:
* to Share - to copy, distribute and transmit the work
* to Remix - to adapt the work

Under the following conditions:
* Attribution. You must attribute the work by stating your use of KanjiVG in
  your own copyright header and linking to KanjiVG's website
  (http://kanjivg.tagaini.net)
* Share Alike. If you alter, transform, or build upon this work, you may
  distribute the resulting work only under the same or similar license to this
  one.

See http://creativecommons.org/licenses/by-sa/3.0/ for more details.
-->

<svg
   width="109"
   height="109"
   viewBox="0 0 109 109"
   version="1.1"
   id="svg17"
   sodipodi:docname="ビャ.svg"
   inkscape:version="1.1 (c68e22c387, 2021-05-23)"
   xmlns:inkscape="http://www.inkscape.org/namespaces/inkscape"
   xmlns:sodipodi="http://sodipodi.sourceforge.net/DTD/sodipodi-0.dtd"
   xmlns="http://www.w3.org/2000/svg"
   xmlns:svg="http://www.w3.org/2000/svg">
  <defs
     id="defs21" />
  <sodipodi:namedview
     id="namedview19"
     pagecolor="#ffffff"
     bordercolor="#666666"
     borderopacity="1.0"
     inkscape:pageshadow="2"
     inkscape:pageopacity="0.0"
     inkscape:pagecheckerboard="0"
     showgrid="false"
     inkscape:zoom="7.0091743"
     inkscape:cx="41.588351"
     inkscape:cy="50.219895"
     inkscape:window-width="2491"
     inkscape:window-height="1057"
     inkscape:window-x="61"
     inkscape:window-y="-8"
     inkscape:window-maximized="1"
     inkscape:current-layer="svg17" />
  <g
     id="kvg:StrokePaths_030d3"
     style="fill:none;stroke:#000000;stroke-width:3.17838401;stroke-linecap:round;stroke-linejoin:round;stroke-miterlimit:4;stroke-dasharray:none"
     transform="matrix(0.94905317,0,0,0.93872683,-13.987969,6.016957)">
    <g
       id="kvg:030d3"
       style="stroke-width:3.17838401;stroke-miterlimit:4;stroke-dasharray:none">
      <path
         id="kvg:030d3-s1"
         d="m 35.38,44.5 c 1.75,1.38 4.51,2.19 6.88,1.88 C 52.5,45 59.5,43.5 66.5,42.12 c 3.01,-0.59 7.12,-1 9.38,-0.88"
         style="stroke-width:3.17838401;stroke-miterlimit:4;stroke-dasharray:none" />
      <path
         id="kvg:030d3-s2"
         d="m 31,17.62 c 1.38,1.26 1.88,3.38 1.88,6.13 0,2.75 -0.88,44 -0.88,47.25 0,9.75 4,14.62 13.75,14.62 6,0 16.38,0.12 21.38,0 5,-0.12 9.5,-0.62 13.5,-1.5"
         style="stroke-width:3.17838401;stroke-miterlimit:4;stroke-dasharray:none" />
      <path
         id="kvg:030d3-s3"
         d="m 78.13,26.25 c 2.75,1.75 6,5.38 7.75,8.5"
         style="stroke-width:3.17838401;stroke-miterlimit:4;stroke-dasharray:none" />
      <path
         id="kvg:030d3-s4"
         d="m 84.5,21.38 c 3.06,1.57 6.68,4.82 8.62,7.62"
         style="stroke-width:3.17838401;stroke-miterlimit:4;stroke-dasharray:none" />
    </g>
  </g>
  <text
     id="text8"
     style="font-size:6.66811px;fill:#808080;stroke-width:0.999999"
     x="21.52808"
     y="44.343086"
     transform="scale(1.0011591,0.99884223)">1</text>
  <text
     id="text10"
     style="font-size:6.66811px;fill:#808080;stroke-width:0.999999"
     x="20.634304"
     y="22.136223"
     transform="scale(1.0011591,0.99884223)">2</text>
  <text
     id="text12"
     style="font-size:6.66811px;fill:#808080;stroke-width:0.999999"
     x="52.265747"
     y="34.574135"
     transform="scale(1.0011591,0.99884223)">3</text>
  <text
     id="text14"
     style="font-size:6.66811px;fill:#808080;stroke-width:0.999999"
     x="66.178574"
     y="21.862635"
     transform="scale(1.0011591,0.99884223)">4</text>
  <g
     id="kvg:StrokePaths_030e3"
     style="fill:none;stroke:#000000;stroke-width:5.76161415;stroke-linecap:round;stroke-linejoin:round;stroke-miterlimit:4;stroke-dasharray:none"
     transform="matrix(0.52244486,0,0,0.51893589,52.165546,38.113863)">
    <g
       id="kvg:030e3"
       style="stroke-width:5.76161415;stroke-miterlimit:4;stroke-dasharray:none">
      <path
         id="kvg:030e3-s1"
         d="m 25,56.25 c 1.67,1.28 4.84,1.85 7.96,1.08 14.85,-3.64 26.27,-6.16 38.45,-9.34 17.31,-4.52 1.18,11.21 -2.16,15.73"
         style="stroke-width:5.76161415;stroke-miterlimit:4;stroke-dasharray:none" />
      <path
         id="kvg:030e3-s2"
         d="m 41.1,35.5 c 1.3,1.1 2,2.1 2.5,4.1 0.5,2 9.4,41.62 9.9,43.72 0.5,2.1 1.7,7.2 2.4,9.8"
         style="stroke-width:5.76161415;stroke-miterlimit:4;stroke-dasharray:none" />
    </g>
  </g>
  <text
     id="text6"
     style="font-size:6.66811px;fill:#808080;stroke-width:0.999999"
     x="62.360638"
     y="63.020912"
     transform="scale(1.0011591,0.99884223)">5</text>
  <text
     id="text8-5"
     style="font-size:6.66811px;fill:#808080;stroke-width:0.999999"
     x="75.85183"
     y="53.509106"
     transform="scale(1.0011591,0.99884223)">6</text>
</svg>
