<?xml version="1.0" encoding="UTF-8" standalone="no"?>
<!--
Copyright (C) 2009/2010/2011 Ulrich Apel.
This work is distributed under the conditions of the Creative Commons
Attribution-Share Alike 3.0 Licence. This means you are free:
* to Share - to copy, distribute and transmit the work
* to Remix - to adapt the work

Under the following conditions:
* Attribution. You must attribute the work by stating your use of KanjiVG in
  your own copyright header and linking to KanjiVG's website
  (http://kanjivg.tagaini.net)
* Share Alike. If you alter, transform, or build upon this work, you may
  distribute the resulting work only under the same or similar license to this
  one.

See http://creativecommons.org/licenses/by-sa/3.0/ for more details.
-->

<svg
   width="109"
   height="109"
   viewBox="0 0 109 109"
   version="1.1"
   id="svg14"
   sodipodi:docname="ピュ.svg"
   inkscape:version="1.1 (c68e22c387, 2021-05-23)"
   xmlns:inkscape="http://www.inkscape.org/namespaces/inkscape"
   xmlns:sodipodi="http://sodipodi.sourceforge.net/DTD/sodipodi-0.dtd"
   xmlns="http://www.w3.org/2000/svg"
   xmlns:svg="http://www.w3.org/2000/svg">
  <defs
     id="defs18" />
  <sodipodi:namedview
     id="namedview16"
     pagecolor="#ffffff"
     bordercolor="#666666"
     borderopacity="1.0"
     inkscape:pageshadow="2"
     inkscape:pageopacity="0.0"
     inkscape:pagecheckerboard="0"
     showgrid="false"
     inkscape:zoom="7.0091743"
     inkscape:cx="53.287304"
     inkscape:cy="57.210733"
     inkscape:window-width="2491"
     inkscape:window-height="1057"
     inkscape:window-x="61"
     inkscape:window-y="-8"
     inkscape:window-maximized="1"
     inkscape:current-layer="svg14" />
  <g
     id="kvg:StrokePaths_030d4"
     style="fill:none;stroke:#000000;stroke-width:3.67712212;stroke-linecap:round;stroke-linejoin:round;stroke-miterlimit:4;stroke-dasharray:none"
     transform="matrix(0.82471833,0,0,0.80708775,-15.53371,12.815797)">
    <g
       id="kvg:030d4"
       style="stroke-width:3.67712212;stroke-miterlimit:4;stroke-dasharray:none">
      <path
         id="kvg:030d4-s1"
         d="m 35.38,44.5 c 1.75,1.38 4.51,2.19 6.88,1.88 C 52.5,45 59.5,43.5 66.5,42.12 c 3.01,-0.59 7.12,-1 9.38,-0.88"
         style="stroke-width:3.67712212;stroke-miterlimit:4;stroke-dasharray:none" />
      <path
         id="kvg:030d4-s2"
         d="m 31,17.62 c 1.38,1.26 1.88,3.38 1.88,6.13 0,2.75 -0.88,44 -0.88,47.25 0,9.75 4,14.62 13.75,14.62 6,0 16.38,0.12 21.38,0 5,-0.12 9.5,-0.62 13.5,-1.5"
         style="stroke-width:3.67712212;stroke-miterlimit:4;stroke-dasharray:none" />
      <path
         id="kvg:030d4-s3"
         d="m 83,32.88 c -9.62,0 -9.25,-14.25 0,-14.25 9.76,-0.01 9.5,14.25 0,14.25"
         style="stroke-width:3.67712212;stroke-miterlimit:4;stroke-dasharray:none" />
    </g>
  </g>
  <text
     id="text7"
     style="font-size:6.56083px;fill:#808080;stroke-width:1"
     x="16.265976"
     y="44.920765">1</text>
  <text
     id="text9"
     style="font-size:6.56083px;fill:#808080;stroke-width:1"
     x="15.604341"
     y="26.890175">2</text>
  <text
     id="text11"
     style="font-size:6.56083px;fill:#808080;stroke-width:1"
     x="39.625603"
     y="29.036194">3</text>
  <g
     id="kvg:StrokePaths_030e5"
     style="fill:none;stroke:#000000;stroke-width:4.30962695;stroke-linecap:round;stroke-linejoin:round;stroke-miterlimit:4;stroke-dasharray:none"
     transform="matrix(0.69469972,0,0,0.69753504,40.436004,20.844781)">
    <g
       id="kvg:030e5"
       style="stroke-width:4.30962695;stroke-miterlimit:4;stroke-dasharray:none">
      <path
         id="kvg:030e5-s1"
         d="m 34.8,52.84 c 1.91,1.21 4.13,1.67 7.44,1.21 10.65,-1.51 13.99,-1.68 21.71,-2.97 5.43,-0.9 6.26,0.13 5.23,5.12 -1.91,9.25 -3.92,19.45 -5.23,27.49"
         style="stroke-width:4.30962695;stroke-miterlimit:4;stroke-dasharray:none" />
      <path
         id="kvg:030e5-s2"
         d="m 24.5,86.21 c 2.21,1.21 3.84,1.73 7.34,1.21 18.54,-2.79 28.95,-3.12 43.52,-3.12 3.02,0 5.93,0.4 8.95,0.9"
         style="stroke-width:4.30962695;stroke-miterlimit:4;stroke-dasharray:none" />
    </g>
  </g>
  <text
     id="text6"
     style="font-size:6.56083px;fill:#808080;stroke-width:1"
     x="62.432514"
     y="53.691723">4</text>
  <text
     id="text8"
     style="font-size:6.56083px;fill:#808080;stroke-width:1"
     x="55.176296"
     y="77.286514">5</text>
</svg>
