<?xml version="1.0" encoding="UTF-8" standalone="no"?>
<!--
Copyright (C) 2009/2010/2011 Ulrich Apel.
This work is distributed under the conditions of the Creative Commons
Attribution-Share Alike 3.0 Licence. This means you are free:
* to Share - to copy, distribute and transmit the work
* to Remix - to adapt the work

Under the following conditions:
* Attribution. You must attribute the work by stating your use of KanjiVG in
  your own copyright header and linking to KanjiVG's website
  (http://kanjivg.tagaini.net)
* Share Alike. If you alter, transform, or build upon this work, you may
  distribute the resulting work only under the same or similar license to this
  one.

See http://creativecommons.org/licenses/by-sa/3.0/ for more details.
-->

<svg
   width="109"
   height="109"
   viewBox="0 0 109 109"
   version="1.1"
   id="svg17"
   sodipodi:docname="ホゥ.svg"
   inkscape:version="1.1 (c68e22c387, 2021-05-23)"
   xmlns:inkscape="http://www.inkscape.org/namespaces/inkscape"
   xmlns:sodipodi="http://sodipodi.sourceforge.net/DTD/sodipodi-0.dtd"
   xmlns="http://www.w3.org/2000/svg"
   xmlns:svg="http://www.w3.org/2000/svg">
  <defs
     id="defs21" />
  <sodipodi:namedview
     id="namedview19"
     pagecolor="#ffffff"
     bordercolor="#666666"
     borderopacity="1.0"
     inkscape:pageshadow="2"
     inkscape:pageopacity="0.0"
     inkscape:pagecheckerboard="0"
     showgrid="false"
     inkscape:zoom="7.0091743"
     inkscape:cx="52.716623"
     inkscape:cy="54.5"
     inkscape:window-width="2491"
     inkscape:window-height="1057"
     inkscape:window-x="61"
     inkscape:window-y="-8"
     inkscape:window-maximized="1"
     inkscape:current-layer="svg17" />
  <g
     id="kvg:StrokePaths_030db"
     style="fill:none;stroke:#000000;stroke-width:3.47403447;stroke-linecap:round;stroke-linejoin:round;stroke-miterlimit:4;stroke-dasharray:none"
     transform="matrix(0.86762882,0,0,0.85948894,-8.2185134,8.256252)">
    <g
       id="kvg:030db"
       style="stroke-width:3.47403447;stroke-miterlimit:4;stroke-dasharray:none">
      <path
         id="kvg:030db-s1"
         d="m 22.63,40.38 c 2.62,1 4.75,1.71 9.12,1.25 17.75,-1.88 29.25,-2.75 45.38,-3.88 3.74,-0.26 7.38,-0.12 11.12,0.62"
         style="stroke-width:3.47403447;stroke-miterlimit:4;stroke-dasharray:none" />
      <path
         id="kvg:030db-s2"
         d="m 53.75,17.12 c 1.38,1.88 1.38,4.5 1.38,7.38 0,2.88 -0.12,46.62 -0.12,51.88 0,23.12 -6.25,11.25 -9.75,9.62"
         style="stroke-width:3.47403447;stroke-miterlimit:4;stroke-dasharray:none" />
      <path
         id="kvg:030db-s3"
         d="M 27.38,59.38 C 27.88,68.63 26,76 21,81.26"
         style="stroke-width:3.47403447;stroke-miterlimit:4;stroke-dasharray:none" />
      <path
         id="kvg:030db-s4"
         d="m 73.25,52.75 c 10.88,9.63 15.5,17.63 16.63,24.87"
         style="stroke-width:3.47403447;stroke-miterlimit:4;stroke-dasharray:none" />
    </g>
  </g>
  <text
     id="text8"
     style="font-size:8px;fill:#808080"
     x="9.3045025"
     y="38.25">1</text>
  <text
     id="text10"
     style="font-size:8px;fill:#808080"
     x="29.636961"
     y="23.454189">2</text>
  <text
     id="text12"
     style="font-size:8px;fill:#808080"
     x="7.3856544"
     y="58.271362">3</text>
  <text
     id="text14"
     style="font-size:8px;fill:#808080"
     x="58.091152"
     y="51.272671">4</text>
  <g
     id="kvg:StrokePaths_030a5"
     style="fill:none;stroke:#000000;stroke-width:6.35076292;stroke-linecap:round;stroke-linejoin:round;stroke-miterlimit:4;stroke-dasharray:none"
     transform="matrix(0.47156305,0,0,0.47320676,61.350562,41.235151)">
    <g
       id="kvg:030a5"
       style="stroke-width:6.35076292;stroke-miterlimit:4;stroke-dasharray:none">
      <path
         id="kvg:030a5-s1"
         d="m 54.11,32.25 c 0.8,0.87 0.99,2.32 0.99,3.58 0,1.26 0,8.33 0,9.78"
         style="stroke-width:6.35076292;stroke-miterlimit:4;stroke-dasharray:none" />
      <path
         id="kvg:030a5-s2"
         d="m 32.5,45.62 c 0.94,0.89 1.15,2.38 1.18,3.67 0.08,3.53 0.27,8.68 0.42,12.98 0.07,1.98 0.13,3.78 0.17,5.15"
         style="stroke-width:6.35076292;stroke-miterlimit:4;stroke-dasharray:none" />
      <path
         id="kvg:030a5-s3"
         d="m 34.92,48.96 c 15.42,-1.74 32.02,-3.54 38.98,-4.51 6.96,-0.97 6.59,0.65 4.97,5.32 C 74.9,61.29 63.83,83.75 46.76,94.62"
         style="stroke-width:6.35076292;stroke-miterlimit:4;stroke-dasharray:none" />
    </g>
  </g>
  <text
     id="text7"
     style="font-size:8px;fill:#808080"
     x="89.465034"
     y="53.776764">5</text>
  <text
     id="text9"
     style="font-size:8px;fill:#808080"
     x="68.534409"
     y="61.961323">6</text>
  <text
     id="text11"
     style="font-size:8px;fill:#808080"
     x="80.667023"
     y="73.578232">7</text>
</svg>
