<?xml version="1.0" encoding="UTF-8" standalone="no"?>
<!--
Copyright (C) 2009/2010/2011 Ulrich Apel.
This work is distributed under the conditions of the Creative Commons
Attribution-Share Alike 3.0 Licence. This means you are free:
* to Share - to copy, distribute and transmit the work
* to Remix - to adapt the work

Under the following conditions:
* Attribution. You must attribute the work by stating your use of KanjiVG in
  your own copyright header and linking to KanjiVG's website
  (http://kanjivg.tagaini.net)
* Share Alike. If you alter, transform, or build upon this work, you may
  distribute the resulting work only under the same or similar license to this
  one.

See http://creativecommons.org/licenses/by-sa/3.0/ for more details.
-->

<svg
   width="109"
   height="109"
   viewBox="0 0 109 109"
   version="1.1"
   id="svg11"
   sodipodi:docname="ムォ.svg"
   inkscape:version="1.1 (c68e22c387, 2021-05-23)"
   xmlns:inkscape="http://www.inkscape.org/namespaces/inkscape"
   xmlns:sodipodi="http://sodipodi.sourceforge.net/DTD/sodipodi-0.dtd"
   xmlns="http://www.w3.org/2000/svg"
   xmlns:svg="http://www.w3.org/2000/svg">
  <defs
     id="defs15" />
  <sodipodi:namedview
     id="namedview13"
     pagecolor="#ffffff"
     bordercolor="#666666"
     borderopacity="1.0"
     inkscape:pageshadow="2"
     inkscape:pageopacity="0.0"
     inkscape:pagecheckerboard="0"
     showgrid="false"
     inkscape:zoom="7.0091743"
     inkscape:cx="52.716623"
     inkscape:cy="54.5"
     inkscape:window-width="2491"
     inkscape:window-height="1057"
     inkscape:window-x="61"
     inkscape:window-y="-8"
     inkscape:window-maximized="1"
     inkscape:current-layer="svg11" />
  <g
     id="kvg:StrokePaths_030e0"
     style="fill:none;stroke:#000000;stroke-width:3.20468219;stroke-linecap:round;stroke-linejoin:round;stroke-miterlimit:4;stroke-dasharray:none"
     transform="matrix(0.94187129,0,0,0.93042424,-14.475122,4.257091)">
    <g
       id="kvg:030e0"
       style="stroke-width:3.20468219;stroke-miterlimit:4;stroke-dasharray:none">
      <path
         id="kvg:030e0-s1"
         d="m 53.84,22.5 c 0.88,1.75 0.78,4.57 -0.38,6.88 -9.25,18.38 -16.19,30.96 -25.25,45.75 -3.75,6.12 -3,8.38 4.38,7.12 7.38,-1.26 46.62,-8.12 49.62,-8.88"
         style="stroke-width:3.20468219;stroke-miterlimit:4;stroke-dasharray:none" />
      <path
         id="kvg:030e0-s2"
         d="M 72.21,60.12 C 79.09,66.5 85.83,75 88.21,85.5"
         style="stroke-width:3.20468219;stroke-miterlimit:4;stroke-dasharray:none" />
    </g>
  </g>
  <g
     id="kvg:StrokePaths_030a9"
     style="fill:none;stroke:#000000;stroke-width:6.57396212;stroke-linecap:round;stroke-linejoin:round;stroke-miterlimit:4;stroke-dasharray:none"
     transform="matrix(0.45857139,0,0,0.45413101,60.836279,41.123248)">
    <g
       id="kvg:030a9"
       style="stroke-width:6.57396212;stroke-miterlimit:4;stroke-dasharray:none">
      <path
         id="kvg:030a9-s1"
         d="m 26,50.69 c 3.11,1.49 6,1.3 8.75,0.86 14.32,-2.3 27.34,-3.76 40.17,-4.53 2.65,-0.16 5.05,0.14 8.31,1.15"
         style="stroke-width:6.57396212;stroke-miterlimit:4;stroke-dasharray:none" />
      <path
         id="kvg:030a9-s2"
         d="m 58.49,33.57 c 1.05,1.18 1.31,3.16 1.31,4.86 0,6.36 -0.2,36.73 -0.2,46.58 0,16.19 -4.67,5.96 -7.35,4.37"
         style="stroke-width:6.57396212;stroke-miterlimit:4;stroke-dasharray:none" />
      <path
         id="kvg:030a9-s3"
         d="m 58.41,49.45 c 0,1.29 -1.31,2.87 -2.88,4.77 -6.26,7.55 -16.79,18.08 -27.51,26.22"
         style="stroke-width:6.57396212;stroke-miterlimit:4;stroke-dasharray:none" />
    </g>
  </g>
  <text
     id="text7"
     style="font-size:8px;fill:#808080"
     x="69.363426"
     y="59.37418">3</text>
  <text
     id="text9"
     style="font-size:8px;fill:#808080"
     x="89.823265"
     y="54.149044">4</text>
  <text
     id="text11"
     style="font-size:8px;fill:#808080"
     x="91.866043"
     y="72.834908">5</text>
  <text
     id="text6"
     style="font-size:8px;fill:#808080"
     x="27.448219"
     y="25.993456">1</text>
  <text
     id="text8"
     style="font-size:8px;fill:#808080"
     x="53.191673"
     y="55.965969">2</text>
</svg>
