<?xml version="1.0" encoding="UTF-8" standalone="no"?>
<!--
Copyright (C) 2009/2010/2011 Ulrich Apel.
This work is distributed under the conditions of the Creative Commons
Attribution-Share Alike 3.0 Licence. This means you are free:
* to Share - to copy, distribute and transmit the work
* to Remix - to adapt the work

Under the following conditions:
* Attribution. You must attribute the work by stating your use of KanjiVG in
  your own copyright header and linking to KanjiVG's website
  (http://kanjivg.tagaini.net)
* Share Alike. If you alter, transform, or build upon this work, you may
  distribute the resulting work only under the same or similar license to this
  one.

See http://creativecommons.org/licenses/by-sa/3.0/ for more details.
-->

<svg
   width="109"
   height="109"
   viewBox="0 0 109 109"
   version="1.1"
   id="svg11"
   sodipodi:docname="リュ.svg"
   inkscape:version="1.1 (c68e22c387, 2021-05-23)"
   xmlns:inkscape="http://www.inkscape.org/namespaces/inkscape"
   xmlns:sodipodi="http://sodipodi.sourceforge.net/DTD/sodipodi-0.dtd"
   xmlns="http://www.w3.org/2000/svg"
   xmlns:svg="http://www.w3.org/2000/svg">
  <defs
     id="defs15" />
  <sodipodi:namedview
     id="namedview13"
     pagecolor="#ffffff"
     bordercolor="#666666"
     borderopacity="1.0"
     inkscape:pageshadow="2"
     inkscape:pageopacity="0.0"
     inkscape:pagecheckerboard="0"
     showgrid="false"
     inkscape:zoom="7.0091743"
     inkscape:cx="39.162958"
     inkscape:cy="52.502618"
     inkscape:window-width="2491"
     inkscape:window-height="1057"
     inkscape:window-x="61"
     inkscape:window-y="-8"
     inkscape:window-maximized="1"
     inkscape:current-layer="svg11" />
  <g
     id="kvg:StrokePaths_030ea"
     style="fill:none;stroke:#000000;stroke-width:3.57545435;stroke-linecap:round;stroke-linejoin:round;stroke-miterlimit:4;stroke-dasharray:none"
     transform="matrix(0.85104028,0,0,0.82723694,-16.544384,9.2475049)">
    <g
       id="kvg:030ea"
       style="stroke-width:3.57545435;stroke-miterlimit:4;stroke-dasharray:none">
      <path
         id="kvg:030ea-s1"
         d="m 35,18.38 c 1.12,1.5 1.62,3 1.62,4.88 0,1.88 0,25 0,27 0,2 0,6.12 0,7.75"
         style="stroke-width:3.57545435;stroke-miterlimit:4;stroke-dasharray:none" />
      <path
         id="kvg:030ea-s2"
         d="m 71,15.38 c 1.5,1.25 2.38,3.12 2.38,5.38 0,2.26 -0.12,28.88 -0.12,32.88 0,19.62 -9.5,32.25 -21.75,40.38"
         style="stroke-width:3.57545435;stroke-miterlimit:4;stroke-dasharray:none" />
    </g>
  </g>
  <text
     id="text6"
     style="font-size:6.93622px;fill:#808080;stroke-width:1"
     x="5.7398057"
     y="25.610897">1</text>
  <text
     id="text8"
     style="font-size:6.93622px;fill:#808080;stroke-width:1"
     x="35.394516"
     y="24.403393">2</text>
  <g
     id="kvg:StrokePaths_030e5"
     style="fill:none;stroke:#000000;stroke-width:3.65283718;stroke-linecap:round;stroke-linejoin:round;stroke-miterlimit:4;stroke-dasharray:none"
     transform="matrix(0.81667742,0,0,0.82590735,26.959234,14.644654)">
    <g
       id="kvg:030e5"
       style="stroke-width:3.65283718;stroke-miterlimit:4;stroke-dasharray:none">
      <path
         id="kvg:030e5-s1"
         d="m 34.8,52.84 c 1.91,1.21 4.13,1.67 7.44,1.21 10.65,-1.51 13.99,-1.68 21.71,-2.97 5.43,-0.9 6.26,0.13 5.23,5.12 -1.91,9.25 -3.92,19.45 -5.23,27.49"
         style="stroke-width:3.65283718;stroke-miterlimit:4;stroke-dasharray:none" />
      <path
         id="kvg:030e5-s2"
         d="m 24.5,86.21 c 2.21,1.21 3.84,1.73 7.34,1.21 18.54,-2.79 28.95,-3.12 43.52,-3.12 3.02,0 5.93,0.4 8.95,0.9"
         style="stroke-width:3.65283718;stroke-miterlimit:4;stroke-dasharray:none" />
    </g>
  </g>
  <text
     id="text6-4"
     style="font-size:6.93622px;fill:#808080;stroke-width:1"
     x="53.267681"
     y="53.999344">3</text>
  <text
     id="text8-6"
     style="font-size:6.93622px;fill:#808080;stroke-width:1"
     x="46.183292"
     y="81.634666">4</text>
</svg>
