<?xml version="1.0" encoding="UTF-8" standalone="no"?>
<!--
Copyright (C) 2009/2010/2011 Ulrich Apel.
This work is distributed under the conditions of the Creative Commons
Attribution-Share Alike 3.0 Licence. This means you are free:
* to Share - to copy, distribute and transmit the work
* to Remix - to adapt the work

Under the following conditions:
* Attribution. You must attribute the work by stating your use of KanjiVG in
  your own copyright header and linking to KanjiVG's website
  (http://kanjivg.tagaini.net)
* Share Alike. If you alter, transform, or build upon this work, you may
  distribute the resulting work only under the same or similar license to this
  one.

See http://creativecommons.org/licenses/by-sa/3.0/ for more details.
-->

<svg
   width="109"
   height="109"
   viewBox="0 0 109 109"
   version="1.1"
   id="svg11"
   sodipodi:docname="リェ.svg"
   inkscape:version="1.1 (c68e22c387, 2021-05-23)"
   xmlns:inkscape="http://www.inkscape.org/namespaces/inkscape"
   xmlns:sodipodi="http://sodipodi.sourceforge.net/DTD/sodipodi-0.dtd"
   xmlns="http://www.w3.org/2000/svg"
   xmlns:svg="http://www.w3.org/2000/svg">
  <defs
     id="defs15" />
  <sodipodi:namedview
     id="namedview13"
     pagecolor="#ffffff"
     bordercolor="#666666"
     borderopacity="1.0"
     inkscape:pageshadow="2"
     inkscape:pageopacity="0.0"
     inkscape:pagecheckerboard="0"
     showgrid="false"
     inkscape:zoom="7.0091743"
     inkscape:cx="53.358639"
     inkscape:cy="54.5"
     inkscape:window-width="2491"
     inkscape:window-height="1057"
     inkscape:window-x="61"
     inkscape:window-y="-8"
     inkscape:window-maximized="1"
     inkscape:current-layer="svg11" />
  <g
     id="kvg:StrokePaths_030ea"
     style="fill:none;stroke:#000000;stroke-width:3.47168488;stroke-linecap:round;stroke-linejoin:round;stroke-miterlimit:4;stroke-dasharray:none"
     transform="matrix(0.87176799,0,0,0.85656632,-20.493661,7.6390828)">
    <g
       id="kvg:030ea"
       style="stroke-width:3.47168488;stroke-miterlimit:4;stroke-dasharray:none">
      <path
         id="kvg:030ea-s1"
         d="m 35,18.38 c 1.12,1.5 1.62,3 1.62,4.88 0,1.88 0,25 0,27 0,2 0,6.12 0,7.75"
         style="stroke-width:3.47168488;stroke-miterlimit:4;stroke-dasharray:none" />
      <path
         id="kvg:030ea-s2"
         d="m 71,15.38 c 1.5,1.25 2.38,3.12 2.38,5.38 0,2.26 -0.12,28.88 -0.12,32.88 0,19.62 -9.5,32.25 -21.75,40.38"
         style="stroke-width:3.47168488;stroke-miterlimit:4;stroke-dasharray:none" />
    </g>
  </g>
  <text
     id="text6"
     style="font-size:8px;fill:#808080"
     x="3.5100532"
     y="19.446754">1</text>
  <text
     id="text8"
     style="font-size:8px;fill:#808080"
     x="33.323299"
     y="19.206806">2</text>
  <g
     id="kvg:StrokePaths_030a7"
     style="fill:none;stroke:#000000;stroke-width:3.32375275;stroke-linecap:round;stroke-linejoin:round;stroke-miterlimit:4;stroke-dasharray:none"
     transform="matrix(0.89961569,0,0,0.9055826,24.215138,11.546987)">
    <g
       id="kvg:030a7"
       style="stroke-width:3.32375275;stroke-miterlimit:4;stroke-dasharray:none">
      <path
         id="kvg:030a7-s1"
         d="m 36.22,52.7 c 1.84,0.56 4.08,0.53 5.93,0.24 6.8,-1.08 17.77,-2.28 26.71,-3.07 1.8,-0.16 3.59,-0.15 5.37,0.18"
         style="stroke-width:3.32375275;stroke-miterlimit:4;stroke-dasharray:none" />
      <path
         id="kvg:030a7-s2"
         d="m 53.25,54.65 c 0.79,0.9 1.04,2.4 0.99,3.7 -0.14,3.79 -0.4,10.3 -0.65,17.78 -0.06,1.85 -0.12,3.25 -0.18,5.19"
         style="stroke-width:3.32375275;stroke-miterlimit:4;stroke-dasharray:none" />
      <path
         id="kvg:030a7-s3"
         d="m 26,84.03 c 2.71,0.7 6.01,0.65 8.73,0.29 14.11,-1.84 27.4,-2.86 40.12,-2.89 2.65,-0.01 5.73,0.31 8.3,1.33"
         style="stroke-width:3.32375275;stroke-miterlimit:4;stroke-dasharray:none" />
    </g>
  </g>
  <text
     id="text7"
     style="font-size:8px;fill:#808080"
     x="54.64315"
     y="54.133152">3</text>
  <text
     id="text9"
     style="font-size:8px;fill:#808080"
     x="77.505287"
     y="67.962578">4</text>
  <text
     id="text11"
     style="font-size:8px;fill:#808080"
     x="45.072464"
     y="83.489174">5</text>
</svg>
