<?xml version="1.0" encoding="UTF-8" standalone="no"?>
<!--
Copyright (C) 2009/2010/2011 Ulrich Apel.
This work is distributed under the conditions of the Creative Commons
Attribution-Share Alike 3.0 Licence. This means you are free:
* to Share - to copy, distribute and transmit the work
* to Remix - to adapt the work

Under the following conditions:
* Attribution. You must attribute the work by stating your use of KanjiVG in
  your own copyright header and linking to KanjiVG's website
  (http://kanjivg.tagaini.net)
* Share Alike. If you alter, transform, or build upon this work, you may
  distribute the resulting work only under the same or similar license to this
  one.

See http://creativecommons.org/licenses/by-sa/3.0/ for more details.
-->

<svg
   width="109"
   height="109"
   viewBox="0 0 109 109"
   version="1.1"
   id="svg20"
   sodipodi:docname="ヴォ.svg"
   inkscape:version="1.1 (c68e22c387, 2021-05-23)"
   xmlns:inkscape="http://www.inkscape.org/namespaces/inkscape"
   xmlns:sodipodi="http://sodipodi.sourceforge.net/DTD/sodipodi-0.dtd"
   xmlns="http://www.w3.org/2000/svg"
   xmlns:svg="http://www.w3.org/2000/svg">
  <defs
     id="defs24" />
  <sodipodi:namedview
     id="namedview22"
     pagecolor="#ffffff"
     bordercolor="#666666"
     borderopacity="1.0"
     inkscape:pageshadow="2"
     inkscape:pageopacity="0.0"
     inkscape:pagecheckerboard="0"
     showgrid="false"
     inkscape:zoom="7.0091743"
     inkscape:cx="52.645288"
     inkscape:cy="54.5"
     inkscape:window-width="2491"
     inkscape:window-height="1057"
     inkscape:window-x="61"
     inkscape:window-y="-8"
     inkscape:window-maximized="1"
     inkscape:current-layer="svg20" />
  <g
     id="kvg:StrokePaths_030f4"
     style="fill:none;stroke:#000000;stroke-width:3.37608275;stroke-linecap:round;stroke-linejoin:round;stroke-miterlimit:4;stroke-dasharray:none"
     transform="matrix(0.89037895,0,0,0.88683221,-13.589058,7.7196009)">
    <g
       id="kvg:030f4"
       style="stroke-width:3.37608275;stroke-miterlimit:4;stroke-dasharray:none">
      <path
         id="kvg:030f4-s1"
         d="m 53.25,14.62 c 1,1.12 1.25,3 1.25,4.62 0,1.62 0,10.76 0,12.64"
         style="stroke-width:3.37608275;stroke-miterlimit:4;stroke-dasharray:none" />
      <path
         id="kvg:030f4-s2"
         d="m 26.5,31.25 c 1,1.12 1.22,3 1.25,4.62 0.09,4.45 0.29,10.95 0.45,16.37 0.07,2.5 0.14,4.77 0.18,6.5"
         style="stroke-width:3.37608275;stroke-miterlimit:4;stroke-dasharray:none" />
      <path
         id="kvg:030f4-s3"
         d="m 29.12,35.88 c 19.38,-2.25 40.25,-4.25 49,-5.5 8.75,-1.25 8.28,0.84 6.25,6.88 -5,14.88 -20.12,43.5 -41,56.62"
         style="stroke-width:3.37608275;stroke-miterlimit:4;stroke-dasharray:none" />
      <path
         id="kvg:030f4-s4"
         d="m 85.12,16.5 c 2.75,1.75 6,5.38 7.75,8.5"
         style="stroke-width:3.37608275;stroke-miterlimit:4;stroke-dasharray:none" />
      <path
         id="kvg:030f4-s5"
         d="m 91.5,11.62 c 3.06,1.57 6.68,4.82 8.62,7.62"
         style="stroke-width:3.37608275;stroke-miterlimit:4;stroke-dasharray:none" />
    </g>
  </g>
  <text
     id="text9"
     style="font-size:8px;fill:#808080"
     x="37.613873"
     y="19.980785">1</text>
  <text
     id="text11"
     style="font-size:8px;fill:#808080"
     x="6.5863876"
     y="30.994764">2</text>
  <text
     id="text13"
     style="font-size:8px;fill:#808080"
     x="14.773561"
     y="48.764397">3</text>
  <text
     id="text15"
     style="font-size:8px;fill:#808080"
     x="53.674084"
     y="27.056282">4</text>
  <text
     id="text17"
     style="font-size:8px;fill:#808080"
     x="68.934975"
     y="14.089424">5</text>
  <g
     id="kvg:StrokePaths_030a9"
     style="fill:none;stroke:#000000;stroke-width:5.30645612;stroke-linecap:round;stroke-linejoin:round;stroke-miterlimit:4;stroke-dasharray:none"
     transform="matrix(0.56561166,0,0,0.56508659,51.922758,37.86059)">
    <g
       id="kvg:030a9"
       style="stroke-width:5.30645612;stroke-miterlimit:4;stroke-dasharray:none">
      <path
         id="kvg:030a9-s1"
         d="m 26,50.69 c 3.11,1.49 6,1.3 8.75,0.86 14.32,-2.3 27.34,-3.76 40.17,-4.53 2.65,-0.16 5.05,0.14 8.31,1.15"
         style="stroke-width:5.30645612;stroke-miterlimit:4;stroke-dasharray:none" />
      <path
         id="kvg:030a9-s2"
         d="m 58.49,33.57 c 1.05,1.18 1.31,3.16 1.31,4.86 0,6.36 -0.2,36.73 -0.2,46.58 0,16.19 -4.67,5.96 -7.35,4.37"
         style="stroke-width:5.30645612;stroke-miterlimit:4;stroke-dasharray:none" />
      <path
         id="kvg:030a9-s3"
         d="m 58.41,49.45 c 0,1.29 -1.31,2.87 -2.88,4.77 -6.26,7.55 -16.79,18.08 -27.51,26.22"
         style="stroke-width:5.30645612;stroke-miterlimit:4;stroke-dasharray:none" />
    </g>
  </g>
  <text
     id="text7"
     style="font-size:8px;fill:#808080"
     x="63.426537"
     y="62.60442">6</text>
  <text
     id="text9-4"
     style="font-size:8px;fill:#808080"
     x="88.309151"
     y="53.669865">7</text>
  <text
     id="text11-7"
     style="font-size:8px;fill:#808080"
     x="89.067902"
     y="74.495773">8</text>
</svg>
