<?xml version="1.0" encoding="UTF-8" standalone="no"?>
<!--
Copyright (C) 2009/2010/2011 Ulrich Apel.
This work is distributed under the conditions of the Creative Commons
Attribution-Share Alike 3.0 Licence. This means you are free:
* to Share - to copy, distribute and transmit the work
* to Remix - to adapt the work

Under the following conditions:
* Attribution. You must attribute the work by stating your use of KanjiVG in
  your own copyright header and linking to KanjiVG's website
  (http://kanjivg.tagaini.net)
* Share Alike. If you alter, transform, or build upon this work, you may
  distribute the resulting work only under the same or similar license to this
  one.

See http://creativecommons.org/licenses/by-sa/3.0/ for more details.
-->

<svg
   width="109"
   height="109"
   viewBox="0 0 109 109"
   version="1.1"
   xmlns="http://www.w3.org/2000/svg">
  <path
     id="kvg:03042-s1"
     d="m 31.01,33 c 0.88,0.88 2.75,1.82 5.25,1.75 8.62,-0.25 20,-2.12 29.5,-4.25 1.51,-0.34 4.62,-0.88 6.62,-0.5"
     style="fill:none;stroke:#000000;stroke-width:10;stroke-linecap:round;stroke-linejoin:round" />
  <path
     id="kvg:03042-s2"
     d="m 49.76,17.62 c 0.88,1 1.82,3.26 1.38,5.25 -3.75,16.75 -6.25,38.13 -5.13,53.63 0.41,5.7 1.88,10.88 3.38,13.62"
     style="fill:none;stroke:#000000;stroke-width:10;stroke-linecap:round;stroke-linejoin:round" />
  <path
     id="kvg:03042-s3"
     d="m 65.63,44.12 c 0.75,1.12 1.16,4.39 0.5,6.12 C 61.51,62.5 54.89,74 40.76,86 33.9,91.83 24.88,89.75 24.51,77.62 24.17,66.75 37.89,54.5 56.89,50.88 c 12.42,-2.37 27,1.38 30.5,12.75 C 91.44,76.81 83.63,90 66.51,94.12"
     style="fill:none;stroke:#000000;stroke-width:10;stroke-linecap:round;stroke-linejoin:round" />
</svg>
