<?xml version="1.0" encoding="UTF-8" standalone="no"?>
<!--
Copyright (C) 2009/2010/2011 Ulrich Apel.
This work is distributed under the conditions of the Creative Commons
Attribution-Share Alike 3.0 Licence. This means you are free:
* to Share - to copy, distribute and transmit the work
* to Remix - to adapt the work

Under the following conditions:
* Attribution. You must attribute the work by stating your use of KanjiVG in
  your own copyright header and linking to KanjiVG's website
  (http://kanjivg.tagaini.net)
* Share Alike. If you alter, transform, or build upon this work, you may
  distribute the resulting work only under the same or similar license to this
  one.

See http://creativecommons.org/licenses/by-sa/3.0/ for more details.
-->

<svg
   width="109"
   height="109"
   viewBox="0 0 109 109"
   version="1.1"
   xmlns="http://www.w3.org/2000/svg">
  <path
     id="kvg:03048-s1"
     d="m 40.52,13.25 c 5.62,2.12 10,3 14.12,3 8.27,0 8,1.12 -0.38,5.5"
     style="fill:none;stroke:#000000;stroke-width:10;stroke-linecap:round;stroke-linejoin:round" />
  <path
     id="kvg:03048-s2"
     d="m 32.52,45.12 c 1.88,1.25 4.5,1.75 7.38,0.62 3.29,-1.29 17,-7.88 21.25,-9.88 4.25,-2 8.32,0.04 4.38,4.62 C 53.27,54.75 38.27,72 26.02,84.88 c -3.26,3.42 -0.58,3.54 1.5,1.37 13.5,-14.12 18.12,-20.12 23.62,-20.12 7.13,0 3.5,16.75 6.75,22.38 3.25,5.63 19.12,3.75 26.12,2.12"
     style="fill:none;stroke:#000000;stroke-width:10;stroke-linecap:round;stroke-linejoin:round" />
</svg>
