<?xml version="1.0" encoding="UTF-8" standalone="no"?>
<!--
Copyright (C) 2009/2010/2011 Ulrich Apel.
This work is distributed under the conditions of the Creative Commons
Attribution-Share Alike 3.0 Licence. This means you are free:
* to Share - to copy, distribute and transmit the work
* to Remix - to adapt the work

Under the following conditions:
* Attribution. You must attribute the work by stating your use of KanjiVG in
  your own copyright header and linking to KanjiVG's website
  (http://kanjivg.tagaini.net)
* Share Alike. If you alter, transform, or build upon this work, you may
  distribute the resulting work only under the same or similar license to this
  one.

See http://creativecommons.org/licenses/by-sa/3.0/ for more details.
-->

<svg
   width="109"
   height="109"
   viewBox="0 0 109 109"
   version="1.1"
   xmlns="http://www.w3.org/2000/svg">
  <path
     id="kvg:0304a-s1"
     d="m 22.88,35.12 c 1.38,1 3.62,2.38 6,2.12 2.38,-0.26 19.62,-5.12 21.12,-5.74 1.5,-0.62 4,-1.25 5.88,-2"
     style="fill:none;stroke:#000000;stroke-width:12;stroke-linecap:round;stroke-linejoin:round" />
  <path
     id="kvg:0304a-s2"
     d="m 41.5,16.12 c 2.25,1 3.59,4.39 3.12,7.38 -2.5,16.12 -3.37,45.53 -2.25,58.38 C 43.12,90.5 41.73,92.33 35.25,89 30.12,86.38 21.5,81 21.5,76.62 21.5,69.12 45.88,53 66.25,53 c 17.25,0 25,8.25 25,17.25 0,8.25 -9.38,18.88 -26.75,21"
     style="fill:none;stroke:#000000;stroke-width:12;stroke-linecap:round;stroke-linejoin:round" />
  <path
     id="kvg:0304a-s3"
     d="m 73,22.12 c 5.38,2.62 8.88,5.88 10.62,8.25 2.27,3.08 0.38,4.5 -1.12,5"
     style="fill:none;stroke:#000000;stroke-width:12;stroke-linecap:round;stroke-linejoin:round" />
</svg>
