<?xml version="1.0" encoding="UTF-8" standalone="no"?>
<!--
Copyright (C) 2009/2010/2011 Ulrich Apel.
This work is distributed under the conditions of the Creative Commons
Attribution-Share Alike 3.0 Licence. This means you are free:
* to Share - to copy, distribute and transmit the work
* to Remix - to adapt the work

Under the following conditions:
* Attribution. You must attribute the work by stating your use of KanjiVG in
  your own copyright header and linking to KanjiVG's website
  (http://kanjivg.tagaini.net)
* Share Alike. If you alter, transform, or build upon this work, you may
  distribute the resulting work only under the same or similar license to this
  one.

See http://creativecommons.org/licenses/by-sa/3.0/ for more details.
-->

<svg
   width="109"
   height="109"
   viewBox="0 0 109 109"
   version="1.1"
   xmlns="http://www.w3.org/2000/svg">
  <path
     id="kvg:030a8-s1"
     d="m 31.87,35.68 c 2.32,0.71 5.14,0.66 7.48,0.29 8.57,-1.35 22.4,-2.85 33.66,-3.85 2.26,-0.2 4.52,-0.19 6.77,0.22"
     style="fill:none;stroke:#000000;stroke-width:11;stroke-linecap:round;stroke-linejoin:round" />
  <path
     id="kvg:030a8-s2"
     d="m 53.34,38.13 c 1,1.12 1.31,3 1.25,4.62 -0.18,4.74 -0.51,12.89 -0.83,22.25 -0.08,2.31 -0.16,4.7 -0.23,7.12"
     style="fill:none;stroke:#000000;stroke-width:11;stroke-linecap:round;stroke-linejoin:round" />
  <path
     id="kvg:030a8-s3"
     d="m 19,75.46 c 3.41,0.94 7.57,0.88 11.01,0.39 17.78,-2.48 34.53,-3.86 50.55,-3.9 3.34,-0.01 7.23,0.42 10.46,1.8"
     style="fill:none;stroke:#000000;stroke-width:11;stroke-linecap:round;stroke-linejoin:round" />
</svg>
