<?xml version="1.0" encoding="UTF-8" standalone="no"?>
<!--
Copyright (C) 2009/2010/2011 Ulrich Apel.
This work is distributed under the conditions of the Creative Commons
Attribution-Share Alike 3.0 Licence. This means you are free:
* to Share - to copy, distribute and transmit the work
* to Remix - to adapt the work

Under the following conditions:
* Attribution. You must attribute the work by stating your use of KanjiVG in
  your own copyright header and linking to KanjiVG's website
  (http://kanjivg.tagaini.net)
* Share Alike. If you alter, transform, or build upon this work, you may
  distribute the resulting work only under the same or similar license to this
  one.

See http://creativecommons.org/licenses/by-sa/3.0/ for more details.
-->

<svg
   width="109"
   height="109"
   viewBox="0 0 109 109"
   version="1.1"
   id="svg17"
   sodipodi:docname="きょ.svg"
   inkscape:version="1.1 (c68e22c387, 2021-05-23)"
   xmlns:inkscape="http://www.inkscape.org/namespaces/inkscape"
   xmlns:sodipodi="http://sodipodi.sourceforge.net/DTD/sodipodi-0.dtd"
   xmlns="http://www.w3.org/2000/svg"
   xmlns:svg="http://www.w3.org/2000/svg">
  <defs
     id="defs21" />
  <sodipodi:namedview
     id="namedview19"
     pagecolor="#ffffff"
     bordercolor="#666666"
     borderopacity="1.0"
     inkscape:pageshadow="2"
     inkscape:pageopacity="0.0"
     inkscape:pagecheckerboard="0"
     showgrid="false"
     inkscape:zoom="7.0091743"
     inkscape:cx="38.449607"
     inkscape:cy="59.778796"
     inkscape:window-width="2491"
     inkscape:window-height="1057"
     inkscape:window-x="61"
     inkscape:window-y="-8"
     inkscape:window-maximized="1"
     inkscape:current-layer="svg17" />
  <g
     id="kvg:StrokePaths_0304d"
     style="fill:none;stroke:#000000;stroke-width:3.13604811;stroke-linecap:round;stroke-linejoin:round;stroke-miterlimit:4;stroke-dasharray:none"
     transform="matrix(0.95611732,0,0,0.9571189,-14.161773,4.1556952)">
    <g
       id="kvg:0304d"
       style="stroke-width:3.13604811;stroke-miterlimit:4;stroke-dasharray:none">
      <path
         id="kvg:0304d-s1"
         d="m 30.5,30.25 c 1.88,0.75 4.64,1.06 5.88,0.88 6.75,-1 22.25,-4.5 26.5,-6 2.17,-0.76 3.5,-1.25 4.88,-2.12"
         style="stroke-width:3.13604811;stroke-miterlimit:4;stroke-dasharray:none" />
      <path
         id="kvg:0304d-s2"
         d="m 36.25,48.7 c 2.01,0.85 4.97,1.2 6.29,0.99 7.23,-1.13 23.82,-5.09 28.37,-6.79 2.32,-0.86 3.75,-1.41 5.22,-2.4"
         style="stroke-width:3.13604811;stroke-miterlimit:4;stroke-dasharray:none" />
      <path
         id="kvg:0304d-s3"
         d="m 42,14.12 c 1.5,0.88 3.13,2.94 4,5.12 C 51.5,33 62,48.5 72.37,60 c 7.64,8.47 9.12,9.38 -6,3.88"
         style="stroke-width:3.13604811;stroke-miterlimit:4;stroke-dasharray:none" />
      <path
         id="kvg:0304d-s4"
         d="M 33.75,83.25 C 44.37,93 61,91.87 71.87,88.25"
         style="stroke-width:3.13604811;stroke-miterlimit:4;stroke-dasharray:none" />
    </g>
  </g>
  <text
     id="text8"
     style="font-size:8px;fill:#808080"
     x="12.50024"
     y="29.351482">1</text>
  <text
     id="text10"
     style="font-size:8px;fill:#808080"
     x="17.41427"
     y="46.982792">2</text>
  <text
     id="text12"
     style="font-size:8px;fill:#808080"
     x="32.341866"
     y="18.415617">3</text>
  <text
     id="text14"
     style="font-size:8px;fill:#808080"
     x="15.638983"
     y="79.562218">4</text>
  <g
     id="kvg:StrokePaths_03087"
     style="fill:none;stroke:#000000;stroke-width:5.44491443;stroke-linecap:round;stroke-linejoin:round;stroke-miterlimit:4;stroke-dasharray:none"
     transform="matrix(0.54799253,0,0,0.55396937,51.532819,38.655961)">
    <g
       id="kvg:03087"
       style="stroke-width:5.44491443;stroke-miterlimit:4;stroke-dasharray:none">
      <path
         id="kvg:03087-s1"
         d="m 57.8,50.06 c 5.98,-1.02 10.95,-2.09 14.74,-3.25 1.99,-0.61 3.8,-0.91 4.98,-0.91"
         style="stroke-width:5.44491443;stroke-miterlimit:4;stroke-dasharray:none" />
      <path
         id="kvg:03087-s2"
         d="m 54.91,33 c 1.79,1.69 2.38,3.28 2.29,5.16 -0.6,13.49 -0.1,27.68 1.11,42.47 1.5,18.31 -27.81,16.56 -27.81,9.12 0,-9.53 20.92,-6.35 28.68,-3.27 6.46,2.56 9.18,3.87 14.76,8.23"
         style="stroke-width:5.44491443;stroke-miterlimit:4;stroke-dasharray:none" />
    </g>
  </g>
  <text
     transform="scale(0.99574399,1.0042742)"
     id="text6"
     style="font-size:8.54934px;fill:#808080;stroke-width:1"
     x="86.363548"
     y="75.771576">5</text>
  <text
     transform="scale(0.99574399,1.0042742)"
     id="text8-9"
     style="font-size:8.54934px;fill:#808080;stroke-width:1"
     x="73.202103"
     y="56.868572">6</text>
</svg>
