<?xml version="1.0" encoding="UTF-8" standalone="no"?>
<!--
Copyright (C) 2009/2010/2011 Ulrich Apel.
This work is distributed under the conditions of the Creative Commons
Attribution-Share Alike 3.0 Licence. This means you are free:
* to Share - to copy, distribute and transmit the work
* to Remix - to adapt the work

Under the following conditions:
* Attribution. You must attribute the work by stating your use of KanjiVG in
  your own copyright header and linking to KanjiVG's website
  (http://kanjivg.tagaini.net)
* Share Alike. If you alter, transform, or build upon this work, you may
  distribute the resulting work only under the same or similar license to this
  one.

See http://creativecommons.org/licenses/by-sa/3.0/ for more details.
-->

<svg
   width="109"
   height="109"
   viewBox="0 0 109 109"
   version="1.1"
   id="svg17"
   sodipodi:docname="きゃ.svg"
   inkscape:version="1.1 (c68e22c387, 2021-05-23)"
   xmlns:inkscape="http://www.inkscape.org/namespaces/inkscape"
   xmlns:sodipodi="http://sodipodi.sourceforge.net/DTD/sodipodi-0.dtd"
   xmlns="http://www.w3.org/2000/svg"
   xmlns:svg="http://www.w3.org/2000/svg">
  <defs
     id="defs21" />
  <sodipodi:namedview
     id="namedview19"
     pagecolor="#ffffff"
     bordercolor="#666666"
     borderopacity="1.0"
     inkscape:pageshadow="2"
     inkscape:pageopacity="0.0"
     inkscape:pagecheckerboard="0"
     showgrid="false"
     inkscape:snap-center="false"
     inkscape:snap-object-midpoints="false"
     inkscape:snap-bbox="false"
     inkscape:bbox-nodes="true"
     inkscape:zoom="7.0091744"
     inkscape:cx="47.723167"
     inkscape:cy="53.643978"
     inkscape:window-width="2491"
     inkscape:window-height="1057"
     inkscape:window-x="61"
     inkscape:window-y="-8"
     inkscape:window-maximized="1"
     inkscape:current-layer="svg17" />
  <text
     id="text8"
     style="font-size:8px;fill:#808080"
     x="7.2857671"
     y="29.068645">1</text>
  <text
     id="text10"
     style="font-size:8px;fill:#808080"
     x="13.48383"
     y="46.699959">2</text>
  <text
     id="text12"
     style="font-size:8px;fill:#808080"
     x="24.131315"
     y="15.422053">3</text>
  <text
     id="text14"
     style="font-size:8px;fill:#808080"
     x="10.995191"
     y="79.992737">4</text>
  <g
     id="kvg:StrokePaths_0304d"
     style="fill:none;stroke:#000000;stroke-width:3.1342232;stroke-linecap:round;stroke-linejoin:round;stroke-miterlimit:4;stroke-dasharray:none"
     transform="matrix(0.95515784,0,0,0.95919636,-19.143373,4.1211369)">
    <g
       id="kvg:0304d"
       style="stroke-width:3.1342232;stroke-miterlimit:4;stroke-dasharray:none">
      <path
         id="kvg:0304d-s1"
         d="m 30.5,30.25 c 1.88,0.75 4.64,1.06 5.88,0.88 6.75,-1 22.25,-4.5 26.5,-6 2.17,-0.76 3.5,-1.25 4.88,-2.12"
         style="stroke-width:3.1342232;stroke-miterlimit:4;stroke-dasharray:none" />
      <path
         id="kvg:0304d-s2"
         d="m 36.25,48.7 c 2.01,0.85 4.97,1.2 6.29,0.99 7.23,-1.13 23.82,-5.09 28.37,-6.79 2.32,-0.86 3.75,-1.41 5.22,-2.4"
         style="stroke-width:3.1342232;stroke-miterlimit:4;stroke-dasharray:none" />
      <path
         id="kvg:0304d-s3"
         d="m 42,14.12 c 1.5,0.88 3.13,2.94 4,5.12 C 51.5,33 62,48.5 72.37,60 c 7.64,8.47 9.12,9.38 -6,3.88"
         style="stroke-width:3.1342232;stroke-miterlimit:4;stroke-dasharray:none" />
      <path
         id="kvg:0304d-s4"
         d="M 33.75,83.25 C 44.37,93 61,91.87 71.87,88.25"
         style="stroke-width:3.1342232;stroke-miterlimit:4;stroke-dasharray:none" />
    </g>
  </g>
  <g
     id="kvg:StrokePaths_03083"
     style="fill:none;stroke:#000000;stroke-width:5.0240818;stroke-linecap:round;stroke-linejoin:round;stroke-miterlimit:4;stroke-dasharray:none"
     transform="matrix(0.59932854,0,0,0.59492764,47.576952,35.121624)">
    <g
       id="kvg:03083"
       style="stroke-width:5.0240818;stroke-miterlimit:4;stroke-dasharray:none">
      <path
         id="kvg:03083-s1"
         d="m 26,61.07 c 1.49,1.29 4.16,1.98 6.84,0.69 C 47.52,54.73 61.2,46.4 73.16,46.5 c 7.16,0.11 12.7,3.28 12.63,9.75 0,6.61 -8.63,13.15 -19.43,14.14"
         style="stroke-width:5.0240818;stroke-miterlimit:4;stroke-dasharray:none" />
      <path
         id="kvg:03083-s2"
         d="m 48.6239,30.183403 c 4.07,0.69 8.25,3.21 9.12,5.25 1.69,3.97 -0.79,1.88 -2.28,2.08"
         style="stroke-width:5.0240818;stroke-miterlimit:4;stroke-dasharray:none" />
      <path
         id="kvg:03083-s3"
         d="m 35.77,40.99 c 1.88,1.49 2.35,2.77 2.82,4.67 2.08,8.33 8.82,32.37 11.7,41.39 0.51,1.62 1.49,4.96 2.28,7.44"
         style="stroke-width:5.0240818;stroke-miterlimit:4;stroke-dasharray:none" />
    </g>
  </g>
  <text
     id="text7"
     style="font-size:8px;fill:#808080"
     x="59.572525"
     y="82.016075">5</text>
  <text
     id="text9"
     style="font-size:8px;fill:#808080"
     x="74.235718"
     y="49.241211">6</text>
  <text
     id="text11"
     style="font-size:8px;fill:#808080"
     x="61.398438"
     y="61.521313">7</text>
</svg>
