<?xml version="1.0" encoding="UTF-8" standalone="no"?>
<!--
Copyright (C) 2009/2010/2011 Ulrich Apel.
This work is distributed under the conditions of the Creative Commons
Attribution-Share Alike 3.0 Licence. This means you are free:
* to Share - to copy, distribute and transmit the work
* to Remix - to adapt the work

Under the following conditions:
* Attribution. You must attribute the work by stating your use of KanjiVG in
  your own copyright header and linking to KanjiVG's website
  (http://kanjivg.tagaini.net)
* Share Alike. If you alter, transform, or build upon this work, you may
  distribute the resulting work only under the same or similar license to this
  one.

See http://creativecommons.org/licenses/by-sa/3.0/ for more details.
-->

<svg
   width="109"
   height="109"
   viewBox="0 0 109 109"
   version="1.1"
   id="svg17"
   sodipodi:docname="きゅ.svg"
   inkscape:version="1.1 (c68e22c387, 2021-05-23)"
   xmlns:inkscape="http://www.inkscape.org/namespaces/inkscape"
   xmlns:sodipodi="http://sodipodi.sourceforge.net/DTD/sodipodi-0.dtd"
   xmlns="http://www.w3.org/2000/svg"
   xmlns:svg="http://www.w3.org/2000/svg">
  <defs
     id="defs21" />
  <sodipodi:namedview
     id="namedview19"
     pagecolor="#ffffff"
     bordercolor="#666666"
     borderopacity="1.0"
     inkscape:pageshadow="2"
     inkscape:pageopacity="0.0"
     inkscape:pagecheckerboard="0"
     showgrid="false"
     inkscape:zoom="7.0091743"
     inkscape:cx="51.289922"
     inkscape:cy="52.074607"
     inkscape:window-width="2491"
     inkscape:window-height="1057"
     inkscape:window-x="61"
     inkscape:window-y="-8"
     inkscape:window-maximized="1"
     inkscape:current-layer="svg17" />
  <g
     id="kvg:StrokePaths_0304d"
     style="fill:none;stroke:#000000;stroke-width:3.15883706;stroke-linecap:round;stroke-linejoin:round;stroke-miterlimit:4;stroke-dasharray:none"
     transform="matrix(0.95429268,0,0,0.94516247,-16.794537,4.8580323)">
    <g
       id="kvg:0304d"
       style="stroke-width:3.15883706;stroke-miterlimit:4;stroke-dasharray:none">
      <path
         id="kvg:0304d-s1"
         d="m 30.5,30.25 c 1.88,0.75 4.64,1.06 5.88,0.88 6.75,-1 22.25,-4.5 26.5,-6 2.17,-0.76 3.5,-1.25 4.88,-2.12"
         style="stroke-width:3.15883706;stroke-miterlimit:4;stroke-dasharray:none" />
      <path
         id="kvg:0304d-s2"
         d="m 36.25,48.7 c 2.01,0.85 4.97,1.2 6.29,0.99 7.23,-1.13 23.82,-5.09 28.37,-6.79 2.32,-0.86 3.75,-1.41 5.22,-2.4"
         style="stroke-width:3.15883706;stroke-miterlimit:4;stroke-dasharray:none" />
      <path
         id="kvg:0304d-s3"
         d="m 42,14.12 c 1.5,0.88 3.13,2.94 4,5.12 C 51.5,33 62,48.5 72.37,60 c 7.64,8.47 9.12,9.38 -6,3.88"
         style="stroke-width:3.15883706;stroke-miterlimit:4;stroke-dasharray:none" />
      <path
         id="kvg:0304d-s4"
         d="M 33.75,83.25 C 44.37,93 61,91.87 71.87,88.25"
         style="stroke-width:3.15883706;stroke-miterlimit:4;stroke-dasharray:none" />
    </g>
  </g>
  <text
     id="text8"
     style="font-size:7.03435px;fill:#808080;stroke-width:1"
     x="8.3845873"
     y="28.87689">1</text>
  <text
     id="text10"
     style="font-size:7.03435px;fill:#808080;stroke-width:1"
     x="13.551682"
     y="47.336712">2</text>
  <text
     id="text12"
     style="font-size:7.03435px;fill:#808080;stroke-width:1"
     x="26.527321"
     y="16.132114">3</text>
  <text
     id="text14"
     style="font-size:7.03435px;fill:#808080;stroke-width:1"
     x="14.339771"
     y="79.788902">4</text>
  <g
     id="kvg:StrokePaths_03085"
     style="fill:none;stroke:#000000;stroke-width:5.16541168;stroke-linecap:round;stroke-linejoin:round;stroke-miterlimit:4;stroke-dasharray:none"
     transform="matrix(0.58128045,0,0,0.58029244,48.558871,35.940794)">
    <g
       id="kvg:03085"
       style="stroke-width:5.16541168;stroke-miterlimit:4;stroke-dasharray:none">
      <path
         id="kvg:03085-s1"
         d="m 27.74,40.79 c 1.1,1.2 1.61,3.3 1.2,5 -2.3,9.4 -3.2,17.79 -1.7,27.99 2.22,15.08 0.9,3.1 2.6,-1.2 7.19,-18.19 21.79,-27.59 35.49,-27.59 13.5,0 17.49,9.1 17.49,16.2 0,21.89 -24.69,23.69 -34.39,13.4"
         style="stroke-width:5.16541168;stroke-miterlimit:4;stroke-dasharray:none" />
      <path
         id="kvg:03085-s2"
         d="m 57.63,33.89 c 2.1,1.4 2.53,2.5 2.8,5.7 0.7,8.4 1.12,14.97 1.3,23.49 0.4,19.19 -5,25.59 -9.9,31.39"
         style="stroke-width:5.16541168;stroke-miterlimit:4;stroke-dasharray:none" />
    </g>
  </g>
  <text
     id="text6"
     style="font-size:5.8476px;fill:#808080;stroke-width:1.00001"
     x="68.646271"
     y="57.852268"
     transform="scale(0.99981124,1.0001888)">5</text>
  <text
     id="text8-9"
     style="font-size:5.8476px;fill:#808080;stroke-width:1.00001"
     x="85.412567"
     y="53.211166"
     transform="scale(0.99981124,1.0001888)">6</text>
</svg>
