<?xml version="1.0" encoding="UTF-8" standalone="no"?>
<!--
Copyright (C) 2009/2010/2011 Ulrich Apel.
This work is distributed under the conditions of the Creative Commons
Attribution-Share Alike 3.0 Licence. This means you are free:
* to Share - to copy, distribute and transmit the work
* to Remix - to adapt the work

Under the following conditions:
* Attribution. You must attribute the work by stating your use of KanjiVG in
  your own copyright header and linking to KanjiVG's website
  (http://kanjivg.tagaini.net)
* Share Alike. If you alter, transform, or build upon this work, you may
  distribute the resulting work only under the same or similar license to this
  one.

See http://creativecommons.org/licenses/by-sa/3.0/ for more details.
-->

<svg
   width="109"
   height="109"
   viewBox="0 0 109 109"
   version="1.1"
   id="svg23"
   sodipodi:docname="ぎゃ.svg"
   inkscape:version="1.1 (c68e22c387, 2021-05-23)"
   xmlns:inkscape="http://www.inkscape.org/namespaces/inkscape"
   xmlns:sodipodi="http://sodipodi.sourceforge.net/DTD/sodipodi-0.dtd"
   xmlns="http://www.w3.org/2000/svg"
   xmlns:svg="http://www.w3.org/2000/svg">
  <defs
     id="defs27" />
  <sodipodi:namedview
     id="namedview25"
     pagecolor="#ffffff"
     bordercolor="#666666"
     borderopacity="1.0"
     inkscape:pageshadow="2"
     inkscape:pageopacity="0.0"
     inkscape:pagecheckerboard="0"
     showgrid="false"
     inkscape:zoom="7.0091743"
     inkscape:cx="57.567408"
     inkscape:cy="51.218586"
     inkscape:window-width="2491"
     inkscape:window-height="1057"
     inkscape:window-x="61"
     inkscape:window-y="-8"
     inkscape:window-maximized="1"
     inkscape:current-layer="svg23" />
  <text
     id="text10"
     style="font-size:8px;fill:#808080"
     x="6.6342635"
     y="29.354496">1</text>
  <text
     id="text12"
     style="font-size:8px;fill:#808080"
     x="13.319433"
     y="46.700466">2</text>
  <text
     id="text14"
     style="font-size:8px;fill:#808080"
     x="24.680271"
     y="15.7079">3</text>
  <text
     id="text16"
     style="font-size:8px;fill:#808080"
     x="11.258804"
     y="79.279892">4</text>
  <text
     id="text18"
     style="font-size:8px;fill:#808080"
     x="46.45266"
     y="22.945868">5</text>
  <text
     id="text20"
     style="font-size:8px;fill:#808080"
     x="58.501369"
     y="14.30387">6</text>
  <g
     id="kvg:StrokePaths_0304e"
     style="fill:none;stroke:#000000;stroke-width:3.15794659;stroke-linecap:round;stroke-linejoin:round;stroke-miterlimit:4;stroke-dasharray:none"
     transform="matrix(0.95583317,0,0,0.94417142,-19.134887,4.7920699)">
    <g
       id="kvg:0304e"
       style="stroke-width:3.15794659;stroke-miterlimit:4;stroke-dasharray:none">
      <path
         id="kvg:0304e-s1"
         d="m 30.5,30.5 c 1.88,0.75 4.64,1.06 5.88,0.88 6.75,-1 22.25,-4.5 26.5,-6 2.17,-0.76 3.5,-1.25 4.88,-2.12"
         style="stroke-width:3.15794659;stroke-miterlimit:4;stroke-dasharray:none" />
      <path
         id="kvg:0304e-s2"
         d="m 36.25,48.95 c 2.01,0.85 4.97,1.2 6.29,0.99 7.23,-1.13 23.82,-5.09 28.37,-6.79 2.32,-0.86 3.75,-1.41 5.22,-2.4"
         style="stroke-width:3.15794659;stroke-miterlimit:4;stroke-dasharray:none" />
      <path
         id="kvg:0304e-s3"
         d="m 42,14.38 c 1.5,0.88 3.13,2.94 4,5.12 5.5,13.75 16,29.25 26.38,40.75 7.64,8.47 9.12,9.38 -6,3.88"
         style="stroke-width:3.15794659;stroke-miterlimit:4;stroke-dasharray:none" />
      <path
         id="kvg:0304e-s4"
         d="m 33.75,83.5 c 10.62,9.75 27.25,8.62 38.12,5"
         style="stroke-width:3.15794659;stroke-miterlimit:4;stroke-dasharray:none" />
      <path
         id="kvg:0304e-s5"
         d="m 77.37,19 c 2.75,1.75 6,5.38 7.75,8.5"
         style="stroke-width:3.15794659;stroke-miterlimit:4;stroke-dasharray:none" />
      <path
         id="kvg:0304e-s6"
         d="m 83.75,14.12 c 3.06,1.57 6.68,4.82 8.62,7.62"
         style="stroke-width:3.15794659;stroke-miterlimit:4;stroke-dasharray:none" />
    </g>
  </g>
  <g
     id="kvg:StrokePaths_03083"
     style="fill:none;stroke:#000000;stroke-width:5.26639767;stroke-linecap:round;stroke-linejoin:round;stroke-miterlimit:4;stroke-dasharray:none"
     transform="matrix(0.57173567,0,0,0.56757064,49.939965,36.023476)">
    <g
       id="kvg:03083"
       style="stroke-width:5.26639767;stroke-miterlimit:4;stroke-dasharray:none">
      <path
         id="kvg:03083-s1"
         d="m 26,61.07 c 1.49,1.29 4.16,1.98 6.84,0.69 C 47.52,54.73 61.2,46.4 73.16,46.5 c 7.16,0.11 12.7,3.28 12.63,9.75 0,6.61 -8.63,13.15 -19.43,14.14"
         style="stroke-width:5.26639767;stroke-miterlimit:4;stroke-dasharray:none" />
      <path
         id="kvg:03083-s2"
         d="m 49.1,34.5 c 4.07,0.69 8.25,3.21 9.12,5.25 1.69,3.97 -0.79,1.88 -2.28,2.08"
         style="stroke-width:5.26639767;stroke-miterlimit:4;stroke-dasharray:none" />
      <path
         id="kvg:03083-s3"
         d="m 35.77,40.99 c 1.88,1.49 2.35,2.77 2.82,4.67 2.08,8.33 8.82,32.37 11.7,41.39 0.51,1.62 1.49,4.96 2.28,7.44"
         style="stroke-width:5.26639767;stroke-miterlimit:4;stroke-dasharray:none" />
    </g>
  </g>
  <text
     id="text7"
     style="font-size:8px;fill:#808080"
     x="59.189964"
     y="80.389328">7</text>
  <text
     id="text9"
     style="font-size:8px;fill:#808080"
     x="74.423836"
     y="51.609215">8</text>
  <text
     id="text11"
     style="font-size:8px;fill:#808080"
     x="61.729233"
     y="59.323875">9</text>
</svg>
