<?xml version="1.0" encoding="UTF-8" standalone="no"?>
<!--
Copyright (C) 2009/2010/2011 Ulrich Apel.
This work is distributed under the conditions of the Creative Commons
Attribution-Share Alike 3.0 Licence. This means you are free:
* to Share - to copy, distribute and transmit the work
* to Remix - to adapt the work

Under the following conditions:
* Attribution. You must attribute the work by stating your use of KanjiVG in
  your own copyright header and linking to KanjiVG's website
  (http://kanjivg.tagaini.net)
* Share Alike. If you alter, transform, or build upon this work, you may
  distribute the resulting work only under the same or similar license to this
  one.

See http://creativecommons.org/licenses/by-sa/3.0/ for more details.
-->

<svg
   width="109"
   height="109"
   viewBox="0 0 109 109"
   version="1.1"
   id="svg14"
   sodipodi:docname="じゅ.svg"
   inkscape:version="1.1 (c68e22c387, 2021-05-23)"
   xmlns:inkscape="http://www.inkscape.org/namespaces/inkscape"
   xmlns:sodipodi="http://sodipodi.sourceforge.net/DTD/sodipodi-0.dtd"
   xmlns="http://www.w3.org/2000/svg"
   xmlns:svg="http://www.w3.org/2000/svg">
  <defs
     id="defs18">
    <rect
       x="5.9921466"
       y="9.7015707"
       width="111.28272"
       height="58.780105"
       id="rect7108" />
  </defs>
  <sodipodi:namedview
     id="namedview16"
     pagecolor="#ffffff"
     bordercolor="#666666"
     borderopacity="1.0"
     inkscape:pageshadow="2"
     inkscape:pageopacity="0.0"
     inkscape:pagecheckerboard="0"
     showgrid="false"
     inkscape:zoom="7.0091743"
     inkscape:cx="50.861911"
     inkscape:cy="54.5"
     inkscape:window-width="2491"
     inkscape:window-height="1057"
     inkscape:window-x="61"
     inkscape:window-y="-8"
     inkscape:window-maximized="1"
     inkscape:current-layer="svg14" />
  <g
     id="kvg:StrokePaths_03058"
     style="fill:none;stroke:#000000;stroke-width:3.119849;stroke-linecap:round;stroke-linejoin:round;stroke-miterlimit:4;stroke-dasharray:none"
     transform="matrix(0.96738649,0,0,0.9558183,-22.581981,2.6130995)">
    <g
       id="kvg:03058"
       style="stroke-width:3.119849;stroke-miterlimit:4;stroke-dasharray:none">
      <path
         id="kvg:03058-s1"
         d="m 39.12,17.25 c 1.25,3.12 0.93,6.74 0.38,10.25 -2.12,13.5 -3,26.5 -3,39.12 0,27.38 19.88,30.12 45.5,17.25"
         style="stroke-width:3.119849;stroke-miterlimit:4;stroke-dasharray:none" />
      <path
         id="kvg:03058-s2"
         d="m 64.24,27 c 2.75,1.75 6,5.38 7.75,8.5"
         style="stroke-width:3.119849;stroke-miterlimit:4;stroke-dasharray:none" />
      <path
         id="kvg:03058-s3"
         d="m 70.62,22.12 c 3.06,1.57 6.68,4.82 8.62,7.62"
         style="stroke-width:3.119849;stroke-miterlimit:4;stroke-dasharray:none" />
    </g>
  </g>
  <text
     id="text7"
     style="font-size:8px;fill:#808080"
     x="19.760946"
     y="20.666149">1</text>
  <text
     id="text9"
     style="font-size:8px;fill:#808080"
     x="31.243925"
     y="33.927513">2</text>
  <text
     id="text11"
     style="font-size:8px;fill:#808080"
     x="46.076809"
     y="19.819296">3</text>
  <g
     id="kvg:StrokePaths_03085"
     style="fill:none;stroke:#000000;stroke-width:5.48467197;stroke-linecap:round;stroke-linejoin:round;stroke-miterlimit:4;stroke-dasharray:none"
     transform="matrix(0.54720331,0,0,0.54675464,50.969878,38.226631)">
    <g
       id="kvg:03085"
       style="stroke-width:5.48467197;stroke-miterlimit:4;stroke-dasharray:none">
      <path
         id="kvg:03085-s1"
         d="m 27.74,40.79 c 1.1,1.2 1.61,3.3 1.2,5 -2.3,9.4 -3.2,17.79 -1.7,27.99 2.22,15.08 0.9,3.1 2.6,-1.2 7.19,-18.19 21.79,-27.59 35.49,-27.59 13.5,0 17.49,9.1 17.49,16.2 0,21.89 -24.69,23.69 -34.39,13.4"
         style="stroke-width:5.48467197;stroke-miterlimit:4;stroke-dasharray:none" />
      <path
         id="kvg:03085-s2"
         d="m 57.63,33.89 c 2.1,1.4 2.53,2.5 2.8,5.7 0.7,8.4 1.12,14.97 1.3,23.49 0.4,19.19 -5,25.59 -9.9,31.39"
         style="stroke-width:5.48467197;stroke-miterlimit:4;stroke-dasharray:none" />
    </g>
  </g>
  <text
     transform="scale(0.99977973,1.0002203)"
     id="text6"
     style="font-size:6.46795px;fill:#808080;stroke-width:1"
     x="58.483677"
     y="61.289604">4</text>
  <text
     transform="scale(0.99977973,1.0002203)"
     id="text8"
     style="font-size:6.46795px;fill:#808080;stroke-width:1"
     x="85.233963"
     y="53.670734">5</text>
  <text
     xml:space="preserve"
     transform="translate(-24.942826,-15.973324)"
     id="text7106"
     style="font-style:normal;font-weight:normal;font-size:40px;line-height:1.25;font-family:sans-serif;white-space:pre;shape-inside:url(#rect7108);fill:#000000;fill-opacity:1;stroke:none;stroke-width:1.23687" />
</svg>
