<?xml version="1.0" encoding="UTF-8" standalone="no"?>
<!--
Copyright (C) 2009/2010/2011 Ulrich Apel.
This work is distributed under the conditions of the Creative Commons
Attribution-Share Alike 3.0 Licence. This means you are free:
* to Share - to copy, distribute and transmit the work
* to Remix - to adapt the work

Under the following conditions:
* Attribution. You must attribute the work by stating your use of KanjiVG in
  your own copyright header and linking to KanjiVG's website
  (http://kanjivg.tagaini.net)
* Share Alike. If you alter, transform, or build upon this work, you may
  distribute the resulting work only under the same or similar license to this
  one.

See http://creativecommons.org/licenses/by-sa/3.0/ for more details.
-->

<svg
   width="109"
   height="109"
   viewBox="0 0 109 109"
   version="1.1"
   id="svg14"
   sodipodi:docname="じゃ.svg"
   inkscape:version="1.1 (c68e22c387, 2021-05-23)"
   xmlns:inkscape="http://www.inkscape.org/namespaces/inkscape"
   xmlns:sodipodi="http://sodipodi.sourceforge.net/DTD/sodipodi-0.dtd"
   xmlns="http://www.w3.org/2000/svg"
   xmlns:svg="http://www.w3.org/2000/svg">
  <defs
     id="defs18" />
  <sodipodi:namedview
     id="namedview16"
     pagecolor="#ffffff"
     bordercolor="#666666"
     borderopacity="1.0"
     inkscape:pageshadow="2"
     inkscape:pageopacity="0.0"
     inkscape:pagecheckerboard="0"
     showgrid="false"
     inkscape:zoom="7.0091743"
     inkscape:cx="50.861911"
     inkscape:cy="54.5"
     inkscape:window-width="2491"
     inkscape:window-height="1057"
     inkscape:window-x="61"
     inkscape:window-y="-8"
     inkscape:window-maximized="1"
     inkscape:current-layer="g899" />
  <g
     id="g899"
     transform="matrix(0.80161226,0,0,0.80033974,-18.20702,13.64905)"
     style="stroke-width:1.24848">
    <g
       id="kvg:StrokePaths_03058"
       style="fill:none;stroke:#000000;stroke-width:3.12543135;stroke-linecap:round;stroke-linejoin:round;stroke-miterlimit:4;stroke-dasharray:none"
       transform="matrix(1.2117967,0,0,1.1850975,-3.4896439,-13.289478)">
      <g
         id="kvg:03058"
         style="stroke-width:3.12543135;stroke-miterlimit:4;stroke-dasharray:none">
        <path
           id="kvg:03058-s1"
           d="m 39.12,17.25 c 1.25,3.12 0.93,6.74 0.38,10.25 -2.12,13.5 -3,26.5 -3,39.12 0,27.38 19.88,30.12 45.5,17.25"
           style="stroke-width:3.12543135;stroke-miterlimit:4;stroke-dasharray:none" />
        <path
           id="kvg:03058-s2"
           d="m 64.24,27 c 2.75,1.75 6,5.38 7.75,8.5"
           style="stroke-width:3.12543135;stroke-miterlimit:4;stroke-dasharray:none" />
        <path
           id="kvg:03058-s3"
           d="m 70.62,22.12 c 3.06,1.57 6.68,4.82 8.62,7.62"
           style="stroke-width:3.12543135;stroke-miterlimit:4;stroke-dasharray:none" />
      </g>
    </g>
    <text
       id="text7"
       style="font-size:8px;fill:#808080;stroke-width:1.24848"
       x="49.685242"
       y="8.8533754">1</text>
    <text
       id="text9"
       style="font-size:8px;fill:#808080;stroke-width:1.24848"
       x="64.883392"
       y="24.502115">2</text>
    <text
       id="text11"
       style="font-size:8px;fill:#808080;stroke-width:1.24848"
       x="80.802238"
       y="7.2602983">3</text>
    <g
       id="kvg:StrokePaths_03083"
       style="fill:none;stroke:#000000;stroke-width:5.47019662;stroke-linecap:round;stroke-linejoin:round;stroke-miterlimit:4;stroke-dasharray:none"
       transform="matrix(0.68498361,0,0,0.68441217,81.932309,30.224491)">
      <g
         id="kvg:03083"
         style="stroke-width:5.47019662;stroke-miterlimit:4;stroke-dasharray:none">
        <path
           id="kvg:03083-s1"
           d="m 26,61.07 c 1.49,1.29 4.16,1.98 6.84,0.69 C 47.52,54.73 61.2,46.4 73.16,46.5 c 7.16,0.11 12.7,3.28 12.63,9.75 0,6.61 -8.63,13.15 -19.43,14.14"
           style="stroke-width:5.47019662;stroke-miterlimit:4;stroke-dasharray:none" />
        <path
           id="kvg:03083-s2"
           d="m 48.84017,28.76988 c 4.07,0.69 8.25,3.21 9.12,5.25 1.69,3.97 -0.79,1.88 -2.28,2.08"
           style="stroke-width:5.47019662;stroke-miterlimit:4;stroke-dasharray:none" />
        <path
           id="kvg:03083-s3"
           d="m 35.77,40.99 c 1.88,1.49 2.35,2.77 2.82,4.67 2.08,8.33 8.82,32.37 11.7,41.39 0.51,1.62 1.49,4.96 2.28,7.44"
           style="stroke-width:5.47019662;stroke-miterlimit:4;stroke-dasharray:none" />
      </g>
    </g>
    <text
       transform="scale(0.99971889,1.0002812)"
       id="text7-9"
       style="font-size:6.93854px;fill:#808080;stroke-width:1.24849"
       x="94.233696"
       y="67.986397">4</text>
    <text
       transform="scale(0.99971889,1.0002812)"
       id="text9-0"
       style="font-size:6.93854px;fill:#808080;stroke-width:1.24849"
       x="112.43504"
       y="45.489635">5</text>
    <text
       transform="scale(0.99971889,1.0002812)"
       id="text11-6"
       style="font-size:6.93854px;fill:#808080;stroke-width:1.24849"
       x="98.431061"
       y="56.170624">6</text>
  </g>
</svg>
