<?xml version="1.0" encoding="UTF-8" standalone="no"?>
<!--
Copyright (C) 2009/2010/2011 Ulrich Apel.
This work is distributed under the conditions of the Creative Commons
Attribution-Share Alike 3.0 Licence. This means you are free:
* to Share - to copy, distribute and transmit the work
* to Remix - to adapt the work

Under the following conditions:
* Attribution. You must attribute the work by stating your use of KanjiVG in
  your own copyright header and linking to KanjiVG's website
  (http://kanjivg.tagaini.net)
* Share Alike. If you alter, transform, or build upon this work, you may
  distribute the resulting work only under the same or similar license to this
  one.

See http://creativecommons.org/licenses/by-sa/3.0/ for more details.
-->

<svg
   width="109"
   height="109"
   viewBox="0 0 109 109"
   version="1.1"
   id="svg14"
   sodipodi:docname="にょ.svg"
   inkscape:version="1.1 (c68e22c387, 2021-05-23)"
   xmlns:inkscape="http://www.inkscape.org/namespaces/inkscape"
   xmlns:sodipodi="http://sodipodi.sourceforge.net/DTD/sodipodi-0.dtd"
   xmlns="http://www.w3.org/2000/svg"
   xmlns:svg="http://www.w3.org/2000/svg">
  <defs
     id="defs18" />
  <sodipodi:namedview
     id="namedview16"
     pagecolor="#ffffff"
     bordercolor="#666666"
     borderopacity="1.0"
     inkscape:pageshadow="2"
     inkscape:pageopacity="0.0"
     inkscape:pagecheckerboard="0"
     showgrid="false"
     inkscape:zoom="7.0091743"
     inkscape:cx="48.721859"
     inkscape:cy="40.090314"
     inkscape:window-width="2491"
     inkscape:window-height="1057"
     inkscape:window-x="61"
     inkscape:window-y="-8"
     inkscape:window-maximized="1"
     inkscape:current-layer="svg14" />
  <g
     id="kvg:StrokePaths_0306b"
     style="fill:none;stroke:#000000;stroke-width:3.13526544;stroke-linecap:round;stroke-linejoin:round;stroke-miterlimit:4;stroke-dasharray:none"
     transform="matrix(0.96142367,0,0,0.95231159,-18.87761,2.5458869)">
    <g
       id="kvg:0306b"
       style="stroke-width:3.13526544;stroke-miterlimit:4;stroke-dasharray:none">
      <path
         id="kvg:0306b-s1"
         d="m 36.593281,22.75 c 1.25,1.5 1.62,3.75 1.12,6.38 -3,15.88 -9,32.5 -7.38,47.62 2.02,18.84 4.5,5.75 8.5,-3.5"
         style="stroke-width:3.13526544;stroke-miterlimit:4;stroke-dasharray:none" />
      <path
         id="kvg:0306b-s2"
         d="m 53.2,30.64 c 0.96,0.79 2.44,1.58 5.1,1.35 6.98,-0.61 15.01,-3.3 22.04,-3.36 13.19,-0.11 1.5,3.75 -8.39,7.35"
         style="stroke-width:3.13526544;stroke-miterlimit:4;stroke-dasharray:none" />
      <path
         id="kvg:0306b-s3"
         d="m 52.53,68 c 1.76,12.92 11.92,16.01 24.23,14.93 5.08,-0.45 8.9,-0.8 14.27,-2.06"
         style="stroke-width:3.13526544;stroke-miterlimit:4;stroke-dasharray:none" />
    </g>
  </g>
  <text
     id="text7"
     style="font-size:7.34645px;fill:#808080;stroke-width:0.999999"
     x="8.2939262"
     y="24.769674">1</text>
  <text
     id="text9"
     style="font-size:7.34645px;fill:#808080;stroke-width:0.999999"
     x="30.166197"
     y="27.465492">2</text>
  <text
     id="text11"
     style="font-size:7.34645px;fill:#808080;stroke-width:0.999999"
     x="35.12851"
     y="65.152252">3</text>
  <g
     id="kvg:StrokePaths_03087"
     style="fill:none;stroke:#000000;stroke-width:6.52217939;stroke-linecap:round;stroke-linejoin:round;stroke-miterlimit:4;stroke-dasharray:none"
     transform="matrix(0.46295671,0,0,0.45700047,63.092138,41.34954)">
    <g
       id="kvg:03087"
       style="stroke-width:6.52217939;stroke-miterlimit:4;stroke-dasharray:none">
      <path
         id="kvg:03087-s1"
         d="m 57.8,50.06 c 5.98,-1.02 10.95,-2.09 14.74,-3.25 1.99,-0.61 3.8,-0.91 4.98,-0.91"
         style="stroke-width:6.52217939;stroke-miterlimit:4;stroke-dasharray:none" />
      <path
         id="kvg:03087-s2"
         d="m 54.91,33 c 1.79,1.69 2.38,3.28 2.29,5.16 -0.6,13.49 -0.1,27.68 1.11,42.47 1.5,18.31 -27.81,16.56 -27.81,9.12 0,-9.53 20.92,-6.35 28.68,-3.27 6.46,2.56 9.18,3.87 14.76,8.23"
         style="stroke-width:6.52217939;stroke-miterlimit:4;stroke-dasharray:none" />
    </g>
  </g>
  <text
     transform="scale(1.0013551,0.99864675)"
     id="text6"
     style="font-size:5.6807px;fill:#808080;stroke-width:0.999998"
     x="92.946869"
     y="71.635918">4</text>
  <text
     transform="scale(1.0013551,0.99864674)"
     id="text8"
     style="font-size:5.6807px;fill:#808080;stroke-width:0.999998"
     x="81.112419"
     y="56.004322">5</text>
</svg>
