<?xml version="1.0" encoding="UTF-8" standalone="no"?>
<!--
Copyright (C) 2009/2010/2011 Ulrich Apel.
This work is distributed under the conditions of the Creative Commons
Attribution-Share Alike 3.0 Licence. This means you are free:
* to Share - to copy, distribute and transmit the work
* to Remix - to adapt the work

Under the following conditions:
* Attribution. You must attribute the work by stating your use of KanjiVG in
  your own copyright header and linking to KanjiVG's website
  (http://kanjivg.tagaini.net)
* Share Alike. If you alter, transform, or build upon this work, you may
  distribute the resulting work only under the same or similar license to this
  one.

See http://creativecommons.org/licenses/by-sa/3.0/ for more details.
-->

<svg
   width="109"
   height="109"
   viewBox="0 0 109 109"
   version="1.1"
   id="svg14"
   sodipodi:docname="びゃ.svg"
   inkscape:version="1.1 (c68e22c387, 2021-05-23)"
   xmlns:inkscape="http://www.inkscape.org/namespaces/inkscape"
   xmlns:sodipodi="http://sodipodi.sourceforge.net/DTD/sodipodi-0.dtd"
   xmlns="http://www.w3.org/2000/svg"
   xmlns:svg="http://www.w3.org/2000/svg">
  <defs
     id="defs18" />
  <sodipodi:namedview
     id="namedview16"
     pagecolor="#ffffff"
     bordercolor="#666666"
     borderopacity="1.0"
     inkscape:pageshadow="2"
     inkscape:pageopacity="0.0"
     inkscape:pagecheckerboard="0"
     showgrid="false"
     inkscape:zoom="4.9547522"
     inkscape:cx="2.1191776"
     inkscape:cy="55.098618"
     inkscape:window-width="2491"
     inkscape:window-height="1057"
     inkscape:window-x="61"
     inkscape:window-y="-8"
     inkscape:window-maximized="1"
     inkscape:current-layer="svg14" />
  <text
     id="text7"
     style="font-size:5.23901px;fill:#808080;stroke-width:1"
     x="8.3684511"
     y="32.95052"
     transform="scale(1.0040413,0.99597493)">1</text>
  <text
     id="text9"
     style="font-size:5.23901px;fill:#808080;stroke-width:1"
     x="53.023907"
     y="29.836258"
     transform="scale(1.0040413,0.99597493)">2</text>
  <text
     id="text11"
     style="font-size:5.23901px;fill:#808080;stroke-width:1"
     x="65.883156"
     y="19.290186"
     transform="scale(1.0040413,0.99597493)">3</text>
  <g
     id="kvg:StrokePaths_03073"
     style="fill:none;stroke:#000000;stroke-width:3.98942771;stroke-linecap:round;stroke-linejoin:round;stroke-miterlimit:4;stroke-dasharray:none"
     transform="matrix(0.75881813,0,0,0.74521847,-5.1491219,18.021974)">
    <g
       id="kvg:03073"
       style="stroke-width:3.98942771;stroke-miterlimit:4;stroke-dasharray:none">
      <path
         id="kvg:03073-s1"
         d="m 20,25.12 c 1.25,0.88 3.75,2.25 6.5,1.38 2.75,-0.87 7.31,-2.38 11.38,-4.5 6,-3.12 8.42,-1.01 4.25,4 C 15,58.62 18.37,84.5 40.61,88.88 58.68,92.44 78.24,72.5 76.24,32.37 75.52,17.87 76.07,17.59 80.36,30.62 84.12,42 90.62,51.38 96.5,57.12"
         style="stroke-width:3.98942771;stroke-miterlimit:4;stroke-dasharray:none" />
      <path
         id="kvg:03073-s2"
         d="m 86.5,13.5 c 2.75,1.75 6,5.38 7.75,8.5"
         style="stroke-width:3.98942771;stroke-miterlimit:4;stroke-dasharray:none" />
      <path
         id="kvg:03073-s3"
         d="m 93.800912,7.2658573 c 3.06,1.57 6.679998,4.8200007 8.619998,7.6200007"
         style="stroke-width:3.98942771;stroke-miterlimit:4;stroke-dasharray:none" />
    </g>
  </g>
  <g
     id="kvg:StrokePaths_03083"
     style="fill:none;stroke:#000000;stroke-width:6.3355149;stroke-linecap:round;stroke-linejoin:round;stroke-miterlimit:4;stroke-dasharray:none"
     transform="matrix(0.47792853,0,0,0.46915432,57.97038,40.22452)">
    <g
       id="kvg:03083"
       style="stroke-width:6.3355149;stroke-miterlimit:4;stroke-dasharray:none">
      <path
         id="kvg:03083-s1"
         d="m 26,61.07 c 1.49,1.29 4.16,1.98 6.84,0.69 C 47.52,54.73 61.2,46.4 73.16,46.5 c 7.16,0.11 12.7,3.28 12.63,9.75 0,6.61 -8.63,13.15 -19.43,14.14"
         style="stroke-width:6.3355149;stroke-miterlimit:4;stroke-dasharray:none" />
      <path
         id="kvg:03083-s2"
         d="m 47.410823,27.832024 c 4.07,0.69 8.25,3.21 9.12,5.25 1.69,3.97 -0.79,1.88 -2.28,2.08"
         style="stroke-width:6.3355149;stroke-miterlimit:4;stroke-dasharray:none" />
      <path
         id="kvg:03083-s3"
         d="m 35.77,40.99 c 1.88,1.49 2.35,2.77 2.82,4.67 2.08,8.33 8.82,32.37 11.7,41.39 0.51,1.62 1.49,4.96 2.28,7.44"
         style="stroke-width:6.3355149;stroke-miterlimit:4;stroke-dasharray:none" />
    </g>
  </g>
  <text
     transform="scale(1.0040413,0.99597494)"
     id="text7-3"
     style="font-size:5.23901px;fill:#808080;stroke-width:1"
     x="66.24649"
     y="76.669853">4</text>
  <text
     transform="scale(1.0040413,0.99597494)"
     id="text9-4"
     style="font-size:5.23901px;fill:#808080;stroke-width:1"
     x="78.380249"
     y="49.784012">5</text>
  <text
     transform="scale(1.0040413,0.99597494)"
     id="text11-4"
     style="font-size:5.23901px;fill:#808080;stroke-width:1"
     x="69.081558"
     y="57.353416">6</text>
</svg>
