<?xml version="1.0" encoding="UTF-8" standalone="no"?>
<!--
Copyright (C) 2009/2010/2011 Ulrich Apel.
This work is distributed under the conditions of the Creative Commons
Attribution-Share Alike 3.0 Licence. This means you are free:
* to Share - to copy, distribute and transmit the work
* to Remix - to adapt the work

Under the following conditions:
* Attribution. You must attribute the work by stating your use of KanjiVG in
  your own copyright header and linking to KanjiVG's website
  (http://kanjivg.tagaini.net)
* Share Alike. If you alter, transform, or build upon this work, you may
  distribute the resulting work only under the same or similar license to this
  one.

See http://creativecommons.org/licenses/by-sa/3.0/ for more details.
-->

<svg
   width="109"
   height="109"
   viewBox="0 0 109 109"
   version="1.1"
   id="svg14"
   sodipodi:docname="びゅ.svg"
   inkscape:version="1.1 (c68e22c387, 2021-05-23)"
   xmlns:inkscape="http://www.inkscape.org/namespaces/inkscape"
   xmlns:sodipodi="http://sodipodi.sourceforge.net/DTD/sodipodi-0.dtd"
   xmlns="http://www.w3.org/2000/svg"
   xmlns:svg="http://www.w3.org/2000/svg">
  <defs
     id="defs18">
    <rect
       x="-20.259162"
       y="1.7120419"
       width="148.94764"
       height="84.032723"
       id="rect3084" />
  </defs>
  <sodipodi:namedview
     id="namedview16"
     pagecolor="#ffffff"
     bordercolor="#666666"
     borderopacity="1.0"
     inkscape:pageshadow="2"
     inkscape:pageopacity="0.0"
     inkscape:pagecheckerboard="0"
     showgrid="false"
     inkscape:zoom="4.9562347"
     inkscape:cx="39.445267"
     inkscape:cy="67.591634"
     inkscape:window-width="2491"
     inkscape:window-height="1057"
     inkscape:window-x="61"
     inkscape:window-y="-8"
     inkscape:window-maximized="1"
     inkscape:current-layer="svg14" />
  <g
     id="kvg:StrokePaths_03073"
     style="fill:none;stroke:#000000;stroke-width:4.03298258;stroke-linecap:round;stroke-linejoin:round;stroke-miterlimit:4;stroke-dasharray:none"
     transform="matrix(0.74786175,0,0,0.73989228,-4.9411468,18.283102)">
    <g
       id="kvg:03073"
       style="stroke-width:4.03298258;stroke-miterlimit:4;stroke-dasharray:none">
      <path
         id="kvg:03073-s1"
         d="m 20,25.12 c 1.25,0.88 3.75,2.25 6.5,1.38 2.75,-0.87 7.31,-2.38 11.38,-4.5 6,-3.12 8.42,-1.01 4.25,4 C 15,58.62 18.37,84.5 40.61,88.88 58.68,92.44 78.24,72.5 76.24,32.37 75.52,17.87 76.07,17.59 80.36,30.62 84.12,42 90.62,51.38 96.5,57.12"
         style="stroke-width:4.03298258;stroke-miterlimit:4;stroke-dasharray:none" />
      <path
         id="kvg:03073-s2"
         d="m 86.5,13.5 c 2.75,1.75 6,5.38 7.75,8.5"
         style="stroke-width:4.03298258;stroke-miterlimit:4;stroke-dasharray:none" />
      <path
         id="kvg:03073-s3"
         d="m 93.949162,8.0746069 c 3.06,1.57 6.679998,4.8200001 8.619998,7.6200001"
         style="stroke-width:4.03298258;stroke-miterlimit:4;stroke-dasharray:none" />
    </g>
  </g>
  <text
     id="text7"
     style="font-size:6.04794px;fill:#808080;stroke-width:0.999997"
     x="7.6524215"
     y="32.89875">1</text>
  <text
     id="text9"
     style="font-size:6.04794px;fill:#808080;stroke-width:0.999997"
     x="52.271053"
     y="29.937412">2</text>
  <text
     id="text11"
     style="font-size:6.04794px;fill:#808080;stroke-width:0.999997"
     x="64.067986"
     y="20.820812">3</text>
  <g
     id="kvg:StrokePaths_03085"
     style="fill:none;stroke:#000000;stroke-width:6.4638439;stroke-linecap:round;stroke-linejoin:round;stroke-miterlimit:4;stroke-dasharray:none"
     transform="matrix(0.46707725,0,0,0.46118171,60.297541,40.774125)">
    <g
       id="kvg:03085"
       style="stroke-width:6.4638439;stroke-miterlimit:4;stroke-dasharray:none">
      <path
         id="kvg:03085-s1"
         d="m 27.74,40.79 c 1.1,1.2 1.61,3.3 1.2,5 -2.3,9.4 -3.2,17.79 -1.7,27.99 2.22,15.08 0.9,3.1 2.6,-1.2 7.19,-18.19 21.79,-27.59 35.49,-27.59 13.5,0 17.49,9.1 17.49,16.2 0,21.89 -24.69,23.69 -34.39,13.4"
         style="stroke-width:6.4638439;stroke-miterlimit:4;stroke-dasharray:none" />
      <path
         id="kvg:03085-s2"
         d="m 57.63,33.89 c 2.1,1.4 2.53,2.5 2.8,5.7 0.7,8.4 1.12,14.97 1.3,23.49 0.4,19.19 -5,25.59 -9.9,31.39"
         style="stroke-width:6.4638439;stroke-miterlimit:4;stroke-dasharray:none" />
    </g>
  </g>
  <text
     transform="scale(0.99970367,1.0002964)"
     id="text6"
     style="font-size:4.58638px;fill:#808080;stroke-width:0.999998"
     x="75.017464"
     y="56.473969">4</text>
  <text
     transform="scale(0.99970366,1.0002964)"
     id="text8"
     style="font-size:4.58638px;fill:#808080;stroke-width:0.999998"
     x="88.826393"
     y="53.067856">5</text>
  <text
     xml:space="preserve"
     transform="matrix(0.75599281,0,0,0.75599282,5.0416841,3.720712)"
     id="text3082"
     style="font-style:normal;font-weight:normal;font-size:40px;line-height:1.25;font-family:sans-serif;white-space:pre;shape-inside:url(#rect3084);fill:#000000;fill-opacity:1;stroke:none;stroke-width:1.74429" />
</svg>
