<?xml version="1.0" encoding="UTF-8" standalone="no"?>
<!--
Copyright (C) 2009/2010/2011 Ulrich Apel.
This work is distributed under the conditions of the Creative Commons
Attribution-Share Alike 3.0 Licence. This means you are free:
* to Share - to copy, distribute and transmit the work
* to Remix - to adapt the work

Under the following conditions:
* Attribution. You must attribute the work by stating your use of KanjiVG in
  your own copyright header and linking to KanjiVG's website
  (http://kanjivg.tagaini.net)
* Share Alike. If you alter, transform, or build upon this work, you may
  distribute the resulting work only under the same or similar license to this
  one.

See http://creativecommons.org/licenses/by-sa/3.0/ for more details.
-->

<svg
   width="109"
   height="109"
   viewBox="0 0 109 109"
   version="1.1"
   id="svg11"
   sodipodi:docname="ぴゅ.svg"
   inkscape:version="1.1 (c68e22c387, 2021-05-23)"
   xmlns:inkscape="http://www.inkscape.org/namespaces/inkscape"
   xmlns:sodipodi="http://sodipodi.sourceforge.net/DTD/sodipodi-0.dtd"
   xmlns="http://www.w3.org/2000/svg"
   xmlns:svg="http://www.w3.org/2000/svg">
  <defs
     id="defs15">
    <rect
       x="-24.824607"
       y="15.979058"
       width="145.38089"
       height="61.776178"
       id="rect3671" />
  </defs>
  <sodipodi:namedview
     id="namedview13"
     pagecolor="#ffffff"
     bordercolor="#666666"
     borderopacity="1.0"
     inkscape:pageshadow="2"
     inkscape:pageopacity="0.0"
     inkscape:pagecheckerboard="0"
     showgrid="false"
     inkscape:zoom="7.0091743"
     inkscape:cx="50.861911"
     inkscape:cy="54.5"
     inkscape:window-width="2491"
     inkscape:window-height="1057"
     inkscape:window-x="61"
     inkscape:window-y="-8"
     inkscape:window-maximized="1"
     inkscape:current-layer="svg11" />
  <g
     id="kvg:StrokePaths_03074"
     style="fill:none;stroke:#000000;stroke-width:4.15603697;stroke-linecap:round;stroke-linejoin:round;stroke-miterlimit:4;stroke-dasharray:none"
     transform="matrix(0.72629371,0,0,0.7174166,-4.5073881,19.65215)">
    <g
       id="kvg:03074"
       style="stroke-width:4.15603697;stroke-miterlimit:4;stroke-dasharray:none">
      <path
         id="kvg:03074-s1"
         d="m 20,25.12 c 1.25,0.88 3.75,2.25 6.5,1.38 2.75,-0.87 7.31,-2.38 11.38,-4.5 6,-3.12 8.42,-1.01 4.25,4 C 15,58.62 18.37,84.5 40.61,88.88 58.68,92.44 78.24,72.5 76.24,32.37 75.52,17.87 76.07,17.59 80.36,30.62 84.12,42 90.62,51.38 96.5,57.12"
         style="stroke-width:4.15603697;stroke-miterlimit:4;stroke-dasharray:none" />
      <path
         id="kvg:03074-s2"
         d="m 93.87,22.12 c -9.62,0 -9.25,-14.25 0,-14.25 9.75,0.01 9.5,14.25 0,14.25"
         style="stroke-width:4.15603697;stroke-miterlimit:4;stroke-dasharray:none" />
    </g>
  </g>
  <text
     id="text6"
     style="font-size:6.0078px;fill:#808080;stroke-width:0.999999"
     x="8.1270895"
     y="33.02372">1</text>
  <text
     id="text8"
     style="font-size:6.0078px;fill:#808080;stroke-width:0.999999"
     x="51.394543"
     y="26.830803">2</text>
  <g
     id="kvg:StrokePaths_03085"
     style="fill:none;stroke:#000000;stroke-width:6.6024223;stroke-linecap:round;stroke-linejoin:round;stroke-miterlimit:4;stroke-dasharray:none"
     transform="matrix(0.457464,0,0,0.45131419,61.092468,41.067963)">
    <g
       id="kvg:03085"
       style="stroke-width:6.6024223;stroke-miterlimit:4;stroke-dasharray:none">
      <path
         id="kvg:03085-s1"
         d="m 27.74,40.79 c 1.1,1.2 1.61,3.3 1.2,5 -2.3,9.4 -3.2,17.79 -1.7,27.99 2.22,15.08 0.9,3.1 2.6,-1.2 7.19,-18.19 21.79,-27.59 35.49,-27.59 13.5,0 17.49,9.1 17.49,16.2 0,21.89 -24.69,23.69 -34.39,13.4"
         style="stroke-width:6.6024223;stroke-miterlimit:4;stroke-dasharray:none" />
      <path
         id="kvg:03085-s2"
         d="m 57.63,33.89 c 2.1,1.4 2.53,2.5 2.8,5.7 0.7,8.4 1.12,14.97 1.3,23.49 0.4,19.19 -5,25.59 -9.9,31.39"
         style="stroke-width:6.6024223;stroke-miterlimit:4;stroke-dasharray:none" />
    </g>
  </g>
  <text
     transform="scale(0.99975994,1.0002401)"
     id="text6-7"
     style="font-size:4.77509px;fill:#808080;stroke-width:1.00001"
     x="68.012604"
     y="56.023781">3</text>
  <text
     transform="scale(0.99975994,1.0002401)"
     id="text8-5"
     style="font-size:4.77509px;fill:#808080;stroke-width:1.00001"
     x="89.830261"
     y="53.194336">4</text>
  <text
     xml:space="preserve"
     transform="matrix(0.75097559,0,0,0.75097559,6.4518857,4.339328)"
     id="text3669"
     style="font-style:normal;font-weight:normal;font-size:40px;line-height:1.25;font-family:sans-serif;white-space:pre;shape-inside:url(#rect3671);fill:#000000;fill-opacity:1;stroke:none;stroke-width:1.67537" />
</svg>
