<?xml version="1.0" encoding="UTF-8" standalone="no"?>
<!--
Copyright (C) 2009/2010/2011 Ulrich Apel.
This work is distributed under the conditions of the Creative Commons
Attribution-Share Alike 3.0 Licence. This means you are free:
* to Share - to copy, distribute and transmit the work
* to Remix - to adapt the work

Under the following conditions:
* Attribution. You must attribute the work by stating your use of KanjiVG in
  your own copyright header and linking to KanjiVG's website
  (http://kanjivg.tagaini.net)
* Share Alike. If you alter, transform, or build upon this work, you may
  distribute the resulting work only under the same or similar license to this
  one.

See http://creativecommons.org/licenses/by-sa/3.0/ for more details.
-->

<svg
   width="109"
   height="109"
   viewBox="0 0 109 109"
   version="1.1"
   id="svg11"
   sodipodi:docname="みょ.svg"
   inkscape:version="1.1 (c68e22c387, 2021-05-23)"
   xmlns:inkscape="http://www.inkscape.org/namespaces/inkscape"
   xmlns:sodipodi="http://sodipodi.sourceforge.net/DTD/sodipodi-0.dtd"
   xmlns="http://www.w3.org/2000/svg"
   xmlns:svg="http://www.w3.org/2000/svg">
  <defs
     id="defs15" />
  <sodipodi:namedview
     id="namedview13"
     pagecolor="#ffffff"
     bordercolor="#666666"
     borderopacity="1.0"
     inkscape:pageshadow="2"
     inkscape:pageopacity="0.0"
     inkscape:pagecheckerboard="0"
     showgrid="false"
     inkscape:zoom="7.0091743"
     inkscape:cx="50.861911"
     inkscape:cy="54.5"
     inkscape:window-width="2491"
     inkscape:window-height="1057"
     inkscape:window-x="61"
     inkscape:window-y="-8"
     inkscape:window-maximized="1"
     inkscape:current-layer="svg11" />
  <g
     id="kvg:StrokePaths_0307f"
     style="fill:none;stroke:#000000;stroke-width:3.6225525;stroke-linecap:round;stroke-linejoin:round;stroke-miterlimit:4;stroke-dasharray:none"
     transform="matrix(0.83205756,0,0,0.82425153,-2.0506737,5.7187536)">
    <g
       id="kvg:0307f"
       style="stroke-width:3.6225525;stroke-miterlimit:4;stroke-dasharray:none">
      <path
         id="kvg:0307f-s1"
         d="m 32.5,26 c 1.88,1.75 4.06,1.7 6.88,1.25 3.88,-0.62 7.62,-1.75 11.88,-3.12 4.26,-1.37 6.25,-0.12 4.5,5.12 -1.75,5.24 -6.66,17.39 -12,30.12 C 30.13,91.88 14.5,88.63 14.5,78 c 0,-14.25 20.48,-15.36 33,-13.5 18.5,2.75 30,6.62 44.38,14.25"
         style="stroke-width:3.6225525;stroke-miterlimit:4;stroke-dasharray:none" />
      <path
         id="kvg:0307f-s2"
         d="m 79.38,54.75 c 0.75,2.38 0.49,4.37 0,6.25 -2.12,8.12 -7.5,25 -22.12,33.75"
         style="stroke-width:3.6225525;stroke-miterlimit:4;stroke-dasharray:none" />
    </g>
  </g>
  <text
     id="text6"
     style="font-size:6.8561px;fill:#808080;stroke-width:0.999997"
     x="23.151571"
     y="22.145363">1</text>
  <text
     id="text8"
     style="font-size:6.8561px;fill:#808080;stroke-width:0.999997"
     x="55.970413"
     y="51.380737">2</text>
  <g
     id="kvg:03087"
     style="fill:none;stroke:#000000;stroke-width:6.72133672;stroke-linecap:round;stroke-linejoin:round;stroke-miterlimit:4;stroke-dasharray:none"
     transform="matrix(0.45026832,0,0,0.44244553,64.068829,41.765602)">
    <path
       id="kvg:03087-s1"
       d="m 57.8,50.06 c 5.98,-1.02 10.95,-2.09 14.74,-3.25 1.99,-0.61 3.8,-0.91 4.98,-0.91"
       style="stroke-width:6.72133672;stroke-miterlimit:4;stroke-dasharray:none" />
    <path
       id="kvg:03087-s2"
       d="m 54.91,33 c 1.79,1.69 2.38,3.28 2.29,5.16 -0.6,13.49 -0.1,27.68 1.11,42.47 1.5,18.31 -27.81,16.56 -27.81,9.12 0,-9.53 20.92,-6.35 28.68,-3.27 6.46,2.56 9.18,3.87 14.76,8.23"
       style="stroke-width:6.72133672;stroke-miterlimit:4;stroke-dasharray:none" />
  </g>
  <text
     transform="scale(0.99574399,1.0042742)"
     id="text6-4"
     style="font-size:4.07318px;fill:#808080;stroke-width:0.999997"
     x="94.773666"
     y="70.763489">3</text>
  <text
     transform="scale(0.99574399,1.0042742)"
     id="text8-9"
     style="font-size:4.07318px;fill:#808080;stroke-width:0.999997"
     x="82.805702"
     y="55.225479">4</text>
</svg>
