<?xml version="1.0" encoding="UTF-8" standalone="no"?>
<!--
Copyright (C) 2009/2010/2011 Ulrich Apel.
This work is distributed under the conditions of the Creative Commons
Attribution-Share Alike 3.0 Licence. This means you are free:
* to Share - to copy, distribute and transmit the work
* to Remix - to adapt the work

Under the following conditions:
* Attribution. You must attribute the work by stating your use of KanjiVG in
  your own copyright header and linking to KanjiVG's website
  (http://kanjivg.tagaini.net)
* Share Alike. If you alter, transform, or build upon this work, you may
  distribute the resulting work only under the same or similar license to this
  one.

See http://creativecommons.org/licenses/by-sa/3.0/ for more details.
-->

<svg
   width="109"
   height="109"
   viewBox="0 0 109 109"
   version="1.1"
   id="svg11"
   sodipodi:docname="みゅ.svg"
   inkscape:version="1.1 (c68e22c387, 2021-05-23)"
   xmlns:inkscape="http://www.inkscape.org/namespaces/inkscape"
   xmlns:sodipodi="http://sodipodi.sourceforge.net/DTD/sodipodi-0.dtd"
   xmlns="http://www.w3.org/2000/svg"
   xmlns:svg="http://www.w3.org/2000/svg">
  <defs
     id="defs15">
    <rect
       x="4.2801047"
       y="19.260471"
       width="160.07592"
       height="74.331152"
       id="rect4281" />
  </defs>
  <sodipodi:namedview
     id="namedview13"
     pagecolor="#ffffff"
     bordercolor="#666666"
     borderopacity="1.0"
     inkscape:pageshadow="2"
     inkscape:pageopacity="0.0"
     inkscape:pagecheckerboard="0"
     showgrid="false"
     inkscape:zoom="7.0091743"
     inkscape:cx="47.437827"
     inkscape:cy="53.501309"
     inkscape:window-width="2491"
     inkscape:window-height="1057"
     inkscape:window-x="61"
     inkscape:window-y="-8"
     inkscape:window-maximized="1"
     inkscape:current-layer="svg11" />
  <g
     id="kvg:StrokePaths_0307f"
     style="fill:none;stroke:#000000;stroke-width:3.96234113;stroke-linecap:round;stroke-linejoin:round;stroke-miterlimit:4;stroke-dasharray:none"
     transform="matrix(0.76510259,0,0,0.74923682,-1.0888481,10.158311)">
    <g
       id="kvg:0307f"
       style="stroke-width:3.96234113;stroke-miterlimit:4;stroke-dasharray:none">
      <path
         id="kvg:0307f-s1"
         d="m 32.5,26 c 1.88,1.75 4.06,1.7 6.88,1.25 3.88,-0.62 7.62,-1.75 11.88,-3.12 4.26,-1.37 6.25,-0.12 4.5,5.12 -1.75,5.24 -6.66,17.39 -12,30.12 C 30.13,91.88 14.5,88.63 14.5,78 c 0,-14.25 20.48,-15.36 33,-13.5 18.5,2.75 30,6.62 44.38,14.25"
         style="stroke-width:3.96234113;stroke-miterlimit:4;stroke-dasharray:none" />
      <path
         id="kvg:0307f-s2"
         d="m 79.38,54.75 c 0.75,2.38 0.49,4.37 0,6.25 -2.12,8.12 -7.5,25 -22.12,33.75"
         style="stroke-width:3.96234113;stroke-miterlimit:4;stroke-dasharray:none" />
    </g>
  </g>
  <text
     id="text6"
     style="font-size:5.70675px;fill:#808080;stroke-width:1"
     x="21.986807"
     y="25.362268"
     transform="scale(1.0037084,0.9963053)">1</text>
  <text
     id="text8"
     style="font-size:5.70675px;fill:#808080;stroke-width:1"
     x="51.880814"
     y="50.580925"
     transform="scale(1.0037084,0.9963053)">2</text>
  <g
     id="kvg:StrokePaths_03085"
     style="fill:none;stroke:#000000;stroke-width:7.18576011;stroke-linecap:round;stroke-linejoin:round;stroke-miterlimit:4;stroke-dasharray:none"
     transform="matrix(0.42315268,0,0,0.41190777,63.940283,42.240642)">
    <g
       id="kvg:03085"
       style="stroke-width:7.18576011;stroke-miterlimit:4;stroke-dasharray:none">
      <path
         id="kvg:03085-s1"
         d="m 27.74,40.79 c 1.1,1.2 1.61,3.3 1.2,5 -2.3,9.4 -3.2,17.79 -1.7,27.99 2.22,15.08 0.9,3.1 2.6,-1.2 7.19,-18.19 21.79,-27.59 35.49,-27.59 13.5,0 17.49,9.1 17.49,16.2 0,21.89 -24.69,23.69 -34.39,13.4"
         style="stroke-width:7.18576011;stroke-miterlimit:4;stroke-dasharray:none" />
      <path
         id="kvg:03085-s2"
         d="m 57.63,33.89 c 2.1,1.4 2.53,2.5 2.8,5.7 0.7,8.4 1.12,14.97 1.3,23.49 0.4,19.19 -5,25.59 -9.9,31.39"
         style="stroke-width:7.18576011;stroke-miterlimit:4;stroke-dasharray:none" />
    </g>
  </g>
  <text
     transform="scale(1.0034607,0.99655125)"
     id="text6-1"
     style="font-size:4.50979px;fill:#808080;stroke-width:0.999995"
     x="69.217072"
     y="57.156509">3</text>
  <text
     transform="scale(1.0034607,0.99655125)"
     id="text8-4"
     style="font-size:4.50979px;fill:#808080;stroke-width:0.999995"
     x="88.480652"
     y="52.707672">4</text>
  <text
     xml:space="preserve"
     transform="matrix(0.71598873,0,0,0.7107078,6.3127052,3.3770207)"
     id="text4279"
     style="font-style:normal;font-weight:normal;font-size:40px;line-height:1.25;font-family:sans-serif;white-space:pre;shape-inside:url(#rect4281);fill:#000000;fill-opacity:1;stroke:none;stroke-width:1.77391" />
</svg>
