<?xml version="1.0" encoding="UTF-8" standalone="no"?>
<!--
Copyright (C) 2009/2010/2011 Ulrich Apel.
This work is distributed under the conditions of the Creative Commons
Attribution-Share Alike 3.0 Licence. This means you are free:
* to Share - to copy, distribute and transmit the work
* to Remix - to adapt the work

Under the following conditions:
* Attribution. You must attribute the work by stating your use of KanjiVG in
  your own copyright header and linking to KanjiVG's website
  (http://kanjivg.tagaini.net)
* Share Alike. If you alter, transform, or build upon this work, you may
  distribute the resulting work only under the same or similar license to this
  one.

See http://creativecommons.org/licenses/by-sa/3.0/ for more details.
-->

<svg
   width="109"
   height="109"
   viewBox="0 0 109 109"
   version="1.1"
   id="svg11"
   sodipodi:docname="みゃ.svg"
   inkscape:version="1.1 (c68e22c387, 2021-05-23)"
   xmlns:inkscape="http://www.inkscape.org/namespaces/inkscape"
   xmlns:sodipodi="http://sodipodi.sourceforge.net/DTD/sodipodi-0.dtd"
   xmlns="http://www.w3.org/2000/svg"
   xmlns:svg="http://www.w3.org/2000/svg">
  <defs
     id="defs15" />
  <sodipodi:namedview
     id="namedview13"
     pagecolor="#ffffff"
     bordercolor="#666666"
     borderopacity="1.0"
     inkscape:pageshadow="2"
     inkscape:pageopacity="0.0"
     inkscape:pagecheckerboard="0"
     showgrid="false"
     inkscape:zoom="7.0091743"
     inkscape:cx="50.861911"
     inkscape:cy="54.5"
     inkscape:window-width="2491"
     inkscape:window-height="1057"
     inkscape:window-x="61"
     inkscape:window-y="-8"
     inkscape:window-maximized="1"
     inkscape:current-layer="g880" />
  <g
     id="g880"
     transform="matrix(0.6642965,0,0,0.65746594,-1.7148273,7.2068421)"
     style="stroke-width:1.51315">
    <g
       id="kvg:StrokePaths_0307f"
       style="fill:none;stroke:#000000;stroke-width:4.05347056;stroke-linecap:round;stroke-linejoin:round;stroke-miterlimit:4;stroke-dasharray:none"
       transform="matrix(1.1280471,0,0,1.1117983,1.2911753,6.1335099)">
      <g
         id="kvg:0307f"
         style="stroke-width:4.05347056;stroke-miterlimit:4;stroke-dasharray:none">
        <path
           id="kvg:0307f-s1"
           d="m 32.5,26 c 1.88,1.75 4.06,1.7 6.88,1.25 3.88,-0.62 7.62,-1.75 11.88,-3.12 4.26,-1.37 6.25,-0.12 4.5,5.12 -1.75,5.24 -6.66,17.39 -12,30.12 C 30.13,91.88 14.5,88.63 14.5,78 c 0,-14.25 20.48,-15.36 33,-13.5 18.5,2.75 30,6.62 44.38,14.25"
           style="stroke-width:4.05347056;stroke-miterlimit:4;stroke-dasharray:none" />
        <path
           id="kvg:0307f-s2"
           d="m 79.38,54.75 c 0.75,2.38 0.49,4.37 0,6.25 -2.12,8.12 -7.5,25 -22.12,33.75"
           style="stroke-width:4.05347056;stroke-miterlimit:4;stroke-dasharray:none" />
      </g>
    </g>
    <text
       id="text6"
       style="font-size:8px;fill:#808080;stroke-width:1.51315"
       x="35.103806"
       y="29.030787">1</text>
    <text
       id="text8"
       style="font-size:8px;fill:#808080;stroke-width:1.51315"
       x="81.656723"
       y="64.830788">2</text>
    <g
       id="kvg:StrokePaths_03083"
       style="fill:none;stroke:#000000;stroke-width:7.28326345;stroke-linecap:round;stroke-linejoin:round;stroke-miterlimit:4;stroke-dasharray:none"
       transform="matrix(0.62927059,0,0,0.61733061,97.602304,53.150671)">
      <g
         id="kvg:03083"
         style="stroke-width:7.28326345;stroke-miterlimit:4;stroke-dasharray:none">
        <path
           id="kvg:03083-s1"
           d="m 26,61.07 c 1.49,1.29 4.16,1.98 6.84,0.69 C 47.52,54.73 61.2,46.4 73.16,46.5 c 7.16,0.11 12.7,3.28 12.63,9.75 0,6.61 -8.63,13.15 -19.43,14.14"
           style="stroke-width:7.28326345;stroke-miterlimit:4;stroke-dasharray:none" />
        <path
           id="kvg:03083-s2"
           d="m 47.734808,25.009134 c 4.07,0.69 8.25,3.21 9.12,5.25 1.69,3.97 -0.79,1.88 -2.28,2.08"
           style="stroke-width:7.28326345;stroke-miterlimit:4;stroke-dasharray:none" />
        <path
           id="kvg:03083-s3"
           d="m 35.77,40.99 c 1.88,1.49 2.35,2.77 2.82,4.67 2.08,8.33 8.82,32.37 11.7,41.39 0.51,1.62 1.49,4.96 2.28,7.44"
           style="stroke-width:7.28326345;stroke-miterlimit:4;stroke-dasharray:none" />
      </g>
    </g>
    <text
       id="text7"
       style="font-size:8px;fill:#808080;stroke-width:1.51315"
       x="109.30573"
       y="103.12401">3</text>
    <text
       id="text9"
       style="font-size:8px;fill:#808080;stroke-width:1.51315"
       x="124.73605"
       y="62.132004">4</text>
    <text
       id="text11"
       style="font-size:8px;fill:#808080;stroke-width:1.51315"
       x="110.47512"
       y="75.991005">5</text>
  </g>
</svg>
