<?xml version="1.0" encoding="UTF-8" standalone="no"?>
<!--
Copyright (C) 2009/2010/2011 Ulrich Apel.
This work is distributed under the conditions of the Creative Commons
Attribution-Share Alike 3.0 Licence. This means you are free:
* to Share - to copy, distribute and transmit the work
* to Remix - to adapt the work

Under the following conditions:
* Attribution. You must attribute the work by stating your use of KanjiVG in
  your own copyright header and linking to KanjiVG's website
  (http://kanjivg.tagaini.net)
* Share Alike. If you alter, transform, or build upon this work, you may
  distribute the resulting work only under the same or similar license to this
  one.

See http://creativecommons.org/licenses/by-sa/3.0/ for more details.
-->

<svg
   width="109"
   height="109"
   viewBox="0 0 109 109"
   version="1.1"
   id="svg11"
   sodipodi:docname="りゃ.svg"
   inkscape:version="1.1 (c68e22c387, 2021-05-23)"
   xmlns:inkscape="http://www.inkscape.org/namespaces/inkscape"
   xmlns:sodipodi="http://sodipodi.sourceforge.net/DTD/sodipodi-0.dtd"
   xmlns="http://www.w3.org/2000/svg"
   xmlns:svg="http://www.w3.org/2000/svg">
  <defs
     id="defs15" />
  <sodipodi:namedview
     id="namedview13"
     pagecolor="#ffffff"
     bordercolor="#666666"
     borderopacity="1.0"
     inkscape:pageshadow="2"
     inkscape:pageopacity="0.0"
     inkscape:pagecheckerboard="0"
     showgrid="false"
     inkscape:zoom="7.0091743"
     inkscape:cx="42.587042"
     inkscape:cy="52.359948"
     inkscape:window-width="2491"
     inkscape:window-height="1057"
     inkscape:window-x="61"
     inkscape:window-y="-8"
     inkscape:window-maximized="1"
     inkscape:current-layer="svg11" />
  <g
     id="kvg:StrokePaths_0308a"
     style="fill:none;stroke:#000000;stroke-width:3.09579382;stroke-linecap:round;stroke-linejoin:round;stroke-miterlimit:4;stroke-dasharray:none"
     transform="matrix(0.98239446,0,0,0.95590019,-19.430882,0.55169276)">
    <g
       id="kvg:0308a"
       style="stroke-width:3.09579382;stroke-miterlimit:4;stroke-dasharray:none">
      <path
         id="kvg:0308a-s1"
         d="m 38.75,25.25 c 1.25,1.5 2.24,4.03 1.62,6.62 -2.88,12.13 -6.29,29.65 -4.25,42.38 2,12.5 1.75,-0.75 5.62,-6.25"
         style="stroke-width:3.09579382;stroke-miterlimit:4;stroke-dasharray:none" />
      <path
         id="kvg:0308a-s2"
         d="m 69.37,18.75 c 2.25,2.12 2.88,4.12 2.88,6.5 0,2.38 0,26.38 0,35.75 0,16.5 -5,25.75 -12.62,33.12"
         style="stroke-width:3.09579382;stroke-miterlimit:4;stroke-dasharray:none" />
    </g>
  </g>
  <text
     transform="scale(1.0006371,0.9993633)"
     id="text6"
     style="font-size:7.10445px;fill:#808080;stroke-width:1"
     x="11.503432"
     y="28.396748">1</text>
  <text
     transform="scale(1.0006371,0.9993633)"
     id="text8"
     style="font-size:7.10445px;fill:#808080;stroke-width:1"
     x="40.253235"
     y="23.148193">2</text>
  <g
     id="kvg:StrokePaths_03083"
     style="fill:none;stroke:#000000;stroke-width:5.33409718;stroke-linecap:round;stroke-linejoin:round;stroke-miterlimit:4;stroke-dasharray:none"
     transform="matrix(0.56310372,0,0,0.56173601,45.297172,37.414165)">
    <g
       id="kvg:03083"
       style="stroke-width:5.33409718;stroke-miterlimit:4;stroke-dasharray:none">
      <path
         id="kvg:03083-s1"
         d="m 26,61.07 c 1.49,1.29 4.16,1.98 6.84,0.69 C 47.52,54.73 61.2,46.4 73.16,46.5 c 7.16,0.11 12.7,3.28 12.63,9.75 0,6.61 -8.63,13.15 -19.43,14.14"
         style="stroke-width:5.33409718;stroke-miterlimit:4;stroke-dasharray:none" />
      <path
         id="kvg:03083-s2"
         d="m 47.83318,29.674365 c 4.07,0.69 8.25,3.21 9.12,5.25 1.69,3.97 -0.79,1.88 -2.28,2.08"
         style="stroke-width:5.33409718;stroke-miterlimit:4;stroke-dasharray:none" />
      <path
         id="kvg:03083-s3"
         d="m 35.77,40.99 c 1.88,1.49 2.35,2.77 2.82,4.67 2.08,8.33 8.82,32.37 11.7,41.39 0.51,1.62 1.49,4.96 2.28,7.44"
         style="stroke-width:5.33409718;stroke-miterlimit:4;stroke-dasharray:none" />
    </g>
  </g>
  <text
     transform="scale(1.0006371,0.9993633)"
     id="text7"
     style="font-size:7.10445px;fill:#808080;stroke-width:1"
     x="54.387325"
     y="80.663094">3</text>
  <text
     transform="scale(1.0006371,0.9993633)"
     id="text9"
     style="font-size:7.10445px;fill:#808080;stroke-width:1"
     x="70.908653"
     y="50.482819">4</text>
  <text
     transform="scale(1.0006371,0.9993633)"
     id="text11"
     style="font-size:7.10445px;fill:#808080;stroke-width:1"
     x="58.33672"
     y="58.301071">5</text>
</svg>
