<?xml version="1.0" encoding="UTF-8" standalone="no"?>
<!--
Copyright (C) 2009/2010/2011 Ulrich Apel.
This work is distributed under the conditions of the Creative Commons
Attribution-Share Alike 3.0 Licence. This means you are free:
* to Share - to copy, distribute and transmit the work
* to Remix - to adapt the work

Under the following conditions:
* Attribution. You must attribute the work by stating your use of KanjiVG in
  your own copyright header and linking to KanjiVG's website
  (http://kanjivg.tagaini.net)
* Share Alike. If you alter, transform, or build upon this work, you may
  distribute the resulting work only under the same or similar license to this
  one.

See http://creativecommons.org/licenses/by-sa/3.0/ for more details.
-->

<svg
   width="109"
   height="109"
   viewBox="0 0 109 109"
   version="1.1"
   id="svg11"
   sodipodi:docname="りょ.svg"
   inkscape:version="1.1 (c68e22c387, 2021-05-23)"
   xmlns:inkscape="http://www.inkscape.org/namespaces/inkscape"
   xmlns:sodipodi="http://sodipodi.sourceforge.net/DTD/sodipodi-0.dtd"
   xmlns="http://www.w3.org/2000/svg"
   xmlns:svg="http://www.w3.org/2000/svg">
  <defs
     id="defs15" />
  <sodipodi:namedview
     id="namedview13"
     pagecolor="#ffffff"
     bordercolor="#666666"
     borderopacity="1.0"
     inkscape:pageshadow="2"
     inkscape:pageopacity="0.0"
     inkscape:pagecheckerboard="0"
     showgrid="false"
     inkscape:zoom="7.0091743"
     inkscape:cx="52.145942"
     inkscape:cy="55.641361"
     inkscape:window-width="2491"
     inkscape:window-height="1057"
     inkscape:window-x="61"
     inkscape:window-y="-8"
     inkscape:window-maximized="1"
     inkscape:current-layer="svg11" />
  <g
     id="kvg:StrokePaths_0308a"
     style="fill:none;stroke:#000000;stroke-width:3.16311822;stroke-linecap:round;stroke-linejoin:round;stroke-miterlimit:4;stroke-dasharray:none"
     transform="matrix(0.95607762,0,0,0.94084593,-16.341187,1.3993994)">
    <g
       id="kvg:0308a"
       style="stroke-width:3.16311822;stroke-miterlimit:4;stroke-dasharray:none">
      <path
         id="kvg:0308a-s1"
         d="m 38.75,25.25 c 1.25,1.5 2.24,4.03 1.62,6.62 -2.88,12.13 -6.29,29.65 -4.25,42.38 2,12.5 1.75,-0.75 5.62,-6.25"
         style="stroke-width:3.16311822;stroke-miterlimit:4;stroke-dasharray:none" />
      <path
         id="kvg:0308a-s2"
         d="m 69.37,18.75 c 2.25,2.12 2.88,4.12 2.88,6.5 0,2.38 0,26.38 0,35.75 0,16.5 -5,25.75 -12.62,33.12"
         style="stroke-width:3.16311822;stroke-miterlimit:4;stroke-dasharray:none" />
    </g>
  </g>
  <text
     id="text6"
     style="font-size:8px;fill:#808080"
     x="12.308196"
     y="29.485157">1</text>
  <text
     id="text8"
     style="font-size:8px;fill:#808080"
     x="41.70348"
     y="25.33725">2</text>
  <g
     id="kvg:StrokePaths_03087"
     style="fill:none;stroke:#000000;stroke-width:5.61458405;stroke-linecap:round;stroke-linejoin:round;stroke-miterlimit:4;stroke-dasharray:none"
     transform="matrix(0.53410811,0,0,0.53453748,50.041304,39.120032)">
    <g
       id="kvg:03087"
       style="stroke-width:5.61458405;stroke-miterlimit:4;stroke-dasharray:none">
      <path
         id="kvg:03087-s1"
         d="m 57.8,50.06 c 5.98,-1.02 10.95,-2.09 14.74,-3.25 1.99,-0.61 3.8,-0.91 4.98,-0.91"
         style="stroke-width:5.61458405;stroke-miterlimit:4;stroke-dasharray:none" />
      <path
         id="kvg:03087-s2"
         d="m 54.91,33 c 1.79,1.69 2.38,3.28 2.29,5.16 -0.6,13.49 -0.1,27.68 1.11,42.47 1.5,18.31 -27.81,16.56 -27.81,9.12 0,-9.53 20.92,-6.35 28.68,-3.27 6.46,2.56 9.18,3.87 14.76,8.23"
         style="stroke-width:5.61458405;stroke-miterlimit:4;stroke-dasharray:none" />
    </g>
  </g>
  <text
     transform="scale(0.99574399,1.0042742)"
     id="text6-9"
     style="font-size:6.21131px;fill:#808080;stroke-width:1"
     x="84.783218"
     y="73.825645">3</text>
  <text
     transform="scale(0.99574399,1.0042742)"
     id="text8-2"
     style="font-size:6.21131px;fill:#808080;stroke-width:1"
     x="72.31749"
     y="55.550117">4</text>
</svg>
