<?xml version="1.0" encoding="UTF-8" standalone="no"?>
<!--
Copyright (C) 2009/2010/2011 Ulrich Apel.
This work is distributed under the conditions of the Creative Commons
Attribution-Share Alike 3.0 Licence. This means you are free:
* to Share - to copy, distribute and transmit the work
* to Remix - to adapt the work

Under the following conditions:
* Attribution. You must attribute the work by stating your use of KanjiVG in
  your own copyright header and linking to KanjiVG's website
  (http://kanjivg.tagaini.net)
* Share Alike. If you alter, transform, or build upon this work, you may
  distribute the resulting work only under the same or similar license to this
  one.

See http://creativecommons.org/licenses/by-sa/3.0/ for more details.
-->

<svg
   width="109"
   height="109"
   viewBox="0 0 109 109"
   version="1.1"
   id="svg14"
   sodipodi:docname="ウィ.svg"
   inkscape:version="1.1 (c68e22c387, 2021-05-23)"
   xmlns:inkscape="http://www.inkscape.org/namespaces/inkscape"
   xmlns:sodipodi="http://sodipodi.sourceforge.net/DTD/sodipodi-0.dtd"
   xmlns="http://www.w3.org/2000/svg"
   xmlns:svg="http://www.w3.org/2000/svg">
  <defs
     id="defs18" />
  <sodipodi:namedview
     id="namedview16"
     pagecolor="#ffffff"
     bordercolor="#666666"
     borderopacity="1.0"
     inkscape:pageshadow="2"
     inkscape:pageopacity="0.0"
     inkscape:pagecheckerboard="0"
     showgrid="false"
     inkscape:zoom="7.0091743"
     inkscape:cx="52.716623"
     inkscape:cy="54.5"
     inkscape:window-width="2491"
     inkscape:window-height="1057"
     inkscape:window-x="61"
     inkscape:window-y="-8"
     inkscape:window-maximized="1"
     inkscape:current-layer="svg14" />
  <g
     id="kvg:StrokePaths_030a6"
     style="fill:none;stroke:#000000;stroke-width:3.42813423;stroke-linecap:round;stroke-linejoin:round;stroke-miterlimit:4;stroke-dasharray:none"
     transform="matrix(0.87800569,0,0,0.87222703,-8.5499581,7.1781784)">
    <g
       id="kvg:030a6"
       style="stroke-width:3.42813423;stroke-miterlimit:4;stroke-dasharray:none">
      <path
         id="kvg:030a6-s1"
         d="m 53.25,14.62 c 1,1.12 1.25,3 1.25,4.62 0,1.62 0,10.76 0,12.64"
         style="stroke-width:3.42813423;stroke-miterlimit:4;stroke-dasharray:none" />
      <path
         id="kvg:030a6-s2"
         d="m 26.5,31.25 c 1,1.12 1.22,3 1.25,4.62 0.09,4.45 0.29,10.95 0.45,16.37 0.07,2.5 0.14,4.77 0.18,6.5"
         style="stroke-width:3.42813423;stroke-miterlimit:4;stroke-dasharray:none" />
      <path
         id="kvg:030a6-s3"
         d="m 29.12,35.88 c 19.38,-2.25 40.25,-4.25 49,-5.5 8.75,-1.25 8.28,0.84 6.25,6.88 -5,14.88 -20.12,43.5 -41,56.62"
         style="stroke-width:3.42813423;stroke-miterlimit:4;stroke-dasharray:none" />
    </g>
  </g>
  <text
     id="text7"
     style="font-size:8px;fill:#808080"
     x="29.339005"
     y="19.980785">1</text>
  <text
     id="text9"
     style="font-size:8px;fill:#808080"
     x="7.7277489"
     y="31.137434">2</text>
  <text
     id="text11"
     style="font-size:8px;fill:#808080"
     x="18.625654"
     y="34.212044">3</text>
  <g
     id="kvg:StrokePaths_030a3"
     style="fill:none;stroke:#000000;stroke-width:5.89342753;stroke-linecap:round;stroke-linejoin:round;stroke-miterlimit:4;stroke-dasharray:none"
     transform="matrix(0.50320086,0,0,0.51495021,60.22063,39.847027)">
    <g
       id="kvg:030a3"
       style="stroke-width:5.89342753;stroke-miterlimit:4;stroke-dasharray:none">
      <path
         id="kvg:030a3-s1"
         d="m 67.75,32.78 c 0.1,1.39 -0.27,3.07 -1.28,4.37 C 58.49,47.39 47.75,60.7 30.5,71.23"
         style="stroke-width:5.89342753;stroke-miterlimit:4;stroke-dasharray:none" />
      <path
         id="kvg:030a3-s2"
         d="m 57.19,54.22 c 0.81,0.92 1.02,2.46 1.02,3.79 0,1.33 0,26.33 0,27.87 0,1.54 -0.1,7.48 -0.1,9.63"
         style="stroke-width:5.89342753;stroke-miterlimit:4;stroke-dasharray:none" />
    </g>
  </g>
  <text
     id="text6"
     style="font-size:8px;fill:#808080"
     x="85.945656"
     y="55.730545">4</text>
  <text
     id="text8"
     style="font-size:8px;fill:#808080"
     x="92.960052"
     y="71.275459">5</text>
</svg>
