<?xml version="1.0" encoding="UTF-8" standalone="no"?>
<!--
Copyright (C) 2009/2010/2011 Ulrich Apel.
This work is distributed under the conditions of the Creative Commons
Attribution-Share Alike 3.0 Licence. This means you are free:
* to Share - to copy, distribute and transmit the work
* to Remix - to adapt the work

Under the following conditions:
* Attribution. You must attribute the work by stating your use of KanjiVG in
  your own copyright header and linking to KanjiVG's website
  (http://kanjivg.tagaini.net)
* Share Alike. If you alter, transform, or build upon this work, you may
  distribute the resulting work only under the same or similar license to this
  one.

See http://creativecommons.org/licenses/by-sa/3.0/ for more details.
-->

<svg
   width="109"
   height="109"
   viewBox="0 0 109 109"
   version="1.1"
   id="svg14"
   sodipodi:docname="ウェ.svg"
   inkscape:version="1.1 (c68e22c387, 2021-05-23)"
   xmlns:inkscape="http://www.inkscape.org/namespaces/inkscape"
   xmlns:sodipodi="http://sodipodi.sourceforge.net/DTD/sodipodi-0.dtd"
   xmlns="http://www.w3.org/2000/svg"
   xmlns:svg="http://www.w3.org/2000/svg">
  <defs
     id="defs18" />
  <sodipodi:namedview
     id="namedview16"
     pagecolor="#ffffff"
     bordercolor="#666666"
     borderopacity="1.0"
     inkscape:pageshadow="2"
     inkscape:pageopacity="0.0"
     inkscape:pagecheckerboard="0"
     showgrid="false"
     inkscape:zoom="7.0091743"
     inkscape:cx="52.645288"
     inkscape:cy="54.5"
     inkscape:window-width="2491"
     inkscape:window-height="1057"
     inkscape:window-x="61"
     inkscape:window-y="-8"
     inkscape:window-maximized="1"
     inkscape:current-layer="svg14" />
  <g
     id="kvg:StrokePaths_030a6"
     style="fill:none;stroke:#000000;stroke-width:3.83075903;stroke-linecap:round;stroke-linejoin:round;stroke-miterlimit:4;stroke-dasharray:none"
     transform="matrix(0.78831922,0,0,0.77798411,-10.884713,12.288312)">
    <g
       id="kvg:030a6"
       style="stroke-width:3.83075903;stroke-miterlimit:4;stroke-dasharray:none">
      <path
         id="kvg:030a6-s1"
         d="m 53.25,14.62 c 1,1.12 1.25,3 1.25,4.62 0,1.62 0,10.76 0,12.64"
         style="stroke-width:3.83075903;stroke-miterlimit:4;stroke-dasharray:none" />
      <path
         id="kvg:030a6-s2"
         d="m 26.5,31.25 c 1,1.12 1.22,3 1.25,4.62 0.09,4.45 0.29,10.95 0.45,16.37 0.07,2.5 0.14,4.77 0.18,6.5"
         style="stroke-width:3.83075903;stroke-miterlimit:4;stroke-dasharray:none" />
      <path
         id="kvg:030a6-s3"
         d="m 29.12,35.88 c 19.38,-2.25 40.25,-4.25 49,-5.5 8.75,-1.25 8.28,0.84 6.25,6.88 -5,14.88 -20.12,43.5 -41,56.62"
         style="stroke-width:3.83075903;stroke-miterlimit:4;stroke-dasharray:none" />
    </g>
  </g>
  <text
     id="text7"
     style="font-size:8px;fill:#808080"
     x="22.633509"
     y="23.83288">1</text>
  <text
     id="text9"
     style="font-size:8px;fill:#808080"
     x="6.7290578"
     y="32.136127">2</text>
  <text
     id="text11"
     style="font-size:8px;fill:#808080"
     x="15.344241"
     y="49.477749">3</text>
  <g
     id="kvg:StrokePaths_030a7"
     style="fill:none;stroke:#000000;stroke-width:3.62379485;stroke-linecap:round;stroke-linejoin:round;stroke-miterlimit:4;stroke-dasharray:none"
     transform="matrix(0.82673618,0,0,0.82898822,30.275075,15.188203)">
    <g
       id="kvg:030a7"
       style="stroke-width:3.62379485;stroke-miterlimit:4;stroke-dasharray:none">
      <path
         id="kvg:030a7-s1"
         d="m 36.22,52.7 c 1.84,0.56 4.08,0.53 5.93,0.24 6.8,-1.08 17.77,-2.28 26.71,-3.07 1.8,-0.16 3.59,-0.15 5.37,0.18"
         style="stroke-width:3.62379485;stroke-miterlimit:4;stroke-dasharray:none" />
      <path
         id="kvg:030a7-s2"
         d="m 53.25,54.65 c 0.79,0.9 1.04,2.4 0.99,3.7 -0.14,3.79 -0.4,10.3 -0.65,17.78 -0.06,1.85 -0.12,3.25 -0.18,5.19"
         style="stroke-width:3.62379485;stroke-miterlimit:4;stroke-dasharray:none" />
      <path
         id="kvg:030a7-s3"
         d="m 26,84.03 c 2.71,0.7 6.01,0.65 8.73,0.29 14.11,-1.84 27.4,-2.86 40.12,-2.89 2.65,-0.01 5.73,0.31 8.3,1.33"
         style="stroke-width:3.62379485;stroke-miterlimit:4;stroke-dasharray:none" />
    </g>
  </g>
  <text
     id="text7-0"
     style="font-size:8px;fill:#808080"
     x="57.924557"
     y="54.639774">4</text>
  <text
     id="text9-8"
     style="font-size:8px;fill:#808080"
     x="78.646652"
     y="67.185165">5</text>
  <text
     id="text11-9"
     style="font-size:8px;fill:#808080"
     x="50.351261"
     y="80.429039">6</text>
</svg>
