<?xml version="1.0" encoding="UTF-8" standalone="no"?>
<!--
Copyright (C) 2009/2010/2011 Ulrich Apel.
This work is distributed under the conditions of the Creative Commons
Attribution-Share Alike 3.0 Licence. This means you are free:
* to Share - to copy, distribute and transmit the work
* to Remix - to adapt the work

Under the following conditions:
* Attribution. You must attribute the work by stating your use of KanjiVG in
  your own copyright header and linking to KanjiVG's website
  (http://kanjivg.tagaini.net)
* Share Alike. If you alter, transform, or build upon this work, you may
  distribute the resulting work only under the same or similar license to this
  one.

See http://creativecommons.org/licenses/by-sa/3.0/ for more details.
-->

<svg
   width="109"
   height="109"
   viewBox="0 0 109 109"
   version="1.1"
   id="svg14"
   sodipodi:docname="キャ.svg"
   inkscape:version="1.1 (c68e22c387, 2021-05-23)"
   xmlns:inkscape="http://www.inkscape.org/namespaces/inkscape"
   xmlns:sodipodi="http://sodipodi.sourceforge.net/DTD/sodipodi-0.dtd"
   xmlns="http://www.w3.org/2000/svg"
   xmlns:svg="http://www.w3.org/2000/svg">
  <defs
     id="defs18" />
  <sodipodi:namedview
     id="namedview16"
     pagecolor="#ffffff"
     bordercolor="#666666"
     borderopacity="1.0"
     inkscape:pageshadow="2"
     inkscape:pageopacity="0.0"
     inkscape:pagecheckerboard="0"
     showgrid="false"
     inkscape:zoom="4.9562347"
     inkscape:cx="20.479256"
     inkscape:cy="41.160279"
     inkscape:window-width="2491"
     inkscape:window-height="1057"
     inkscape:window-x="61"
     inkscape:window-y="-8"
     inkscape:window-maximized="1"
     inkscape:current-layer="svg14" />
  <g
     id="kvg:StrokePaths_030ad"
     style="fill:none;stroke:#000000;stroke-width:3.52796827;stroke-linecap:round;stroke-linejoin:round;stroke-miterlimit:4;stroke-dasharray:none"
     transform="matrix(0.8567917,0,0,0.84395233,-6.6965035,8.0865677)">
    <g
       id="kvg:030ad"
       style="stroke-width:3.52796827;stroke-miterlimit:4;stroke-dasharray:none">
      <path
         id="kvg:030ad-s1"
         d="m 27,40.5 c 1.75,0.62 4.77,1.09 7.25,0.38 C 46,37.5 64.87,32.75 71.75,31 c 2.62,-0.67 6.75,-1.12 9,-1"
         style="stroke-width:3.52796827;stroke-miterlimit:4;stroke-dasharray:none" />
      <path
         id="kvg:030ad-s2"
         d="m 19.5,65.8 c 2.28,0.84 6.24,1.18 9.46,0.17 17.79,-5.59 32.67,-9.09 49.17,-12.99 3.43,-0.81 8.81,-1.52 11.74,-1.35"
         style="stroke-width:3.52796827;stroke-miterlimit:4;stroke-dasharray:none" />
      <path
         id="kvg:030ad-s3"
         d="m 48.87,16.75 c 2.5,1.75 3.43,3.24 3.88,6.12 2.12,13.62 6.38,45.38 8.25,59.25 0.4,3 1,8.38 1.38,11.12"
         style="stroke-width:3.52796827;stroke-miterlimit:4;stroke-dasharray:none" />
    </g>
  </g>
  <text
     id="text7"
     style="font-size:5.71797px;fill:#808080;stroke-width:0.999997"
     x="13.754817"
     y="38.496727">1</text>
  <text
     id="text9"
     style="font-size:5.71797px;fill:#808080;stroke-width:0.999997"
     x="8.3538742"
     y="59.738964">2</text>
  <text
     id="text11"
     style="font-size:5.71797px;fill:#808080;stroke-width:0.999997"
     x="27.651627"
     y="24.647995">3</text>
  <g
     id="kvg:StrokePaths_030e3"
     style="fill:none;stroke:#000000;stroke-width:5.48738465;stroke-linecap:round;stroke-linejoin:round;stroke-miterlimit:4;stroke-dasharray:none"
     transform="matrix(0.55055249,0,0,0.54289141,55.356978,36.221555)">
    <g
       id="kvg:030e3"
       style="stroke-width:5.48738465;stroke-miterlimit:4;stroke-dasharray:none">
      <path
         id="kvg:030e3-s1"
         d="m 25,56.25 c 1.67,1.28 4.84,1.85 7.96,1.08 14.85,-3.64 26.27,-6.16 38.45,-9.34 17.31,-4.52 1.18,11.21 -2.16,15.73"
         style="stroke-width:5.48738465;stroke-miterlimit:4;stroke-dasharray:none" />
      <path
         id="kvg:030e3-s2"
         d="m 41.1,35.5 c 1.3,1.1 2,2.1 2.5,4.1 0.5,2 9.4,41.62 9.9,43.72 0.5,2.1 1.7,7.2 2.4,9.8"
         style="stroke-width:5.48738465;stroke-miterlimit:4;stroke-dasharray:none" />
    </g>
  </g>
  <text
     id="text6"
     x="65.97374"
     y="63.3736"
     style="font-size:5.71797px;fill:#808080;stroke-width:1">4</text>
  <text
     id="text8"
     x="81.272423"
     y="53.476784"
     style="font-size:5.71797px;fill:#808080;stroke-width:1">5</text>
</svg>
