<?xml version="1.0" encoding="UTF-8" standalone="no"?>
<!--
Copyright (C) 2009/2010/2011 Ulrich Apel.
This work is distributed under the conditions of the Creative Commons
Attribution-Share Alike 3.0 Licence. This means you are free:
* to Share - to copy, distribute and transmit the work
* to Remix - to adapt the work

Under the following conditions:
* Attribution. You must attribute the work by stating your use of KanjiVG in
  your own copyright header and linking to KanjiVG's website
  (http://kanjivg.tagaini.net)
* Share Alike. If you alter, transform, or build upon this work, you may
  distribute the resulting work only under the same or similar license to this
  one.

See http://creativecommons.org/licenses/by-sa/3.0/ for more details.
-->

<svg
   width="109"
   height="109"
   viewBox="0 0 109 109"
   version="1.1"
   id="svg20"
   sodipodi:docname="ギュ.svg"
   inkscape:version="1.1 (c68e22c387, 2021-05-23)"
   xmlns:inkscape="http://www.inkscape.org/namespaces/inkscape"
   xmlns:sodipodi="http://sodipodi.sourceforge.net/DTD/sodipodi-0.dtd"
   xmlns="http://www.w3.org/2000/svg"
   xmlns:svg="http://www.w3.org/2000/svg">
  <defs
     id="defs24" />
  <sodipodi:namedview
     id="namedview22"
     pagecolor="#ffffff"
     bordercolor="#666666"
     borderopacity="1.0"
     inkscape:pageshadow="2"
     inkscape:pageopacity="0.0"
     inkscape:pagecheckerboard="0"
     showgrid="false"
     inkscape:zoom="4.9562347"
     inkscape:cx="28.953431"
     inkscape:cy="21.185437"
     inkscape:window-width="2491"
     inkscape:window-height="1057"
     inkscape:window-x="61"
     inkscape:window-y="-8"
     inkscape:window-maximized="1"
     inkscape:current-layer="svg20" />
  <g
     id="kvg:StrokePaths_030ae"
     style="fill:none;stroke:#000000;stroke-width:4.42461659;stroke-linecap:round;stroke-linejoin:round;stroke-miterlimit:4;stroke-dasharray:none"
     transform="matrix(0.68339323,0,0,0.67269864,-3.3243751,19.775296)">
    <g
       id="kvg:030ae"
       style="stroke-width:4.42461659;stroke-miterlimit:4;stroke-dasharray:none">
      <path
         id="kvg:030ae-s1"
         d="m 27,40.5 c 1.75,0.62 4.77,1.09 7.25,0.38 C 46,37.5 64.87,32.75 71.75,31 c 2.62,-0.67 6.75,-1.12 9,-1"
         style="stroke-width:4.42461659;stroke-miterlimit:4;stroke-dasharray:none" />
      <path
         id="kvg:030ae-s2"
         d="m 19.5,65.8 c 2.28,0.84 6.24,1.18 9.46,0.17 17.79,-5.59 32.67,-9.09 49.17,-12.99 3.43,-0.81 8.81,-1.52 11.74,-1.35"
         style="stroke-width:4.42461659;stroke-miterlimit:4;stroke-dasharray:none" />
      <path
         id="kvg:030ae-s3"
         d="m 48.87,16.75 c 2.5,1.75 3.43,3.24 3.88,6.12 2.12,13.62 6.38,45.38 8.25,59.25 0.4,3 1,8.38 1.38,11.12"
         style="stroke-width:4.42461659;stroke-miterlimit:4;stroke-dasharray:none" />
      <path
         id="kvg:030ae-s4"
         d="m 81.87,15.13 c 2.75,1.93 6,5.93 7.75,9.37"
         style="stroke-width:4.42461659;stroke-miterlimit:4;stroke-dasharray:none" />
      <path
         id="kvg:030ae-s5"
         d="m 90.316691,8.9502264 c 2.71,1.7299996 5.9,5.3199996 7.62,8.4099996"
         style="stroke-width:4.42461659;stroke-miterlimit:4;stroke-dasharray:none" />
    </g>
  </g>
  <text
     id="text9"
     style="font-size:6.05408px;fill:#808080;stroke-width:1"
     x="12.849133"
     y="43.023041">1</text>
  <text
     id="text11"
     style="font-size:6.05408px;fill:#808080;stroke-width:1"
     x="7.3473597"
     y="60.270805">2</text>
  <text
     id="text13"
     style="font-size:6.05408px;fill:#808080;stroke-width:1"
     x="22.253279"
     y="31.559635">3</text>
  <text
     id="text15"
     style="font-size:6.05408px;fill:#808080;stroke-width:1"
     x="44.396946"
     y="32.953972">4</text>
  <text
     id="text17"
     style="font-size:6.05408px;fill:#808080;stroke-width:1"
     x="56.575893"
     y="21.202085">5</text>
  <g
     id="kvg:StrokePaths_030e5"
     style="fill:none;stroke:#000000;stroke-width:4.2284924;stroke-linecap:round;stroke-linejoin:round;stroke-miterlimit:4;stroke-dasharray:none"
     transform="matrix(0.70770782,0,0,0.71124202,39.362581,20.183661)">
    <g
       id="kvg:030e5"
       style="stroke-width:4.2284924;stroke-miterlimit:4;stroke-dasharray:none">
      <path
         id="kvg:030e5-s1"
         d="m 34.8,52.84 c 1.91,1.21 4.13,1.67 7.44,1.21 10.65,-1.51 13.99,-1.68 21.71,-2.97 5.43,-0.9 6.26,0.13 5.23,5.12 -1.91,9.25 -3.92,19.45 -5.23,27.49"
         style="stroke-width:4.2284924;stroke-miterlimit:4;stroke-dasharray:none" />
      <path
         id="kvg:030e5-s2"
         d="m 24.5,86.21 c 2.21,1.21 3.84,1.73 7.34,1.21 18.54,-2.79 28.95,-3.12 43.52,-3.12 3.02,0 5.93,0.4 8.95,0.9"
         style="stroke-width:4.2284924;stroke-miterlimit:4;stroke-dasharray:none" />
    </g>
  </g>
  <text
     id="text6"
     style="font-size:6.05408px;fill:#808080;stroke-width:1"
     x="61.979477"
     y="53.682178">6</text>
  <text
     id="text8"
     style="font-size:6.05408px;fill:#808080;stroke-width:1"
     x="54.985931"
     y="77.618439">7</text>
</svg>
