<?xml version="1.0" encoding="UTF-8" standalone="no"?>
<!--
Copyright (C) 2009/2010/2011 Ulrich Apel.
This work is distributed under the conditions of the Creative Commons
Attribution-Share Alike 3.0 Licence. This means you are free:
* to Share - to copy, distribute and transmit the work
* to Remix - to adapt the work

Under the following conditions:
* Attribution. You must attribute the work by stating your use of KanjiVG in
  your own copyright header and linking to KanjiVG's website
  (http://kanjivg.tagaini.net)
* Share Alike. If you alter, transform, or build upon this work, you may
  distribute the resulting work only under the same or similar license to this
  one.

See http://creativecommons.org/licenses/by-sa/3.0/ for more details.
-->

<svg
   width="109"
   height="109"
   viewBox="0 0 109 109"
   version="1.1"
   id="svg20"
   sodipodi:docname="ジュ.svg"
   inkscape:version="1.1 (c68e22c387, 2021-05-23)"
   xmlns:inkscape="http://www.inkscape.org/namespaces/inkscape"
   xmlns:sodipodi="http://sodipodi.sourceforge.net/DTD/sodipodi-0.dtd"
   xmlns="http://www.w3.org/2000/svg"
   xmlns:svg="http://www.w3.org/2000/svg">
  <defs
     id="defs24">
    <rect
       x="-28.962042"
       y="7.5615183"
       width="164.07068"
       height="101.72382"
       id="rect3223" />
  </defs>
  <sodipodi:namedview
     id="namedview22"
     pagecolor="#ffffff"
     bordercolor="#666666"
     borderopacity="1.0"
     inkscape:pageshadow="2"
     inkscape:pageopacity="0.0"
     inkscape:pagecheckerboard="0"
     showgrid="false"
     inkscape:zoom="7.0091743"
     inkscape:cx="50.861911"
     inkscape:cy="54.5"
     inkscape:window-width="2491"
     inkscape:window-height="1057"
     inkscape:window-x="61"
     inkscape:window-y="-8"
     inkscape:window-maximized="1"
     inkscape:current-layer="svg20" />
  <g
     id="kvg:StrokePaths_030b8"
     style="fill:none;stroke:#000000;stroke-width:3.69562891;stroke-linecap:round;stroke-linejoin:round;stroke-miterlimit:4;stroke-dasharray:none"
     transform="matrix(0.8185517,0,0,0.80504412,-11.257301,14.149493)">
    <g
       id="kvg:030b8"
       style="stroke-width:3.69562891;stroke-miterlimit:4;stroke-dasharray:none">
      <path
         id="kvg:030b8-s1"
         d="m 39.87,19.75 c 5.14,1.57 9.79,6.01 11.5,8.62"
         style="stroke-width:3.69562891;stroke-miterlimit:4;stroke-dasharray:none" />
      <path
         id="kvg:030b8-s2"
         d="m 26,42.62 c 3.25,0.88 10.25,5.5 12.25,8.13"
         style="stroke-width:3.69562891;stroke-miterlimit:4;stroke-dasharray:none" />
      <path
         id="kvg:030b8-s3"
         d="m 33,85 c 3.62,1.62 6.5,0.88 10.38,-1.38 C 61.19,73.28 75.75,59.75 89.5,40.75"
         style="stroke-width:3.69562891;stroke-miterlimit:4;stroke-dasharray:none" />
      <path
         id="kvg:030b8-s4"
         d="m 78.5,18.98 c 2.85,1.78 6.21,5.47 8.03,8.65"
         style="stroke-width:3.69562891;stroke-miterlimit:4;stroke-dasharray:none" />
      <path
         id="kvg:030b8-s5"
         d="m 85.25,14.38 c 2.93,1.57 6.39,4.83 8.25,7.63"
         style="stroke-width:3.69562891;stroke-miterlimit:4;stroke-dasharray:none" />
    </g>
  </g>
  <text
     transform="scale(1.00073,0.99927055)"
     id="text9"
     style="font-size:6.47687px;fill:#808080;stroke-width:0.999996"
     x="19.140518"
     y="26.024847">1</text>
  <text
     transform="scale(1.00073,0.99927055)"
     id="text11"
     style="font-size:6.47687px;fill:#808080;stroke-width:0.999996"
     x="7.6911554"
     y="44.810471">2</text>
  <text
     transform="scale(1.00073,0.99927055)"
     id="text13"
     style="font-size:6.47687px;fill:#808080;stroke-width:0.999996"
     x="13.638345"
     y="78.765327">3</text>
  <text
     transform="scale(1.00073,0.99927055)"
     id="text15"
     style="font-size:6.47687px;fill:#808080;stroke-width:0.999996"
     x="44.781731"
     y="33.400414">4</text>
  <text
     transform="scale(1.00073,0.99927055)"
     id="text17"
     style="font-size:6.47687px;fill:#808080;stroke-width:0.999996"
     x="56.722275"
     y="21.537308">5</text>
  <g
     id="kvg:StrokePaths_030e5"
     style="fill:none;stroke:#000000;stroke-width:4.11708024;stroke-linecap:round;stroke-linejoin:round;stroke-miterlimit:4;stroke-dasharray:none"
     transform="matrix(0.72641998,0,0,0.73093047,37.764824,19.233725)">
    <g
       id="kvg:030e5"
       style="stroke-width:4.11708024;stroke-miterlimit:4;stroke-dasharray:none">
      <path
         id="kvg:030e5-s1"
         d="m 34.8,52.84 c 1.91,1.21 4.13,1.67 7.44,1.21 10.65,-1.51 13.99,-1.68 21.71,-2.97 5.43,-0.9 6.26,0.13 5.23,5.12 -1.91,9.25 -3.92,19.45 -5.23,27.49"
         style="stroke-width:4.11708024;stroke-miterlimit:4;stroke-dasharray:none" />
      <path
         id="kvg:030e5-s2"
         d="m 24.5,86.21 c 2.21,1.21 3.84,1.73 7.34,1.21 18.54,-2.79 28.95,-3.12 43.52,-3.12 3.02,0 5.93,0.4 8.95,0.9"
         style="stroke-width:4.11708024;stroke-miterlimit:4;stroke-dasharray:none" />
    </g>
  </g>
  <text
     transform="scale(1.00073,0.99927055)"
     id="text6"
     style="font-size:6.47687px;fill:#808080;stroke-width:0.999996"
     x="63.705448"
     y="54.159809">6</text>
  <text
     transform="scale(1.00073,0.99927055)"
     id="text8"
     style="font-size:6.47687px;fill:#808080;stroke-width:0.999996"
     x="53.687328"
     y="78.137581">7</text>
  <text
     xml:space="preserve"
     transform="matrix(0.81019943,0,0,0.8090179,25.467168,3.8456969)"
     id="text3221"
     style="font-style:normal;font-weight:normal;font-size:40px;line-height:1.25;font-family:sans-serif;white-space:pre;shape-inside:url(#rect3223);fill:#000000;fill-opacity:1;stroke:none;stroke-width:1.52563" />
</svg>
