<?xml version="1.0" encoding="UTF-8" standalone="no"?>
<!--
Copyright (C) 2009/2010/2011 Ulrich Apel.
This work is distributed under the conditions of the Creative Commons
Attribution-Share Alike 3.0 Licence. This means you are free:
* to Share - to copy, distribute and transmit the work
* to Remix - to adapt the work

Under the following conditions:
* Attribution. You must attribute the work by stating your use of KanjiVG in
  your own copyright header and linking to KanjiVG's website
  (http://kanjivg.tagaini.net)
* Share Alike. If you alter, transform, or build upon this work, you may
  distribute the resulting work only under the same or similar license to this
  one.

See http://creativecommons.org/licenses/by-sa/3.0/ for more details.
-->

<svg
   width="109"
   height="109"
   viewBox="0 0 109 109"
   version="1.1"
   id="svg20"
   sodipodi:docname="ジェ.svg"
   inkscape:version="1.1 (c68e22c387, 2021-05-23)"
   xmlns:inkscape="http://www.inkscape.org/namespaces/inkscape"
   xmlns:sodipodi="http://sodipodi.sourceforge.net/DTD/sodipodi-0.dtd"
   xmlns="http://www.w3.org/2000/svg"
   xmlns:svg="http://www.w3.org/2000/svg">
  <defs
     id="defs24" />
  <sodipodi:namedview
     id="namedview22"
     pagecolor="#ffffff"
     bordercolor="#666666"
     borderopacity="1.0"
     inkscape:pageshadow="2"
     inkscape:pageopacity="0.0"
     inkscape:pagecheckerboard="0"
     showgrid="false"
     inkscape:zoom="4.9562347"
     inkscape:cx="40.050565"
     inkscape:cy="71.021657"
     inkscape:window-width="2491"
     inkscape:window-height="1057"
     inkscape:window-x="61"
     inkscape:window-y="-8"
     inkscape:window-maximized="1"
     inkscape:current-layer="svg20" />
  <g
     id="kvg:StrokePaths_030b8"
     style="fill:none;stroke:#000000;stroke-width:3.72288888;stroke-linecap:round;stroke-linejoin:round;stroke-miterlimit:4;stroke-dasharray:none"
     transform="matrix(0.81348604,0,0,0.79823774,-11.122147,14.475444)">
    <g
       id="kvg:030b8"
       style="stroke-width:3.72288888;stroke-miterlimit:4;stroke-dasharray:none">
      <path
         id="kvg:030b8-s1"
         d="m 39.87,19.75 c 5.14,1.57 9.79,6.01 11.5,8.62"
         style="stroke-width:3.72288888;stroke-miterlimit:4;stroke-dasharray:none" />
      <path
         id="kvg:030b8-s2"
         d="m 26,42.62 c 3.25,0.88 10.25,5.5 12.25,8.13"
         style="stroke-width:3.72288888;stroke-miterlimit:4;stroke-dasharray:none" />
      <path
         id="kvg:030b8-s3"
         d="m 33,85 c 3.62,1.62 6.5,0.88 10.38,-1.38 C 61.19,73.28 75.75,59.75 89.5,40.75"
         style="stroke-width:3.72288888;stroke-miterlimit:4;stroke-dasharray:none" />
      <path
         id="kvg:030b8-s4"
         d="m 78.5,18.98 c 2.85,1.78 6.21,5.47 8.03,8.65"
         style="stroke-width:3.72288888;stroke-miterlimit:4;stroke-dasharray:none" />
      <path
         id="kvg:030b8-s5"
         d="m 85.25,14.38 c 2.93,1.57 6.39,4.83 8.25,7.63"
         style="stroke-width:3.72288888;stroke-miterlimit:4;stroke-dasharray:none" />
    </g>
  </g>
  <text
     id="text9"
     style="font-size:8px;fill:#808080"
     x="20.589005"
     y="25.692827">1</text>
  <text
     id="text11"
     style="font-size:8px;fill:#808080"
     x="7.543612"
     y="44.336807">2</text>
  <text
     id="text13"
     style="font-size:8px;fill:#808080"
     x="12.357846"
     y="78.470016">3</text>
  <text
     id="text15"
     style="font-size:8px;fill:#808080"
     x="44.736023"
     y="36.105133">4</text>
  <text
     id="text17"
     style="font-size:8px;fill:#808080"
     x="60.414921"
     y="21.701571">5</text>
  <g
     id="kvg:StrokePaths_030a7"
     style="fill:none;stroke:#000000;stroke-width:3.96906569;stroke-linecap:round;stroke-linejoin:round;stroke-miterlimit:4;stroke-dasharray:none"
     transform="matrix(0.74679455,0,0,0.76500592,36.939981,18.267092)">
    <g
       id="kvg:030a7"
       style="stroke-width:3.96906569;stroke-miterlimit:4;stroke-dasharray:none">
      <path
         id="kvg:030a7-s1"
         d="m 36.22,52.7 c 1.84,0.56 4.08,0.53 5.93,0.24 6.8,-1.08 17.77,-2.28 26.71,-3.07 1.8,-0.16 3.59,-0.15 5.37,0.18"
         style="stroke-width:3.96906569;stroke-miterlimit:4;stroke-dasharray:none" />
      <path
         id="kvg:030a7-s2"
         d="m 53.25,54.65 c 0.79,0.9 1.04,2.4 0.99,3.7 -0.14,3.79 -0.4,10.3 -0.65,17.78 -0.06,1.85 -0.12,3.25 -0.18,5.19"
         style="stroke-width:3.96906569;stroke-miterlimit:4;stroke-dasharray:none" />
      <path
         id="kvg:030a7-s3"
         d="m 26,84.03 c 2.71,0.7 6.01,0.65 8.73,0.29 14.11,-1.84 27.4,-2.86 40.12,-2.89 2.65,-0.01 5.73,0.31 8.3,1.33"
         style="stroke-width:3.96906569;stroke-miterlimit:4;stroke-dasharray:none" />
    </g>
  </g>
  <text
     id="text7"
     style="font-size:8px;fill:#808080"
     x="64.97081"
     y="54.634304">6</text>
  <text
     id="text9-1"
     style="font-size:8px;fill:#808080"
     x="81.40564"
     y="67.642326">7</text>
  <text
     id="text11-2"
     style="font-size:8px;fill:#808080"
     x="52.529415"
     y="78.224426">8</text>
</svg>
