<?xml version="1.0" encoding="UTF-8" standalone="no"?>
<!--
Copyright (C) 2009/2010/2011 Ulrich Apel.
This work is distributed under the conditions of the Creative Commons
Attribution-Share Alike 3.0 Licence. This means you are free:
* to Share - to copy, distribute and transmit the work
* to Remix - to adapt the work

Under the following conditions:
* Attribution. You must attribute the work by stating your use of KanjiVG in
  your own copyright header and linking to KanjiVG's website
  (http://kanjivg.tagaini.net)
* Share Alike. If you alter, transform, or build upon this work, you may
  distribute the resulting work only under the same or similar license to this
  one.

See http://creativecommons.org/licenses/by-sa/3.0/ for more details.
-->

<svg
   width="109"
   height="109"
   viewBox="0 0 109 109"
   version="1.1"
   id="svg20"
   sodipodi:docname="ジョ.svg"
   inkscape:version="1.1 (c68e22c387, 2021-05-23)"
   xmlns:inkscape="http://www.inkscape.org/namespaces/inkscape"
   xmlns:sodipodi="http://sodipodi.sourceforge.net/DTD/sodipodi-0.dtd"
   xmlns="http://www.w3.org/2000/svg"
   xmlns:svg="http://www.w3.org/2000/svg">
  <defs
     id="defs24" />
  <sodipodi:namedview
     id="namedview22"
     pagecolor="#ffffff"
     bordercolor="#666666"
     borderopacity="1.0"
     inkscape:pageshadow="2"
     inkscape:pageopacity="0.0"
     inkscape:pagecheckerboard="0"
     showgrid="false"
     inkscape:zoom="4.9562347"
     inkscape:cx="-4.3379705"
     inkscape:cy="69.205762"
     inkscape:window-width="2491"
     inkscape:window-height="1057"
     inkscape:window-x="61"
     inkscape:window-y="-8"
     inkscape:window-maximized="1"
     inkscape:current-layer="svg20" />
  <g
     id="kvg:StrokePaths_030b8"
     style="fill:none;stroke:#000000;stroke-width:3.51592429;stroke-linecap:round;stroke-linejoin:round;stroke-miterlimit:4;stroke-dasharray:none"
     transform="matrix(0.85816521,0,0,0.84838421,-12.295066,11.978306)">
    <g
       id="kvg:030b8"
       style="stroke-width:3.51592429;stroke-miterlimit:4;stroke-dasharray:none">
      <path
         id="kvg:030b8-s1"
         d="m 39.87,19.75 c 5.14,1.57 9.79,6.01 11.5,8.62"
         style="stroke-width:3.51592429;stroke-miterlimit:4;stroke-dasharray:none" />
      <path
         id="kvg:030b8-s2"
         d="m 26,42.62 c 3.25,0.88 10.25,5.5 12.25,8.13"
         style="stroke-width:3.51592429;stroke-miterlimit:4;stroke-dasharray:none" />
      <path
         id="kvg:030b8-s3"
         d="m 33,85 c 3.62,1.62 6.5,0.88 10.38,-1.38 C 61.19,73.28 75.75,59.75 89.5,40.75"
         style="stroke-width:3.51592429;stroke-miterlimit:4;stroke-dasharray:none" />
      <path
         id="kvg:030b8-s4"
         d="m 78.5,18.98 c 2.85,1.78 6.21,5.47 8.03,8.65"
         style="stroke-width:3.51592429;stroke-miterlimit:4;stroke-dasharray:none" />
      <path
         id="kvg:030b8-s5"
         d="m 85.25,14.38 c 2.93,1.57 6.39,4.83 8.25,7.63"
         style="stroke-width:3.51592429;stroke-miterlimit:4;stroke-dasharray:none" />
    </g>
  </g>
  <text
     id="text9"
     style="font-size:7.62899px;fill:#808080;stroke-width:0.999998"
     x="19.034662"
     y="24.426405">1</text>
  <text
     id="text11"
     style="font-size:7.62899px;fill:#808080;stroke-width:0.999998"
     x="7.5503635"
     y="43.759697">2</text>
  <text
     id="text13"
     style="font-size:7.62899px;fill:#808080;stroke-width:0.999998"
     x="13.37789"
     y="79.659279">3</text>
  <text
     id="text15"
     style="font-size:7.62899px;fill:#808080;stroke-width:0.999998"
     x="47.007923"
     y="31.148849">4</text>
  <text
     id="text17"
     style="font-size:7.62899px;fill:#808080;stroke-width:0.999998"
     x="58.493553"
     y="20.102894">5</text>
  <g
     id="kvg:StrokePaths_030e7"
     style="fill:none;stroke:#000000;stroke-width:4.52575677;stroke-linecap:round;stroke-linejoin:round;stroke-miterlimit:4;stroke-dasharray:none"
     transform="matrix(0.66536282,0,0,0.66039163,47.855613,24.591475)">
    <g
       id="kvg:030e7"
       style="stroke-width:4.52575677;stroke-miterlimit:4;stroke-dasharray:none">
      <path
         id="kvg:030e7-s1"
         d="m 33.5,50.62 c 1.9,1.21 4.09,1.6 7.39,1.21 11.19,-1.32 21.35,-2.46 29.07,-3.44 4.79,-0.61 5.49,0.4 5.2,5.16 -0.79,12.56 -1.5,24.79 -2.4,34.21"
         style="stroke-width:4.52575677;stroke-miterlimit:4;stroke-dasharray:none" />
      <path
         id="kvg:030e7-s2"
         d="m 33.6,69.04 c 1.9,1.21 4.09,1.6 7.39,1.21 8.39,-0.99 18.23,-1.85 24.86,-2.47 2.21,-0.2 4.21,0.04 6.21,0.44"
         style="stroke-width:4.52575677;stroke-miterlimit:4;stroke-dasharray:none" />
      <path
         id="kvg:030e7-s3"
         d="m 29,90.06 c 2.2,1.05 3.79,1.36 7.29,1.05 9.99,-0.88 23.47,-2.35 33.07,-2.35 2.7,0 4.49,0 7.49,0.44"
         style="stroke-width:4.52575677;stroke-miterlimit:4;stroke-dasharray:none" />
    </g>
  </g>
  <text
     id="text7"
     style="font-size:5.88879px;fill:#808080;stroke-width:0.999998"
     x="68.478622"
     y="54.001343"
     transform="scale(0.99970319,1.0002969)">6</text>
  <text
     id="text9-2"
     style="font-size:5.88879px;fill:#808080;stroke-width:0.999998"
     x="67.848656"
     y="66.391243"
     transform="scale(0.99970319,1.0002969)">7</text>
  <text
     id="text11-5"
     style="font-size:5.88879px;fill:#808080;stroke-width:0.999998"
     x="64.836777"
     y="80.289108"
     transform="scale(0.99970319,1.0002969)">8</text>
</svg>
