<?xml version="1.0" encoding="UTF-8" standalone="no"?>
<!--
Copyright (C) 2009/2010/2011 Ulrich Apel.
This work is distributed under the conditions of the Creative Commons
Attribution-Share Alike 3.0 Licence. This means you are free:
* to Share - to copy, distribute and transmit the work
* to Remix - to adapt the work

Under the following conditions:
* Attribution. You must attribute the work by stating your use of KanjiVG in
  your own copyright header and linking to KanjiVG's website
  (http://kanjivg.tagaini.net)
* Share Alike. If you alter, transform, or build upon this work, you may
  distribute the resulting work only under the same or similar license to this
  one.

See http://creativecommons.org/licenses/by-sa/3.0/ for more details.
-->

<svg
   width="109"
   height="109"
   viewBox="0 0 109 109"
   version="1.1"
   id="svg11"
   sodipodi:docname="スョ.svg"
   inkscape:version="1.1 (c68e22c387, 2021-05-23)"
   xmlns:inkscape="http://www.inkscape.org/namespaces/inkscape"
   xmlns:sodipodi="http://sodipodi.sourceforge.net/DTD/sodipodi-0.dtd"
   xmlns="http://www.w3.org/2000/svg"
   xmlns:svg="http://www.w3.org/2000/svg">
  <defs
     id="defs15" />
  <sodipodi:namedview
     id="namedview13"
     pagecolor="#ffffff"
     bordercolor="#666666"
     borderopacity="1.0"
     inkscape:pageshadow="2"
     inkscape:pageopacity="0.0"
     inkscape:pagecheckerboard="0"
     showgrid="false"
     inkscape:zoom="7.0091743"
     inkscape:cx="54.5"
     inkscape:cy="54.5"
     inkscape:window-width="2491"
     inkscape:window-height="1057"
     inkscape:window-x="61"
     inkscape:window-y="-8"
     inkscape:window-maximized="1"
     inkscape:current-layer="svg11" />
  <g
     id="kvg:StrokePaths_030b9"
     style="fill:none;stroke:#000000;stroke-width:3.72582825;stroke-linecap:round;stroke-linejoin:round;stroke-miterlimit:4;stroke-dasharray:none"
     transform="matrix(0.81298929,0,0,0.79746572,-7.0755682,10.942788)">
    <g
       id="kvg:030b9"
       style="stroke-width:3.72582825;stroke-miterlimit:4;stroke-dasharray:none">
      <path
         id="kvg:030b9-s1"
         d="m 30.13,29.38 c 1.75,1.5 4.15,1.98 6.62,1.38 C 50,27.51 61,25.14 68,23.38 c 7,-1.76 8.64,1.16 6.5,5.75 C 63.26,53.25 46.13,75 21,86.38"
         style="stroke-width:3.72582825;stroke-miterlimit:4;stroke-dasharray:none" />
      <path
         id="kvg:030b9-s2"
         d="m 61,57.25 c 11,7.38 21,17 28,28.62"
         style="stroke-width:3.72582825;stroke-miterlimit:4;stroke-dasharray:none" />
    </g>
  </g>
  <g
     id="kvg:StrokePaths_030e7"
     style="fill:none;stroke:#000000;stroke-width:5.38124237;stroke-linecap:round;stroke-linejoin:round;stroke-miterlimit:4;stroke-dasharray:none"
     transform="matrix(0.56333539,0,0,0.55170938,55.70808,29.511713)">
    <g
       id="kvg:030e7"
       style="stroke-width:5.38124237;stroke-miterlimit:4;stroke-dasharray:none">
      <path
         id="kvg:030e7-s1"
         d="m 33.5,50.62 c 1.9,1.21 4.09,1.6 7.39,1.21 11.19,-1.32 21.35,-2.46 29.07,-3.44 4.79,-0.61 5.49,0.4 5.2,5.16 -0.79,12.56 -1.5,24.79 -2.4,34.21"
         style="stroke-width:5.38124237;stroke-miterlimit:4;stroke-dasharray:none" />
      <path
         id="kvg:030e7-s2"
         d="m 33.6,69.04 c 1.9,1.21 4.09,1.6 7.39,1.21 8.39,-0.99 18.23,-1.85 24.86,-2.47 2.21,-0.2 4.21,0.04 6.21,0.44"
         style="stroke-width:5.38124237;stroke-miterlimit:4;stroke-dasharray:none" />
      <path
         id="kvg:030e7-s3"
         d="m 29,90.06 c 2.2,1.05 3.79,1.36 7.29,1.05 9.99,-0.88 23.47,-2.35 33.07,-2.35 2.7,0 4.49,0 7.49,0.44"
         style="stroke-width:5.38124237;stroke-miterlimit:4;stroke-dasharray:none" />
    </g>
  </g>
  <text
     id="text7"
     style="font-size:8px;fill:#808080"
     x="69.874016"
     y="53.742725">3</text>
  <text
     id="text9"
     style="font-size:8px;fill:#808080"
     x="67.887993"
     y="65.501884">4</text>
  <text
     id="text11"
     style="font-size:8px;fill:#808080"
     x="66.814697"
     y="75.761047">5</text>
  <text
     id="text6"
     style="font-size:8px;fill:#808080"
     x="14.78445"
     y="29.462042">1</text>
  <text
     id="text8"
     style="font-size:8px;fill:#808080"
     x="48.924923"
     y="55.60733">2</text>
</svg>
