<?xml version="1.0" encoding="UTF-8" standalone="no"?>
<!--
Copyright (C) 2009/2010/2011 Ulrich Apel.
This work is distributed under the conditions of the Creative Commons
Attribution-Share Alike 3.0 Licence. This means you are free:
* to Share - to copy, distribute and transmit the work
* to Remix - to adapt the work

Under the following conditions:
* Attribution. You must attribute the work by stating your use of KanjiVG in
  your own copyright header and linking to KanjiVG's website
  (http://kanjivg.tagaini.net)
* Share Alike. If you alter, transform, or build upon this work, you may
  distribute the resulting work only under the same or similar license to this
  one.

See http://creativecommons.org/licenses/by-sa/3.0/ for more details.
-->

<svg
   width="109"
   height="109"
   viewBox="0 0 109 109"
   version="1.1"
   id="svg17"
   sodipodi:docname="ズェ.svg"
   inkscape:version="1.1 (c68e22c387, 2021-05-23)"
   xmlns:inkscape="http://www.inkscape.org/namespaces/inkscape"
   xmlns:sodipodi="http://sodipodi.sourceforge.net/DTD/sodipodi-0.dtd"
   xmlns="http://www.w3.org/2000/svg"
   xmlns:svg="http://www.w3.org/2000/svg">
  <defs
     id="defs21" />
  <sodipodi:namedview
     id="namedview19"
     pagecolor="#ffffff"
     bordercolor="#666666"
     borderopacity="1.0"
     inkscape:pageshadow="2"
     inkscape:pageopacity="0.0"
     inkscape:pagecheckerboard="0"
     showgrid="false"
     inkscape:zoom="7.0091743"
     inkscape:cx="52.716623"
     inkscape:cy="54.5"
     inkscape:window-width="2491"
     inkscape:window-height="1057"
     inkscape:window-x="61"
     inkscape:window-y="-8"
     inkscape:window-maximized="1"
     inkscape:current-layer="svg17" />
  <g
     id="kvg:StrokePaths_030ba"
     style="fill:none;stroke:#000000;stroke-width:4.59399832;stroke-linecap:round;stroke-linejoin:round;stroke-miterlimit:4;stroke-dasharray:none"
     transform="matrix(0.66098391,0,0,0.64516375,-3.8818832,22.880181)">
    <g
       id="kvg:030ba"
       style="stroke-width:4.59399832;stroke-miterlimit:4;stroke-dasharray:none">
      <path
         id="kvg:030ba-s1"
         d="m 30.13,29.38 c 1.75,1.5 4.15,1.98 6.62,1.38 C 50,27.51 61,25.14 68,23.38 c 7,-1.76 8.64,1.16 6.5,5.75 C 63.26,53.25 46.13,75 21,86.38"
         style="stroke-width:4.59399832;stroke-miterlimit:4;stroke-dasharray:none" />
      <path
         id="kvg:030ba-s2"
         d="m 61,57.25 c 11,7.38 21,17 28,28.62"
         style="stroke-width:4.59399832;stroke-miterlimit:4;stroke-dasharray:none" />
      <path
         id="kvg:030ba-s3"
         d="m 85.38,16.5 c 2.75,1.75 6,5.38 7.75,8.5"
         style="stroke-width:4.59399832;stroke-miterlimit:4;stroke-dasharray:none" />
      <path
         id="kvg:030ba-s4"
         d="m 93.270916,8.9663452 c 3.06,1.5699998 6.68,4.8199998 8.620004,7.6199998"
         style="stroke-width:4.59399832;stroke-miterlimit:4;stroke-dasharray:none" />
    </g>
  </g>
  <text
     id="text8"
     style="font-size:8px;fill:#808080"
     x="13.072408"
     y="37.594242">1</text>
  <text
     id="text10"
     style="font-size:8px;fill:#808080"
     x="42.219425"
     y="59.316753">2</text>
  <text
     id="text12"
     style="font-size:8px;fill:#808080"
     x="44.375187"
     y="32.620419">3</text>
  <text
     id="text14"
     style="font-size:8px;fill:#808080"
     x="54.061935"
     y="24.647017">4</text>
  <g
     id="kvg:StrokePaths_030a7"
     style="fill:none;stroke:#000000;stroke-width:4.59661978;stroke-linecap:round;stroke-linejoin:round;stroke-miterlimit:4;stroke-dasharray:none"
     transform="matrix(0.65690497,0,0,0.64842955,44.39659,23.752089)">
    <g
       id="kvg:030a7"
       style="stroke-width:4.59661978;stroke-miterlimit:4;stroke-dasharray:none">
      <path
         id="kvg:030a7-s1"
         d="m 36.22,52.7 c 1.84,0.56 4.08,0.53 5.93,0.24 6.8,-1.08 17.77,-2.28 26.71,-3.07 1.8,-0.16 3.59,-0.15 5.37,0.18"
         style="stroke-width:4.59661978;stroke-miterlimit:4;stroke-dasharray:none" />
      <path
         id="kvg:030a7-s2"
         d="m 53.25,54.65 c 0.79,0.9 1.04,2.4 0.99,3.7 -0.14,3.79 -0.4,10.3 -0.65,17.78 -0.06,1.85 -0.12,3.25 -0.18,5.19"
         style="stroke-width:4.59661978;stroke-miterlimit:4;stroke-dasharray:none" />
      <path
         id="kvg:030a7-s3"
         d="m 26,84.03 c 2.71,0.7 6.01,0.65 8.73,0.29 14.11,-1.84 27.4,-2.86 40.12,-2.89 2.65,-0.01 5.73,0.31 8.3,1.33"
         style="stroke-width:4.59661978;stroke-miterlimit:4;stroke-dasharray:none" />
    </g>
  </g>
  <text
     id="text7"
     style="font-size:8px;fill:#808080"
     x="65.058067"
     y="53.562473">5</text>
  <text
     id="text9"
     style="font-size:8px;fill:#808080"
     x="83.497437"
     y="66.107864">6</text>
  <text
     id="text11"
     style="font-size:8px;fill:#808080"
     x="58.768799"
     y="74.072945">7</text>
</svg>
