<?xml version="1.0" encoding="UTF-8" standalone="no"?>
<!--
Copyright (C) 2009/2010/2011 Ulrich Apel.
This work is distributed under the conditions of the Creative Commons
Attribution-Share Alike 3.0 Licence. This means you are free:
* to Share - to copy, distribute and transmit the work
* to Remix - to adapt the work

Under the following conditions:
* Attribution. You must attribute the work by stating your use of KanjiVG in
  your own copyright header and linking to KanjiVG's website
  (http://kanjivg.tagaini.net)
* Share Alike. If you alter, transform, or build upon this work, you may
  distribute the resulting work only under the same or similar license to this
  one.

See http://creativecommons.org/licenses/by-sa/3.0/ for more details.
-->

<svg
   width="109"
   height="109"
   viewBox="0 0 109 109"
   version="1.1"
   id="svg17"
   sodipodi:docname="ズャ.svg"
   inkscape:version="1.1 (c68e22c387, 2021-05-23)"
   xmlns:inkscape="http://www.inkscape.org/namespaces/inkscape"
   xmlns:sodipodi="http://sodipodi.sourceforge.net/DTD/sodipodi-0.dtd"
   xmlns="http://www.w3.org/2000/svg"
   xmlns:svg="http://www.w3.org/2000/svg">
  <defs
     id="defs21" />
  <sodipodi:namedview
     id="namedview19"
     pagecolor="#ffffff"
     bordercolor="#666666"
     borderopacity="1.0"
     inkscape:pageshadow="2"
     inkscape:pageopacity="0.0"
     inkscape:pagecheckerboard="0"
     showgrid="false"
     inkscape:zoom="7.0091743"
     inkscape:cx="52.716623"
     inkscape:cy="54.5"
     inkscape:window-width="2491"
     inkscape:window-height="1057"
     inkscape:window-x="61"
     inkscape:window-y="-8"
     inkscape:window-maximized="1"
     inkscape:current-layer="svg17" />
  <g
     id="kvg:030ba"
     style="fill:none;stroke:#000000;stroke-width:3.59263919;stroke-linecap:round;stroke-linejoin:round;stroke-miterlimit:4;stroke-dasharray:none"
     transform="matrix(0.83848519,0,0,0.83161039,-7.6096406,13.750882)">
    <path
       id="kvg:030ba-s1"
       d="m 30.13,29.38 c 1.75,1.5 4.15,1.98 6.62,1.38 C 50,27.51 61,25.14 68,23.38 c 7,-1.76 8.64,1.16 6.5,5.75 C 63.26,53.25 46.13,75 21,86.38"
       style="stroke-width:3.59263919;stroke-miterlimit:4;stroke-dasharray:none" />
    <path
       id="kvg:030ba-s2"
       d="m 61,57.25 c 11,7.38 21,17 28,28.62"
       style="stroke-width:3.59263919;stroke-miterlimit:4;stroke-dasharray:none" />
    <path
       id="kvg:030ba-s3"
       d="m 85.38,16.5 c 2.75,1.75 6,5.38 7.75,8.5"
       style="stroke-width:3.59263919;stroke-miterlimit:4;stroke-dasharray:none" />
    <path
       id="kvg:030ba-s4"
       d="m 91.76,11.62 c 3.06,1.57 6.68,4.82 8.62,7.62"
       style="stroke-width:3.59263919;stroke-miterlimit:4;stroke-dasharray:none" />
  </g>
  <text
     id="text8"
     style="font-size:8px;fill:#808080"
     x="14.78445"
     y="33.171467">1</text>
  <text
     id="text10"
     style="font-size:8px;fill:#808080"
     x="49.780945"
     y="61.028797">2</text>
  <text
     id="text12"
     style="font-size:8px;fill:#808080"
     x="54.504768"
     y="28.340315">3</text>
  <text
     id="text14"
     style="font-size:8px;fill:#808080"
     x="67.90094"
     y="18.94021">4</text>
  <g
     id="kvg:StrokePaths_030e3"
     style="fill:none;stroke:#000000;stroke-width:5.91792969;stroke-linecap:round;stroke-linejoin:round;stroke-miterlimit:4;stroke-dasharray:none"
     transform="matrix(0.50881763,0,0,0.50505742,58.67785,38.553631)">
    <g
       id="kvg:030e3"
       style="stroke-width:5.91792969;stroke-miterlimit:4;stroke-dasharray:none">
      <path
         id="kvg:030e3-s1"
         d="m 25,56.25 c 1.67,1.28 4.84,1.85 7.96,1.08 14.85,-3.64 26.27,-6.16 38.45,-9.34 17.31,-4.52 1.18,11.21 -2.16,15.73"
         style="stroke-width:5.91792969;stroke-miterlimit:4;stroke-dasharray:none" />
      <path
         id="kvg:030e3-s2"
         d="m 41.1,35.5 c 1.3,1.1 2,2.1 2.5,4.1 0.5,2 9.4,41.62 9.9,43.72 0.5,2.1 1.7,7.2 2.4,9.8"
         style="stroke-width:5.91792969;stroke-miterlimit:4;stroke-dasharray:none" />
    </g>
  </g>
  <text
     id="text6"
     style="font-size:8px;fill:#808080"
     x="66.043793"
     y="63.104469">5</text>
  <text
     id="text8-7"
     style="font-size:8px;fill:#808080"
     x="81.754532"
     y="53.489277">6</text>
</svg>
