<?xml version="1.0" encoding="UTF-8" standalone="no"?>
<!--
Copyright (C) 2009/2010/2011 Ulrich Apel.
This work is distributed under the conditions of the Creative Commons
Attribution-Share Alike 3.0 Licence. This means you are free:
* to Share - to copy, distribute and transmit the work
* to Remix - to adapt the work

Under the following conditions:
* Attribution. You must attribute the work by stating your use of KanjiVG in
  your own copyright header and linking to KanjiVG's website
  (http://kanjivg.tagaini.net)
* Share Alike. If you alter, transform, or build upon this work, you may
  distribute the resulting work only under the same or similar license to this
  one.

See http://creativecommons.org/licenses/by-sa/3.0/ for more details.
-->

<svg
   width="109"
   height="109"
   viewBox="0 0 109 109"
   version="1.1"
   id="svg17"
   sodipodi:docname="ズァ.svg"
   inkscape:version="1.1 (c68e22c387, 2021-05-23)"
   xmlns:inkscape="http://www.inkscape.org/namespaces/inkscape"
   xmlns:sodipodi="http://sodipodi.sourceforge.net/DTD/sodipodi-0.dtd"
   xmlns="http://www.w3.org/2000/svg"
   xmlns:svg="http://www.w3.org/2000/svg">
  <defs
     id="defs21" />
  <sodipodi:namedview
     id="namedview19"
     pagecolor="#ffffff"
     bordercolor="#666666"
     borderopacity="1.0"
     inkscape:pageshadow="2"
     inkscape:pageopacity="0.0"
     inkscape:pagecheckerboard="0"
     showgrid="false"
     inkscape:zoom="7.0091743"
     inkscape:cx="52.716623"
     inkscape:cy="54.5"
     inkscape:window-width="2491"
     inkscape:window-height="1057"
     inkscape:window-x="61"
     inkscape:window-y="-8"
     inkscape:window-maximized="1"
     inkscape:current-layer="svg17" />
  <g
     id="kvg:StrokePaths_030ba"
     style="fill:none;stroke:#000000;stroke-width:3.5078153;stroke-linecap:round;stroke-linejoin:round;stroke-miterlimit:4;stroke-dasharray:none"
     transform="matrix(0.85829875,0,0,0.85217854,-8.0255467,12.742824)">
    <g
       id="kvg:030ba"
       style="stroke-width:3.5078153;stroke-miterlimit:4;stroke-dasharray:none">
      <path
         id="kvg:030ba-s1"
         d="m 30.13,29.38 c 1.75,1.5 4.15,1.98 6.62,1.38 C 50,27.51 61,25.14 68,23.38 c 7,-1.76 8.64,1.16 6.5,5.75 C 63.26,53.25 46.13,75 21,86.38"
         style="stroke-width:3.5078153;stroke-miterlimit:4;stroke-dasharray:none" />
      <path
         id="kvg:030ba-s2"
         d="m 61,57.25 c 11,7.38 21,17 28,28.62"
         style="stroke-width:3.5078153;stroke-miterlimit:4;stroke-dasharray:none" />
      <path
         id="kvg:030ba-s3"
         d="m 85.38,16.5 c 2.75,1.75 6,5.38 7.75,8.5"
         style="stroke-width:3.5078153;stroke-miterlimit:4;stroke-dasharray:none" />
      <path
         id="kvg:030ba-s4"
         d="m 91.76,11.62 c 3.06,1.57 6.68,4.82 8.62,7.62"
         style="stroke-width:3.5078153;stroke-miterlimit:4;stroke-dasharray:none" />
    </g>
  </g>
  <text
     id="text8"
     style="font-size:8px;fill:#808080"
     x="14.49911"
     y="33.314137">1</text>
  <text
     id="text10"
     style="font-size:8px;fill:#808080"
     x="50.066284"
     y="60.886124">2</text>
  <text
     id="text12"
     style="font-size:8px;fill:#808080"
     x="56.359478"
     y="27.769634">3</text>
  <text
     id="text14"
     style="font-size:8px;fill:#808080"
     x="67.75827"
     y="17.941519">4</text>
  <g
     id="kvg:StrokePaths_030a1"
     style="fill:none;stroke:#000000;stroke-width:5.7073274;stroke-linecap:round;stroke-linejoin:round;stroke-miterlimit:4;stroke-dasharray:none"
     transform="matrix(0.52705901,0,0,0.52422496,58.252054,37.137971)">
    <g
       id="kvg:030a1"
       style="stroke-width:5.7073274;stroke-miterlimit:4;stroke-dasharray:none">
      <path
         id="kvg:030a1-s1"
         d="m 28,42.54 c 1.91,1.22 3.16,1.13 6.74,0.59 9.03,-1.37 29.93,-5.05 38.25,-6.06 4.14,-0.5 6.33,2.36 2.08,5.47 -5.35,3.91 -10.4,7.43 -18.42,12.52"
         style="stroke-width:5.7073274;stroke-miterlimit:4;stroke-dasharray:none" />
      <path
         id="kvg:030a1-s2"
         d="m 51.55,54.18 c 0.62,1.17 0.8,2.53 0.45,4.13 -3.16,14.45 -7.75,24.91 -15.58,35.57"
         style="stroke-width:5.7073274;stroke-miterlimit:4;stroke-dasharray:none" />
    </g>
  </g>
  <text
     id="text6"
     style="font-size:8px;fill:#808080"
     x="70.30603"
     y="55.138142">5</text>
  <text
     id="text8-1"
     style="font-size:8px;fill:#808080"
     x="76.691734"
     y="69.140755">6</text>
</svg>
