<?xml version="1.0" encoding="UTF-8" standalone="no"?>
<!--
Copyright (C) 2009/2010/2011 Ulrich Apel.
This work is distributed under the conditions of the Creative Commons
Attribution-Share Alike 3.0 Licence. This means you are free:
* to Share - to copy, distribute and transmit the work
* to Remix - to adapt the work

Under the following conditions:
* Attribution. You must attribute the work by stating your use of KanjiVG in
  your own copyright header and linking to KanjiVG's website
  (http://kanjivg.tagaini.net)
* Share Alike. If you alter, transform, or build upon this work, you may
  distribute the resulting work only under the same or similar license to this
  one.

See http://creativecommons.org/licenses/by-sa/3.0/ for more details.
-->

<svg
   width="109"
   height="109"
   viewBox="0 0 109 109"
   version="1.1"
   id="svg17"
   sodipodi:docname="ズォ.svg"
   inkscape:version="1.1 (c68e22c387, 2021-05-23)"
   xmlns:inkscape="http://www.inkscape.org/namespaces/inkscape"
   xmlns:sodipodi="http://sodipodi.sourceforge.net/DTD/sodipodi-0.dtd"
   xmlns="http://www.w3.org/2000/svg"
   xmlns:svg="http://www.w3.org/2000/svg">
  <defs
     id="defs21" />
  <sodipodi:namedview
     id="namedview19"
     pagecolor="#ffffff"
     bordercolor="#666666"
     borderopacity="1.0"
     inkscape:pageshadow="2"
     inkscape:pageopacity="0.0"
     inkscape:pagecheckerboard="0"
     showgrid="false"
     inkscape:zoom="7.0091743"
     inkscape:cx="52.716623"
     inkscape:cy="54.5"
     inkscape:window-width="2491"
     inkscape:window-height="1057"
     inkscape:window-x="61"
     inkscape:window-y="-8"
     inkscape:window-maximized="1"
     inkscape:current-layer="svg17" />
  <g
     id="kvg:StrokePaths_030ba"
     style="fill:none;stroke:#000000;stroke-width:3.53686313;stroke-linecap:round;stroke-linejoin:round;stroke-miterlimit:4;stroke-dasharray:none"
     transform="matrix(0.85130711,0,0,0.84512265,-7.878769,13.08899)">
    <g
       id="kvg:030ba"
       style="stroke-width:3.53686313;stroke-miterlimit:4;stroke-dasharray:none">
      <path
         id="kvg:030ba-s1"
         d="m 30.13,29.38 c 1.75,1.5 4.15,1.98 6.62,1.38 C 50,27.51 61,25.14 68,23.38 c 7,-1.76 8.64,1.16 6.5,5.75 C 63.26,53.25 46.13,75 21,86.38"
         style="stroke-width:3.53686313;stroke-miterlimit:4;stroke-dasharray:none" />
      <path
         id="kvg:030ba-s2"
         d="m 61,57.25 c 11,7.38 21,17 28,28.62"
         style="stroke-width:3.53686313;stroke-miterlimit:4;stroke-dasharray:none" />
      <path
         id="kvg:030ba-s3"
         d="m 85.38,16.5 c 2.75,1.75 6,5.38 7.75,8.5"
         style="stroke-width:3.53686313;stroke-miterlimit:4;stroke-dasharray:none" />
      <path
         id="kvg:030ba-s4"
         d="m 91.76,11.62 c 3.06,1.57 6.68,4.82 8.62,7.62"
         style="stroke-width:3.53686313;stroke-miterlimit:4;stroke-dasharray:none" />
    </g>
  </g>
  <g
     id="kvg:StrokePaths_030a9"
     style="fill:none;stroke:#000000;stroke-width:6.11006204;stroke-linecap:round;stroke-linejoin:round;stroke-miterlimit:4;stroke-dasharray:none"
     transform="matrix(0.49249594,0,0,0.4894954,58.012666,40.082893)">
    <g
       id="kvg:030a9"
       style="stroke-width:6.11006204;stroke-miterlimit:4;stroke-dasharray:none">
      <path
         id="kvg:030a9-s1"
         d="m 26,50.69 c 3.11,1.49 6,1.3 8.75,0.86 14.32,-2.3 27.34,-3.76 40.17,-4.53 2.65,-0.16 5.05,0.14 8.31,1.15"
         style="stroke-width:6.11006204;stroke-miterlimit:4;stroke-dasharray:none" />
      <path
         id="kvg:030a9-s2"
         d="m 58.49,33.57 c 1.05,1.18 1.31,3.16 1.31,4.86 0,6.36 -0.2,36.73 -0.2,46.58 0,16.19 -4.67,5.96 -7.35,4.37"
         style="stroke-width:6.11006204;stroke-miterlimit:4;stroke-dasharray:none" />
      <path
         id="kvg:030a9-s3"
         d="m 58.41,49.45 c 0,1.29 -1.31,2.87 -2.88,4.77 -6.26,7.55 -16.79,18.08 -27.51,26.22"
         style="stroke-width:6.11006204;stroke-miterlimit:4;stroke-dasharray:none" />
    </g>
  </g>
  <text
     id="text7"
     style="font-size:8px;fill:#808080"
     x="67.223373"
     y="60.515537">5</text>
  <text
     id="text9"
     style="font-size:8px;fill:#808080"
     x="89.395256"
     y="53.435696">6</text>
  <text
     id="text11"
     style="font-size:8px;fill:#808080"
     x="91.010017"
     y="73.120247">7</text>
  <text
     id="text8"
     style="font-size:8px;fill:#808080"
     x="14.78445"
     y="32.600784">1</text>
  <text
     id="text10"
     style="font-size:8px;fill:#808080"
     x="49.638275"
     y="61.028797">2</text>
  <text
     id="text12"
     style="font-size:8px;fill:#808080"
     x="55.931469"
     y="27.769634">3</text>
  <text
     id="text14"
     style="font-size:8px;fill:#808080"
     x="67.75827"
     y="18.084188">4</text>
</svg>
