<?xml version="1.0" encoding="UTF-8" standalone="no"?>
<!--
Copyright (C) 2009/2010/2011 Ulrich Apel.
This work is distributed under the conditions of the Creative Commons
Attribution-Share Alike 3.0 Licence. This means you are free:
* to Share - to copy, distribute and transmit the work
* to Remix - to adapt the work

Under the following conditions:
* Attribution. You must attribute the work by stating your use of KanjiVG in
  your own copyright header and linking to KanjiVG's website
  (http://kanjivg.tagaini.net)
* Share Alike. If you alter, transform, or build upon this work, you may
  distribute the resulting work only under the same or similar license to this
  one.

See http://creativecommons.org/licenses/by-sa/3.0/ for more details.
-->

<svg
   width="109"
   height="109"
   viewBox="0 0 109 109"
   version="1.1"
   id="svg14"
   sodipodi:docname="チェ.svg"
   inkscape:version="1.1 (c68e22c387, 2021-05-23)"
   xmlns:inkscape="http://www.inkscape.org/namespaces/inkscape"
   xmlns:sodipodi="http://sodipodi.sourceforge.net/DTD/sodipodi-0.dtd"
   xmlns="http://www.w3.org/2000/svg"
   xmlns:svg="http://www.w3.org/2000/svg">
  <defs
     id="defs18" />
  <sodipodi:namedview
     id="namedview16"
     pagecolor="#ffffff"
     bordercolor="#666666"
     borderopacity="1.0"
     inkscape:pageshadow="2"
     inkscape:pageopacity="0.0"
     inkscape:pagecheckerboard="0"
     showgrid="false"
     inkscape:zoom="7.0091743"
     inkscape:cx="50.861911"
     inkscape:cy="54.5"
     inkscape:window-width="2491"
     inkscape:window-height="1057"
     inkscape:window-x="61"
     inkscape:window-y="-8"
     inkscape:window-maximized="1"
     inkscape:current-layer="svg14" />
  <g
     id="kvg:StrokePaths_030c1"
     style="fill:none;stroke:#000000;stroke-width:4.36841173;stroke-linecap:round;stroke-linejoin:round;stroke-miterlimit:4;stroke-dasharray:none"
     transform="matrix(0.69491637,0,0,0.67867654,-2.820309,17.748657)">
    <g
       id="kvg:030c1"
       style="stroke-width:4.36841173;stroke-miterlimit:4;stroke-dasharray:none">
      <path
         id="kvg:030c1-s1"
         d="m 69.76,15.25 c -0.38,2.62 -2.01,4.37 -3.88,5.38 -7.88,4.25 -18.62,9.75 -35.5,13.25"
         style="stroke-width:4.36841173;stroke-miterlimit:4;stroke-dasharray:none" />
      <path
         id="kvg:030c1-s2"
         d="m 18.5,51.5 c 2.88,0.88 4.39,1.65 7.88,1.25 22,-2.5 36.38,-4.25 56.12,-4.88 4.88,-0.15 7.88,0.51 10.88,1.51"
         style="stroke-width:4.36841173;stroke-miterlimit:4;stroke-dasharray:none" />
      <path
         id="kvg:030c1-s3"
         d="m 54.88,30.75 c 0.88,0.75 1.75,2.49 1.75,4.75 0,6.03 0.03,11.25 0.03,18.27 0,14.98 -5.03,29.48 -16.53,39.23"
         style="stroke-width:4.36841173;stroke-miterlimit:4;stroke-dasharray:none" />
    </g>
  </g>
  <text
     id="text7"
     style="font-size:8px;fill:#808080"
     x="37.363403"
     y="26.897015">1</text>
  <text
     id="text9"
     style="font-size:8px;fill:#808080"
     x="7.067173"
     y="48.176704">2</text>
  <text
     id="text11"
     style="font-size:8px;fill:#808080"
     x="40.483822"
     y="42.908794">3</text>
  <g
     id="kvg:StrokePaths_030a7"
     style="fill:none;stroke:#000000;stroke-width:4.29281461;stroke-linecap:round;stroke-linejoin:round;stroke-miterlimit:4;stroke-dasharray:none"
     transform="matrix(0.69058401,0,0,0.70719914,41.613429,21.005359)">
    <g
       id="kvg:030a7"
       style="stroke-width:4.29281461;stroke-miterlimit:4;stroke-dasharray:none">
      <path
         id="kvg:030a7-s1"
         d="m 36.22,52.7 c 1.84,0.56 4.08,0.53 5.93,0.24 6.8,-1.08 17.77,-2.28 26.71,-3.07 1.8,-0.16 3.59,-0.15 5.37,0.18"
         style="stroke-width:4.29281461;stroke-miterlimit:4;stroke-dasharray:none" />
      <path
         id="kvg:030a7-s2"
         d="m 53.25,54.65 c 0.79,0.9 1.04,2.4 0.99,3.7 -0.14,3.79 -0.4,10.3 -0.65,17.78 -0.06,1.85 -0.12,3.25 -0.18,5.19"
         style="stroke-width:4.29281461;stroke-miterlimit:4;stroke-dasharray:none" />
      <path
         id="kvg:030a7-s3"
         d="m 26,84.03 c 2.71,0.7 6.01,0.65 8.73,0.29 14.11,-1.84 27.4,-2.86 40.12,-2.89 2.65,-0.01 5.73,0.31 8.3,1.33"
         style="stroke-width:4.29281461;stroke-miterlimit:4;stroke-dasharray:none" />
    </g>
  </g>
  <text
     id="text7-8"
     style="font-size:8px;fill:#808080"
     x="65.541489"
     y="54.348969">4</text>
  <text
     id="text9-5"
     style="font-size:8px;fill:#808080"
     x="82.98217"
     y="66.751686">5</text>
  <text
     id="text11-1"
     style="font-size:8px;fill:#808080"
     x="56.256157"
     y="76.57148">6</text>
</svg>
