<?xml version="1.0" encoding="UTF-8" standalone="no"?>
<!--
Copyright (C) 2009/2010/2011 Ulrich Apel.
This work is distributed under the conditions of the Creative Commons
Attribution-Share Alike 3.0 Licence. This means you are free:
* to Share - to copy, distribute and transmit the work
* to Remix - to adapt the work

Under the following conditions:
* Attribution. You must attribute the work by stating your use of KanjiVG in
  your own copyright header and linking to KanjiVG's website
  (http://kanjivg.tagaini.net)
* Share Alike. If you alter, transform, or build upon this work, you may
  distribute the resulting work only under the same or similar license to this
  one.

See http://creativecommons.org/licenses/by-sa/3.0/ for more details.
-->

<svg
   width="109"
   height="109"
   viewBox="0 0 109 109"
   version="1.1"
   id="svg20"
   sodipodi:docname="ヂャ.svg"
   inkscape:version="1.1 (c68e22c387, 2021-05-23)"
   xmlns:inkscape="http://www.inkscape.org/namespaces/inkscape"
   xmlns:sodipodi="http://sodipodi.sourceforge.net/DTD/sodipodi-0.dtd"
   xmlns="http://www.w3.org/2000/svg"
   xmlns:svg="http://www.w3.org/2000/svg">
  <defs
     id="defs24" />
  <sodipodi:namedview
     id="namedview22"
     pagecolor="#ffffff"
     bordercolor="#666666"
     borderopacity="1.0"
     inkscape:pageshadow="2"
     inkscape:pageopacity="0.0"
     inkscape:pagecheckerboard="0"
     showgrid="false"
     inkscape:zoom="7.0091743"
     inkscape:cx="50.861911"
     inkscape:cy="54.5"
     inkscape:window-width="2491"
     inkscape:window-height="1057"
     inkscape:window-x="61"
     inkscape:window-y="-8"
     inkscape:window-maximized="1"
     inkscape:current-layer="svg20" />
  <g
     id="kvg:StrokePaths_030c2"
     style="fill:none;stroke:#000000;stroke-width:3.70904458;stroke-linecap:round;stroke-linejoin:round;stroke-miterlimit:4;stroke-dasharray:none"
     transform="matrix(0.81445101,0,0,0.803255,-5.0465248,11.023738)">
    <g
       id="kvg:030c2"
       style="stroke-width:3.70904458;stroke-miterlimit:4;stroke-dasharray:none">
      <path
         id="kvg:030c2-s1"
         d="m 70,15.25 c -0.38,2.62 -2.26,4.37 -4.12,5.38 -7.88,4.25 -18.62,9.75 -35.5,13.25"
         style="stroke-width:3.70904458;stroke-miterlimit:4;stroke-dasharray:none" />
      <path
         id="kvg:030c2-s2"
         d="m 18.5,51.5 c 2.88,0.88 4.39,1.65 7.88,1.25 22,-2.5 36.38,-4.25 56.12,-4.88 4.88,-0.15 7.88,0.51 10.88,1.51"
         style="stroke-width:3.70904458;stroke-miterlimit:4;stroke-dasharray:none" />
      <path
         id="kvg:030c2-s3"
         d="m 54.88,30.75 c 0.88,0.75 1.75,2.49 1.75,4.75 0,6.03 0.03,11.25 0.03,18.27 0,14.98 -5.03,29.48 -16.53,39.23"
         style="stroke-width:3.70904458;stroke-miterlimit:4;stroke-dasharray:none" />
      <path
         id="kvg:030c2-s4"
         d="m 79.88,25.73 c 2.85,1.78 6.21,5.47 8.03,8.65"
         style="stroke-width:3.70904458;stroke-miterlimit:4;stroke-dasharray:none" />
      <path
         id="kvg:030c2-s5"
         d="m 86.63,21.12 c 2.93,1.57 6.39,4.83 8.25,7.63"
         style="stroke-width:3.70904458;stroke-miterlimit:4;stroke-dasharray:none" />
    </g>
  </g>
  <text
     id="text9"
     style="font-size:5.82131px;fill:#808080;stroke-width:0.999999"
     x="44.903294"
     y="21.856281"
     transform="scale(1.0022064,0.99779845)">1</text>
  <text
     id="text11"
     style="font-size:5.82131px;fill:#808080;stroke-width:0.999999"
     x="7.9600821"
     y="48.419395"
     transform="scale(1.0022064,0.99779845)">2</text>
  <text
     id="text13"
     style="font-size:5.82131px;fill:#808080;stroke-width:0.999999"
     x="44.779186"
     y="38.184906"
     transform="scale(1.0022064,0.99779845)">3</text>
  <text
     id="text15"
     style="font-size:5.82131px;fill:#808080;stroke-width:0.999999"
     x="52.566212"
     y="33.772732"
     transform="scale(1.0022064,0.99779845)">4</text>
  <text
     id="text17"
     style="font-size:5.82131px;fill:#808080;stroke-width:0.999999"
     x="63.813042"
     y="24.502333"
     transform="scale(1.0022064,0.99779845)">5</text>
  <g
     id="kvg:StrokePaths_030e3"
     style="fill:none;stroke:#000000;stroke-width:5.87232883;stroke-linecap:round;stroke-linejoin:round;stroke-miterlimit:4;stroke-dasharray:none"
     transform="matrix(0.51433476,0,0,0.50742972,58.217469,38.474272)">
    <g
       id="kvg:030e3"
       style="stroke-width:5.87232883;stroke-miterlimit:4;stroke-dasharray:none">
      <path
         id="kvg:030e3-s1"
         d="m 25,56.25 c 1.67,1.28 4.84,1.85 7.96,1.08 14.85,-3.64 26.27,-6.16 38.45,-9.34 17.31,-4.52 1.18,11.21 -2.16,15.73"
         style="stroke-width:5.87232883;stroke-miterlimit:4;stroke-dasharray:none" />
      <path
         id="kvg:030e3-s2"
         d="m 41.1,35.5 c 1.3,1.1 2,2.1 2.5,4.1 0.5,2 9.4,41.62 9.9,43.72 0.5,2.1 1.7,7.2 2.4,9.8"
         style="stroke-width:5.87232883;stroke-miterlimit:4;stroke-dasharray:none" />
    </g>
  </g>
  <text
     id="text6"
     style="font-size:5.82131px;fill:#808080;stroke-width:0.999999"
     x="66.500732"
     y="63.425686"
     transform="scale(1.0022064,0.99779845)">6</text>
  <text
     id="text8"
     style="font-size:5.82131px;fill:#808080;stroke-width:0.999999"
     x="82.541031"
     y="54.33905"
     transform="scale(1.0022064,0.99779845)">7</text>
</svg>
