<?xml version="1.0" encoding="UTF-8" standalone="no"?>
<!--
Copyright (C) 2009/2010/2011 Ulrich Apel.
This work is distributed under the conditions of the Creative Commons
Attribution-Share Alike 3.0 Licence. This means you are free:
* to Share - to copy, distribute and transmit the work
* to Remix - to adapt the work

Under the following conditions:
* Attribution. You must attribute the work by stating your use of KanjiVG in
  your own copyright header and linking to KanjiVG's website
  (http://kanjivg.tagaini.net)
* Share Alike. If you alter, transform, or build upon this work, you may
  distribute the resulting work only under the same or similar license to this
  one.

See http://creativecommons.org/licenses/by-sa/3.0/ for more details.
-->

<svg
   width="109"
   height="109"
   viewBox="0 0 109 109"
   version="1.1"
   id="svg14"
   sodipodi:docname="テュ.svg"
   inkscape:version="1.1 (c68e22c387, 2021-05-23)"
   xmlns:inkscape="http://www.inkscape.org/namespaces/inkscape"
   xmlns:sodipodi="http://sodipodi.sourceforge.net/DTD/sodipodi-0.dtd"
   xmlns="http://www.w3.org/2000/svg"
   xmlns:svg="http://www.w3.org/2000/svg">
  <defs
     id="defs18" />
  <sodipodi:namedview
     id="namedview16"
     pagecolor="#ffffff"
     bordercolor="#666666"
     borderopacity="1.0"
     inkscape:pageshadow="2"
     inkscape:pageopacity="0.0"
     inkscape:pagecheckerboard="0"
     showgrid="false"
     inkscape:zoom="7.0091743"
     inkscape:cx="54.5"
     inkscape:cy="54.5"
     inkscape:window-width="2491"
     inkscape:window-height="1057"
     inkscape:window-x="61"
     inkscape:window-y="-8"
     inkscape:window-maximized="1"
     inkscape:current-layer="svg14" />
  <g
     id="kvg:StrokePaths_030c6"
     style="fill:none;stroke:#000000;stroke-width:3.79014087;stroke-linecap:round;stroke-linejoin:round;stroke-miterlimit:4;stroke-dasharray:none"
     transform="matrix(0.79739408,0,0,0.7857037,-5.9484627,11.836162)">
    <g
       id="kvg:030c6"
       style="stroke-width:3.79014087;stroke-miterlimit:4;stroke-dasharray:none">
      <path
         id="kvg:030c6-s1"
         d="m 36.5,21.5 c 2.12,1.25 4.38,1.59 7.25,1.25 C 54.37,21.5 60.63,20.5 68.37,19.5 72.1,19.02 74,19 76.5,19.25"
         style="stroke-width:3.79014087;stroke-miterlimit:4;stroke-dasharray:none" />
      <path
         id="kvg:030c6-s2"
         d="m 20,44.12 c 2.88,1 5.26,1.05 7.5,0.75 22.38,-3 37,-5.62 54.13,-6.12 5.62,-0.16 7.75,0 10.38,0.62"
         style="stroke-width:3.79014087;stroke-miterlimit:4;stroke-dasharray:none" />
      <path
         id="kvg:030c6-s3"
         d="m 58,43.25 c 0.88,1 1.32,2.63 1.12,4.38 C 57.38,63 47.5,82.62 34.5,89.5"
         style="stroke-width:3.79014087;stroke-miterlimit:4;stroke-dasharray:none" />
    </g>
  </g>
  <text
     id="text7"
     style="font-size:8px;fill:#808080"
     x="20.391779"
     y="24.100786">1</text>
  <text
     id="text9"
     style="font-size:8px;fill:#808080"
     x="7.5344496"
     y="41.604713">2</text>
  <text
     id="text11"
     style="font-size:8px;fill:#808080"
     x="44.815865"
     y="53.446754">3</text>
  <g
     id="kvg:StrokePaths_030e5"
     style="fill:none;stroke:#000000;stroke-width:4.2501828;stroke-linecap:round;stroke-linejoin:round;stroke-miterlimit:4;stroke-dasharray:none"
     transform="matrix(0.70814348,0,0,0.70356792,39.309498,20.525881)">
    <g
       id="kvg:030e5"
       style="stroke-width:4.2501828;stroke-miterlimit:4;stroke-dasharray:none">
      <path
         id="kvg:030e5-s1"
         d="m 34.8,52.84 c 1.91,1.21 4.13,1.67 7.44,1.21 10.65,-1.51 13.99,-1.68 21.71,-2.97 5.43,-0.9 6.26,0.13 5.23,5.12 -1.91,9.25 -3.92,19.45 -5.23,27.49"
         style="stroke-width:4.2501828;stroke-miterlimit:4;stroke-dasharray:none" />
      <path
         id="kvg:030e5-s2"
         d="m 24.5,86.21 c 2.21,1.21 3.84,1.73 7.34,1.21 18.54,-2.79 28.95,-3.12 43.52,-3.12 3.02,0 5.93,0.4 8.95,0.9"
         style="stroke-width:4.2501828;stroke-miterlimit:4;stroke-dasharray:none" />
    </g>
  </g>
  <text
     id="text6"
     style="font-size:8px;fill:#808080"
     x="62.063927"
     y="53.312893">4</text>
  <text
     id="text8"
     style="font-size:8px;fill:#808080"
     x="54.705292"
     y="76.988708">5</text>
</svg>
