<?xml version="1.0" encoding="UTF-8" standalone="no"?>
<!--
Copyright (C) 2009/2010/2011 Ulrich Apel.
This work is distributed under the conditions of the Creative Commons
Attribution-Share Alike 3.0 Licence. This means you are free:
* to Share - to copy, distribute and transmit the work
* to Remix - to adapt the work

Under the following conditions:
* Attribution. You must attribute the work by stating your use of KanjiVG in
  your own copyright header and linking to KanjiVG's website
  (http://kanjivg.tagaini.net)
* Share Alike. If you alter, transform, or build upon this work, you may
  distribute the resulting work only under the same or similar license to this
  one.

See http://creativecommons.org/licenses/by-sa/3.0/ for more details.
-->

<svg
   width="109"
   height="109"
   viewBox="0 0 109 109"
   version="1.1"
   id="svg20"
   sodipodi:docname="デョ.svg"
   inkscape:version="1.1 (c68e22c387, 2021-05-23)"
   xmlns:inkscape="http://www.inkscape.org/namespaces/inkscape"
   xmlns:sodipodi="http://sodipodi.sourceforge.net/DTD/sodipodi-0.dtd"
   xmlns="http://www.w3.org/2000/svg"
   xmlns:svg="http://www.w3.org/2000/svg">
  <defs
     id="defs24" />
  <sodipodi:namedview
     id="namedview22"
     pagecolor="#ffffff"
     bordercolor="#666666"
     borderopacity="1.0"
     inkscape:pageshadow="2"
     inkscape:pageopacity="0.0"
     inkscape:pagecheckerboard="0"
     showgrid="false"
     inkscape:zoom="7.0091743"
     inkscape:cx="54.5"
     inkscape:cy="54.5"
     inkscape:window-width="2491"
     inkscape:window-height="1057"
     inkscape:window-x="61"
     inkscape:window-y="-8"
     inkscape:window-maximized="1"
     inkscape:current-layer="svg20" />
  <g
     id="kvg:StrokePaths_030c7"
     style="fill:none;stroke:#000000;stroke-width:3.53780295;stroke-linecap:round;stroke-linejoin:round;stroke-miterlimit:4;stroke-dasharray:none"
     transform="matrix(0.85074302,0,0,0.84523376,-7.0153848,11.443792)">
    <g
       id="kvg:030c7"
       style="stroke-width:3.53780295;stroke-miterlimit:4;stroke-dasharray:none">
      <path
         id="kvg:030c7-s1"
         d="m 36.5,21.5 c 2.12,1.25 4.38,1.59 7.25,1.25 C 54.37,21.5 60.63,20.5 68.37,19.5 72.1,19.02 74,19 76.5,19.25"
         style="stroke-width:3.53780295;stroke-miterlimit:4;stroke-dasharray:none" />
      <path
         id="kvg:030c7-s2"
         d="m 20,44.12 c 2.88,1 5.26,1.05 7.5,0.75 22.38,-3 37,-5.62 54.13,-6.12 5.62,-0.16 7.75,0 10.38,0.62"
         style="stroke-width:3.53780295;stroke-miterlimit:4;stroke-dasharray:none" />
      <path
         id="kvg:030c7-s3"
         d="m 58,43.25 c 0.88,1 1.32,2.63 1.12,4.38 C 57.38,63 47.5,82.62 34.5,89.5"
         style="stroke-width:3.53780295;stroke-miterlimit:4;stroke-dasharray:none" />
      <path
         id="kvg:030c7-s4"
         d="m 84.25,16.98 c 2.85,1.78 6.21,5.47 8.03,8.65"
         style="stroke-width:3.53780295;stroke-miterlimit:4;stroke-dasharray:none" />
      <path
         id="kvg:030c7-s5"
         d="m 91,12.38 c 2.93,1.57 6.39,4.83 8.25,7.63"
         style="stroke-width:3.53780295;stroke-miterlimit:4;stroke-dasharray:none" />
    </g>
  </g>
  <text
     id="text9"
     style="font-size:8px;fill:#808080"
     x="21.105129"
     y="25.099476">1</text>
  <text
     id="text11"
     style="font-size:8px;fill:#808080"
     x="6.963769"
     y="44.458115">2</text>
  <text
     id="text13"
     style="font-size:8px;fill:#808080"
     x="47.383926"
     y="55.872147">3</text>
  <text
     id="text15"
     style="font-size:8px;fill:#808080"
     x="57.334187"
     y="23.69021">4</text>
  <text
     id="text17"
     style="font-size:8px;fill:#808080"
     x="68.1623"
     y="17.704189">5</text>
  <g
     id="kvg:StrokePaths_030e7"
     style="fill:none;stroke:#000000;stroke-width:4.2117509;stroke-linecap:round;stroke-linejoin:round;stroke-miterlimit:4;stroke-dasharray:none"
     transform="matrix(0.71463475,0,0,0.7099586,44.080736,22.342074)">
    <g
       id="kvg:030e7"
       style="stroke-width:4.2117509;stroke-miterlimit:4;stroke-dasharray:none">
      <path
         id="kvg:030e7-s1"
         d="m 33.5,50.62 c 1.9,1.21 4.09,1.6 7.39,1.21 11.19,-1.32 21.35,-2.46 29.07,-3.44 4.79,-0.61 5.49,0.4 5.2,5.16 -0.79,12.56 -1.5,24.79 -2.4,34.21"
         style="stroke-width:4.2117509;stroke-miterlimit:4;stroke-dasharray:none" />
      <path
         id="kvg:030e7-s2"
         d="m 33.6,69.04 c 1.9,1.21 4.09,1.6 7.39,1.21 8.39,-0.99 18.23,-1.85 24.86,-2.47 2.21,-0.2 4.21,0.04 6.21,0.44"
         style="stroke-width:4.2117509;stroke-miterlimit:4;stroke-dasharray:none" />
      <path
         id="kvg:030e7-s3"
         d="m 29,90.06 c 2.2,1.05 3.79,1.36 7.29,1.05 9.99,-0.88 23.47,-2.35 33.07,-2.35 2.7,0 4.49,0 7.49,0.44"
         style="stroke-width:4.2117509;stroke-miterlimit:4;stroke-dasharray:none" />
    </g>
  </g>
  <text
     id="text7"
     style="font-size:8px;fill:#808080"
     x="65.308571"
     y="54.286919">6</text>
  <text
     id="text9-8"
     style="font-size:8px;fill:#808080"
     x="63.89323"
     y="67.758125">7</text>
  <text
     id="text11-2"
     style="font-size:8px;fill:#808080"
     x="61.678577"
     y="82.297401">8</text>
</svg>
