<?xml version="1.0" encoding="UTF-8" standalone="no"?>
<!--
Copyright (C) 2009/2010/2011 Ulrich Apel.
This work is distributed under the conditions of the Creative Commons
Attribution-Share Alike 3.0 Licence. This means you are free:
* to Share - to copy, distribute and transmit the work
* to Remix - to adapt the work

Under the following conditions:
* Attribution. You must attribute the work by stating your use of KanjiVG in
  your own copyright header and linking to KanjiVG's website
  (http://kanjivg.tagaini.net)
* Share Alike. If you alter, transform, or build upon this work, you may
  distribute the resulting work only under the same or similar license to this
  one.

See http://creativecommons.org/licenses/by-sa/3.0/ for more details.
-->

<svg
   width="109"
   height="109"
   viewBox="0 0 109 109"
   version="1.1"
   id="svg20"
   sodipodi:docname="デェ.svg"
   inkscape:version="1.1 (c68e22c387, 2021-05-23)"
   xmlns:inkscape="http://www.inkscape.org/namespaces/inkscape"
   xmlns:sodipodi="http://sodipodi.sourceforge.net/DTD/sodipodi-0.dtd"
   xmlns="http://www.w3.org/2000/svg"
   xmlns:svg="http://www.w3.org/2000/svg">
  <defs
     id="defs24" />
  <sodipodi:namedview
     id="namedview22"
     pagecolor="#ffffff"
     bordercolor="#666666"
     borderopacity="1.0"
     inkscape:pageshadow="2"
     inkscape:pageopacity="0.0"
     inkscape:pagecheckerboard="0"
     showgrid="false"
     inkscape:zoom="7.0091743"
     inkscape:cx="52.716623"
     inkscape:cy="54.5"
     inkscape:window-width="2491"
     inkscape:window-height="1057"
     inkscape:window-x="61"
     inkscape:window-y="-8"
     inkscape:window-maximized="1"
     inkscape:current-layer="svg20" />
  <g
     id="kvg:StrokePaths_030c7"
     style="fill:none;stroke:#000000;stroke-width:3.85172349;stroke-linecap:round;stroke-linejoin:round;stroke-miterlimit:4;stroke-dasharray:none"
     transform="matrix(0.78305956,0,0,0.77470705,-5.661664,15.031141)">
    <g
       id="kvg:030c7"
       style="stroke-width:3.85172349;stroke-miterlimit:4;stroke-dasharray:none">
      <path
         id="kvg:030c7-s1"
         d="m 36.5,21.5 c 2.12,1.25 4.38,1.59 7.25,1.25 C 54.37,21.5 60.63,20.5 68.37,19.5 72.1,19.02 74,19 76.5,19.25"
         style="stroke-width:3.85172349;stroke-miterlimit:4;stroke-dasharray:none" />
      <path
         id="kvg:030c7-s2"
         d="m 20,44.12 c 2.88,1 5.26,1.05 7.5,0.75 22.38,-3 37,-5.62 54.13,-6.12 5.62,-0.16 7.75,0 10.38,0.62"
         style="stroke-width:3.85172349;stroke-miterlimit:4;stroke-dasharray:none" />
      <path
         id="kvg:030c7-s3"
         d="m 58,43.25 c 0.88,1 1.32,2.63 1.12,4.38 C 57.38,63 47.5,82.62 34.5,89.5"
         style="stroke-width:3.85172349;stroke-miterlimit:4;stroke-dasharray:none" />
      <path
         id="kvg:030c7-s4"
         d="m 84.25,16.98 c 2.85,1.78 6.21,5.47 8.03,8.65"
         style="stroke-width:3.85172349;stroke-miterlimit:4;stroke-dasharray:none" />
      <path
         id="kvg:030c7-s5"
         d="m 91,12.38 c 2.93,1.57 6.39,4.83 8.25,7.63"
         style="stroke-width:3.85172349;stroke-miterlimit:4;stroke-dasharray:none" />
    </g>
  </g>
  <g
     id="kvg:StrokePaths_030a7"
     style="fill:none;stroke:#000000;stroke-width:3.73698814;stroke-linecap:round;stroke-linejoin:round;stroke-miterlimit:4;stroke-dasharray:none"
     transform="matrix(0.80236319,0,0,0.80320809,32.301685,16.41526)">
    <g
       id="kvg:030a7"
       style="stroke-width:3.73698814;stroke-miterlimit:4;stroke-dasharray:none">
      <path
         id="kvg:030a7-s1"
         d="m 36.22,52.7 c 1.84,0.56 4.08,0.53 5.93,0.24 6.8,-1.08 17.77,-2.28 26.71,-3.07 1.8,-0.16 3.59,-0.15 5.37,0.18"
         style="stroke-width:3.73698814;stroke-miterlimit:4;stroke-dasharray:none" />
      <path
         id="kvg:030a7-s2"
         d="m 53.25,54.65 c 0.79,0.9 1.04,2.4 0.99,3.7 -0.14,3.79 -0.4,10.3 -0.65,17.78 -0.06,1.85 -0.12,3.25 -0.18,5.19"
         style="stroke-width:3.73698814;stroke-miterlimit:4;stroke-dasharray:none" />
      <path
         id="kvg:030a7-s3"
         d="m 26,84.03 c 2.71,0.7 6.01,0.65 8.73,0.29 14.11,-1.84 27.4,-2.86 40.12,-2.89 2.65,-0.01 5.73,0.31 8.3,1.33"
         style="stroke-width:3.73698814;stroke-miterlimit:4;stroke-dasharray:none" />
    </g>
  </g>
  <text
     id="text7"
     style="font-size:8px;fill:#808080"
     x="58.2099"
     y="54.561165">6</text>
  <text
     id="text9-5"
     style="font-size:8px;fill:#808080"
     x="79.360001"
     y="67.106552">7</text>
  <text
     id="text11-7"
     style="font-size:8px;fill:#808080"
     x="50.6366"
     y="80.065086">8</text>
  <text
     id="text9"
     style="font-size:8px;fill:#808080"
     x="20.10644"
     y="26.811518">1</text>
  <text
     id="text11"
     style="font-size:8px;fill:#808080"
     x="7.1064391"
     y="44.600784">2</text>
  <text
     id="text13"
     style="font-size:8px;fill:#808080"
     x="44.102512"
     y="55.729477">3</text>
  <text
     id="text15"
     style="font-size:8px;fill:#808080"
     x="52.055389"
     y="26.115602">4</text>
  <text
     id="text17"
     style="font-size:8px;fill:#808080"
     x="61.742146"
     y="20.272251">5</text>
</svg>
