<?xml version="1.0" encoding="UTF-8" standalone="no"?>
<!--
Copyright (C) 2009/2010/2011 Ulrich Apel.
This work is distributed under the conditions of the Creative Commons
Attribution-Share Alike 3.0 Licence. This means you are free:
* to Share - to copy, distribute and transmit the work
* to Remix - to adapt the work

Under the following conditions:
* Attribution. You must attribute the work by stating your use of KanjiVG in
  your own copyright header and linking to KanjiVG's website
  (http://kanjivg.tagaini.net)
* Share Alike. If you alter, transform, or build upon this work, you may
  distribute the resulting work only under the same or similar license to this
  one.

See http://creativecommons.org/licenses/by-sa/3.0/ for more details.
-->

<svg
   width="109"
   height="109"
   viewBox="0 0 109 109"
   version="1.1"
   id="svg20"
   sodipodi:docname="デャ.svg"
   inkscape:version="1.1 (c68e22c387, 2021-05-23)"
   xmlns:inkscape="http://www.inkscape.org/namespaces/inkscape"
   xmlns:sodipodi="http://sodipodi.sourceforge.net/DTD/sodipodi-0.dtd"
   xmlns="http://www.w3.org/2000/svg"
   xmlns:svg="http://www.w3.org/2000/svg">
  <defs
     id="defs24" />
  <sodipodi:namedview
     id="namedview22"
     pagecolor="#ffffff"
     bordercolor="#666666"
     borderopacity="1.0"
     inkscape:pageshadow="2"
     inkscape:pageopacity="0.0"
     inkscape:pagecheckerboard="0"
     showgrid="false"
     inkscape:zoom="7.0091743"
     inkscape:cx="52.716623"
     inkscape:cy="54.5"
     inkscape:window-width="2491"
     inkscape:window-height="1057"
     inkscape:window-x="61"
     inkscape:window-y="-8"
     inkscape:window-maximized="1"
     inkscape:current-layer="svg20" />
  <g
     id="kvg:StrokePaths_030c7"
     style="fill:none;stroke:#000000;stroke-width:3.49468914;stroke-linecap:round;stroke-linejoin:round;stroke-miterlimit:4;stroke-dasharray:none"
     transform="matrix(0.86109366,0,0,0.85580539,-7.2224988,10.904981)">
    <g
       id="kvg:030c7"
       style="stroke-width:3.49468914;stroke-miterlimit:4;stroke-dasharray:none">
      <path
         id="kvg:030c7-s1"
         d="m 36.5,21.5 c 2.12,1.25 4.38,1.59 7.25,1.25 C 54.37,21.5 60.63,20.5 68.37,19.5 72.1,19.02 74,19 76.5,19.25"
         style="stroke-width:3.49468914;stroke-miterlimit:4;stroke-dasharray:none" />
      <path
         id="kvg:030c7-s2"
         d="m 20,44.12 c 2.88,1 5.26,1.05 7.5,0.75 22.38,-3 37,-5.62 54.13,-6.12 5.62,-0.16 7.75,0 10.38,0.62"
         style="stroke-width:3.49468914;stroke-miterlimit:4;stroke-dasharray:none" />
      <path
         id="kvg:030c7-s3"
         d="m 58,43.25 c 0.88,1 1.32,2.63 1.12,4.38 C 57.38,63 47.5,82.62 34.5,89.5"
         style="stroke-width:3.49468914;stroke-miterlimit:4;stroke-dasharray:none" />
      <path
         id="kvg:030c7-s4"
         d="m 84.25,16.98 c 2.85,1.78 6.21,5.47 8.03,8.65"
         style="stroke-width:3.49468914;stroke-miterlimit:4;stroke-dasharray:none" />
      <path
         id="kvg:030c7-s5"
         d="m 91,12.38 c 2.93,1.57 6.39,4.83 8.25,7.63"
         style="stroke-width:3.49468914;stroke-miterlimit:4;stroke-dasharray:none" />
    </g>
  </g>
  <text
     id="text9"
     style="font-size:8px;fill:#808080"
     x="21.53314"
     y="25.242147">1</text>
  <text
     id="text11"
     style="font-size:8px;fill:#808080"
     x="7.6771197"
     y="44.600784">2</text>
  <text
     id="text13"
     style="font-size:8px;fill:#808080"
     x="47.383926"
     y="55.301468">3</text>
  <text
     id="text15"
     style="font-size:8px;fill:#808080"
     x="57.476856"
     y="23.262199">4</text>
  <text
     id="text17"
     style="font-size:8px;fill:#808080"
     x="66.307594"
     y="17.846859">5</text>
  <g
     id="kvg:StrokePaths_030e3"
     style="fill:none;stroke:#000000;stroke-width:5.58192008;stroke-linecap:round;stroke-linejoin:round;stroke-miterlimit:4;stroke-dasharray:none"
     transform="matrix(0.53874306,0,0,0.53615899,56.305189,37.571012)">
    <g
       id="kvg:030e3"
       style="stroke-width:5.58192008;stroke-miterlimit:4;stroke-dasharray:none">
      <path
         id="kvg:030e3-s1"
         d="m 25,56.25 c 1.67,1.28 4.84,1.85 7.96,1.08 14.85,-3.64 26.27,-6.16 38.45,-9.34 17.31,-4.52 1.18,11.21 -2.16,15.73"
         style="stroke-width:5.58192008;stroke-miterlimit:4;stroke-dasharray:none" />
      <path
         id="kvg:030e3-s2"
         d="m 41.1,35.5 c 1.3,1.1 2,2.1 2.5,4.1 0.5,2 9.4,41.62 9.9,43.72 0.5,2.1 1.7,7.2 2.4,9.8"
         style="stroke-width:5.58192008;stroke-miterlimit:4;stroke-dasharray:none" />
    </g>
  </g>
  <text
     id="text6"
     style="font-size:8px;fill:#808080"
     x="65.187775"
     y="63.960491">6</text>
  <text
     id="text8"
     style="font-size:8px;fill:#808080"
     x="81.754524"
     y="55.201321">7</text>
</svg>
