<?xml version="1.0" encoding="UTF-8" standalone="no"?>
<!--
Copyright (C) 2009/2010/2011 Ulrich Apel.
This work is distributed under the conditions of the Creative Commons
Attribution-Share Alike 3.0 Licence. This means you are free:
* to Share - to copy, distribute and transmit the work
* to Remix - to adapt the work

Under the following conditions:
* Attribution. You must attribute the work by stating your use of KanjiVG in
  your own copyright header and linking to KanjiVG's website
  (http://kanjivg.tagaini.net)
* Share Alike. If you alter, transform, or build upon this work, you may
  distribute the resulting work only under the same or similar license to this
  one.

See http://creativecommons.org/licenses/by-sa/3.0/ for more details.
-->

<svg
   width="109"
   height="109"
   viewBox="0 0 109 109"
   version="1.1"
   id="svg17"
   sodipodi:docname="ドェ.svg"
   inkscape:version="1.1 (c68e22c387, 2021-05-23)"
   xmlns:inkscape="http://www.inkscape.org/namespaces/inkscape"
   xmlns:sodipodi="http://sodipodi.sourceforge.net/DTD/sodipodi-0.dtd"
   xmlns="http://www.w3.org/2000/svg"
   xmlns:svg="http://www.w3.org/2000/svg">
  <defs
     id="defs21" />
  <sodipodi:namedview
     id="namedview19"
     pagecolor="#ffffff"
     bordercolor="#666666"
     borderopacity="1.0"
     inkscape:pageshadow="2"
     inkscape:pageopacity="0.0"
     inkscape:pagecheckerboard="0"
     showgrid="false"
     inkscape:zoom="7.0091743"
     inkscape:cx="52.716623"
     inkscape:cy="54.5"
     inkscape:window-width="2491"
     inkscape:window-height="1057"
     inkscape:window-x="61"
     inkscape:window-y="-8"
     inkscape:window-maximized="1"
     inkscape:current-layer="svg17" />
  <g
     id="kvg:StrokePaths_030c9"
     style="fill:none;stroke:#000000;stroke-width:3.1076017;stroke-linecap:round;stroke-linejoin:round;stroke-miterlimit:4;stroke-dasharray:none"
     transform="matrix(0.97305219,0,0,0.95775775,-30.511463,2.1721548)">
    <g
       id="kvg:030c9"
       style="stroke-width:3.1076017;stroke-miterlimit:4;stroke-dasharray:none">
      <path
         id="kvg:030c9-s1"
         d="m 44,16.38 c 1.25,1.12 2.12,3.25 2.12,5.5 0,26.12 0,53.5 0,57.62 0,4.12 0,10.5 0,13.38"
         style="stroke-width:3.1076017;stroke-miterlimit:4;stroke-dasharray:none" />
      <path
         id="kvg:030c9-s2"
         d="m 49.24,43.12 c 11.75,4.12 18.25,10.62 24.5,18.75"
         style="stroke-width:3.1076017;stroke-miterlimit:4;stroke-dasharray:none" />
      <path
         id="kvg:030c9-s3"
         d="m 66.87,26.75 c 2.75,1.75 6,5.38 7.75,8.5"
         style="stroke-width:3.1076017;stroke-miterlimit:4;stroke-dasharray:none" />
      <path
         id="kvg:030c9-s4"
         d="m 73.24,21.88 c 3.06,1.57 6.68,4.82 8.62,7.62"
         style="stroke-width:3.1076017;stroke-miterlimit:4;stroke-dasharray:none" />
    </g>
  </g>
  <g
     id="kvg:StrokePaths_030a7"
     style="fill:none;stroke:#000000;stroke-width:3.06092963;stroke-linecap:round;stroke-linejoin:round;stroke-miterlimit:4;stroke-dasharray:none"
     transform="matrix(0.97520331,0,0,0.98501003,15.647844,7.779521)">
    <g
       id="kvg:030a7"
       style="stroke-width:3.06092963;stroke-miterlimit:4;stroke-dasharray:none">
      <path
         id="kvg:030a7-s1"
         d="m 36.22,52.7 c 1.84,0.56 4.08,0.53 5.93,0.24 6.8,-1.08 17.77,-2.28 26.71,-3.07 1.8,-0.16 3.59,-0.15 5.37,0.18"
         style="stroke-width:3.06092963;stroke-miterlimit:4;stroke-dasharray:none" />
      <path
         id="kvg:030a7-s2"
         d="m 53.25,54.65 c 0.79,0.9 1.04,2.4 0.99,3.7 -0.14,3.79 -0.4,10.3 -0.65,17.78 -0.06,1.85 -0.12,3.25 -0.18,5.19"
         style="stroke-width:3.06092963;stroke-miterlimit:4;stroke-dasharray:none" />
      <path
         id="kvg:030a7-s3"
         d="m 26,84.03 c 2.71,0.7 6.01,0.65 8.73,0.29 14.11,-1.84 27.4,-2.86 40.12,-2.89 2.65,-0.01 5.73,0.31 8.3,1.33"
         style="stroke-width:3.06092963;stroke-miterlimit:4;stroke-dasharray:none" />
    </g>
  </g>
  <text
     id="text7"
     style="font-size:8px;fill:#808080"
     x="48.508331"
     y="55.131844">5</text>
  <text
     id="text9"
     style="font-size:8px;fill:#808080"
     x="72.369164"
     y="68.533257">6</text>
  <text
     id="text11"
     style="font-size:8px;fill:#808080"
     x="38.509636"
     y="86.057236">7</text>
  <text
     id="text8"
     style="font-size:8px;fill:#808080"
     x="4.8412042"
     y="14.950681">1</text>
  <text
     id="text10"
     style="font-size:8px;fill:#808080"
     x="18.294504"
     y="38.501308">2</text>
  <text
     id="text12"
     style="font-size:8px;fill:#808080"
     x="25.151833"
     y="28.460733">3</text>
  <text
     id="text14"
     style="font-size:8px;fill:#808080"
     x="34.981258"
     y="18.241257">4</text>
</svg>
