<?xml version="1.0" encoding="UTF-8" standalone="no"?>
<!--
Copyright (C) 2009/2010/2011 Ulrich Apel.
This work is distributed under the conditions of the Creative Commons
Attribution-Share Alike 3.0 Licence. This means you are free:
* to Share - to copy, distribute and transmit the work
* to Remix - to adapt the work

Under the following conditions:
* Attribution. You must attribute the work by stating your use of KanjiVG in
  your own copyright header and linking to KanjiVG's website
  (http://kanjivg.tagaini.net)
* Share Alike. If you alter, transform, or build upon this work, you may
  distribute the resulting work only under the same or similar license to this
  one.

See http://creativecommons.org/licenses/by-sa/3.0/ for more details.
-->

<svg
   width="109"
   height="109"
   viewBox="0 0 109 109"
   version="1.1"
   id="svg17"
   sodipodi:docname="ドゥ.svg"
   inkscape:version="1.1 (c68e22c387, 2021-05-23)"
   xmlns:inkscape="http://www.inkscape.org/namespaces/inkscape"
   xmlns:sodipodi="http://sodipodi.sourceforge.net/DTD/sodipodi-0.dtd"
   xmlns="http://www.w3.org/2000/svg"
   xmlns:svg="http://www.w3.org/2000/svg">
  <defs
     id="defs21" />
  <sodipodi:namedview
     id="namedview19"
     pagecolor="#ffffff"
     bordercolor="#666666"
     borderopacity="1.0"
     inkscape:pageshadow="2"
     inkscape:pageopacity="0.0"
     inkscape:pagecheckerboard="0"
     showgrid="false"
     inkscape:zoom="7.0091743"
     inkscape:cx="52.645288"
     inkscape:cy="54.5"
     inkscape:window-width="2491"
     inkscape:window-height="1057"
     inkscape:window-x="61"
     inkscape:window-y="-8"
     inkscape:window-maximized="1"
     inkscape:current-layer="svg17" />
  <g
     id="kvg:StrokePaths_030c9"
     style="fill:none;stroke:#000000;stroke-width:2.92719088;stroke-linecap:round;stroke-linejoin:round;stroke-miterlimit:4;stroke-dasharray:none"
     transform="matrix(1.0313562,0,0,1.0184313,-26.545905,-1.1401881)">
    <g
       id="kvg:030c9"
       style="stroke-width:2.92719088;stroke-miterlimit:4;stroke-dasharray:none">
      <path
         id="kvg:030c9-s1"
         d="m 44,16.38 c 1.25,1.12 2.12,3.25 2.12,5.5 0,26.12 0,53.5 0,57.62 0,4.12 0,10.5 0,13.38"
         style="stroke-width:2.92719088;stroke-miterlimit:4;stroke-dasharray:none" />
      <path
         id="kvg:030c9-s2"
         d="m 49.24,43.12 c 11.75,4.12 18.25,10.62 24.5,18.75"
         style="stroke-width:2.92719088;stroke-miterlimit:4;stroke-dasharray:none" />
      <path
         id="kvg:030c9-s3"
         d="m 66.87,26.75 c 2.75,1.75 6,5.38 7.75,8.5"
         style="stroke-width:2.92719088;stroke-miterlimit:4;stroke-dasharray:none" />
      <path
         id="kvg:030c9-s4"
         d="m 73.24,21.88 c 3.06,1.57 6.68,4.82 8.62,7.62"
         style="stroke-width:2.92719088;stroke-miterlimit:4;stroke-dasharray:none" />
    </g>
  </g>
  <text
     id="text8"
     style="font-size:8px;fill:#808080"
     x="9.1213074"
     y="16.662724">1</text>
  <text
     id="text10"
     style="font-size:8px;fill:#808080"
     x="26.284031"
     y="38.786648">2</text>
  <text
     id="text12"
     style="font-size:8px;fill:#808080"
     x="33.854713"
     y="29.031414">3</text>
  <text
     id="text14"
     style="font-size:8px;fill:#808080"
     x="48.820263"
     y="17.099894">4</text>
  <g
     id="kvg:StrokePaths_030a5"
     style="fill:none;stroke:#000000;stroke-width:5.16393662;stroke-linecap:round;stroke-linejoin:round;stroke-miterlimit:4;stroke-dasharray:none"
     transform="matrix(0.57721614,0,0,0.58471231,44.100918,38.094527)">
    <g
       id="kvg:030a5"
       style="stroke-width:5.16393662;stroke-miterlimit:4;stroke-dasharray:none">
      <path
         id="kvg:030a5-s1"
         d="m 54.11,32.25 c 0.8,0.87 0.99,2.32 0.99,3.58 0,1.26 0,8.33 0,9.78"
         style="stroke-width:5.16393662;stroke-miterlimit:4;stroke-dasharray:none" />
      <path
         id="kvg:030a5-s2"
         d="m 32.5,45.62 c 0.94,0.89 1.15,2.38 1.18,3.67 0.08,3.53 0.27,8.68 0.42,12.98 0.07,1.98 0.13,3.78 0.17,5.15"
         style="stroke-width:5.16393662;stroke-miterlimit:4;stroke-dasharray:none" />
      <path
         id="kvg:030a5-s3"
         d="m 34.92,48.96 c 15.42,-1.74 32.02,-3.54 38.98,-4.51 6.96,-0.97 6.59,0.65 4.97,5.32 C 74.9,61.29 63.83,83.75 46.76,94.62"
         style="stroke-width:5.16393662;stroke-miterlimit:4;stroke-dasharray:none" />
    </g>
  </g>
  <text
     id="text7"
     style="font-size:8px;fill:#808080"
     x="78.907455"
     y="54.632782">5</text>
  <text
     id="text9"
     style="font-size:8px;fill:#808080"
     x="54.6954"
     y="64.386719">6</text>
  <text
     id="text11"
     style="font-size:8px;fill:#808080"
     x="67.113365"
     y="75.860954">7</text>
</svg>
