<?xml version="1.0" encoding="UTF-8" standalone="no"?>
<!--
Copyright (C) 2009/2010/2011 Ulrich Apel.
This work is distributed under the conditions of the Creative Commons
Attribution-Share Alike 3.0 Licence. This means you are free:
* to Share - to copy, distribute and transmit the work
* to Remix - to adapt the work

Under the following conditions:
* Attribution. You must attribute the work by stating your use of KanjiVG in
  your own copyright header and linking to KanjiVG's website
  (http://kanjivg.tagaini.net)
* Share Alike. If you alter, transform, or build upon this work, you may
  distribute the resulting work only under the same or similar license to this
  one.

See http://creativecommons.org/licenses/by-sa/3.0/ for more details.
-->

<svg
   width="109"
   height="109"
   viewBox="0 0 109 109"
   version="1.1"
   id="svg11"
   sodipodi:docname="ニョ.svg"
   inkscape:version="1.1 (c68e22c387, 2021-05-23)"
   xmlns:inkscape="http://www.inkscape.org/namespaces/inkscape"
   xmlns:sodipodi="http://sodipodi.sourceforge.net/DTD/sodipodi-0.dtd"
   xmlns="http://www.w3.org/2000/svg"
   xmlns:svg="http://www.w3.org/2000/svg">
  <defs
     id="defs15" />
  <sodipodi:namedview
     id="namedview13"
     pagecolor="#ffffff"
     bordercolor="#666666"
     borderopacity="1.0"
     inkscape:pageshadow="2"
     inkscape:pageopacity="0.0"
     inkscape:pagecheckerboard="0"
     showgrid="false"
     inkscape:zoom="4.9562347"
     inkscape:cx="64.867792"
     inkscape:cy="59.924523"
     inkscape:window-width="2491"
     inkscape:window-height="1057"
     inkscape:window-x="61"
     inkscape:window-y="-8"
     inkscape:window-maximized="1"
     inkscape:current-layer="svg11" />
  <g
     id="kvg:StrokePaths_030cb"
     style="fill:none;stroke:#000000;stroke-width:3.51306811;stroke-linecap:round;stroke-linejoin:round;stroke-miterlimit:4;stroke-dasharray:none"
     transform="matrix(0.86182082,0,0,0.8461598,-7.208998,8.5362265)">
    <g
       id="kvg:030cb"
       style="stroke-width:3.51306811;stroke-miterlimit:4;stroke-dasharray:none">
      <path
         id="kvg:030cb-s1"
         d="m 32.63,34.69 c 2.5,1.19 4.33,1.6 7.45,1.35 11.55,-0.91 18.3,-2.41 27.04,-3.18 2.64,-0.23 6.27,-0.16 8.39,0.08"
         style="stroke-width:3.51306811;stroke-miterlimit:4;stroke-dasharray:none" />
      <path
         id="kvg:030cb-s2"
         d="m 20,74.88 c 2.62,1 4.78,1.45 9.12,0.75 20.25,-3.25 36.5,-3.88 52.38,-3.88 3.75,0 8,1 11.12,2.38"
         style="stroke-width:3.51306811;stroke-miterlimit:4;stroke-dasharray:none" />
    </g>
  </g>
  <text
     id="text6"
     style="font-size:6.87369px;fill:#808080;stroke-width:1"
     x="18.201706"
     y="33.874836">1</text>
  <text
     id="text8"
     style="font-size:6.87369px;fill:#808080;stroke-width:1"
     x="7.8750858"
     y="67.826012">2</text>
  <g
     id="kvg:StrokePaths_030e7"
     style="fill:none;stroke:#000000;stroke-width:7.35536815;stroke-linecap:round;stroke-linejoin:round;stroke-miterlimit:4;stroke-dasharray:none"
     transform="matrix(0.4170253,0,0,0.39890665,66.884449,36.438703)">
    <g
       id="kvg:030e7"
       style="stroke-width:7.35536815;stroke-miterlimit:4;stroke-dasharray:none">
      <path
         id="kvg:030e7-s1"
         d="m 33.5,50.62 c 1.9,1.21 4.09,1.6 7.39,1.21 11.19,-1.32 21.35,-2.46 29.07,-3.44 4.79,-0.61 5.49,0.4 5.2,5.16 -0.79,12.56 -1.5,24.79 -2.4,34.21"
         style="stroke-width:7.35536815;stroke-miterlimit:4;stroke-dasharray:none" />
      <path
         id="kvg:030e7-s2"
         d="m 33.6,69.04 c 1.9,1.21 4.09,1.6 7.39,1.21 8.39,-0.99 18.23,-1.85 24.86,-2.47 2.21,-0.2 4.21,0.04 6.21,0.44"
         style="stroke-width:7.35536815;stroke-miterlimit:4;stroke-dasharray:none" />
      <path
         id="kvg:030e7-s3"
         d="m 29,90.06 c 2.2,1.05 3.79,1.36 7.29,1.05 9.99,-0.88 23.47,-2.35 33.07,-2.35 2.7,0 4.49,0 7.49,0.44"
         style="stroke-width:7.35536815;stroke-miterlimit:4;stroke-dasharray:none" />
    </g>
  </g>
  <text
     id="text7"
     style="font-size:4.61941px;fill:#808080;stroke-width:1"
     x="77.329002"
     y="52.88409"
     transform="scale(1.0001403,0.99985972)">3</text>
  <text
     id="text9"
     style="font-size:4.61941px;fill:#808080;stroke-width:1"
     x="75.264351"
     y="62.197376"
     transform="scale(1.0001403,0.99985972)">4</text>
  <text
     id="text11"
     style="font-size:4.61941px;fill:#808080;stroke-width:1"
     x="75.261505"
     y="68.944038"
     transform="scale(1.0001403,0.99985972)">5</text>
</svg>
