<?xml version="1.0" encoding="UTF-8" standalone="no"?>
<!--
Copyright (C) 2009/2010/2011 Ulrich Apel.
This work is distributed under the conditions of the Creative Commons
Attribution-Share Alike 3.0 Licence. This means you are free:
* to Share - to copy, distribute and transmit the work
* to Remix - to adapt the work

Under the following conditions:
* Attribution. You must attribute the work by stating your use of KanjiVG in
  your own copyright header and linking to KanjiVG's website
  (http://kanjivg.tagaini.net)
* Share Alike. If you alter, transform, or build upon this work, you may
  distribute the resulting work only under the same or similar license to this
  one.

See http://creativecommons.org/licenses/by-sa/3.0/ for more details.
-->

<svg
   width="109"
   height="109"
   viewBox="0 0 109 109"
   version="1.1"
   id="svg17"
   sodipodi:docname="ビュ.svg"
   inkscape:version="1.1 (c68e22c387, 2021-05-23)"
   xmlns:inkscape="http://www.inkscape.org/namespaces/inkscape"
   xmlns:sodipodi="http://sodipodi.sourceforge.net/DTD/sodipodi-0.dtd"
   xmlns="http://www.w3.org/2000/svg"
   xmlns:svg="http://www.w3.org/2000/svg">
  <defs
     id="defs21">
    <rect
       x="189.75131"
       y="153.51309"
       width="135.53665"
       height="87.314136"
       id="rect4326" />
  </defs>
  <sodipodi:namedview
     id="namedview19"
     pagecolor="#ffffff"
     bordercolor="#666666"
     borderopacity="1.0"
     inkscape:pageshadow="2"
     inkscape:pageopacity="0.0"
     inkscape:pagecheckerboard="0"
     showgrid="false"
     inkscape:zoom="7.0091743"
     inkscape:cx="48.293848"
     inkscape:cy="46.367801"
     inkscape:window-width="2491"
     inkscape:window-height="1057"
     inkscape:window-x="61"
     inkscape:window-y="-8"
     inkscape:window-maximized="1"
     inkscape:current-layer="svg17" />
  <g
     id="kvg:StrokePaths_030d3"
     style="fill:none;stroke:#000000;stroke-width:3.66805327;stroke-linecap:round;stroke-linejoin:round;stroke-miterlimit:4;stroke-dasharray:none"
     transform="matrix(0.8257502,0,0,0.81007001,-15.569388,12.662121)">
    <g
       id="kvg:030d3"
       style="stroke-width:3.66805327;stroke-miterlimit:4;stroke-dasharray:none">
      <path
         id="kvg:030d3-s1"
         d="m 35.38,44.5 c 1.75,1.38 4.51,2.19 6.88,1.88 C 52.5,45 59.5,43.5 66.5,42.12 c 3.01,-0.59 7.12,-1 9.38,-0.88"
         style="stroke-width:3.66805327;stroke-miterlimit:4;stroke-dasharray:none" />
      <path
         id="kvg:030d3-s2"
         d="m 31,17.62 c 1.38,1.26 1.88,3.38 1.88,6.13 0,2.75 -0.88,44 -0.88,47.25 0,9.75 4,14.62 13.75,14.62 6,0 16.38,0.12 21.38,0 5,-0.12 9.5,-0.62 13.5,-1.5"
         style="stroke-width:3.66805327;stroke-miterlimit:4;stroke-dasharray:none" />
      <path
         id="kvg:030d3-s3"
         d="m 78.13,26.25 c 2.75,1.75 6,5.38 7.75,8.5"
         style="stroke-width:3.66805327;stroke-miterlimit:4;stroke-dasharray:none" />
      <path
         id="kvg:030d3-s4"
         d="m 84.5,21.38 c 3.06,1.57 6.68,4.82 8.62,7.62"
         style="stroke-width:3.66805327;stroke-miterlimit:4;stroke-dasharray:none" />
    </g>
  </g>
  <text
     id="text8"
     style="font-size:6.65438px;fill:#808080;stroke-width:0.999995"
     x="16.066259"
     y="45.376064">1</text>
  <text
     id="text10"
     style="font-size:6.65438px;fill:#808080;stroke-width:0.999995"
     x="14.861436"
     y="26.487083">2</text>
  <text
     id="text12"
     style="font-size:6.65438px;fill:#808080;stroke-width:0.999995"
     x="41.328926"
     y="37.820732">3</text>
  <text
     id="text14"
     style="font-size:6.65438px;fill:#808080;stroke-width:0.999995"
     x="52.637684"
     y="26.073627">4</text>
  <g
     id="kvg:StrokePaths_030e5"
     style="fill:none;stroke:#000000;stroke-width:4.29182513;stroke-linecap:round;stroke-linejoin:round;stroke-miterlimit:4;stroke-dasharray:none"
     transform="matrix(0.6978056,0,0,0.70020309,40.173179,20.715538)">
    <g
       id="kvg:030e5"
       style="stroke-width:4.29182513;stroke-miterlimit:4;stroke-dasharray:none">
      <path
         id="kvg:030e5-s1"
         d="m 34.8,52.84 c 1.91,1.21 4.13,1.67 7.44,1.21 10.65,-1.51 13.99,-1.68 21.71,-2.97 5.43,-0.9 6.26,0.13 5.23,5.12 -1.91,9.25 -3.92,19.45 -5.23,27.49"
         style="stroke-width:4.29182513;stroke-miterlimit:4;stroke-dasharray:none" />
      <path
         id="kvg:030e5-s2"
         d="m 24.5,86.21 c 2.21,1.21 3.84,1.73 7.34,1.21 18.54,-2.79 28.95,-3.12 43.52,-3.12 3.02,0 5.93,0.4 8.95,0.9"
         style="stroke-width:4.29182513;stroke-miterlimit:4;stroke-dasharray:none" />
    </g>
  </g>
  <text
     id="text6"
     style="font-size:6.65439px;fill:#808080;stroke-width:0.999997"
     x="61.949673"
     y="53.654633">5</text>
  <text
     id="text8-6"
     style="font-size:6.65439px;fill:#808080;stroke-width:0.999997"
     x="55.164719"
     y="77.045753">6</text>
  <text
     xml:space="preserve"
     transform="matrix(0.83179899,0,0,0.83179899,-14.736176,-25.095287)"
     id="text4324"
     style="font-style:normal;font-weight:normal;font-size:40px;line-height:1.25;font-family:sans-serif;white-space:pre;shape-inside:url(#rect4326);fill:#000000;fill-opacity:1;stroke:none;stroke-width:1.20221" />
</svg>
