<?xml version="1.0" encoding="UTF-8" standalone="no"?>
<!--
Copyright (C) 2009/2010/2011 Ulrich Apel.
This work is distributed under the conditions of the Creative Commons
Attribution-Share Alike 3.0 Licence. This means you are free:
* to Share - to copy, distribute and transmit the work
* to Remix - to adapt the work

Under the following conditions:
* Attribution. You must attribute the work by stating your use of KanjiVG in
  your own copyright header and linking to KanjiVG's website
  (http://kanjivg.tagaini.net)
* Share Alike. If you alter, transform, or build upon this work, you may
  distribute the resulting work only under the same or similar license to this
  one.

See http://creativecommons.org/licenses/by-sa/3.0/ for more details.
-->

<svg
   width="109"
   height="109"
   viewBox="0 0 109 109"
   version="1.1"
   id="svg14"
   sodipodi:docname="ミョ.svg"
   inkscape:version="1.1 (c68e22c387, 2021-05-23)"
   xmlns:inkscape="http://www.inkscape.org/namespaces/inkscape"
   xmlns:sodipodi="http://sodipodi.sourceforge.net/DTD/sodipodi-0.dtd"
   xmlns="http://www.w3.org/2000/svg"
   xmlns:svg="http://www.w3.org/2000/svg">
  <defs
     id="defs18" />
  <sodipodi:namedview
     id="namedview16"
     pagecolor="#ffffff"
     bordercolor="#666666"
     borderopacity="1.0"
     inkscape:pageshadow="2"
     inkscape:pageopacity="0.0"
     inkscape:pagecheckerboard="0"
     showgrid="false"
     inkscape:zoom="7.0091743"
     inkscape:cx="50.861911"
     inkscape:cy="59.350785"
     inkscape:window-width="2491"
     inkscape:window-height="1057"
     inkscape:window-x="61"
     inkscape:window-y="-8"
     inkscape:window-maximized="1"
     inkscape:current-layer="svg14" />
  <g
     id="kvg:StrokePaths_030df"
     style="fill:none;stroke:#000000;stroke-width:3.17686545;stroke-linecap:round;stroke-linejoin:round;stroke-miterlimit:4;stroke-dasharray:none"
     transform="matrix(0.95336439,0,0,0.93537539,-21.066506,1.5945347)">
    <g
       id="kvg:030df"
       style="stroke-width:3.17686545;stroke-miterlimit:4;stroke-dasharray:none">
      <path
         id="kvg:030df-s1"
         d="m 41.87,20 c 10.4,2.57 20.5,6.3 25,10.38"
         style="stroke-width:3.17686545;stroke-miterlimit:4;stroke-dasharray:none" />
      <path
         id="kvg:030df-s2"
         d="m 42,46.88 c 10.72,2.69 21.11,6.6 25.75,10.88"
         style="stroke-width:3.17686545;stroke-miterlimit:4;stroke-dasharray:none" />
      <path
         id="kvg:030df-s3"
         d="m 36.5,75 c 15.71,4.49 30.95,11 37.75,18.12"
         style="stroke-width:3.17686545;stroke-miterlimit:4;stroke-dasharray:none" />
    </g>
  </g>
  <text
     id="text7"
     style="font-size:8px;fill:#808080"
     x="15.465133"
     y="15.477956">1</text>
  <text
     id="text9"
     style="font-size:8px;fill:#808080"
     x="14.929792"
     y="41.216602">2</text>
  <text
     id="text11"
     style="font-size:8px;fill:#808080"
     x="10.004397"
     y="67.014603">3</text>
  <g
     id="kvg:StrokePaths_030e7"
     style="fill:none;stroke:#000000;stroke-width:4.02100677;stroke-linecap:round;stroke-linejoin:round;stroke-miterlimit:4;stroke-dasharray:none"
     transform="matrix(0.74724254,0,0,0.74492288,37.867156,20.740311)">
    <g
       id="kvg:030e7"
       style="stroke-width:4.02100677;stroke-miterlimit:4;stroke-dasharray:none">
      <path
         id="kvg:030e7-s1"
         d="m 33.5,50.62 c 1.9,1.21 4.09,1.6 7.39,1.21 11.19,-1.32 21.35,-2.46 29.07,-3.44 4.79,-0.61 5.49,0.4 5.2,5.16 -0.79,12.56 -1.5,24.79 -2.4,34.21"
         style="stroke-width:4.02100677;stroke-miterlimit:4;stroke-dasharray:none" />
      <path
         id="kvg:030e7-s2"
         d="m 33.6,69.04 c 1.9,1.21 4.09,1.6 7.39,1.21 8.39,-0.99 18.23,-1.85 24.86,-2.47 2.21,-0.2 4.21,0.04 6.21,0.44"
         style="stroke-width:4.02100677;stroke-miterlimit:4;stroke-dasharray:none" />
      <path
         id="kvg:030e7-s3"
         d="m 29,90.06 c 2.2,1.05 3.79,1.36 7.29,1.05 9.99,-0.88 23.47,-2.35 33.07,-2.35 2.7,0 4.49,0 7.49,0.44"
         style="stroke-width:4.02100677;stroke-miterlimit:4;stroke-dasharray:none" />
    </g>
  </g>
  <text
     id="text7-9"
     style="font-size:8px;fill:#808080"
     x="58.85194"
     y="53.62867">4</text>
  <text
     id="text9-3"
     style="font-size:8px;fill:#808080"
     x="56.437912"
     y="68.81192">5</text>
  <text
     id="text11-2"
     style="font-size:8px;fill:#808080"
     x="55.792625"
     y="83.92186">6</text>
</svg>
