<?xml version="1.0" encoding="UTF-8" standalone="no"?>
<!--
Copyright (C) 2009/2010/2011 Ulrich Apel.
This work is distributed under the conditions of the Creative Commons
Attribution-Share Alike 3.0 Licence. This means you are free:
* to Share - to copy, distribute and transmit the work
* to Remix - to adapt the work

Under the following conditions:
* Attribution. You must attribute the work by stating your use of KanjiVG in
  your own copyright header and linking to KanjiVG's website
  (http://kanjivg.tagaini.net)
* Share Alike. If you alter, transform, or build upon this work, you may
  distribute the resulting work only under the same or similar license to this
  one.

See http://creativecommons.org/licenses/by-sa/3.0/ for more details.
-->

<svg
   width="109"
   height="109"
   viewBox="0 0 109 109"
   version="1.1"
   id="svg11"
   sodipodi:docname="リィ.svg"
   inkscape:version="1.1 (c68e22c387, 2021-05-23)"
   xmlns:inkscape="http://www.inkscape.org/namespaces/inkscape"
   xmlns:sodipodi="http://sodipodi.sourceforge.net/DTD/sodipodi-0.dtd"
   xmlns="http://www.w3.org/2000/svg"
   xmlns:svg="http://www.w3.org/2000/svg">
  <defs
     id="defs15" />
  <sodipodi:namedview
     id="namedview13"
     pagecolor="#ffffff"
     bordercolor="#666666"
     borderopacity="1.0"
     inkscape:pageshadow="2"
     inkscape:pageopacity="0.0"
     inkscape:pagecheckerboard="0"
     showgrid="false"
     inkscape:zoom="7.0091743"
     inkscape:cx="52.716623"
     inkscape:cy="54.5"
     inkscape:window-width="2491"
     inkscape:window-height="1057"
     inkscape:window-x="61"
     inkscape:window-y="-8"
     inkscape:window-maximized="1"
     inkscape:current-layer="svg11" />
  <g
     id="kvg:StrokePaths_030ea"
     style="fill:none;stroke:#000000;stroke-width:3.26618567;stroke-linecap:round;stroke-linejoin:round;stroke-miterlimit:4;stroke-dasharray:none"
     transform="matrix(0.92348667,0,0,0.91354541,-11.378854,4.5223187)">
    <g
       id="kvg:030ea"
       style="stroke-width:3.26618567;stroke-miterlimit:4;stroke-dasharray:none">
      <path
         id="kvg:030ea-s1"
         d="m 35,18.38 c 1.12,1.5 1.62,3 1.62,4.88 0,1.88 0,25 0,27 0,2 0,6.12 0,7.75"
         style="stroke-width:3.26618567;stroke-miterlimit:4;stroke-dasharray:none" />
      <path
         id="kvg:030ea-s2"
         d="m 71,15.38 c 1.5,1.25 2.38,3.12 2.38,5.38 0,2.26 -0.12,28.88 -0.12,32.88 0,19.62 -9.5,32.25 -21.75,40.38"
         style="stroke-width:3.26618567;stroke-miterlimit:4;stroke-dasharray:none" />
    </g>
  </g>
  <text
     id="text6"
     style="font-size:8px;fill:#808080"
     x="12.212933"
     y="22.442827">1</text>
  <text
     id="text8"
     style="font-size:8px;fill:#808080"
     x="44.879581"
     y="21.204189">2</text>
  <g
     id="kvg:StrokePaths_030a3"
     style="fill:none;stroke:#000000;stroke-width:5.68277724;stroke-linecap:round;stroke-linejoin:round;stroke-miterlimit:4;stroke-dasharray:none"
     transform="matrix(0.52079397,0,0,0.53512507,52.819283,39.260384)">
    <g
       id="kvg:030a3"
       style="stroke-width:5.68277724;stroke-miterlimit:4;stroke-dasharray:none">
      <path
         id="kvg:030a3-s1"
         d="m 67.75,32.78 c 0.1,1.39 -0.27,3.07 -1.28,4.37 C 58.49,47.39 47.75,60.7 30.5,71.23"
         style="stroke-width:5.68277724;stroke-miterlimit:4;stroke-dasharray:none" />
      <path
         id="kvg:030a3-s2"
         d="m 57.19,54.22 c 0.81,0.92 1.02,2.46 1.02,3.79 0,1.33 0,26.33 0,27.87 0,1.54 -0.1,7.48 -0.1,9.63"
         style="stroke-width:5.68277724;stroke-miterlimit:4;stroke-dasharray:none" />
    </g>
  </g>
  <text
     id="text6-2"
     style="font-size:8px;fill:#808080"
     x="78.669472"
     y="56.729237">3</text>
  <text
     id="text8-5"
     style="font-size:8px;fill:#808080"
     x="87.538582"
     y="71.846146">4</text>
</svg>
