<?xml version="1.0" encoding="UTF-8" standalone="no"?>
<!--
Copyright (C) 2009/2010/2011 Ulrich Apel.
This work is distributed under the conditions of the Creative Commons
Attribution-Share Alike 3.0 Licence. This means you are free:
* to Share - to copy, distribute and transmit the work
* to Remix - to adapt the work

Under the following conditions:
* Attribution. You must attribute the work by stating your use of KanjiVG in
  your own copyright header and linking to KanjiVG's website
  (http://kanjivg.tagaini.net)
* Share Alike. If you alter, transform, or build upon this work, you may
  distribute the resulting work only under the same or similar license to this
  one.

See http://creativecommons.org/licenses/by-sa/3.0/ for more details.
-->

<svg
   width="109"
   height="109"
   viewBox="0 0 109 109"
   version="1.1"
   id="svg11"
   sodipodi:docname="リャ.svg"
   inkscape:version="1.1 (c68e22c387, 2021-05-23)"
   xmlns:inkscape="http://www.inkscape.org/namespaces/inkscape"
   xmlns:sodipodi="http://sodipodi.sourceforge.net/DTD/sodipodi-0.dtd"
   xmlns="http://www.w3.org/2000/svg"
   xmlns:svg="http://www.w3.org/2000/svg">
  <defs
     id="defs15" />
  <sodipodi:namedview
     id="namedview13"
     pagecolor="#ffffff"
     bordercolor="#666666"
     borderopacity="1.0"
     inkscape:pageshadow="2"
     inkscape:pageopacity="0.0"
     inkscape:pagecheckerboard="0"
     showgrid="false"
     inkscape:zoom="7.0091743"
     inkscape:cx="50.00589"
     inkscape:cy="57.353403"
     inkscape:window-width="2491"
     inkscape:window-height="1057"
     inkscape:window-x="61"
     inkscape:window-y="-8"
     inkscape:window-maximized="1"
     inkscape:current-layer="svg11" />
  <g
     id="kvg:StrokePaths_030ea"
     style="fill:none;stroke:#000000;stroke-width:3.39446463;stroke-linecap:round;stroke-linejoin:round;stroke-miterlimit:4;stroke-dasharray:none"
     transform="matrix(0.89329474,0,0,0.87438995,-13.255069,6.2285647)">
    <g
       id="kvg:030ea"
       style="stroke-width:3.39446463;stroke-miterlimit:4;stroke-dasharray:none">
      <path
         id="kvg:030ea-s1"
         d="m 35,18.38 c 1.12,1.5 1.62,3 1.62,4.88 0,1.88 0,25 0,27 0,2 0,6.12 0,7.75"
         style="stroke-width:3.39446463;stroke-miterlimit:4;stroke-dasharray:none" />
      <path
         id="kvg:030ea-s2"
         d="m 71,15.38 c 1.5,1.25 2.38,3.12 2.38,5.38 0,2.26 -0.12,28.88 -0.12,32.88 0,19.62 -9.5,32.25 -21.75,40.38"
         style="stroke-width:3.39446463;stroke-miterlimit:4;stroke-dasharray:none" />
    </g>
  </g>
  <text
     transform="scale(1.0003791,0.99962105)"
     id="text6"
     style="font-size:7.25447px;fill:#808080;stroke-width:1"
     x="10.600454"
     y="24.4851">1</text>
  <text
     transform="scale(1.0003791,0.99962105)"
     id="text8"
     style="font-size:7.25447px;fill:#808080;stroke-width:1"
     x="41.440174"
     y="22.469618">2</text>
  <g
     id="kvg:StrokePaths_030e3"
     style="fill:none;stroke:#000000;stroke-width:5.37221382;stroke-linecap:round;stroke-linejoin:round;stroke-miterlimit:4;stroke-dasharray:none"
     transform="matrix(0.55863698,0,0,0.5582211,46.469051,36.434633)">
    <g
       id="kvg:030e3"
       style="stroke-width:5.37221382;stroke-miterlimit:4;stroke-dasharray:none">
      <path
         id="kvg:030e3-s1"
         d="m 25,56.25 c 1.67,1.28 4.84,1.85 7.96,1.08 14.85,-3.64 26.27,-6.16 38.45,-9.34 17.31,-4.52 1.18,11.21 -2.16,15.73"
         style="stroke-width:5.37221382;stroke-miterlimit:4;stroke-dasharray:none" />
      <path
         id="kvg:030e3-s2"
         d="m 41.1,35.5 c 1.3,1.1 2,2.1 2.5,4.1 0.5,2 9.4,41.62 9.9,43.72 0.5,2.1 1.7,7.2 2.4,9.8"
         style="stroke-width:5.37221382;stroke-miterlimit:4;stroke-dasharray:none" />
    </g>
  </g>
  <text
     transform="scale(1.0003791,0.99962105)"
     id="text6-7"
     style="font-size:7.25447px;fill:#808080;stroke-width:1"
     x="56.783535"
     y="77.850029">3</text>
  <text
     transform="scale(1.0003791,0.99962105)"
     id="text8-5"
     style="font-size:7.25447px;fill:#808080;stroke-width:1"
     x="70.711281"
     y="53.006199">4</text>
</svg>
