<?xml version="1.0" encoding="UTF-8" standalone="no"?>
<!--
Copyright (C) 2009/2010/2011 Ulrich Apel.
This work is distributed under the conditions of the Creative Commons
Attribution-Share Alike 3.0 Licence. This means you are free:
* to Share - to copy, distribute and transmit the work
* to Remix - to adapt the work

Under the following conditions:
* Attribution. You must attribute the work by stating your use of KanjiVG in
  your own copyright header and linking to KanjiVG's website
  (http://kanjivg.tagaini.net)
* Share Alike. If you alter, transform, or build upon this work, you may
  distribute the resulting work only under the same or similar license to this
  one.

See http://creativecommons.org/licenses/by-sa/3.0/ for more details.
-->

<svg
   width="109"
   height="109"
   viewBox="0 0 109 109"
   version="1.1"
   id="svg20"
   sodipodi:docname="ヴョ.svg"
   inkscape:version="1.1 (c68e22c387, 2021-05-23)"
   xmlns:inkscape="http://www.inkscape.org/namespaces/inkscape"
   xmlns:sodipodi="http://sodipodi.sourceforge.net/DTD/sodipodi-0.dtd"
   xmlns="http://www.w3.org/2000/svg"
   xmlns:svg="http://www.w3.org/2000/svg">
  <defs
     id="defs24" />
  <sodipodi:namedview
     id="namedview22"
     pagecolor="#ffffff"
     bordercolor="#666666"
     borderopacity="1.0"
     inkscape:pageshadow="2"
     inkscape:pageopacity="0.0"
     inkscape:pagecheckerboard="0"
     showgrid="false"
     inkscape:zoom="7.0091743"
     inkscape:cx="54.5"
     inkscape:cy="54.5"
     inkscape:window-width="2491"
     inkscape:window-height="1057"
     inkscape:window-x="61"
     inkscape:window-y="-8"
     inkscape:window-maximized="1"
     inkscape:current-layer="svg20" />
  <g
     id="kvg:StrokePaths_030f4"
     style="fill:none;stroke:#000000;stroke-width:3.64818024;stroke-linecap:round;stroke-linejoin:round;stroke-miterlimit:4;stroke-dasharray:none"
     transform="matrix(0.82501119,0,0,0.81965312,-11.861303,11.263298)">
    <g
       id="kvg:030f4"
       style="stroke-width:3.64818024;stroke-miterlimit:4;stroke-dasharray:none">
      <path
         id="kvg:030f4-s1"
         d="m 53.25,14.62 c 1,1.12 1.25,3 1.25,4.62 0,1.62 0,10.76 0,12.64"
         style="stroke-width:3.64818024;stroke-miterlimit:4;stroke-dasharray:none" />
      <path
         id="kvg:030f4-s2"
         d="m 26.5,31.25 c 1,1.12 1.22,3 1.25,4.62 0.09,4.45 0.29,10.95 0.45,16.37 0.07,2.5 0.14,4.77 0.18,6.5"
         style="stroke-width:3.64818024;stroke-miterlimit:4;stroke-dasharray:none" />
      <path
         id="kvg:030f4-s3"
         d="m 29.12,35.88 c 19.38,-2.25 40.25,-4.25 49,-5.5 8.75,-1.25 8.28,0.84 6.25,6.88 -5,14.88 -20.12,43.5 -41,56.62"
         style="stroke-width:3.64818024;stroke-miterlimit:4;stroke-dasharray:none" />
      <path
         id="kvg:030f4-s4"
         d="m 85.12,16.5 c 2.75,1.75 6,5.38 7.75,8.5"
         style="stroke-width:3.64818024;stroke-miterlimit:4;stroke-dasharray:none" />
      <path
         id="kvg:030f4-s5"
         d="m 91.5,11.62 c 3.06,1.57 6.68,4.82 8.62,7.62"
         style="stroke-width:3.64818024;stroke-miterlimit:4;stroke-dasharray:none" />
    </g>
  </g>
  <g
     id="kvg:StrokePaths_030e7"
     style="fill:none;stroke:#000000;stroke-width:4.07451155;stroke-linecap:round;stroke-linejoin:round;stroke-miterlimit:4;stroke-dasharray:none"
     transform="matrix(0.73821593,0,0,0.73435827,42.268526,21.23543)">
    <g
       id="kvg:030e7"
       style="stroke-width:4.07451155;stroke-miterlimit:4;stroke-dasharray:none">
      <path
         id="kvg:030e7-s1"
         d="m 33.5,50.62 c 1.9,1.21 4.09,1.6 7.39,1.21 11.19,-1.32 21.35,-2.46 29.07,-3.44 4.79,-0.61 5.49,0.4 5.2,5.16 -0.79,12.56 -1.5,24.79 -2.4,34.21"
         style="stroke-width:4.07451155;stroke-miterlimit:4;stroke-dasharray:none" />
      <path
         id="kvg:030e7-s2"
         d="m 33.6,69.04 c 1.9,1.21 4.09,1.6 7.39,1.21 8.39,-0.99 18.23,-1.85 24.86,-2.47 2.21,-0.2 4.21,0.04 6.21,0.44"
         style="stroke-width:4.07451155;stroke-miterlimit:4;stroke-dasharray:none" />
      <path
         id="kvg:030e7-s3"
         d="m 29,90.06 c 2.2,1.05 3.79,1.36 7.29,1.05 9.99,-0.88 23.47,-2.35 33.07,-2.35 2.7,0 4.49,0 7.49,0.44"
         style="stroke-width:4.07451155;stroke-miterlimit:4;stroke-dasharray:none" />
    </g>
  </g>
  <text
     id="text7"
     style="font-size:8px;fill:#808080"
     x="64.452553"
     y="54.3134">6</text>
  <text
     id="text9-7"
     style="font-size:8px;fill:#808080"
     x="62.038521"
     y="68.355286">7</text>
  <text
     id="text11-4"
     style="font-size:8px;fill:#808080"
     x="59.966537"
     y="83.750587">8</text>
  <text
     id="text9"
     style="font-size:8px;fill:#808080"
     x="24.060209"
     y="22.691519">1</text>
  <text
     id="text11"
     style="font-size:8px;fill:#808080"
     x="4.7316756"
     y="32.849476">2</text>
  <text
     id="text13"
     style="font-size:8px;fill:#808080"
     x="12.633508"
     y="35.068062">3</text>
  <text
     id="text15"
     style="font-size:8px;fill:#808080"
     x="49.679317"
     y="27.198954">4</text>
  <text
     id="text17"
     style="font-size:8px;fill:#808080"
     x="63.370834"
     y="16.800158">5</text>
</svg>
