<?xml version="1.0" encoding="UTF-8" standalone="no"?>
<!--
Copyright (C) 2009/2010/2011 Ulrich Apel.
This work is distributed under the conditions of the Creative Commons
Attribution-Share Alike 3.0 Licence. This means you are free:
* to Share - to copy, distribute and transmit the work
* to Remix - to adapt the work

Under the following conditions:
* Attribution. You must attribute the work by stating your use of KanjiVG in
  your own copyright header and linking to KanjiVG's website
  (http://kanjivg.tagaini.net)
* Share Alike. If you alter, transform, or build upon this work, you may
  distribute the resulting work only under the same or similar license to this
  one.

See http://creativecommons.org/licenses/by-sa/3.0/ for more details.
-->

<svg
   width="109"
   height="109"
   viewBox="0 0 109 109"
   version="1.1"
   id="svg20"
   sodipodi:docname="ヴァ.svg"
   inkscape:version="1.1 (c68e22c387, 2021-05-23)"
   xmlns:inkscape="http://www.inkscape.org/namespaces/inkscape"
   xmlns:sodipodi="http://sodipodi.sourceforge.net/DTD/sodipodi-0.dtd"
   xmlns="http://www.w3.org/2000/svg"
   xmlns:svg="http://www.w3.org/2000/svg">
  <defs
     id="defs24" />
  <sodipodi:namedview
     id="namedview22"
     pagecolor="#ffffff"
     bordercolor="#666666"
     borderopacity="1.0"
     inkscape:pageshadow="2"
     inkscape:pageopacity="0.0"
     inkscape:pagecheckerboard="0"
     showgrid="false"
     inkscape:zoom="7.0091743"
     inkscape:cx="52.645288"
     inkscape:cy="54.5"
     inkscape:window-width="2491"
     inkscape:window-height="1057"
     inkscape:window-x="61"
     inkscape:window-y="-8"
     inkscape:window-maximized="1"
     inkscape:current-layer="svg20" />
  <g
     id="kvg:StrokePaths_030f4"
     style="fill:none;stroke:#000000;stroke-width:3.54238375;stroke-linecap:round;stroke-linejoin:round;stroke-miterlimit:4;stroke-dasharray:none"
     transform="matrix(0.8492789,0,0,0.84450254,-12.497419,9.9515206)">
    <g
       id="kvg:030f4"
       style="stroke-width:3.54238375;stroke-miterlimit:4;stroke-dasharray:none">
      <path
         id="kvg:030f4-s1"
         d="m 53.25,14.62 c 1,1.12 1.25,3 1.25,4.62 0,1.62 0,10.76 0,12.64"
         style="stroke-width:3.54238375;stroke-miterlimit:4;stroke-dasharray:none" />
      <path
         id="kvg:030f4-s2"
         d="m 26.5,31.25 c 1,1.12 1.22,3 1.25,4.62 0.09,4.45 0.29,10.95 0.45,16.37 0.07,2.5 0.14,4.77 0.18,6.5"
         style="stroke-width:3.54238375;stroke-miterlimit:4;stroke-dasharray:none" />
      <path
         id="kvg:030f4-s3"
         d="m 29.12,35.88 c 19.38,-2.25 40.25,-4.25 49,-5.5 8.75,-1.25 8.28,0.84 6.25,6.88 -5,14.88 -20.12,43.5 -41,56.62"
         style="stroke-width:3.54238375;stroke-miterlimit:4;stroke-dasharray:none" />
      <path
         id="kvg:030f4-s4"
         d="m 85.12,16.5 c 2.75,1.75 6,5.38 7.75,8.5"
         style="stroke-width:3.54238375;stroke-miterlimit:4;stroke-dasharray:none" />
      <path
         id="kvg:030f4-s5"
         d="m 91.5,11.62 c 3.06,1.57 6.68,4.82 8.62,7.62"
         style="stroke-width:3.54238375;stroke-miterlimit:4;stroke-dasharray:none" />
    </g>
  </g>
  <text
     id="text9"
     style="font-size:8px;fill:#808080"
     x="37.043194"
     y="22.263508">1</text>
  <text
     id="text11"
     style="font-size:8px;fill:#808080"
     x="5.7303667"
     y="32.278797">2</text>
  <text
     id="text13"
     style="font-size:8px;fill:#808080"
     x="14.48822"
     y="34.640053">3</text>
  <text
     id="text15"
     style="font-size:8px;fill:#808080"
     x="50.963352"
     y="28.482985">4</text>
  <text
     id="text17"
     style="font-size:8px;fill:#808080"
     x="65.938896"
     y="15.944136">5</text>
  <g
     id="kvg:StrokePaths_030a1"
     style="fill:none;stroke:#000000;stroke-width:5.24778841;stroke-linecap:round;stroke-linejoin:round;stroke-miterlimit:4;stroke-dasharray:none"
     transform="matrix(0.57183629,0,0,0.57150254,54.782727,35.575148)">
    <g
       id="kvg:030a1"
       style="stroke-width:5.24778841;stroke-miterlimit:4;stroke-dasharray:none">
      <path
         id="kvg:030a1-s1"
         d="m 28,42.54 c 1.91,1.22 3.16,1.13 6.74,0.59 9.03,-1.37 29.93,-5.05 38.25,-6.06 4.14,-0.5 6.33,2.36 2.08,5.47 -5.35,3.91 -10.4,7.43 -18.42,12.52"
         style="stroke-width:5.24778841;stroke-miterlimit:4;stroke-dasharray:none" />
      <path
         id="kvg:030a1-s2"
         d="m 51.55,54.18 c 0.62,1.17 0.8,2.53 0.45,4.13 -3.16,14.45 -7.75,24.91 -15.58,35.57"
         style="stroke-width:5.24778841;stroke-miterlimit:4;stroke-dasharray:none" />
    </g>
  </g>
  <text
     id="text6"
     style="font-size:8px;fill:#808080"
     x="67.735291"
     y="55.655334">6</text>
  <text
     id="text8"
     style="font-size:8px;fill:#808080"
     x="75.975708"
     y="69.515282">7</text>
</svg>
