<svg xmlns="http://www.w3.org/2000/svg" enable-background="new 0 0 24 24" height="48px" viewBox="0 0 24 24" width="48px" fill="#000000">
  <path
     style="fill:#000000;stroke-width:3"
     d="M 7,6 C 6.446,6 6,6.446 6,7 V 8 H 5 C 4.446,8 4,8.446 4,9 v 1 H 3 c -0.554,0 -1,0.446 -1,1 v 2 c 0,0.554 0.446,1 1,1 h 1 v 1 c 0,0.554 0.446,1 1,1 h 1 v 1 c 0,0.554 0.446,1 1,1 h 1 c 0.554,0 1,-0.446 1,-1 v -3 h 6 v 3 c 0,0.554 0.446,1 1,1 h 1 c 0.554,0 1,-0.446 1,-1 v -1 h 1 c 0.554,0 1,-0.446 1,-1 v -1 h 1 c 0.554,0 1,-0.446 1,-1 v -2 c 0,-0.554 -0.446,-1 -1,-1 H 20 V 9 C 20,8.446 19.554,8 19,8 H 18 V 7 C 18,6.446 17.554,6 17,6 h -1 c -0.554,0 -1,0.446 -1,1 v 3 H 9 V 7 C 9,6.446 8.554,6 8,6 Z" />
</svg>
