<svg xmlns="http://www.w3.org/2000/svg" height="48" viewBox="0 0 48 48" width="48">
<path d="m 33.925781,8.0019531 c 0.530305,-0.019756 1.04672,0.172056 1.435547,0.5332031 0.808873,0.7519041 0.855214,2.0171078 0.103516,2.8261718 L 28.501953,18.859375 33.210938,22 H 40 a -4,4 0 0 1 0.9375,0.123047 -4,4 0 0 1 0.253906,0.07813 -4,4 0 0 1 0.644531,0.265625 -4,4 0 0 1 0.248047,0.132812 -4,4 0 0 1 0.744141,0.572266 -4,4 0 0 1 0.572266,0.744141 -4,4 0 0 1 0.132812,0.248046 -4,4 0 0 1 0.265625,0.644532 -4,4 0 0 1 0.07813,0.253906 A -4,4 0 0 1 44,26 v 8 a -4,4 0 0 1 -4,4 h -5.119141 a -5,5 0 0 1 -1.90039,0.902344 l -20.392578,2.039062 a -3,3 0 0 1 -1.175782,-5.882812 l 10.919922,-3.320313 c 0.08874,-0.0265 0.175543,-0.05913 0.259766,-0.09766 0.08648,-0.03957 0.170023,-0.08526 0.25,-0.136719 0.08011,-0.05114 0.156478,-0.107924 0.228515,-0.169922 0.07249,-0.06275 0.140372,-0.130635 0.203126,-0.203125 0.062,-0.07204 0.118782,-0.148403 0.169921,-0.228515 0.05146,-0.07998 0.09715,-0.163522 0.136719,-0.25 0.03954,-0.08671 0.07282,-0.176126 0.09961,-0.267578 0.02673,-0.0909 0.04696,-0.183579 0.06055,-0.277344 0.01396,-0.09442 0.02116,-0.189713 0.02148,-0.285156 -3.48e-4,-0.09544 -0.0075,-0.190739 -0.02148,-0.285157 -0.0135,-0.09442 -0.03373,-0.18776 -0.06055,-0.279297 -0.02679,-0.09145 -0.06007,-0.180872 -0.09961,-0.267578 -0.03957,-0.08648 -0.08526,-0.170023 -0.136719,-0.25 -0.05114,-0.08011 -0.107924,-0.156478 -0.169921,-0.228515 -0.06282,-0.07182 -0.130702,-0.139046 -0.203126,-0.201172 -0.0125,-0.01013 -0.02364,-0.02288 -0.03516,-0.03516 l -1.93164,-1.447266 -4.144532,4.462891 -3.667968,1.115234 3.351562,-6.548828 c 0.0035,-0.0089 0.101563,-0.197266 0.101563,-0.197266 L 32.535156,8.6386719 C 32.896032,8.2505724 33.396189,8.021568 33.925781,8.0019531 Z"/>
<path d="m 19.99609,14 a -4,4 0 0 1 0.29102,0.0293 -4,4 0 0 1 0.38086,0.03711 -4,4 0 0 1 0.38086,0.0918 -4,4 0 0 1 0.37695,0.113281 -4,4 0 0 1 0.36328,0.169922 -4,4 0 0 1 0.33008,0.177735 -4,4 0 0 1 0.0996,0.05273 l 1.22461,0.816406 -7.05664,7.601563 -1.26563,1.361328 -5.26367,10.291016 c -0.97589,2.440998 -4.596479,1.031973 -3.749997,-1.38086 a -2.0002149,2.0002149 0 0 1 0.03516,-0.103516 L 9.16796,23.044925 a -3.0007814,3.0007814 0 0 1 0.0352,-0.119141 l 0.0117,-0.03906 a -3,3 0 0 1 0.34766,-0.621094 -3.0007814,3.0007814 0 0 1 0.13672,-0.166016 -3,3 0 0 1 0.40234,-0.402343 -3.0007814,3.0007814 0 0 1 0.0977,-0.09766 l 6.89258,-6.332031 a -4,4 0 0 1 0.3125,-0.287109 l 0.19531,-0.179688 a -4,4 0 0 1 0.0918,-0.05664 -4,4 0 0 1 0.31836,-0.19336 -4,4 0 0 1 0.36717,-0.197267 -4,4 0 0 1 0.34961,-0.126954 -4,4 0 0 1 0.38867,-0.117187 -4,4 0 0 1 0.0996,-0.03125 -4,4 0 0 1 0.28125,-0.02734 -4,4 0 0 1 0.39454,-0.04101 A -4,4 0 0 1 19.99609,14 Z"/>
<path d="m 4,42 2.554688,-5.382812 v 0 c 0.110943,0.06258 0.225758,0.11803 0.34375,0.166015 0.132825,0.05263 0.269239,0.09571 0.408203,0.128906 0.139414,0.03354 0.281053,0.05703 0.423828,0.07031 0.14221,0.01278 0.285152,0.01539 0.427734,0.0078 -0.04224,0.162541 -0.07421,0.327582 -0.0957,0.494141 -0.02094,0.166497 -0.03137,0.334145 -0.03125,0.501953 -7.7e-4,0.167766 0.009,0.335415 0.0293,0.501953 0.02085,0.166517 0.05217,0.331557 0.09375,0.494141 0.04127,0.163244 0.0928,0.32372 0.154297,0.480469 0.06199,0.156052 0.133749,0.308045 0.214844,0.455078 0.05363,0.09276 0.11097,0.183328 0.171874,0.271484 L 4,42"/>
</svg>
