<svg xmlns="http://www.w3.org/2000/svg" height="48" viewBox="0 0 48 48" width="48">
<path d="M 14.074219 8.0019531 C 13.543914 7.9821971 13.027499 8.1740091 12.638672 8.5351562 C 11.829799 9.2870603 11.783458 10.552264 12.535156 11.361328 L 19.498047 18.859375 L 14.789062 22 L 8 22 A 4 4 0 0 0 7.0625 22.123047 A 4 4 0 0 0 6.8085938 22.201172 A 4 4 0 0 0 6.1640625 22.466797 A 4 4 0 0 0 5.9160156 22.599609 A 4 4 0 0 0 5.171875 23.171875 A 4 4 0 0 0 4.5996094 23.916016 A 4 4 0 0 0 4.4667969 24.164062 A 4 4 0 0 0 4.2011719 24.808594 A 4 4 0 0 0 4.1230469 25.0625 A 4 4 0 0 0 4 26 L 4 34 A 4 4 0 0 0 8 38 L 13.119141 38 A 5 5 0 0 0 15.019531 38.902344 L 35.412109 40.941406 A 3 3 0 0 0 36.587891 35.058594 L 25.667969 31.738281 C 25.579229 31.711781 25.492426 31.679155 25.408203 31.640625 C 25.321723 31.601055 25.23818 31.555365 25.158203 31.503906 C 25.078093 31.452766 25.001725 31.395982 24.929688 31.333984 C 24.857198 31.271234 24.789316 31.203349 24.726562 31.130859 C 24.664562 31.058819 24.60778 30.982456 24.556641 30.902344 C 24.505181 30.822364 24.459491 30.738822 24.419922 30.652344 C 24.380382 30.565634 24.347103 30.476218 24.320312 30.384766 C 24.293582 30.293866 24.273356 30.201187 24.259766 30.107422 C 24.245806 30.013002 24.238611 29.917709 24.238281 29.822266 C 24.238629 29.726826 24.245786 29.631527 24.259766 29.537109 C 24.273266 29.442689 24.293494 29.349349 24.320312 29.257812 C 24.347102 29.166363 24.380382 29.07694 24.419922 28.990234 C 24.459492 28.903754 24.505182 28.820211 24.556641 28.740234 C 24.607781 28.660124 24.664565 28.583756 24.726562 28.511719 C 24.789382 28.439899 24.857264 28.372673 24.929688 28.310547 C 24.942187 28.300417 24.953324 28.287671 24.964844 28.275391 L 26.896484 26.828125 L 31.041016 31.291016 L 34.708984 32.40625 L 31.357422 25.857422 C 31.353922 25.848522 31.255859 25.660156 31.255859 25.660156 L 15.464844 8.6386719 C 15.103968 8.2505724 14.603811 8.021568 14.074219 8.0019531 z "/>
<path d="m 28.00391,14 a 4,4 0 0 0 -0.29102,0.0293 4,4 0 0 0 -0.38086,0.03711 4,4 0 0 0 -0.38086,0.0918 4,4 0 0 0 -0.37695,0.113281 4,4 0 0 0 -0.36328,0.169922 4,4 0 0 0 -0.33008,0.177735 4,4 0 0 0 -0.0996,0.05273 l -1.22461,0.816406 7.05664,7.601563 1.26563,1.361328 5.26367,10.291016 c 0.97589,2.440998 4.596479,1.031973 3.749997,-1.38086 a 2.0002149,2.0002149 0 0 0 -0.03516,-0.103516 L 38.83204,23.044925 a 3.0007814,3.0007814 0 0 0 -0.0352,-0.119141 l -0.0117,-0.03906 a 3,3 0 0 0 -0.34766,-0.621094 3.0007814,3.0007814 0 0 0 -0.13672,-0.166016 3,3 0 0 0 -0.40234,-0.402343 3.0007814,3.0007814 0 0 0 -0.0977,-0.09766 L 30.90814,15.26758 a 4,4 0 0 0 -0.3125,-0.287109 l -0.19531,-0.179688 a 4,4 0 0 0 -0.0918,-0.05664 4,4 0 0 0 -0.31836,-0.19336 4,4 0 0 0 -0.36717,-0.197267 4,4 0 0 0 -0.34961,-0.126954 4,4 0 0 0 -0.38867,-0.117187 4,4 0 0 0 -0.0996,-0.03125 4,4 0 0 0 -0.28125,-0.02734 4,4 0 0 0 -0.39454,-0.04101 A 4,4 0 0 0 28.00391,14 Z"/>
<path d="m 44,42 -2.554688,-5.382812 v 0 c -0.110943,0.06258 -0.225758,0.11803 -0.34375,0.166015 -0.132825,0.05263 -0.269239,0.09571 -0.408203,0.128906 -0.139414,0.03354 -0.281053,0.05703 -0.423828,0.07031 -0.14221,0.01278 -0.285152,0.01539 -0.427734,0.0078 0.04224,0.162541 0.07421,0.327582 0.0957,0.494141 0.02094,0.166497 0.03137,0.334145 0.03125,0.501953 7.7e-4,0.167766 -0.009,0.335415 -0.0293,0.501953 -0.02085,0.166517 -0.05217,0.331557 -0.09375,0.494141 -0.04127,0.163244 -0.0928,0.32372 -0.154297,0.480469 -0.06199,0.156052 -0.133749,0.308045 -0.214844,0.455078 -0.05363,0.09276 -0.11097,0.183328 -0.171874,0.271484 L 44,42"/>
</svg>
