<svg xmlns="http://www.w3.org/2000/svg" height="48" viewBox="0 0 48 48" width="48">
  <path
     style="fill:none;stroke:#000000;stroke-width:4;stroke-linecap:round;stroke-linejoin:round;stroke-miterlimit:4;stroke-dasharray:none;stroke-opacity:1"
     d="m 25.311558,26.903714 c 3.756358,-0.483123 13.022436,-1.689602 16.690411,-1.901493 -1.243965,3.025674 -3.925857,5.891815 -7.206416,6.676017"/>
  <path
     style="fill:none;stroke:#000000;stroke-width:4;stroke-linecap:round;stroke-linejoin:round;stroke-miterlimit:4;stroke-dasharray:none;stroke-opacity:1"
     d="m 30.046729,41.998146 c 2.66604,-2.10914 4.41922,-7.664891 4.049878,-11.465294"/>
  <path
     style="fill:none;stroke:#000000;stroke-width:4;stroke-linecap:round;stroke-linejoin:miter;stroke-miterlimit:4;stroke-dasharray:none;stroke-opacity:1"
     d="M 7.4683127,10.788617 C 10.245567,10.682344 14.1162,10.375762 17.737396,9.6123395"/>
  <path
     style="fill:none;stroke:#000000;stroke-width:4;stroke-linecap:round;stroke-linejoin:round;stroke-miterlimit:4;stroke-dasharray:none;stroke-opacity:1"
     d="M 12.677912,6.0140399 C 10.821124,12.664704 11.322567,19.189291 12.551375,24.84391"/>
  <path
     style="fill:none;stroke:#000000;stroke-width:4;stroke-linecap:round;stroke-linejoin:round;stroke-miterlimit:4;stroke-dasharray:none;stroke-opacity:1"
     d="M 20.000435,14.615662 C 17.752279,19.883787 9.3901617,27.139186 6.8257567,24.270444 3.9971893,21.106186 8.6554116,16.504139 14.911475,15.929205 c 8.816455,-0.810236 9.351914,6.873519 3.374274,9.053854"/>
  <path
     style="fill:none;stroke:#000000;stroke-width:4;stroke-linecap:round;stroke-linejoin:round;stroke-miterlimit:4;stroke-dasharray:none;stroke-opacity:1"
     d="M 23.241012,6.0160088 A 18,18 0 0 1 41.147697,18.526748"/>
  <path
     style="fill:none;stroke:#000000;stroke-width:4;stroke-linecap:round;stroke-linejoin:round;stroke-miterlimit:4;stroke-dasharray:none;stroke-opacity:1"
     d="M 23.251947,41.984449 A 18,18 0 0 1 7.6301774,31.485246"/>
</svg>
