<svg xmlns="http://www.w3.org/2000/svg" height="48" viewBox="0 0 48 48" width="48">
  <path
     style="fill:#000000;fill-opacity:1;stroke:none;stroke-width:3;stroke-linecap:round;stroke-linejoin:round"
     d="M 8 4 C 5.790861 4 4 5.790861 4 8 L 4 40 C 4 42.209139 5.790861 44 8 44 L 40 44 C 42.209139 44 44 42.209139 44 40 L 44 8 C 44 5.790861 42.209139 4 40 4 L 8 4 z M 7 7 L 23 7 L 23 8 L 25 8 L 25 7 L 41 7 L 41 23 L 40 23 L 40 25 L 41 25 L 41 41 L 25 41 L 25 40 L 23 40 L 23 41 L 7 41 L 7 25 L 8 25 L 8 23 L 7 23 L 7 7 z "/>
  <path
     style="stroke-width:3;stroke-linecap:round;stroke-linejoin:round"
     d="m 30,23 h 8 v 2 h -8 z"/>
  <path
     style="stroke-width:3;stroke-linecap:round;stroke-linejoin:round"
     d="m 10,23 h 8 v 2 h -8 z"/>
  <path
     style="fill:#000000;fill-opacity:1;stroke:none;stroke-width:3;stroke-linecap:round;stroke-linejoin:round"
     d="M 23 20 L 23 23 L 20 23 L 20 25 L 23 25 L 23 28 L 25 28 L 25 25 L 28 25 L 28 23 L 25 23 L 25 20 L 23 20 z "/>
  <path
     style="stroke-width:3;stroke-linecap:round;stroke-linejoin:round"
     d="m 23,10 h 2 v 8 h -2 z"/>
  <path
     style="stroke-width:3;stroke-linecap:round;stroke-linejoin:round"
     d="m 23,30 h 2 v 8 h -2 z"/>
</svg>
