<svg xmlns="http://www.w3.org/2000/svg" height="48" viewBox="0 0 48 48" width="48">
<path
style="fill:#000000;fill-opacity:1;stroke:none;stroke-width:3;stroke-linecap:round;stroke-linejoin:round"
d="M 30.216797 10.054688 L 31.412109 14.515625 L 40 16.818359 L 33.789062 40 L 26.865234 38.144531 L 19.136719 40.214844 L 32.753906 43.863281 A 4 4 0 0 0 37.652344 41.035156 L 43.863281 17.853516 A 4 4 0 0 0 41.035156 12.953125 L 30.216797 10.054688 z "/>
<path
style="fill:#000000;fill-opacity:1;stroke:none;stroke-width:3;stroke-linecap:round;stroke-linejoin:round"
d="M 6.9647239,8.2774015 A 4,4 0 0 0 4.1362968,13.176381 l 6.2116572,23.18222 a 4,4 0 0 0 4.898979,2.828427 l 15.454814,-4.141105 a 4,4 0 0 0 2.828427,-4.898979 L 27.318517,6.9647239 A 4,4 0 0 0 22.419537,4.1362968 Z M 8,12.141105 23.454813,8 29.66647,31.18222 14.211657,35.323325 Z"/>
<path
style="fill:#000000;fill-opacity:1;stroke:none;stroke-width:3;stroke-linecap:round;stroke-linejoin:round"
d="m 17.074767,11.786146 a 2,2 0 0 0 -1.078023,0.889398 l -2.999681,5.195597 a 2,2 0 0 0 0.731973,2.731759 2,2 0 0 0 2.731759,-0.731973 l 0.585573,-1.014242 2.891494,10.791203 a 2,2 0 0 0 2.44949,1.414214 2,2 0 0 0 1.414213,-2.44949 L 19.66046,13.157799 a 2,2 0 0 0 -0.931958,-1.214227 2,2 0 0 0 -1.653735,-0.157426 z"/>
</svg>
