<svg xmlns="http://www.w3.org/2000/svg" height="48" viewBox="0 0 48 48" width="48">
<path d="m 6.5156954,44.248642 v 0 c 1.9920002,0 3.6000006,-1.608 3.6000006,-3.6 V 26.248639 c 0,-1.992 -1.6080004,-3.6 -3.6000006,-3.6 v 0 c -1.992,0 -3.6,1.608 -3.6,3.6 v 14.400003 c 0,1.992 1.608,3.6 3.6,3.6 z"/>
<path d="m 29.971717,4.0165584 c -0.659886,0 -1.215336,0.491724 -1.292969,1.138672 l -0.375,2.988281 c -0.530496,0.24584 -1.034931,0.544446 -1.513672,0.880859 l -2.783203,-1.177734 c -0.595192,-0.258779 -1.293714,-0.026345 -1.617188,0.542968 l -2.419922,4.1933596 c -0.323474,0.569313 -0.179666,1.280533 0.337891,1.68164 l 2.40625,1.824219 c -0.02588,0.284656 -0.03906,0.569592 -0.03906,0.867188 0,0.297596 0.01318,0.581311 0.03906,0.878906 l -2.40625,1.824219 c -0.517557,0.388168 -0.661364,1.11428 -0.337891,1.683594 l 2.419922,4.177734 c 0.323474,0.569313 1.021996,0.803701 1.617188,0.544922 l 2.783203,-1.177735 c 0.478741,0.336413 0.983176,0.633067 1.513672,0.878907 l 0.375,2.990234 c 0.07763,0.646947 0.634303,1.138672 1.28125,1.138672 h 4.826172 c 0.646947,0 1.203617,-0.491725 1.28125,-1.138672 l 0.375,-2.990234 c 0.530496,-0.24584 1.034931,-0.542494 1.513672,-0.878907 l 2.78125,1.177735 c 0.595192,0.258779 1.293713,0.02439 1.617187,-0.544922 l 2.419922,-4.177734 c 0.323474,-0.569313 0.181621,-1.282487 -0.335938,-1.683594 l -2.40625,-1.824219 c 0.03882,-0.297595 0.05078,-0.58131 0.05078,-0.878906 0,-0.297596 -0.01318,-0.583265 -0.03906,-0.88086 l 2.40625,-1.824218 c 0.517557,-0.388168 0.661365,-1.112328 0.337891,-1.681641 L 42.368201,8.3896044 c -0.323474,-0.569312 -1.021995,-0.801747 -1.617188,-0.542968 l -2.783203,1.177734 c -0.478741,-0.336413 -0.983176,-0.635019 -1.513671,-0.880859 l -0.375,-2.988281 c -0.07763,-0.646947 -0.634303,-1.138672 -1.28125,-1.138672 z m 2.408203,4.9375 c 0.11002,0 0.216389,0.011793 0.320312,0.033203 0.10393,0.02141 0.203188,0.05312 0.298828,0.09375 0.09564,0.040632 0.186305,0.088814 0.271485,0.146484 0.08517,0.057667 0.165771,0.124746 0.238281,0.197266 0.07252,0.072513 0.137642,0.151158 0.195313,0.236328 0.05767,0.085172 0.107807,0.175844 0.148437,0.271484 0.04063,0.095642 0.07234,0.1968556 0.09375,0.3007806 0.0214,0.103926 0.0332,0.210294 0.0332,0.320313 h 1.59961 c 0.11002,0 0.216389,0.01179 0.320312,0.0332 0.103932,0.02141 0.205141,0.05312 0.300781,0.09375 0.09564,0.04063 0.186305,0.08881 0.271485,0.146484 0.08517,0.05767 0.165771,0.124746 0.238281,0.197266 0.07252,0.07251 0.137642,0.151158 0.195312,0.236328 0.05767,0.08517 0.107808,0.175845 0.148438,0.271485 0.04063,0.09564 0.07234,0.196856 0.09375,0.300781 0.0214,0.103925 0.0332,0.212245 0.0332,0.322266 0,0.11002 -0.0118,0.218341 -0.0332,0.322265 -0.02141,0.103925 -0.05312,0.201235 -0.09375,0.296875 -0.04063,0.09564 -0.09077,0.188268 -0.148438,0.273438 -0.05767,0.08517 -0.122792,0.163808 -0.195312,0.236328 -0.07251,0.07251 -0.153111,0.137642 -0.238281,0.195312 -0.08518,0.05766 -0.175845,0.107808 -0.271485,0.148438 -0.09564,0.04063 -0.196849,0.07234 -0.300781,0.09375 -0.103922,0.02141 -0.210293,0.0332 -0.320312,0.0332 h -4.800782 v 1.601562 h 4.800782 c 0.11002,0 0.216389,0.0098 0.320312,0.03125 0.103932,0.02141 0.205141,0.05312 0.300781,0.09375 0.09564,0.04063 0.186305,0.09077 0.271485,0.148438 0.08517,0.05767 0.165771,0.122792 0.238281,0.195312 0.07252,0.07251 0.137642,0.151158 0.195312,0.236329 0.05767,0.08517 0.107808,0.175844 0.148438,0.271484 0.04063,0.09564 0.07234,0.196856 0.09375,0.300781 0.0214,0.103925 0.0332,0.212246 0.0332,0.322266 v 4.800781 c 0,0.11002 -0.0118,0.218344 -0.0332,0.322266 -0.02141,0.103923 -0.05312,0.203188 -0.09375,0.298828 -0.04063,0.09564 -0.09077,0.186304 -0.148438,0.271484 -0.05767,0.08517 -0.122792,0.163808 -0.195312,0.236328 -0.07251,0.07251 -0.153111,0.137643 -0.238281,0.195313 -0.08518,0.05767 -0.175845,0.107807 -0.271485,0.148437 -0.09564,0.04063 -0.196849,0.07234 -0.300781,0.09375 -0.103922,0.02141 -0.210293,0.0332 -0.320312,0.0332 h -1.59961 c 0,0.11002 -0.0118,0.218343 -0.0332,0.322266 -0.02141,0.103922 -0.05312,0.203188 -0.09375,0.298828 -0.04063,0.09564 -0.09077,0.186305 -0.148437,0.271485 -0.05767,0.08517 -0.122793,0.165761 -0.195313,0.238281 -0.07251,0.07251 -0.153111,0.137642 -0.238281,0.195312 -0.08518,0.05767 -0.175845,0.107808 -0.271485,0.148438 -0.09564,0.04063 -0.194898,0.07234 -0.298828,0.09375 -0.103923,0.02141 -0.210292,0.0332 -0.320312,0.0332 -0.11002,0 -0.218343,-0.01179 -0.322266,-0.0332 -0.103922,-0.02141 -0.205141,-0.05312 -0.300781,-0.09375 -0.09564,-0.04063 -0.186304,-0.09077 -0.271484,-0.148438 -0.08517,-0.05767 -0.163809,-0.122802 -0.236329,-0.195312 -0.07251,-0.07252 -0.139595,-0.153102 -0.197265,-0.238281 -0.05767,-0.08517 -0.105845,-0.175845 -0.146485,-0.271485 -0.04063,-0.09565 -0.07234,-0.194906 -0.09375,-0.298828 -0.02141,-0.103923 -0.0332,-0.212246 -0.0332,-0.322266 h -1.599609 c -0.11002,0 -0.218343,-0.01179 -0.322266,-0.0332 -0.103923,-0.02141 -0.205141,-0.05312 -0.300781,-0.09375 -0.09564,-0.04063 -0.186304,-0.09077 -0.271484,-0.148437 -0.08517,-0.05767 -0.163808,-0.122803 -0.236328,-0.195313 -0.07251,-0.07252 -0.139596,-0.151148 -0.197266,-0.236328 -0.05767,-0.08518 -0.105845,-0.175844 -0.146484,-0.271484 -0.04063,-0.09565 -0.07234,-0.194905 -0.09375,-0.298828 -0.02141,-0.103922 -0.0332,-0.212246 -0.0332,-0.322266 0,-0.110019 0.01179,-0.218343 0.0332,-0.322266 0.02141,-0.103922 0.05312,-0.205141 0.09375,-0.300781 0.04064,-0.09564 0.08881,-0.186314 0.146484,-0.271484 0.05767,-0.08517 0.124755,-0.163808 0.197266,-0.236328 0.07252,-0.07251 0.151158,-0.137643 0.236328,-0.195313 0.08518,-0.05767 0.175844,-0.107807 0.271484,-0.148437 0.09564,-0.04063 0.196858,-0.07234 0.300781,-0.09375 0.103923,-0.02141 0.212246,-0.03125 0.322266,-0.03125 h 4.800781 V 18.55562 h -4.800781 c -0.11002,0 -0.218343,-0.01179 -0.322266,-0.0332 C 28.752562,18.50101 28.651344,18.4693 28.555704,18.42867 28.460064,18.38804 28.3694,18.3379 28.28422,18.280233 28.19905,18.222563 28.120412,18.15744 28.047892,18.08492 c -0.07251,-0.07251 -0.139596,-0.151158 -0.197266,-0.236328 -0.05767,-0.08517 -0.105845,-0.175844 -0.146484,-0.271485 -0.04063,-0.09564 -0.07234,-0.194902 -0.09375,-0.298828 -0.02141,-0.103925 -0.0332,-0.212245 -0.0332,-0.322265 V 12.15523 c 0,-0.110021 0.01179,-0.218341 0.0332,-0.322266 0.02141,-0.103925 0.05312,-0.205141 0.09375,-0.300781 0.04064,-0.09564 0.08881,-0.186315 0.146484,-0.271485 0.05767,-0.08517 0.124755,-0.163808 0.197266,-0.236328 0.07252,-0.07251 0.151158,-0.139595 0.236328,-0.197266 0.08518,-0.05767 0.175844,-0.105854 0.271484,-0.146484 0.09564,-0.04063 0.196858,-0.07234 0.300781,-0.09375 0.103923,-0.02141 0.212246,-0.0332 0.322266,-0.0332 h 1.599609 c 0,-0.11002 0.01179,-0.216387 0.0332,-0.320313 0.02141,-0.103926 0.05312,-0.205141 0.09375,-0.3007806 0.04064,-0.095642 0.08882,-0.186314 0.146485,-0.271484 0.05767,-0.085172 0.124755,-0.163808 0.197265,-0.236328 0.07252,-0.072514 0.151159,-0.139596 0.236329,-0.197266 0.08517,-0.057661 0.175844,-0.105854 0.271484,-0.146484 0.09564,-0.04063 0.196859,-0.07234 0.300781,-0.09375 0.103923,-0.02141 0.212246,-0.033203 0.322266,-0.033203 z" />
<path d="m 25.715696,34.648639 -2.472,-0.816 c -0.648,-0.216 -1.008,-0.936 -0.768,-1.584 v 0 c 0.24,-0.672 1.008,-1.008 1.656,-0.72 l 1.584,0.72 h 6.288 c 1.176,0 2.112,-0.936 2.112,-2.112 v 0 c 0,-0.888 -0.552,-1.68 -1.392,-1.992 l -14.808,-5.28 c -0.408,-0.144 -0.816,-0.216 -1.224,-0.216 h -2.976 v 17.664003 l 13.272,3.624 c 0.744,0.192 1.536,0.168 2.232,-0.12 l 14.496,-5.568003 v 0 c 0,-1.992 -1.608,-3.6 -3.6,-3.6 z"/>
</svg>
