<svg xmlns="http://www.w3.org/2000/svg" height="48px" viewBox="0 0 24 24" width="48px" fill="#000000">
  <path
     d="m 10.665039,2.75 c -0.26,0 -0.519531,0.050391 -0.7695305,0.1503906 l -7.360352,3.0498049 c -1.02,0.42 -1.509844,1.589609 -1.089844,2.599609 l 4.959961,11.9697265 c 0.31,0.75 1.040547,1.210469 1.810547,1.230469 0.26,0 0.530039,-0.04039 0.790039,-0.150391 l 7.3701165,-3.049805 c 0.75,-0.309999 1.209493,-1.029804 1.229493,-1.799804 0.01,-0.27 -0.04039,-0.539805 -0.150391,-0.799804 L 12.495117,3.9804688 C 12.185117,3.2204688 11.445039,2.76 10.665039,2.75 Z m 3.480469,0 3.450195,8.339844 V 4.75 c 0,-1.1 -0.9,-2 -2,-2 z m 5.459961,1.540039 v 9.030274 l 2.429687,-5.860352 c 0.41,-1.02 -0.07984,-2.1903515 -1.089844,-2.6103516 z M 8.6289065,5.9658205 a -4,4 0 0 1 3.5908195,2.4677735 -4,4 0 0 1 -2.165039,5.226562 -4,4 0 0 1 -5.2255855,-2.165039 -4,4 0 0 1 2.164063,-5.2265625 -4,4 0 0 1 1.635742,-0.302734 z m 5.4248045,8.2021485 1.148437,2.77246 -2.771484,1.147461 -1.148438,-2.771484 z m -3.695313,1.53125 1.148438,2.771484 -2.7714845,1.148437 -1.148437,-2.772461 z"
 />
</svg>
