<?xml version="1.0" encoding="UTF-8" standalone="no"?>
<svg
   width="320"
   height="320"
   viewBox="0 0 320 320"
   version="1.1"
   xmlns="http://www.w3.org/2000/svg">
  <circle
     style="fill:#b2a95a;fill-opacity:1;stroke-width:5.98411;stroke-linecap:round;stroke-linejoin:round"
     id="path1556"
     cx="160"
     cy="160"
     r="160" />
  <path
     style="fill:#ffffff;stroke:#000000;stroke-width:1px;stroke-linecap:butt;stroke-linejoin:miter;stroke-opacity:1;fill-opacity:1"
     d="m 161.06242,160.21248 c 3.20483,-1.33535 8.86659,-5.90831 11.89907,-8.07437 3.67158,-2.62255 7.48752,-4.90969 11.04913,-7.6494 1.87012,-1.43855 5.33636,-2.78655 6.79947,-4.24967 0.10017,-0.10016 -0.3071,0.0786 -0.42496,0 -0.75471,-0.50313 -1.48346,-1.05849 -2.12484,-1.69986 -2.73914,-2.73915 -7.3309,-7.39478 -9.34927,-10.62417 -3.02836,-4.84538 -5.42612,-13.00824 -6.3745,-18.69854 -0.55446,-3.32674 -0.20416,-6.46213 -0.42497,-9.774239 -0.52132,-7.819885 -1.45247,-11.386753 2.97477,-18.273572 1.3905,-2.162997 4.38919,-5.994976 6.3745,-7.649403 5.40596,-4.504967 21.763,-7.381039 28.47278,-8.499336 13.59713,-2.266189 35.61028,-6.120167 48.87118,-1.699867 3.2992,1.099734 0.42734,0.305584 2.5498,2.124834 0.62714,0.537545 1.51088,0.722344 2.12484,1.274901 3.14962,2.834657 5.7626,7.030354 8.49933,10.199203 2.88184,3.336866 5.12022,5.098448 7.22444,8.924302 1.40735,2.558818 2.14959,5.43518 3.39973,8.07437 5.61175,11.847027 11.17243,27.211877 7.22444,40.371847 -2.69407,8.98021 -9.2804,16.48803 -16.57371,22.09827 -1.82778,1.40599 -3.15985,3.42766 -5.0996,4.67464 -2.23877,1.43921 -4.84395,2.20949 -7.22444,3.39973 -1.13324,0.56662 -2.19153,1.31833 -3.39973,1.69987 -1.215,0.38368 -9.33589,1.54972 -10.1992,1.69987 -2.77562,0.48271 -9.83032,2.2836 -12.74901,1.69986 -0.3106,-0.0621 -0.56662,-0.28331 -0.84993,-0.42496 -0.56662,-0.14166 -1.12032,-0.35253 -1.69987,-0.42497 -0.56224,-0.0703 -1.17377,0.21044 -1.69986,0 -1.38423,0.23394 -0.0243,-1.07457 -0.42497,-1.2749 -1.32432,-0.66216 -3.27098,-0.33913 -4.67464,-1.2749 -1.08993,-0.72662 -5.29252,-4.75198 -5.52456,-4.67464 -3.61045,1.20349 -7.30718,2.50879 -11.04914,3.39974 -1.40533,0.3346 -2.86598,0.43483 -4.24967,0.84993 -1.46133,0.4384 -2.76954,1.32984 -4.24967,1.69987 -1.38111,0.34528 -2.85658,0.13168 -4.24967,0.42497 -2.4563,0.51711 -4.85739,1.2894 -7.22443,2.12483 -3.99877,1.41133 -7.86233,3.32906 -11.89907,4.67463 -1.79387,0.59796 -5.47139,1.23239 -7.22444,1.69987 -1.7143,0.45715 -4.53385,2.31342 -6.3745,1.69987 -0.13439,-0.0448 0.0448,-0.29058 0,-0.42497 -0.20033,-0.60099 -0.6496,-1.09887 -0.84993,-1.69987 -0.21249,-0.63745 0.42496,-0.42496 0,-1.2749 -0.0634,-0.1267 -0.38017,0.13439 -0.42497,0 -1.13324,-3.39973 0.37775,-0.18887 0,-1.69986 -0.91176,-3.64705 -0.51951,-7.50805 -2.5498,-11.68659 0,-0.77911 0.90449,-0.73105 1.69987,-1.06242 z"
     id="path41"/>
  <path
     style="fill:none;stroke:#000000;stroke-width:1px;stroke-linecap:butt;stroke-linejoin:miter;stroke-opacity:1"
     d="m 214.18327,96.467463 c 1.2749,0.566623 2.47871,1.332781 3.8247,1.699868 1.79754,0.490237 3.68673,0.543627 5.52457,0.849933 16.67848,2.779746 -3.17747,-0.278425 16.14873,2.549806 3.37919,0.49451 9.27041,1.69986 13.17398,1.69986"
     id="path43" />
  <path
     style="fill:none;stroke:#000000;stroke-width:1px;stroke-linecap:butt;stroke-linejoin:miter;stroke-opacity:1"
     d="m 240.53121,88.818061 c -3.35298,6.073764 -3.91014,12.929329 -5.52457,19.548469 -0.7331,3.0057 -1.81857,5.91816 -2.5498,8.92431 -1.4349,5.89904 -2.28925,11.96269 -3.8247,17.8486 -0.33922,1.30035 -0.94897,2.52096 -1.2749,3.8247 -0.24294,0.97175 -0.16142,2.00841 -0.42497,2.97477 -0.97663,3.58099 -0.84993,0.33842 -0.84993,2.5498"
     id="path45" />
  <path
     style="fill:none;stroke:#000000;stroke-width:1px;stroke-linecap:butt;stroke-linejoin:miter;stroke-opacity:1"
     d="m 248.18061,116.4409 c -2.55444,6.92966 -7.57366,12.67327 -12.749,17.84861 -0.70828,0.70828 -1.27177,1.59987 -2.12484,2.12483 -0.27022,0.16629 -4.23186,1.92126 -5.52457,1.2749 -0.89442,-0.44721 -0.80544,-0.82768 -1.69986,-1.2749 -0.40067,-0.20033 -0.92511,-0.14513 -1.2749,-0.42496 -0.39883,-0.31906 -0.46215,-0.94252 -0.84994,-1.2749 -0.83516,-0.71585 -3.09072,-1.57117 -3.8247,-2.54981 -1.64474,-2.19298 -3.95692,-9.45628 -2.12483,-11.89907 1.59284,-2.12379 5.79855,-2.69948 8.07437,-3.39973 3.95365,-1.21651 4.19265,-1.69987 8.49933,-1.69987 3.58191,0 5.75536,0.54036 8.92431,2.12484 1.69477,0.84739 2.52444,0.63882 3.8247,2.12483 0.54391,0.62162 0.72614,1.50748 1.2749,2.12483 0.6026,0.67793 1.48346,1.0585 2.12483,1.69987 1.38603,1.38603 5.40601,8.72183 5.94954,10.62417 0.18337,0.64181 0.2461,3.63441 0,4.24967 -0.13191,0.32978 -2.33822,2.83371 -2.5498,2.97477 -0.2642,0.17613 -3.76923,0.8348 -3.82471,0.84993 -3.9721,1.0833 -8.14082,3.39974 -12.32403,3.39974"
     id="path47" />
  <path
     style="fill:#ffffff;stroke:#000000;stroke-width:1px;stroke-linecap:butt;stroke-linejoin:miter;stroke-opacity:1;fill-opacity:1"
     d="m 127.49004,161.91235 c 1.65877,-0.98018 3.03372,-2.38994 4.67463,-3.39973 3.62128,-2.22848 7.38417,-4.21864 11.04914,-6.37451 0.81906,-0.48179 1.7896,-0.70474 2.5498,-1.2749 0.4086,-0.30644 0.48878,-0.91374 0.84994,-1.2749 0.10016,-0.10016 0.3248,0.10017 0.42496,0 1.11989,-1.11988 -1.35569,-2.86521 -2.12483,-4.24966 -3.03383,-5.46089 -5.63083,-10.94293 -9.77424,-15.72378 -7.48694,-8.63877 -18.92422,-17.12511 -29.74767,-21.24834 -1.38204,-0.52649 -2.85283,-0.78904 -4.24967,-1.2749 -1.863526,-0.64818 -3.59852,-1.69682 -5.52457,-2.12483 -1.940886,-0.43131 -3.975467,-0.18808 -5.949535,-0.42497 -3.412601,-0.40951 -7.542153,-1.65923 -11.049137,-0.84993 -3.244735,0.74878 -6.950305,3.06096 -9.774236,4.67463 -1.451232,0.82928 -8.360703,4.80525 -9.774237,5.94954 -10.182906,8.2433 -17.199788,20.81358 -19.973439,33.57238 -2.337334,10.75173 -0.942106,26.26535 2.974767,36.54714 0.94343,2.4765 3.580062,6.6257 4.674635,8.9243 0.65594,1.37748 0.868391,2.97048 1.699867,4.24967 1.038629,1.59789 2.659416,2.74165 3.824701,4.24967 1.249179,1.61658 2.173943,3.46521 3.399735,5.0996 2.568784,3.42505 6.183192,7.36065 9.349269,10.1992 8.060327,7.2265 16.802103,12.01824 26.347942,16.99868 7.300057,3.80872 14.729258,7.82724 22.948208,9.34927 1.81608,0.33631 3.68519,0.25775 5.52457,0.42496 1.27748,0.11614 2.54393,0.49612 3.8247,0.42497 10.03953,-0.55775 22.69373,-10.57428 26.77291,-19.54847 1.29986,-2.85971 0.51965,-7.885 -0.84994,-10.62417 -0.40564,-0.81128 -1.19673,-1.37014 -1.69986,-2.12484 -1.91553,-2.87329 -3.68702,-7.05683 -6.79947,-8.9243 -0.24294,-0.14576 -0.57213,0.0556 -0.84994,0 -1.76478,-0.35296 -7.54752,-1.49029 -8.49933,-2.12483 -6.11193,-4.07462 -12.93297,-7.31642 -19.54847,-10.62417 -1.81598,-0.90799 -6.79947,-2.66027 -6.79947,-5.09961 0,-6.53559 3.98523,-15.8843 8.49933,-20.3984 0.22398,-0.22398 0.62596,-0.20099 0.84994,-0.42497 0.10016,-0.10016 -0.10017,-0.3248 0,-0.42497 0.15406,-0.15406 3.19726,0.42497 3.8247,1.2749 2.74579,-1.01882 6.0877,-1.72356 8.9243,-3.39973 z"
     id="path49" />
  <path
     style="fill:none;stroke:#000000;stroke-width:1px;stroke-linecap:butt;stroke-linejoin:miter;stroke-opacity:1"
     d="m 98.167331,130.03984 c -6.439054,-3.80409 -11.42632,0.18996 -17.423639,3.8247 -3.457088,2.09521 -8.924303,4.74119 -8.924303,9.77424 0,1.56365 1.002837,6.11946 2.549801,7.22443 1.399755,0.99983 5.757479,1.45538 7.224435,1.69987 6.44475,1.07413 10.729363,1.69987 17.423639,1.69987 3.116426,0 6.232846,0 9.349266,0 0.73259,0 1.71202,0.40066 2.12484,-0.42497 4.12142,-8.24285 1.4859,-19.33705 -5.94954,-24.64807 -1.20059,-0.85757 -3.23759,-2.5498 -4.674632,-2.5498 -1.5157,0 -1.400022,0.93334 -2.549801,1.69986 -3.184405,2.12294 -7.028013,3.34438 -10.199203,5.52457 -7.040485,4.84034 0.626639,0.7491 -5.524569,3.8247"
     id="path51" />
  <path
     style="fill:none;stroke:#000000;stroke-width:1px;stroke-linecap:butt;stroke-linejoin:miter;stroke-opacity:1"
     d="m 98.167331,130.03984 c -1.416556,0.42497 -3.113524,0.32811 -4.249668,1.2749 -2.846258,2.37188 -0.07925,19.05968 2.124834,22.52324 0.290329,0.45623 1.47856,2.5498 2.5498,2.5498"
     id="path53" />
</svg>
