<?xml version="1.0" encoding="UTF-8" standalone="no"?>
<svg
   width="320"
   height="320"
   viewBox="0 0 320 320"
   version="1.1"
   xmlns="http://www.w3.org/2000/svg">
  <circle
     style="fill:#b2a95a;fill-opacity:1;stroke-width:5.98411;stroke-linecap:round;stroke-linejoin:round"
     id="path1556"
     cx="160"
     cy="160"
     r="160" />
  <path
     style="fill:#7d76b0;stroke:#000000;stroke-width:1px;stroke-linecap:butt;stroke-linejoin:miter;stroke-opacity:1;fill-opacity:1"
     d="m 81.168659,159.36255 c -0.323911,-2.22017 0.780274,-1.49089 1.2749,-2.97477 0.179182,-0.53754 -0.198954,-1.16932 0,-1.69986 0.427868,-1.14099 1.579874,-1.88485 2.124834,-2.97477 1.860101,-3.7202 0.05757,-0.57849 1.2749,-3.8247 1.064116,-2.83764 3.186439,-6.24555 4.674635,-8.92431 0.649002,-1.1682 1.255132,-2.38508 2.124834,-3.39973 0.33239,-0.38779 0.947929,-0.45757 1.274901,-0.84993 0.991858,-1.19023 1.124729,-2.99954 2.124834,-4.24967 0.375438,-0.4693 0.941529,-0.77485 1.2749,-1.2749 0.423147,-0.63472 0.426787,-1.49012 0.849934,-2.12484 0.384989,-0.57748 1.744725,-2.21455 2.124829,-2.97476 0.20034,-0.40067 0.17649,-0.90218 0.42497,-1.2749 0.33337,-0.50006 0.94153,-0.77485 1.2749,-1.27491 1.26669,-1.90003 2.18766,-4.31249 3.8247,-5.94953 0.22398,-0.22398 0.62596,-0.20099 0.84994,-0.42497 0.75619,-0.75619 1.18447,-1.84453 2.12483,-2.5498 1.34137,-1.00603 0.53057,0.31937 2.12483,-1.2749 0.36116,-0.36115 0.45111,-0.95584 0.84994,-1.2749 0.34979,-0.27983 0.92511,-0.14513 1.2749,-0.42497 4.53298,-3.62638 -2.97477,0.93493 2.12483,-2.12483 2.32008,-1.39205 -0.5551,0.32669 1.69987,-0.42497 0.2918,-0.0973 3.42598,-2.25076 3.8247,-2.5498 5.89393,-4.42044 -2.04532,0.9032 2.97477,-3.39973 0.63897,-1.11904 2.13235,-0.60097 2.97477,-1.274902 0.39882,-0.319061 0.44133,-0.968453 0.84993,-1.274901 0.22665,-0.169986 0.57752,0.07783 0.84993,0 1.16374,-0.332496 2.36191,-0.652203 3.39974,-1.2749 0.34356,-0.206139 0.46983,-0.723233 0.84993,-0.849934 0.53755,-0.179181 1.14096,0.09315 1.69987,0 3.36465,-0.560774 5.58045,-2.537381 9.34927,-1.699867 0.74467,0.165483 1.37237,0.724524 2.12483,0.849934 0.9781,0.163016 1.99471,-0.150778 2.97477,0 0.88549,0.136229 1.68064,0.632644 2.5498,0.849933 3.15281,0.788202 6.22386,1.612177 9.34927,2.549801 1.11886,0.335658 2.35493,0.327534 3.39973,0.849934 0.35837,0.179182 0.49157,0.670752 0.84994,0.849932 0.21055,0.10528 5.44447,0.34181 6.79947,0.84994 0.47822,0.17933 0.79036,0.68842 1.2749,0.84993 1.42302,0.47434 3.25161,0.37559 4.67463,0.84993 5.67959,1.8932 0.39669,0.57754 5.52457,2.5498 0.96253,0.37021 2.02283,0.4533 2.97477,0.84994 1.46193,0.60913 2.90664,1.28544 4.24967,2.12483 0.50964,0.31853 0.78585,0.92558 1.2749,1.2749 1.92287,1.37348 4.38629,2.13451 6.3745,3.39974 2.18838,1.3926 3.90337,3.50814 5.94953,5.0996 1.05488,0.82045 2.3562,1.29 3.39974,2.12483 0.95154,0.76123 1.26317,2.11311 2.12483,2.97477 0.22398,0.22398 0.62596,0.20099 0.84994,0.42497 1.6897,1.6897 3.49046,3.71428 5.0996,5.52456 0.67864,0.76348 0.97756,1.8275 1.69986,2.5498 0.22398,0.22398 0.62596,0.20099 0.84994,0.42497 0.31675,0.31675 0.17648,0.90218 0.42496,1.2749 1.84921,2.77381 3.96195,5.29175 5.94954,8.07437 0.36822,0.5155 0.40198,1.25191 0.84993,1.69987 0.36116,0.36115 0.99159,0.42497 1.2749,0.84993 0.32398,0.48597 0.16377,1.17747 0.42497,1.69987 1.39087,2.78173 4.05011,4.85016 5.94954,7.22443 1.30579,1.63224 2.68695,3.73223 4.24966,5.09961 0.62162,0.54391 1.47284,0.76779 2.12484,1.2749 1.48736,1.15683 2.55049,2.55049 3.8247,3.8247 1.37451,1.37451 3.81165,2.54327 5.52457,3.39973 0.88602,0.44301 2.18832,0.45672 2.97477,0.84994 2.59341,1.29671 5.54147,2.13328 8.07436,3.39973 0.75626,0.37813 1.14427,1.32947 1.69987,1.69987 0.23573,0.15715 0.6496,-0.20033 0.84994,0 0.31675,0.31675 0.10821,0.95815 0.42496,1.2749 1.21623,1.21622 0.53225,-1.06033 1.2749,0.42496 1.06497,2.12994 -1.25946,9.06732 -1.69986,11.04914 -0.12292,0.55313 0.13742,1.15016 0,1.69987 -0.39901,1.59603 -4.15854,8.51948 -5.09961,9.77423 -0.60099,0.80133 -1.67688,1.22893 -2.12483,2.12484 -0.2612,0.5224 -0.0855,1.2246 -0.42497,1.69987 -0.41168,0.57635 -1.19904,0.77407 -1.69986,1.2749 -2.00607,2.00606 0.10764,0.47598 -1.2749,2.5498 -1.03409,1.55113 -2.27372,2.7483 -3.39974,4.24967 -1.00603,1.34137 0.31937,0.53056 -1.2749,2.12483 -0.22398,0.22398 -0.60259,0.22709 -0.84993,0.42497 -1.73935,1.39148 -2.2429,2.99543 -4.24967,4.24966 -0.37987,0.23742 -0.84993,0.28332 -1.2749,0.42497 -0.99159,0.56662 -2.05114,1.02814 -2.97477,1.69987 -0.64806,0.47131 -1.01274,1.28759 -1.69987,1.69987 -0.76823,0.46094 -1.73419,0.4792 -2.5498,0.84993 -1.84802,0.84001 -3.75147,2.08822 -5.52457,2.97477 -0.55017,0.27508 -2.00265,-0.0912 -2.5498,0 -1.61395,0.26899 -2.94071,1.23524 -4.67463,0.84993 -4.96253,-1.10278 -1.2997,-0.0953 -4.67464,-2.5498 -2.38818,-1.73687 -4.97152,-2.70334 -7.22443,-4.67464 -2.31949,-2.02955 -4.83271,-4.43935 -6.79947,-6.79946 -0.52878,-0.63455 -0.61411,-1.62925 -1.2749,-2.12484 -0.35836,-0.26877 -0.93077,-0.13819 -1.2749,-0.42497 -1.76022,-1.46685 -2.48171,-4.15888 -3.8247,-5.94953 -1.33932,-1.78575 -2.74605,-3.59598 -4.24967,-5.0996 -2.05712,-2.05712 0.31991,0.92155 -1.69987,-0.42497 -0.26355,-0.1757 -0.20099,-0.62596 -0.42496,-0.84993 -1.22328,-1.22327 -1.69702,-0.78841 -3.39974,-1.2749 -0.89656,-0.25616 -1.24075,-0.98021 -2.12483,-1.2749 -0.50468,-0.16823 -1.78532,0.33951 -2.12484,0 -0.21248,-0.21249 -0.21248,-0.63745 -0.42496,-0.84994 -0.38714,-0.38714 -4.4282,-0.71565 -5.09961,-0.84993 -3.84395,-0.76879 1.15431,-0.0402 -1.2749,-0.84993 -0.57915,-0.19306 -3.30766,0.0115 -3.39973,0 -3.93833,-0.49229 -15.55084,3.33818 -19.54847,2.97476 -2.46234,-0.22385 -11.35903,-0.49775 -13.59894,0 -0.91941,0.20432 -12.95083,-9.12613 -14.0239,-10.1992 -0.10017,-0.10016 0.10016,-0.3248 0,-0.42496 -0.45072,-0.45072 -1.2671,0.0156 -1.69987,-0.84994 -0.29309,-0.58618 0.51466,-0.38012 -0.42497,-0.84993 -0.60036,-0.30018 -0.86366,-0.0137 -1.2749,-0.42497 -0.11319,-0.11319 -0.01,-2.11022 0,-2.12483 1.97293,-0.98647 0.0721,0.28068 0.84994,-1.2749 0.0257,-0.0515 1.20609,-0.35616 1.2749,-0.42497 0.87927,-0.87927 -1.34365,0.0344 0.42496,-0.84993 1.04668,-0.52334 -0.38363,1.23356 1.2749,-0.42497 1.33013,-1.33012 2.80364,-3.14304 3.8247,-4.67463 0.51545,-0.77317 0.86032,-0.0104 1.2749,-0.42497 0.22398,-0.22398 0.20099,-0.62596 0.42497,-0.84994 0.50944,-0.50943 1.90423,-0.84451 2.5498,-1.2749 0.11787,-0.0786 -0.13438,-0.38017 0,-0.42496 0.40316,-0.13439 0.88033,0.15783 1.2749,0 0.2349,-0.094 3.64335,-2.36845 3.8247,-2.5498 0.10017,-0.10017 -0.1267,-0.36162 0,-0.42497 0.31934,-0.15967 1.86319,-0.16332 2.12484,-0.42497 0.22397,-0.22397 0.20099,-0.62595 0.42496,-0.84993 1.17105,-1.17104 3.1401,-2.10523 4.24967,-3.39973 3.06846,-3.57987 15.86229,-6.38393 14.44887,-10.62418 -0.50505,-1.51514 -1.62177,-3.80036 -2.5498,-5.0996 -0.34932,-0.48905 -0.97672,-0.75309 -1.2749,-1.2749 -0.28977,-0.50711 -0.16376,-1.17747 -0.42496,-1.69987 -0.4119,-0.82378 -2.15099,-2.56287 -2.97477,-2.97476 -0.2534,-0.1267 -0.58953,0.1116 -0.84994,0 -1.04972,-0.44988 -1.85488,-1.47589 -2.97476,-1.69987 -3.2411,-0.64822 -8.83842,0.0169 -11.89907,0.42497 -0.30891,0.0412 -7.04691,0.3362 -7.22444,0.42496 -1.2749,0.63745 0.84993,0.42497 -1.2749,1.2749 -0.39457,0.15783 -0.84993,0 -1.2749,0 -0.42497,0.14166 -0.87424,0.22464 -1.2749,0.42497 -1.79295,0.89647 -3.76896,1.5466 -5.52457,2.5498 -1.5054,0.86023 -2.78879,2.06172 -4.24967,2.97477 -0.99185,0.6199 -1.92635,0.66079 -2.5498,1.69987 -0.23047,0.38411 -0.15619,0.91653 -0.42496,1.2749 -0.19006,0.2534 -0.62596,0.20099 -0.84994,0.42496 -1.08478,1.08478 -2.61718,2.94542 -3.39973,4.24967 -0.98291,1.63817 -1.96912,4.20748 -2.5498,5.94954 -0.566,1.69797 -1.37205,7.32158 -2.5498,8.49933 -0.68621,0.68621 -1.70033,-0.7438 -2.12484,-0.84993 -0.5497,-0.13743 -1.228407,0.3143 -1.699866,0 -0.263553,-0.1757 -0.171565,-0.65988 -0.424967,-0.84994 -0.358363,-0.26877 -0.890782,-0.19449 -1.2749,-0.42496 -0.343565,-0.20614 -0.49157,-0.67075 -0.849934,-0.84994 -1.201987,-0.60099 -2.622713,-0.6739 -3.824701,-1.2749 -1.072638,-0.53631 -2.18048,-1.45601 -3.399734,-1.69986 -1.485628,-0.29713 -1.51062,0.3071 -2.974768,-0.42497 -0.457003,-0.2285 -1.488761,-1.11588 -2.124834,-1.2749 -0.575939,-0.14399 -2.651746,0 -2.974767,0 z"
     id="path59" />
  <path
     style="fill:none;stroke:#000000;stroke-width:1px;stroke-linecap:butt;stroke-linejoin:miter;stroke-opacity:1"
     d="m 60.345286,219.28287 c 0.04955,-3.0855 1.794644,-5.32075 2.974767,-8.07437 2.283353,-5.32782 4.285302,-11.50974 8.499336,-15.72377 0.923482,-0.92348 2.021992,-1.65658 2.974768,-2.5498 5.62635,-5.27471 7.168874,-7.38331 14.873838,-8.92431 1.297549,-0.25951 7.870058,-2.34549 8.499336,-2.97476 0.200331,-0.20033 0,-0.56663 0,-0.84994"
     id="path65" />
  <path
     style="fill:#00c100;fill-opacity:1;stroke:#000000;stroke-width:1px;stroke-linecap:butt;stroke-linejoin:miter;stroke-opacity:1"
     d="m 108.7915,164.03718 c 2.71888,-5.02118 4.60612,-10.42955 7.6494,-15.2988 0.86125,-1.378 1.75481,-1.70277 2.5498,-2.97477 0.40431,-0.64688 0.44563,-1.47795 0.84994,-2.12483 0.31852,-0.50964 0.9143,-0.79411 1.2749,-1.2749 1.55008,-2.06678 3.18747,-4.24998 4.67463,-6.3745 0.47368,-0.67668 0.72235,-1.51089 1.2749,-2.12484 0.74012,-0.82235 1.80558,-1.30619 2.5498,-2.12483 2.94507,-3.23957 0.34945,-1.80944 3.39974,-4.24967 5.12534,-3.4169 0.11921,0.16129 4.67463,-3.8247 0.71514,-0.62575 1.83466,-0.64915 2.5498,-1.2749 6.21952,-5.44208 -1.48608,-0.29501 4.24967,-3.8247 7.06813,-4.34962 12.71354,-10.17083 19.12351,-15.29881 1.49806,-1.19844 2.43212,-3.03116 3.8247,-4.249666 0.62162,-0.543916 1.50748,-0.726144 2.12483,-1.2749 6.88849,-6.123103 -2.13067,0.854797 2.97477,-3.399735 0.796,-0.663333 2.26533,-0.990431 2.97477,-1.699867 1.22462,-1.224626 2.36573,-3.155442 3.8247,-4.249668 0.2534,-0.190051 0.62596,-0.200989 0.84993,-0.424967 0.8001,-0.800095 1.32474,-2.174671 2.12484,-2.974767 0.60052,-0.600525 1.70429,-0.858779 2.12483,-1.699867 0.2612,-0.5224 0.14132,-1.189306 0.42497,-1.699868 0.51187,-0.921376 2.50921,-3.35915 3.39973,-4.249667 0.64138,-0.641374 1.53454,-1.011193 2.12484,-1.699868 0.29152,-0.340112 0.10821,-0.958149 0.42496,-1.2749 0.20033,-0.200331 0.59654,0.126701 0.84994,0 0.1267,-0.06335 -0.10017,-0.324801 0,-0.424967 0.25663,-0.256634 2.14679,0 2.5498,0 0.56662,0 1.44646,-0.506802 1.69986,0 0.21249,0.424967 -0.10624,0.849934 0,1.274901 0.51063,2.042489 1.51396,4.06376 2.97477,5.524568 0.44796,0.447954 1.25192,0.401979 1.69987,0.849933 0.10016,0.100166 -0.13743,0.390611 0,0.424967 2.69153,0.672883 5.71572,-0.913651 8.07437,-1.699867 1.25622,-0.41874 4.90683,-0.540338 3.39973,-2.549801 -1.15209,-1.53613 -0.92962,-0.421654 -2.97476,-1.699867 -0.50965,-0.318526 -0.75956,-0.965692 -1.27491,-1.2749 -2.12483,-1.274901 0,0.63745 -1.2749,0 -1.97637,-0.988189 -5.06456,-2.434799 -7.22443,-2.974768 -0.80795,-0.201986 -2.16845,0 -2.97477,0 -0.71683,0 -3.60751,-0.443781 -3.8247,0.424967 -0.62318,2.492738 -2.16334,5.834015 -1.2749,8.499336 0.0633,0.190051 0.28331,0.283311 0.42497,0.424967 0.14165,0.283311 0.34814,0.542639 0.42496,0.849933 0.0687,0.274853 -0.1267,0.596533 0,0.849934 0.3047,0.609391 7.91554,1.138151 8.92431,0.849933 0.49109,-0.140312 0.80068,-0.660247 1.2749,-0.849933 0.39457,-0.157829 0.8948,0.190051 1.2749,0 1.76861,-0.884305 -0.45431,0.02934 0.42496,-0.849934 0.22398,-0.223977 0.6026,-0.227093 0.84994,-0.424967 1.48672,-1.189378 2.78708,-3.195517 4.67463,-3.824701 0.26877,-0.08959 0.2534,0.723233 0,0.849934 -0.2534,0.126701 -0.60699,-0.145763 -0.84993,0 -2.97233,1.783397 -5.18389,5.359994 -7.6494,7.649402 -3.92605,3.645617 -8.59842,6.80327 -12.74901,10.199203 -5.45468,4.462917 -10.55425,9.252047 -15.72377,14.023907 -2.28598,2.11013 -4.72286,4.03831 -6.79947,6.3745 -1.20521,1.35586 -2.11699,2.96692 -3.39973,4.24967 -1.93845,1.93844 -4.31113,3.69672 -5.94954,5.94953 -0.55891,0.76851 -0.68128,1.80778 -1.2749,2.5498 -0.56662,0.70828 -1.52223,1.02194 -2.12483,1.69987 -0.54876,0.61735 -0.73736,1.4977 -1.2749,2.12484 -1.17337,1.36892 -2.5945,2.50662 -3.8247,3.8247 -1.82725,1.95776 -2.74305,3.59298 -4.67464,5.52456 -4.0999,4.09991 -8.88198,7.54867 -12.749,11.89908 -2.93039,3.29668 -5.34956,7.21816 -8.07437,10.62416 -0.15346,0.19183 -1.57013,2.1606 -1.69987,2.54981 -0.0896,0.26877 0.15715,0.6142 0,0.84993 -0.1757,0.26355 -0.67423,0.16141 -0.84993,0.42497 -2.0949,3.14234 0.51945,1.18041 -2.12484,3.8247 -1.61131,1.61131 -2.31209,1.21727 -3.8247,2.12483 -1.19861,0.71917 -2.20509,1.83301 -3.39973,2.5498 -0.24294,0.14576 -0.59653,-0.1267 -0.84994,0 -1.01196,0.50599 -1.56282,1.13588 -2.5498,1.69987 -1.18272,0.67584 -4.16788,1.19312 -5.0996,2.12483 -0.21996,0.21996 -0.62997,1.05494 -0.84993,1.2749 -0.21249,0.21249 -1.06242,-0.21248 -1.274902,0 -0.200331,0.20034 0.200332,0.64961 0,0.84994 -0.409489,0.40949 -1.580842,0.15297 -2.124834,0.42496 -1.813562,0.90679 -2.249824,1.74153 -4.674635,2.5498 -1.468192,0.4894 -7.892574,6.13134 -8.499336,5.52457 4.682828,-7.4858 11.998774,-20.19521 24.223107,-28.04781"
     id="path61" />
  <path
     style="fill:none;stroke:#000000;stroke-width:1px;stroke-linecap:butt;stroke-linejoin:miter;stroke-opacity:1"
     d="m 65.444887,165.73705 c -0.329957,2.76311 1.118587,4.28385 2.124834,6.79947 0.665464,1.66366 1.056642,3.42722 1.699867,5.0996 3.105195,8.07351 7.522402,16.17072 12.324037,23.37318 2.862019,4.29302 6.8952,7.56937 10.199204,11.4741 0.787124,0.93024 1.305136,2.0731 2.124834,2.97477 1.682793,1.85107 3.016763,1.95777 5.099601,3.39973 0.113599,0.0787 3.572656,3.06123 4.249666,3.39974 0.5224,0.2612 1.16303,0.19489 1.69987,0.42496 1.28897,0.55242 2.59456,1.84686 3.8247,2.5498 0.59365,0.33923 1.39389,1.2749 2.12483,1.2749"
     id="path69" />
  <path
     style="fill:none;stroke:#000000;stroke-width:1px;stroke-linecap:butt;stroke-linejoin:miter;stroke-opacity:1"
     d="m 113.46614,196.75963 c -0.59817,6.94077 1.45194,13.9003 0.84993,20.82337 -0.16141,1.85619 -0.29419,3.74619 -0.84993,5.52457 -0.17927,0.57364 -0.94153,0.77484 -1.2749,1.2749 -1.61152,2.41727 -2.84541,6.04191 -5.52457,7.6494 -0.76824,0.46094 -1.83308,0.31239 -2.5498,0.84994 -0.50681,0.3801 -0.36895,1.28758 -0.84994,1.69986 -1.32741,1.13778 -2.76687,0.68178 -4.249666,1.2749 -0.766909,0.30677 -1.351438,0.98488 -2.124834,1.2749 -0.624993,0.23438 -6.049484,0.25 -6.799469,0 -1.530825,-0.51027 -2.853547,-2.61075 -3.824701,-3.8247 -5.819478,-7.27435 -8.541903,-18.35847 -2.549801,-26.34794 1.427618,-1.90349 8.540699,-5.32932 11.049137,-6.3745 4.147799,-1.72825 8.411664,-1.78439 12.749004,-2.5498 2.50142,-0.44143 3.52676,-1.11338 5.94954,-1.2749 3.50928,-0.23395 7.6935,-0.3703 11.04913,0.84993 1.65931,0.60339 3.37288,3.63828 4.24967,5.0996 1.75636,2.92726 3.39973,6.40214 3.39973,9.77424 0,6.65279 0.11928,6.99119 -6.3745,9.77424 -0.46945,0.20119 -0.79036,0.68842 -1.2749,0.84993 -0.40316,0.13439 -0.8948,-0.19005 -1.2749,0 -2.95046,1.47523 0.0215,1.2749 -2.12483,1.2749"
     id="path71" />
</svg>
